G04 #@! TF.GenerationSoftware,KiCad,Pcbnew,9.0.0*
G04 #@! TF.CreationDate,2025-04-11T21:54:49+02:00*
G04 #@! TF.ProjectId,eConBadge,65436f6e-4261-4646-9765-2e6b69636164,rev?*
G04 #@! TF.SameCoordinates,Original*
G04 #@! TF.FileFunction,Copper,L1,Top*
G04 #@! TF.FilePolarity,Positive*
%FSLAX46Y46*%
G04 Gerber Fmt 4.6, Leading zero omitted, Abs format (unit mm)*
G04 Created by KiCad (PCBNEW 9.0.0) date 2025-04-11 21:54:49*
%MOMM*%
%LPD*%
G01*
G04 APERTURE LIST*
G04 #@! TA.AperFunction,ComponentPad*
%ADD10C,1.400000*%
G04 #@! TD*
G04 #@! TA.AperFunction,ComponentPad*
%ADD11C,1.550000*%
G04 #@! TD*
G04 #@! TA.AperFunction,ComponentPad*
%ADD12C,1.600000*%
G04 #@! TD*
G04 #@! TA.AperFunction,ComponentPad*
%ADD13R,1.980000X1.980000*%
G04 #@! TD*
G04 #@! TA.AperFunction,ComponentPad*
%ADD14C,1.980000*%
G04 #@! TD*
G04 #@! TA.AperFunction,ComponentPad*
%ADD15R,1.700000X1.700000*%
G04 #@! TD*
G04 #@! TA.AperFunction,ComponentPad*
%ADD16O,1.700000X1.700000*%
G04 #@! TD*
G04 #@! TA.AperFunction,ComponentPad*
%ADD17R,1.500000X1.500000*%
G04 #@! TD*
G04 #@! TA.AperFunction,ComponentPad*
%ADD18R,1.200000X2.000000*%
G04 #@! TD*
G04 #@! TA.AperFunction,ComponentPad*
%ADD19O,1.200000X2.000000*%
G04 #@! TD*
G04 #@! TA.AperFunction,ComponentPad*
%ADD20O,1.400000X1.400000*%
G04 #@! TD*
G04 #@! TA.AperFunction,Conductor*
%ADD21C,0.300000*%
G04 #@! TD*
G04 #@! TA.AperFunction,Conductor*
%ADD22C,0.500000*%
G04 #@! TD*
G04 #@! TA.AperFunction,Conductor*
%ADD23C,1.500000*%
G04 #@! TD*
G04 #@! TA.AperFunction,Conductor*
%ADD24C,0.200000*%
G04 #@! TD*
G04 APERTURE END LIST*
D10*
G04 #@! TO.P,74AHCT125 ,14*
G04 #@! TO.N,VCC_5V*
X163120000Y-48530000D03*
G04 #@! TO.P,74AHCT125 ,13*
G04 #@! TO.N,GND*
X160580000Y-48530000D03*
G04 #@! TO.P,74AHCT125 ,12*
G04 #@! TO.N,LED_DATA_3V*
X158040000Y-48530000D03*
G04 #@! TO.P,74AHCT125 ,11*
G04 #@! TO.N,LED_DATA_5V_SHIFT*
X155500000Y-48530000D03*
G04 #@! TO.P,74AHCT125 ,10*
G04 #@! TO.N,GND*
X152960000Y-48530000D03*
G04 #@! TO.P,74AHCT125 ,9*
G04 #@! TO.N,N/C*
X150420000Y-48530000D03*
G04 #@! TO.P,74AHCT125 ,8*
X147880000Y-48530000D03*
G04 #@! TO.P,74AHCT125 ,7*
G04 #@! TO.N,GND*
X147880000Y-56470000D03*
G04 #@! TO.P,74AHCT125 ,6*
G04 #@! TO.N,N/C*
X150420000Y-56470000D03*
G04 #@! TO.P,74AHCT125 ,5*
X152960000Y-56470000D03*
G04 #@! TO.P,74AHCT125 ,1*
G04 #@! TO.N,GND*
X163120000Y-56470000D03*
G04 #@! TO.P,74AHCT125 ,2*
G04 #@! TO.N,N/C*
X160580000Y-56470000D03*
G04 #@! TO.P,74AHCT125 ,3*
X158040000Y-56470000D03*
G04 #@! TO.P,74AHCT125 ,4*
G04 #@! TO.N,GND*
X155500000Y-56470000D03*
G04 #@! TD*
D11*
G04 #@! TO.P,BackBtn,2*
G04 #@! TO.N,VCC3.3*
X132300000Y-84200000D03*
G04 #@! TO.P,BackBtn,1*
G04 #@! TO.N,BTN_BACK*
X124340000Y-79700000D03*
G04 #@! TO.N,N/C*
X132300000Y-79700000D03*
G04 #@! TO.P,BackBtn,2*
X124340000Y-84200000D03*
G04 #@! TD*
D12*
G04 #@! TO.P,OLED,2*
G04 #@! TO.N,VCC3.3*
X167940000Y-69100000D03*
G04 #@! TO.P,OLED,1*
G04 #@! TO.N,GND*
X165400000Y-69100000D03*
G04 #@! TO.P,OLED,3*
G04 #@! TO.N,OLED_CLK*
X170480000Y-69100000D03*
G04 #@! TO.P,OLED,4*
G04 #@! TO.N,OLED_SDA*
X173020000Y-69100000D03*
G04 #@! TD*
D13*
G04 #@! TO.P,LED_EN_MOSFET,1*
G04 #@! TO.N,LED_EN*
X180322500Y-41475000D03*
D14*
G04 #@! TO.P,LED_EN_MOSFET,2*
G04 #@! TO.N,LED_GND*
X180322500Y-44015000D03*
G04 #@! TO.P,LED_EN_MOSFET,3*
G04 #@! TO.N,GND*
X180322500Y-46555000D03*
G04 #@! TD*
D15*
G04 #@! TO.P,LEDConnector,1*
G04 #@! TO.N,LED_GND*
X188800000Y-55060000D03*
D16*
G04 #@! TO.P,LEDConnector,2*
G04 #@! TO.N,LED_DATA_5V_OUT*
X188800000Y-57600000D03*
G04 #@! TO.P,LEDConnector,3*
G04 #@! TO.N,VCC_5V*
X188800000Y-60140000D03*
G04 #@! TD*
D12*
G04 #@! TO.P,4005-DCDC,1*
G04 #@! TO.N,VCC_5V*
X144200000Y-35300000D03*
G04 #@! TO.P,4005-DCDC,2*
G04 #@! TO.N,GND*
X144200000Y-18100000D03*
G04 #@! TO.P,4005-DCDC,3*
G04 #@! TO.N,BATT_IN_REG*
X184400000Y-35300000D03*
G04 #@! TO.P,4005-DCDC,4*
G04 #@! TO.N,BATT_IN_GND*
X184400000Y-18100000D03*
G04 #@! TD*
D15*
G04 #@! TO.P,EInkConnector,1*
G04 #@! TO.N,VCC3.3*
X152540000Y-89800000D03*
D16*
G04 #@! TO.P,EInkConnector,2*
G04 #@! TO.N,GND*
X150000000Y-89800000D03*
G04 #@! TO.P,EInkConnector,3*
G04 #@! TO.N,EINK_DIN*
X147460000Y-89800000D03*
G04 #@! TO.P,EInkConnector,4*
G04 #@! TO.N,EINK_CLK*
X144920000Y-89800000D03*
G04 #@! TO.P,EInkConnector,5*
G04 #@! TO.N,EINK_CS*
X142380000Y-89800000D03*
G04 #@! TO.P,EInkConnector,6*
G04 #@! TO.N,EINK_DC*
X139840000Y-89800000D03*
G04 #@! TO.P,EInkConnector,7*
G04 #@! TO.N,EINK_RESET*
X137300000Y-89800000D03*
G04 #@! TO.P,EInkConnector,8*
G04 #@! TO.N,EINK_BUSY*
X134760000Y-89800000D03*
G04 #@! TD*
D15*
G04 #@! TO.P,BATT-,1*
G04 #@! TO.N,BATT_IN_VCC*
X195200000Y-23300000D03*
D16*
G04 #@! TO.P,BATT-,2*
G04 #@! TO.N,BATT_IN_GND*
X195200000Y-20760000D03*
G04 #@! TD*
D17*
G04 #@! TO.P,SwitchOnOff,1*
G04 #@! TO.N,BATT_IN_VCC*
X190500000Y-32700000D03*
D12*
G04 #@! TO.P,SwitchOnOff,2*
G04 #@! TO.N,BATT_IN_REG*
X190500000Y-35240000D03*
G04 #@! TO.P,SwitchOnOff,3*
G04 #@! TO.N,N/C*
X190500000Y-30160000D03*
G04 #@! TD*
D18*
G04 #@! TO.P,ESP32,1*
G04 #@! TO.N,VCC3.3*
X170020000Y-39800000D03*
D19*
G04 #@! TO.P,ESP32,2*
G04 #@! TO.N,N/C*
X167480000Y-39800000D03*
G04 #@! TO.P,ESP32,3*
X164940000Y-39800000D03*
G04 #@! TO.P,ESP32,4*
X162400000Y-39800000D03*
G04 #@! TO.P,ESP32,5*
G04 #@! TO.N,BATT_V_MEASURE*
X159860000Y-39800000D03*
G04 #@! TO.P,ESP32,6*
G04 #@! TO.N,N/C*
X157320000Y-39800000D03*
G04 #@! TO.P,ESP32,7*
G04 #@! TO.N,LED_EN*
X154780000Y-39800000D03*
G04 #@! TO.P,ESP32,8*
G04 #@! TO.N,LED_DATA_3V*
X152240000Y-39800000D03*
G04 #@! TO.P,ESP32,9*
G04 #@! TO.N,N/C*
X149700000Y-39800000D03*
G04 #@! TO.P,ESP32,10*
G04 #@! TO.N,SD_MISO*
X147160000Y-39800000D03*
G04 #@! TO.P,ESP32,11*
G04 #@! TO.N,SD_CLK*
X144620000Y-39800000D03*
G04 #@! TO.P,ESP32,12*
G04 #@! TO.N,SD_MOSI*
X142080000Y-39800000D03*
G04 #@! TO.P,ESP32,13*
G04 #@! TO.N,N/C*
X139540000Y-39800000D03*
G04 #@! TO.P,ESP32,14*
G04 #@! TO.N,GND*
X137000000Y-39800000D03*
G04 #@! TO.P,ESP32,15*
G04 #@! TO.N,SD_CS*
X134460000Y-39800000D03*
G04 #@! TO.P,ESP32,16*
G04 #@! TO.N,N/C*
X131920000Y-39800000D03*
G04 #@! TO.P,ESP32,17*
X129380000Y-39800000D03*
G04 #@! TO.P,ESP32,18*
X126840000Y-39800000D03*
G04 #@! TO.P,ESP32,19*
G04 #@! TO.N,VCC_5V*
X124300000Y-39800000D03*
G04 #@! TO.P,ESP32,20*
G04 #@! TO.N,N/C*
X124302720Y-65196320D03*
G04 #@! TO.P,ESP32,21*
X126842720Y-65196320D03*
G04 #@! TO.P,ESP32,22*
X129380000Y-65200000D03*
G04 #@! TO.P,ESP32,23*
G04 #@! TO.N,BTN_BACK*
X131920000Y-65200000D03*
G04 #@! TO.P,ESP32,24*
G04 #@! TO.N,BTN_DOWN*
X134460000Y-65200000D03*
G04 #@! TO.P,ESP32,25*
G04 #@! TO.N,BTN_UP*
X137000000Y-65200000D03*
G04 #@! TO.P,ESP32,26*
G04 #@! TO.N,BTN_ENTER*
X139540000Y-65200000D03*
G04 #@! TO.P,ESP32,27*
G04 #@! TO.N,EINK_BUSY*
X142080000Y-65200000D03*
G04 #@! TO.P,ESP32,28*
G04 #@! TO.N,EINK_RESET*
X144620000Y-65200000D03*
G04 #@! TO.P,ESP32,29*
G04 #@! TO.N,EINK_DC*
X147160000Y-65200000D03*
G04 #@! TO.P,ESP32,30*
G04 #@! TO.N,EINK_CS*
X149700000Y-65200000D03*
G04 #@! TO.P,ESP32,31*
G04 #@! TO.N,EINK_CLK*
X152240000Y-65200000D03*
G04 #@! TO.P,ESP32,32*
G04 #@! TO.N,GND*
X154780000Y-65200000D03*
G04 #@! TO.P,ESP32,33*
G04 #@! TO.N,EINK_DIN*
X157320000Y-65200000D03*
G04 #@! TO.P,ESP32,34*
G04 #@! TO.N,N/C*
X159860000Y-65200000D03*
G04 #@! TO.P,ESP32,35*
X162400000Y-65200000D03*
G04 #@! TO.P,ESP32,36*
G04 #@! TO.N,OLED_CLK*
X164940000Y-65200000D03*
G04 #@! TO.P,ESP32,37*
G04 #@! TO.N,OLED_SDA*
X167480000Y-65200000D03*
G04 #@! TO.P,ESP32,38*
G04 #@! TO.N,GND*
X170020000Y-65200000D03*
G04 #@! TD*
D11*
G04 #@! TO.P,DownBtn,2*
G04 #@! TO.N,VCC3.3*
X143300000Y-84200000D03*
G04 #@! TO.P,DownBtn,1*
G04 #@! TO.N,BTN_DOWN*
X135340000Y-79700000D03*
G04 #@! TO.N,N/C*
X143300000Y-79700000D03*
G04 #@! TO.P,DownBtn,2*
X135340000Y-84200000D03*
G04 #@! TD*
G04 #@! TO.P,UpBtn,1*
G04 #@! TO.N,BTN_UP*
X135340000Y-70700000D03*
G04 #@! TO.N,N/C*
X143300000Y-70700000D03*
G04 #@! TO.P,UpBtn,2*
X135340000Y-75200000D03*
G04 #@! TO.N,GND*
X143300000Y-75200000D03*
G04 #@! TD*
G04 #@! TO.P,EnterBtn,2*
G04 #@! TO.N,VCC3.3*
X154300000Y-84200000D03*
G04 #@! TO.P,EnterBtn,1*
G04 #@! TO.N,BTN_ENTER*
X146340000Y-79700000D03*
G04 #@! TO.N,N/C*
X154300000Y-79700000D03*
G04 #@! TO.P,EnterBtn,2*
X146340000Y-84200000D03*
G04 #@! TD*
D12*
G04 #@! TO.P,SDCardReader,1*
G04 #@! TO.N,VCC3.3*
X125480000Y-34920000D03*
G04 #@! TO.P,SDCardReader,2*
G04 #@! TO.N,SD_CS*
X128020000Y-34920000D03*
G04 #@! TO.P,SDCardReader,3*
G04 #@! TO.N,SD_MOSI*
X130560000Y-34920000D03*
G04 #@! TO.P,SDCardReader,4*
G04 #@! TO.N,SD_CLK*
X133100000Y-34920000D03*
G04 #@! TO.P,SDCardReader,5*
G04 #@! TO.N,SD_MISO*
X135640000Y-34920000D03*
G04 #@! TO.P,SDCardReader,6*
G04 #@! TO.N,GND*
X138180000Y-34920000D03*
G04 #@! TD*
D10*
G04 #@! TO.P,10K LED_MOSFET,1*
G04 #@! TO.N,GND*
X174900000Y-49110000D03*
D20*
G04 #@! TO.P,10K LED_MOSFET,2*
G04 #@! TO.N,LED_EN*
X174900000Y-41490000D03*
G04 #@! TD*
D10*
G04 #@! TO.P,R2 20K,1*
G04 #@! TO.N,BATT_V_MEASURE*
X165110000Y-18100000D03*
D20*
G04 #@! TO.P,R2 20K,2*
G04 #@! TO.N,GND*
X157490000Y-18100000D03*
G04 #@! TD*
D10*
G04 #@! TO.P,330 LED_DATA_R,1*
G04 #@! TO.N,LED_DATA_5V_OUT*
X183310000Y-57500000D03*
D20*
G04 #@! TO.P,330 LED_DATA_R,2*
G04 #@! TO.N,LED_DATA_5V_SHIFT*
X175690000Y-57500000D03*
G04 #@! TD*
D10*
G04 #@! TO.P,R1 220K,1*
G04 #@! TO.N,BATT_IN_REG*
X176720000Y-18100000D03*
D20*
G04 #@! TO.P,R1 220K,2*
G04 #@! TO.N,BATT_V_MEASURE*
X169100000Y-18100000D03*
G04 #@! TD*
D21*
G04 #@! TO.N,OLED_CLK*
X168880000Y-67500000D02*
X170480000Y-69100000D01*
X164940000Y-66440000D02*
X166000000Y-67500000D01*
X166000000Y-67500000D02*
X168880000Y-67500000D01*
X164940000Y-65200000D02*
X164940000Y-66440000D01*
G04 #@! TO.N,SD_CS*
X132160000Y-37500000D02*
X134460000Y-39800000D01*
X130000000Y-37500000D02*
X132160000Y-37500000D01*
X128020000Y-35520000D02*
X130000000Y-37500000D01*
X128020000Y-34920000D02*
X128020000Y-35520000D01*
D22*
G04 #@! TO.N,VCC_5V*
X123500000Y-39000000D02*
X124300000Y-39800000D01*
X123500000Y-34500000D02*
X123500000Y-39000000D01*
X125000000Y-33000000D02*
X123500000Y-34500000D01*
X144200000Y-35300000D02*
X141900000Y-33000000D01*
X141900000Y-33000000D02*
X125000000Y-33000000D01*
D21*
G04 #@! TO.N,LED_DATA_5V_SHIFT*
X157970000Y-51000000D02*
X155500000Y-48530000D01*
X169190000Y-51000000D02*
X157970000Y-51000000D01*
X175690000Y-57500000D02*
X169190000Y-51000000D01*
G04 #@! TO.N,EINK_RESET*
X147300000Y-86000000D02*
X141100000Y-86000000D01*
X148300000Y-85000000D02*
X147300000Y-86000000D01*
X148300000Y-70700000D02*
X148300000Y-85000000D01*
X144620000Y-67020000D02*
X148300000Y-70700000D01*
X141100000Y-86000000D02*
X137300000Y-89800000D01*
X144620000Y-65200000D02*
X144620000Y-67020000D01*
G04 #@! TO.N,EINK_BUSY*
X139060000Y-85500000D02*
X134760000Y-89800000D01*
X146851461Y-85500000D02*
X139060000Y-85500000D01*
X147577513Y-71077513D02*
X147577513Y-84773948D01*
X147577513Y-84773948D02*
X146851461Y-85500000D01*
X142080000Y-65200000D02*
X142080000Y-65580000D01*
X142080000Y-65580000D02*
X147577513Y-71077513D01*
G04 #@! TO.N,EINK_CLK*
X148000000Y-88200000D02*
X146500000Y-88200000D01*
X146500000Y-88200000D02*
X144920000Y-89780000D01*
X152240000Y-83960000D02*
X148000000Y-88200000D01*
X152240000Y-65200000D02*
X152240000Y-83960000D01*
X144920000Y-89780000D02*
X144920000Y-89800000D01*
G04 #@! TO.N,BTN_UP*
X136800000Y-65200000D02*
X137000000Y-65200000D01*
X136000000Y-66000000D02*
X136800000Y-65200000D01*
X136000000Y-70040000D02*
X136000000Y-66000000D01*
X135340000Y-70700000D02*
X136000000Y-70040000D01*
G04 #@! TO.N,BTN_DOWN*
X134000000Y-78360000D02*
X134000000Y-65660000D01*
X135340000Y-79700000D02*
X134000000Y-78360000D01*
X134000000Y-65660000D02*
X134460000Y-65200000D01*
G04 #@! TO.N,VCC_5V*
X170530000Y-48530000D02*
X163120000Y-48530000D01*
X182140000Y-60140000D02*
X170530000Y-48530000D01*
X188800000Y-60140000D02*
X182140000Y-60140000D01*
G04 #@! TO.N,LED_DATA_3V*
X152240000Y-39800000D02*
X152240000Y-42730000D01*
X152240000Y-42730000D02*
X158040000Y-48530000D01*
G04 #@! TO.N,SD_MOSI*
X133740000Y-38100000D02*
X140400000Y-38100000D01*
X140400000Y-38100000D02*
X142080000Y-39780000D01*
X130560000Y-34920000D02*
X133740000Y-38100000D01*
X142080000Y-39780000D02*
X142080000Y-39800000D01*
D23*
G04 #@! TO.N,VCC_5V*
X192000000Y-48500000D02*
X192000000Y-58000000D01*
X178800000Y-35300000D02*
X192000000Y-48500000D01*
X144200000Y-35300000D02*
X178800000Y-35300000D01*
X189860000Y-60140000D02*
X188800000Y-60140000D01*
X192000000Y-58000000D02*
X189860000Y-60140000D01*
D24*
G04 #@! TO.N,LED_EN*
X180297500Y-41500000D02*
X180322500Y-41475000D01*
D21*
X156490000Y-41490000D02*
X175100000Y-41490000D01*
D24*
X154780000Y-39800000D02*
X154800000Y-39800000D01*
D21*
X174900000Y-41490000D02*
X174910000Y-41500000D01*
X154800000Y-39800000D02*
X156490000Y-41490000D01*
X174910000Y-41500000D02*
X180297500Y-41500000D01*
D23*
G04 #@! TO.N,LED_GND*
X180322500Y-44015000D02*
X180765000Y-44015000D01*
X180765000Y-44015000D02*
X188800000Y-52050000D01*
X188800000Y-52050000D02*
X188800000Y-55060000D01*
D24*
G04 #@! TO.N,BATT_V_MEASURE*
X169100000Y-18100000D02*
X165110000Y-18100000D01*
D23*
G04 #@! TO.N,BATT_IN_GND*
X192540000Y-18100000D02*
X184400000Y-18100000D01*
X195200000Y-20760000D02*
X192540000Y-18100000D01*
G04 #@! TO.N,BATT_IN_VCC*
X195200000Y-23300000D02*
X195200000Y-29300000D01*
X191800000Y-32700000D02*
X190500000Y-32700000D01*
X195200000Y-29300000D02*
X191800000Y-32700000D01*
D21*
G04 #@! TO.N,BATT_IN_REG*
X176720000Y-27620000D02*
X176720000Y-18100000D01*
D23*
X190500000Y-35240000D02*
X184460000Y-35240000D01*
D24*
X184460000Y-35240000D02*
X184400000Y-35300000D01*
D21*
X184400000Y-35300000D02*
X176720000Y-27620000D01*
G04 #@! TO.N,BTN_BACK*
X124340000Y-79700000D02*
X124340000Y-75460000D01*
X124340000Y-75460000D02*
X131920000Y-67880000D01*
X131920000Y-67880000D02*
X131920000Y-65200000D01*
G04 #@! TO.N,BTN_ENTER*
X146340000Y-79700000D02*
X146000000Y-79700000D01*
X146000000Y-79700000D02*
X139540000Y-73240000D01*
X139540000Y-73240000D02*
X139540000Y-65200000D01*
G04 #@! TO.N,EINK_DC*
X147419743Y-86800000D02*
X142840000Y-86800000D01*
X147160000Y-68560000D02*
X149012675Y-70412675D01*
X149012675Y-85207068D02*
X147419743Y-86800000D01*
X147160000Y-65200000D02*
X147160000Y-68560000D01*
X149012675Y-70412675D02*
X149012675Y-85207068D01*
X142840000Y-86800000D02*
X139840000Y-89800000D01*
G04 #@! TO.N,EINK_CS*
X144680000Y-87500000D02*
X142380000Y-89800000D01*
X149700000Y-85500000D02*
X147700000Y-87500000D01*
X149700000Y-65200000D02*
X149700000Y-85500000D01*
X147700000Y-87500000D02*
X144680000Y-87500000D01*
G04 #@! TO.N,EINK_DIN*
X153100000Y-69420000D02*
X153100000Y-84100000D01*
X147460000Y-89740000D02*
X147460000Y-89800000D01*
X153100000Y-84100000D02*
X147460000Y-89740000D01*
X157320000Y-65200000D02*
X153100000Y-69420000D01*
G04 #@! TO.N,OLED_SDA*
X171220000Y-67300000D02*
X173020000Y-69100000D01*
X169600000Y-67300000D02*
X171220000Y-67300000D01*
D24*
X167480000Y-65200000D02*
X167500000Y-65200000D01*
D21*
X167500000Y-65200000D02*
X169600000Y-67300000D01*
G04 #@! TO.N,LED_DATA_3V*
X152240000Y-39840000D02*
X152440000Y-39840000D01*
D24*
X152240000Y-39800000D02*
X152240000Y-39840000D01*
D21*
G04 #@! TO.N,LED_DATA_5V_OUT*
X183310000Y-57500000D02*
X188700000Y-57500000D01*
X188700000Y-57500000D02*
X188800000Y-57600000D01*
G04 #@! TO.N,SD_CLK*
X142400000Y-37600000D02*
X144600000Y-39800000D01*
X133100000Y-34920000D02*
X135780000Y-37600000D01*
X135780000Y-37600000D02*
X142400000Y-37600000D01*
G04 #@! TO.N,SD_MISO*
X144360000Y-37000000D02*
X147160000Y-39800000D01*
X137720000Y-37000000D02*
X144360000Y-37000000D01*
X135640000Y-34920000D02*
X137720000Y-37000000D01*
G04 #@! TD*
G04 #@! TA.AperFunction,Conductor*
G04 #@! TO.N,VCC3.3*
G36*
X197687343Y-15319707D02*
G01*
X197756584Y-15374926D01*
X197795011Y-15454718D01*
X197800000Y-15499000D01*
X197800000Y-98500208D01*
X197780293Y-98586551D01*
X197725074Y-98655792D01*
X197645282Y-98694219D01*
X197600209Y-98699206D01*
X122497732Y-98400785D01*
X122411468Y-98380735D01*
X122342447Y-98325242D01*
X122304338Y-98245297D01*
X122299524Y-98202266D01*
X122281733Y-90810129D01*
X122279053Y-89696531D01*
X133709500Y-89696531D01*
X133709500Y-89903468D01*
X133749869Y-90106416D01*
X133749870Y-90106419D01*
X133829056Y-90297593D01*
X133829058Y-90297596D01*
X133829059Y-90297598D01*
X133944023Y-90469655D01*
X134090345Y-90615977D01*
X134262402Y-90730941D01*
X134262404Y-90730942D01*
X134262406Y-90730943D01*
X134311245Y-90751172D01*
X134453580Y-90810130D01*
X134555057Y-90830315D01*
X134656532Y-90850500D01*
X134656535Y-90850500D01*
X134863468Y-90850500D01*
X134950445Y-90833198D01*
X135066420Y-90810130D01*
X135257598Y-90730941D01*
X135429655Y-90615977D01*
X135575977Y-90469655D01*
X135690941Y-90297598D01*
X135770130Y-90106420D01*
X135793198Y-89990445D01*
X135810500Y-89903468D01*
X135810500Y-89696531D01*
X135770131Y-89493585D01*
X135770130Y-89493584D01*
X135770130Y-89493580D01*
X135765047Y-89481308D01*
X135760084Y-89469326D01*
X135745249Y-89382013D01*
X135769767Y-89296912D01*
X135803218Y-89252462D01*
X139146895Y-85908786D01*
X139221884Y-85861667D01*
X139287609Y-85850500D01*
X140273390Y-85850500D01*
X140359733Y-85870207D01*
X140428974Y-85925426D01*
X140467401Y-86005218D01*
X140467401Y-86093782D01*
X140428974Y-86173574D01*
X140414104Y-86190214D01*
X137847539Y-88756777D01*
X137772550Y-88803896D01*
X137684544Y-88813812D01*
X137630674Y-88799916D01*
X137606420Y-88789870D01*
X137606415Y-88789869D01*
X137403468Y-88749500D01*
X137403465Y-88749500D01*
X137196535Y-88749500D01*
X137196532Y-88749500D01*
X136993583Y-88789869D01*
X136993580Y-88789870D01*
X136802406Y-88869056D01*
X136802398Y-88869061D01*
X136642908Y-88975627D01*
X136642902Y-88975632D01*
X136630345Y-88984023D01*
X136484023Y-89130345D01*
X136475632Y-89142902D01*
X136475627Y-89142908D01*
X136369061Y-89302398D01*
X136369056Y-89302406D01*
X136289870Y-89493580D01*
X136289869Y-89493583D01*
X136249500Y-89696531D01*
X136249500Y-89903468D01*
X136289869Y-90106416D01*
X136289870Y-90106419D01*
X136369056Y-90297593D01*
X136369058Y-90297596D01*
X136369059Y-90297598D01*
X136484023Y-90469655D01*
X136630345Y-90615977D01*
X136802402Y-90730941D01*
X136802404Y-90730942D01*
X136802406Y-90730943D01*
X136851245Y-90751172D01*
X136993580Y-90810130D01*
X137095057Y-90830315D01*
X137196532Y-90850500D01*
X137196535Y-90850500D01*
X137403468Y-90850500D01*
X137490445Y-90833198D01*
X137606420Y-90810130D01*
X137797598Y-90730941D01*
X137969655Y-90615977D01*
X138115977Y-90469655D01*
X138230941Y-90297598D01*
X138310130Y-90106420D01*
X138333198Y-89990445D01*
X138350500Y-89903468D01*
X138350500Y-89696531D01*
X138310131Y-89493585D01*
X138310130Y-89493584D01*
X138310130Y-89493580D01*
X138305047Y-89481308D01*
X138300084Y-89469326D01*
X138285249Y-89382013D01*
X138309767Y-89296912D01*
X138343218Y-89252462D01*
X141186896Y-86408786D01*
X141261885Y-86361667D01*
X141327610Y-86350500D01*
X142313390Y-86350500D01*
X142399733Y-86370207D01*
X142468974Y-86425426D01*
X142507401Y-86505218D01*
X142507401Y-86593782D01*
X142468974Y-86673574D01*
X142454104Y-86690214D01*
X140387539Y-88756777D01*
X140312550Y-88803896D01*
X140224544Y-88813812D01*
X140170674Y-88799916D01*
X140146420Y-88789870D01*
X140146415Y-88789869D01*
X139943468Y-88749500D01*
X139943465Y-88749500D01*
X139736535Y-88749500D01*
X139736532Y-88749500D01*
X139533583Y-88789869D01*
X139533580Y-88789870D01*
X139342406Y-88869056D01*
X139342398Y-88869061D01*
X139182909Y-88975626D01*
X139182902Y-88975632D01*
X139170345Y-88984023D01*
X139024023Y-89130345D01*
X139015632Y-89142902D01*
X139015626Y-89142909D01*
X138909061Y-89302398D01*
X138909056Y-89302406D01*
X138829870Y-89493580D01*
X138829869Y-89493583D01*
X138789500Y-89696531D01*
X138789500Y-89903468D01*
X138829869Y-90106416D01*
X138829870Y-90106419D01*
X138909056Y-90297593D01*
X138909058Y-90297596D01*
X138909059Y-90297598D01*
X139024023Y-90469655D01*
X139170345Y-90615977D01*
X139342402Y-90730941D01*
X139342404Y-90730942D01*
X139342406Y-90730943D01*
X139391245Y-90751172D01*
X139533580Y-90810130D01*
X139635057Y-90830315D01*
X139736532Y-90850500D01*
X139736535Y-90850500D01*
X139943468Y-90850500D01*
X140030445Y-90833198D01*
X140146420Y-90810130D01*
X140337598Y-90730941D01*
X140509655Y-90615977D01*
X140655977Y-90469655D01*
X140770941Y-90297598D01*
X140850130Y-90106420D01*
X140873198Y-89990445D01*
X140890500Y-89903468D01*
X140890500Y-89696531D01*
X140850131Y-89493585D01*
X140850130Y-89493584D01*
X140850130Y-89493580D01*
X140845047Y-89481308D01*
X140840084Y-89469326D01*
X140825249Y-89382013D01*
X140849767Y-89296912D01*
X140883218Y-89252462D01*
X142926896Y-87208786D01*
X143001885Y-87161667D01*
X143067610Y-87150500D01*
X144053390Y-87150500D01*
X144139733Y-87170207D01*
X144208974Y-87225426D01*
X144247401Y-87305218D01*
X144247401Y-87393782D01*
X144208974Y-87473574D01*
X144194104Y-87490214D01*
X142927539Y-88756777D01*
X142852550Y-88803896D01*
X142764544Y-88813812D01*
X142710674Y-88799916D01*
X142686420Y-88789870D01*
X142686415Y-88789869D01*
X142483468Y-88749500D01*
X142483465Y-88749500D01*
X142276535Y-88749500D01*
X142276532Y-88749500D01*
X142073583Y-88789869D01*
X142073580Y-88789870D01*
X141882406Y-88869056D01*
X141882398Y-88869061D01*
X141722909Y-88975626D01*
X141722902Y-88975632D01*
X141710345Y-88984023D01*
X141564023Y-89130345D01*
X141555632Y-89142902D01*
X141555626Y-89142909D01*
X141449061Y-89302398D01*
X141449056Y-89302406D01*
X141369870Y-89493580D01*
X141369869Y-89493583D01*
X141329500Y-89696531D01*
X141329500Y-89903468D01*
X141369869Y-90106416D01*
X141369870Y-90106419D01*
X141449056Y-90297593D01*
X141449058Y-90297596D01*
X141449059Y-90297598D01*
X141564023Y-90469655D01*
X141710345Y-90615977D01*
X141882402Y-90730941D01*
X141882404Y-90730942D01*
X141882406Y-90730943D01*
X141931245Y-90751172D01*
X142073580Y-90810130D01*
X142175057Y-90830315D01*
X142276532Y-90850500D01*
X142276535Y-90850500D01*
X142483468Y-90850500D01*
X142570445Y-90833198D01*
X142686420Y-90810130D01*
X142877598Y-90730941D01*
X143049655Y-90615977D01*
X143195977Y-90469655D01*
X143310941Y-90297598D01*
X143390130Y-90106420D01*
X143413198Y-89990445D01*
X143430500Y-89903468D01*
X143430500Y-89696531D01*
X143390131Y-89493585D01*
X143390130Y-89493584D01*
X143390130Y-89493580D01*
X143385047Y-89481308D01*
X143380084Y-89469326D01*
X143365249Y-89382013D01*
X143389767Y-89296912D01*
X143423218Y-89252462D01*
X144766896Y-87908786D01*
X144841885Y-87861667D01*
X144907610Y-87850500D01*
X145873390Y-87850500D01*
X145959733Y-87870207D01*
X146028974Y-87925426D01*
X146067401Y-88005218D01*
X146067401Y-88093782D01*
X146028974Y-88173574D01*
X146014108Y-88190209D01*
X145723848Y-88480470D01*
X145453397Y-88750920D01*
X145378408Y-88798038D01*
X145290402Y-88807954D01*
X145236533Y-88794059D01*
X145235864Y-88793782D01*
X145226420Y-88789870D01*
X145226418Y-88789869D01*
X145226417Y-88789869D01*
X145023468Y-88749500D01*
X145023465Y-88749500D01*
X144816535Y-88749500D01*
X144816532Y-88749500D01*
X144613583Y-88789869D01*
X144613580Y-88789870D01*
X144422406Y-88869056D01*
X144422403Y-88869058D01*
X144262911Y-88975626D01*
X144262908Y-88975628D01*
X144250345Y-88984023D01*
X144104023Y-89130345D01*
X144095630Y-89142905D01*
X144095624Y-89142912D01*
X143989061Y-89302398D01*
X143989056Y-89302406D01*
X143909870Y-89493580D01*
X143909869Y-89493583D01*
X143869500Y-89696531D01*
X143869500Y-89903468D01*
X143909869Y-90106416D01*
X143909870Y-90106419D01*
X143989056Y-90297593D01*
X143989058Y-90297596D01*
X143989059Y-90297598D01*
X144104023Y-90469655D01*
X144250345Y-90615977D01*
X144422402Y-90730941D01*
X144422404Y-90730942D01*
X144422406Y-90730943D01*
X144471245Y-90751172D01*
X144613580Y-90810130D01*
X144715057Y-90830315D01*
X144816532Y-90850500D01*
X144816535Y-90850500D01*
X145023468Y-90850500D01*
X145110445Y-90833198D01*
X145226420Y-90810130D01*
X145417598Y-90730941D01*
X145589655Y-90615977D01*
X145735977Y-90469655D01*
X145850941Y-90297598D01*
X145930130Y-90106420D01*
X145953198Y-89990445D01*
X145970500Y-89903468D01*
X145970500Y-89696531D01*
X145947431Y-89580560D01*
X145930130Y-89493580D01*
X145914225Y-89455183D01*
X145899390Y-89367874D01*
X145923906Y-89282772D01*
X145957359Y-89238320D01*
X146586895Y-88608786D01*
X146661884Y-88561667D01*
X146727609Y-88550500D01*
X146783144Y-88550500D01*
X146869487Y-88570207D01*
X146938728Y-88625426D01*
X146977155Y-88705218D01*
X146977155Y-88793782D01*
X146938728Y-88873574D01*
X146893703Y-88914961D01*
X146834114Y-88954777D01*
X146790346Y-88984022D01*
X146790341Y-88984026D01*
X146644026Y-89130341D01*
X146644022Y-89130346D01*
X146529058Y-89302403D01*
X146529056Y-89302406D01*
X146449870Y-89493580D01*
X146449869Y-89493583D01*
X146409500Y-89696531D01*
X146409500Y-89903468D01*
X146449869Y-90106416D01*
X146449870Y-90106419D01*
X146529056Y-90297593D01*
X146529058Y-90297596D01*
X146529059Y-90297598D01*
X146644023Y-90469655D01*
X146790345Y-90615977D01*
X146962402Y-90730941D01*
X146962404Y-90730942D01*
X146962406Y-90730943D01*
X147011245Y-90751172D01*
X147153580Y-90810130D01*
X147255057Y-90830315D01*
X147356532Y-90850500D01*
X147356535Y-90850500D01*
X147563468Y-90850500D01*
X147650445Y-90833198D01*
X147766420Y-90810130D01*
X147957598Y-90730941D01*
X148129655Y-90615977D01*
X148275977Y-90469655D01*
X148390941Y-90297598D01*
X148470130Y-90106420D01*
X148493198Y-89990445D01*
X148510500Y-89903468D01*
X148510500Y-89696531D01*
X148949500Y-89696531D01*
X148949500Y-89903468D01*
X148989869Y-90106416D01*
X148989870Y-90106419D01*
X149069056Y-90297593D01*
X149069058Y-90297596D01*
X149069059Y-90297598D01*
X149184023Y-90469655D01*
X149330345Y-90615977D01*
X149502402Y-90730941D01*
X149502404Y-90730942D01*
X149502406Y-90730943D01*
X149551245Y-90751172D01*
X149693580Y-90810130D01*
X149795057Y-90830315D01*
X149896532Y-90850500D01*
X149896535Y-90850500D01*
X150103468Y-90850500D01*
X150190445Y-90833198D01*
X150306420Y-90810130D01*
X150497598Y-90730941D01*
X150669655Y-90615977D01*
X150815977Y-90469655D01*
X150930941Y-90297598D01*
X151010130Y-90106420D01*
X151033198Y-89990445D01*
X151050500Y-89903468D01*
X151050500Y-89696531D01*
X151027431Y-89580560D01*
X151010130Y-89493580D01*
X150946344Y-89339588D01*
X150930943Y-89302406D01*
X150930941Y-89302403D01*
X150930941Y-89302402D01*
X150815977Y-89130345D01*
X150669655Y-88984023D01*
X150497598Y-88869059D01*
X150497596Y-88869058D01*
X150497593Y-88869056D01*
X150350078Y-88807954D01*
X150306420Y-88789870D01*
X150306417Y-88789869D01*
X150306416Y-88789869D01*
X150103468Y-88749500D01*
X150103465Y-88749500D01*
X149896535Y-88749500D01*
X149896532Y-88749500D01*
X149693583Y-88789869D01*
X149693580Y-88789870D01*
X149502406Y-88869056D01*
X149502403Y-88869058D01*
X149330346Y-88984022D01*
X149330341Y-88984026D01*
X149184026Y-89130341D01*
X149184022Y-89130346D01*
X149069058Y-89302403D01*
X149069056Y-89302406D01*
X148989870Y-89493580D01*
X148989869Y-89493583D01*
X148949500Y-89696531D01*
X148510500Y-89696531D01*
X148487431Y-89580560D01*
X148470130Y-89493580D01*
X148442509Y-89426899D01*
X148427675Y-89339588D01*
X148452192Y-89254486D01*
X148485644Y-89210036D01*
X153380469Y-84315213D01*
X153426614Y-84235288D01*
X153442711Y-84175212D01*
X153450500Y-84146144D01*
X153450500Y-80677909D01*
X153470207Y-80591566D01*
X153525426Y-80522325D01*
X153605218Y-80483898D01*
X153693782Y-80483898D01*
X153760059Y-80512447D01*
X153837924Y-80564475D01*
X153837931Y-80564479D01*
X153879927Y-80581874D01*
X154015457Y-80638012D01*
X154062573Y-80647384D01*
X154203919Y-80675500D01*
X154203922Y-80675500D01*
X154396081Y-80675500D01*
X154509982Y-80652843D01*
X154584543Y-80638012D01*
X154762073Y-80564477D01*
X154921845Y-80457720D01*
X155057720Y-80321845D01*
X155164477Y-80162073D01*
X155238012Y-79984543D01*
X155253007Y-79909157D01*
X155275500Y-79796081D01*
X155275500Y-79603918D01*
X155238012Y-79415458D01*
X155238010Y-79415453D01*
X155238009Y-79415451D01*
X155164477Y-79237927D01*
X155057720Y-79078155D01*
X155057719Y-79078154D01*
X155057716Y-79078150D01*
X154921849Y-78942283D01*
X154921841Y-78942277D01*
X154762075Y-78835524D01*
X154762068Y-78835520D01*
X154584546Y-78761989D01*
X154584541Y-78761987D01*
X154396081Y-78724500D01*
X154396078Y-78724500D01*
X154203922Y-78724500D01*
X154203919Y-78724500D01*
X154015458Y-78761987D01*
X154015453Y-78761989D01*
X153837931Y-78835520D01*
X153837926Y-78835523D01*
X153760058Y-78887553D01*
X153677318Y-78919136D01*
X153589068Y-78911692D01*
X153512787Y-78866695D01*
X153463584Y-78793057D01*
X153450500Y-78722090D01*
X153450500Y-69647608D01*
X153470207Y-69561265D01*
X153508783Y-69506897D01*
X154014221Y-69001459D01*
X164399500Y-69001459D01*
X164399500Y-69198540D01*
X164437948Y-69391832D01*
X164437949Y-69391836D01*
X164513365Y-69573909D01*
X164513368Y-69573914D01*
X164622861Y-69737782D01*
X164762218Y-69877139D01*
X164859713Y-69942283D01*
X164926083Y-69986630D01*
X164926090Y-69986634D01*
X165000220Y-70017339D01*
X165108165Y-70062051D01*
X165301459Y-70100500D01*
X165301460Y-70100500D01*
X165498540Y-70100500D01*
X165498541Y-70100500D01*
X165691835Y-70062051D01*
X165873914Y-69986632D01*
X166037782Y-69877139D01*
X166177139Y-69737782D01*
X166286632Y-69573914D01*
X166362051Y-69391835D01*
X166400500Y-69198541D01*
X166400500Y-69001459D01*
X166362051Y-68808165D01*
X166286632Y-68626086D01*
X166177139Y-68462218D01*
X166037782Y-68322861D01*
X165876300Y-68214962D01*
X165815458Y-68150607D01*
X165788563Y-68066226D01*
X165789263Y-68061267D01*
X165755397Y-68095133D01*
X165671804Y-68124383D01*
X165610701Y-68121810D01*
X165546913Y-68109122D01*
X165498541Y-68099500D01*
X165301459Y-68099500D01*
X165253464Y-68109046D01*
X165108167Y-68137948D01*
X165108163Y-68137949D01*
X164926090Y-68213365D01*
X164926083Y-68213369D01*
X164762222Y-68322858D01*
X164762214Y-68322864D01*
X164622864Y-68462214D01*
X164622858Y-68462222D01*
X164513369Y-68626083D01*
X164513365Y-68626090D01*
X164437949Y-68808163D01*
X164437948Y-68808167D01*
X164399500Y-69001459D01*
X154014221Y-69001459D01*
X156684748Y-66330931D01*
X156759734Y-66283814D01*
X156847741Y-66273898D01*
X156931334Y-66303149D01*
X156936004Y-66306175D01*
X156940821Y-66309394D01*
X156940823Y-66309395D01*
X156940825Y-66309396D01*
X156999784Y-66333817D01*
X157086503Y-66369737D01*
X157241158Y-66400500D01*
X157241159Y-66400500D01*
X157398841Y-66400500D01*
X157398842Y-66400500D01*
X157553497Y-66369737D01*
X157699179Y-66309394D01*
X157830289Y-66221789D01*
X157941789Y-66110289D01*
X158029394Y-65979179D01*
X158089737Y-65833497D01*
X158120500Y-65678842D01*
X158120500Y-64721158D01*
X159059500Y-64721158D01*
X159059500Y-65678841D01*
X159090262Y-65833493D01*
X159090264Y-65833500D01*
X159150603Y-65979174D01*
X159150607Y-65979181D01*
X159156700Y-65988299D01*
X159238211Y-66110289D01*
X159349711Y-66221789D01*
X159476024Y-66306189D01*
X159480818Y-66309392D01*
X159480825Y-66309396D01*
X159539784Y-66333817D01*
X159626503Y-66369737D01*
X159781158Y-66400500D01*
X159781159Y-66400500D01*
X159938841Y-66400500D01*
X159938842Y-66400500D01*
X160093497Y-66369737D01*
X160239179Y-66309394D01*
X160370289Y-66221789D01*
X160481789Y-66110289D01*
X160569394Y-65979179D01*
X160629737Y-65833497D01*
X160660500Y-65678842D01*
X160660500Y-64721158D01*
X161599500Y-64721158D01*
X161599500Y-65678841D01*
X161630262Y-65833493D01*
X161630264Y-65833500D01*
X161690603Y-65979174D01*
X161690607Y-65979181D01*
X161696700Y-65988299D01*
X161778211Y-66110289D01*
X161889711Y-66221789D01*
X162016024Y-66306189D01*
X162020818Y-66309392D01*
X162020825Y-66309396D01*
X162079784Y-66333817D01*
X162166503Y-66369737D01*
X162321158Y-66400500D01*
X162321159Y-66400500D01*
X162478841Y-66400500D01*
X162478842Y-66400500D01*
X162633497Y-66369737D01*
X162779179Y-66309394D01*
X162910289Y-66221789D01*
X163021789Y-66110289D01*
X163109394Y-65979179D01*
X163169737Y-65833497D01*
X163200500Y-65678842D01*
X163200500Y-64721158D01*
X164139500Y-64721158D01*
X164139500Y-65678841D01*
X164170262Y-65833493D01*
X164170264Y-65833500D01*
X164230603Y-65979174D01*
X164230607Y-65979181D01*
X164236700Y-65988299D01*
X164318211Y-66110289D01*
X164429711Y-66221789D01*
X164501059Y-66269462D01*
X164561901Y-66333817D01*
X164588796Y-66418198D01*
X164589500Y-66434924D01*
X164589500Y-66486144D01*
X164613385Y-66575286D01*
X164613386Y-66575289D01*
X164659529Y-66655211D01*
X165719531Y-67715212D01*
X165719532Y-67715213D01*
X165790239Y-67785921D01*
X165837357Y-67860910D01*
X165843443Y-67914926D01*
X165850147Y-67904894D01*
X165926427Y-67859898D01*
X165986859Y-67850500D01*
X168652390Y-67850500D01*
X168738733Y-67870207D01*
X168793104Y-67908786D01*
X169475046Y-68590728D01*
X169522165Y-68665716D01*
X169532081Y-68753723D01*
X169520476Y-68798710D01*
X169520788Y-68798805D01*
X169518543Y-68806204D01*
X169518186Y-68807591D01*
X169517950Y-68808158D01*
X169517948Y-68808166D01*
X169479500Y-69001459D01*
X169479500Y-69198540D01*
X169517948Y-69391832D01*
X169517949Y-69391836D01*
X169593365Y-69573909D01*
X169593368Y-69573914D01*
X169702861Y-69737782D01*
X169842218Y-69877139D01*
X169939713Y-69942283D01*
X170006083Y-69986630D01*
X170006090Y-69986634D01*
X170080220Y-70017339D01*
X170188165Y-70062051D01*
X170381459Y-70100500D01*
X170381460Y-70100500D01*
X170578540Y-70100500D01*
X170578541Y-70100500D01*
X170771835Y-70062051D01*
X170953914Y-69986632D01*
X171117782Y-69877139D01*
X171257139Y-69737782D01*
X171366632Y-69573914D01*
X171442051Y-69391835D01*
X171480500Y-69198541D01*
X171480500Y-69001459D01*
X171442051Y-68808165D01*
X171366632Y-68626086D01*
X171257139Y-68462218D01*
X171117782Y-68322861D01*
X170956300Y-68214962D01*
X170953916Y-68213369D01*
X170953909Y-68213365D01*
X170771836Y-68137949D01*
X170771832Y-68137948D01*
X170642389Y-68112200D01*
X170578541Y-68099500D01*
X170381459Y-68099500D01*
X170343011Y-68107147D01*
X170188166Y-68137948D01*
X170188158Y-68137950D01*
X170187591Y-68138186D01*
X170187119Y-68138266D01*
X170178805Y-68140788D01*
X170178484Y-68139732D01*
X170100279Y-68153019D01*
X170015178Y-68128499D01*
X169970728Y-68095046D01*
X169865896Y-67990214D01*
X169818777Y-67915226D01*
X169808861Y-67827219D01*
X169838112Y-67743626D01*
X169900736Y-67681002D01*
X169984329Y-67651751D01*
X170006610Y-67650500D01*
X170992390Y-67650500D01*
X171078733Y-67670207D01*
X171133104Y-67708786D01*
X172015046Y-68590728D01*
X172062165Y-68665716D01*
X172072081Y-68753723D01*
X172060476Y-68798710D01*
X172060788Y-68798805D01*
X172058543Y-68806204D01*
X172058186Y-68807591D01*
X172057950Y-68808158D01*
X172057948Y-68808166D01*
X172019500Y-69001459D01*
X172019500Y-69198540D01*
X172057948Y-69391832D01*
X172057949Y-69391836D01*
X172133365Y-69573909D01*
X172133368Y-69573914D01*
X172242861Y-69737782D01*
X172382218Y-69877139D01*
X172479713Y-69942283D01*
X172546083Y-69986630D01*
X172546090Y-69986634D01*
X172620220Y-70017339D01*
X172728165Y-70062051D01*
X172921459Y-70100500D01*
X172921460Y-70100500D01*
X173118540Y-70100500D01*
X173118541Y-70100500D01*
X173311835Y-70062051D01*
X173493914Y-69986632D01*
X173657782Y-69877139D01*
X173797139Y-69737782D01*
X173906632Y-69573914D01*
X173982051Y-69391835D01*
X174020500Y-69198541D01*
X174020500Y-69001459D01*
X173982051Y-68808165D01*
X173906632Y-68626086D01*
X173797139Y-68462218D01*
X173657782Y-68322861D01*
X173496300Y-68214962D01*
X173493916Y-68213369D01*
X173493909Y-68213365D01*
X173311836Y-68137949D01*
X173311832Y-68137948D01*
X173182389Y-68112200D01*
X173118541Y-68099500D01*
X172921459Y-68099500D01*
X172883011Y-68107147D01*
X172728166Y-68137948D01*
X172728158Y-68137950D01*
X172727591Y-68138186D01*
X172727119Y-68138266D01*
X172718805Y-68140788D01*
X172718484Y-68139732D01*
X172640279Y-68153019D01*
X172555178Y-68128499D01*
X172510728Y-68095046D01*
X171435211Y-67019529D01*
X171355289Y-66973386D01*
X171355286Y-66973385D01*
X171266144Y-66949500D01*
X169827610Y-66949500D01*
X169741267Y-66929793D01*
X169686896Y-66891214D01*
X169433664Y-66637982D01*
X169386545Y-66562994D01*
X169376629Y-66474987D01*
X169405880Y-66391394D01*
X169468504Y-66328770D01*
X169552097Y-66299519D01*
X169640104Y-66309435D01*
X169650519Y-66313411D01*
X169786503Y-66369737D01*
X169941158Y-66400500D01*
X169941159Y-66400500D01*
X170098841Y-66400500D01*
X170098842Y-66400500D01*
X170253497Y-66369737D01*
X170399179Y-66309394D01*
X170530289Y-66221789D01*
X170641789Y-66110289D01*
X170729394Y-65979179D01*
X170789737Y-65833497D01*
X170820500Y-65678842D01*
X170820500Y-64721158D01*
X170789737Y-64566503D01*
X170729394Y-64420821D01*
X170641789Y-64289711D01*
X170530289Y-64178211D01*
X170464293Y-64134114D01*
X170399181Y-64090607D01*
X170399174Y-64090603D01*
X170253500Y-64030264D01*
X170253498Y-64030263D01*
X170253497Y-64030263D01*
X170253495Y-64030262D01*
X170253493Y-64030262D01*
X170175125Y-64014673D01*
X170098842Y-63999500D01*
X169941158Y-63999500D01*
X169890072Y-64009661D01*
X169786506Y-64030262D01*
X169786499Y-64030264D01*
X169640825Y-64090603D01*
X169640818Y-64090607D01*
X169509715Y-64178208D01*
X169509707Y-64178214D01*
X169398214Y-64289707D01*
X169398208Y-64289715D01*
X169310607Y-64420818D01*
X169310603Y-64420825D01*
X169250264Y-64566499D01*
X169250262Y-64566506D01*
X169219500Y-64721158D01*
X169219500Y-65678841D01*
X169250262Y-65833493D01*
X169250264Y-65833500D01*
X169306583Y-65969468D01*
X169321418Y-66056780D01*
X169296900Y-66141882D01*
X169237886Y-66207918D01*
X169156064Y-66241809D01*
X169067640Y-66236843D01*
X168990127Y-66194003D01*
X168982017Y-66186335D01*
X168338786Y-65543104D01*
X168291667Y-65468116D01*
X168280500Y-65402390D01*
X168280500Y-64721158D01*
X168279768Y-64717478D01*
X168249737Y-64566503D01*
X168189394Y-64420821D01*
X168101789Y-64289711D01*
X167990289Y-64178211D01*
X167924293Y-64134114D01*
X167859181Y-64090607D01*
X167859174Y-64090603D01*
X167713500Y-64030264D01*
X167713498Y-64030263D01*
X167713497Y-64030263D01*
X167713495Y-64030262D01*
X167713493Y-64030262D01*
X167635125Y-64014673D01*
X167558842Y-63999500D01*
X167401158Y-63999500D01*
X167350072Y-64009661D01*
X167246506Y-64030262D01*
X167246499Y-64030264D01*
X167100825Y-64090603D01*
X167100818Y-64090607D01*
X166969715Y-64178208D01*
X166969707Y-64178214D01*
X166858214Y-64289707D01*
X166858208Y-64289715D01*
X166770607Y-64420818D01*
X166770603Y-64420825D01*
X166710264Y-64566499D01*
X166710262Y-64566506D01*
X166679500Y-64721158D01*
X166679500Y-65678841D01*
X166710262Y-65833493D01*
X166710264Y-65833500D01*
X166770603Y-65979174D01*
X166770607Y-65979181D01*
X166776700Y-65988299D01*
X166858211Y-66110289D01*
X166969711Y-66221789D01*
X167096024Y-66306189D01*
X167100818Y-66309392D01*
X167100825Y-66309396D01*
X167159784Y-66333817D01*
X167246503Y-66369737D01*
X167401158Y-66400500D01*
X167401159Y-66400500D01*
X167558841Y-66400500D01*
X167558842Y-66400500D01*
X167713497Y-66369737D01*
X167859179Y-66309394D01*
X167875965Y-66298177D01*
X167958701Y-66266592D01*
X168046952Y-66274033D01*
X168123234Y-66319027D01*
X168127241Y-66322923D01*
X168614104Y-66809786D01*
X168661223Y-66884774D01*
X168671139Y-66972781D01*
X168641888Y-67056374D01*
X168579264Y-67118998D01*
X168495671Y-67148249D01*
X168473390Y-67149500D01*
X166227609Y-67149500D01*
X166141266Y-67129793D01*
X166086895Y-67091214D01*
X165788071Y-66792390D01*
X165474591Y-66478909D01*
X165427474Y-66403924D01*
X165417558Y-66315917D01*
X165446809Y-66232324D01*
X165474585Y-66197492D01*
X165561789Y-66110289D01*
X165649394Y-65979179D01*
X165709737Y-65833497D01*
X165740500Y-65678842D01*
X165740500Y-64721158D01*
X165709737Y-64566503D01*
X165649394Y-64420821D01*
X165561789Y-64289711D01*
X165450289Y-64178211D01*
X165384293Y-64134114D01*
X165319181Y-64090607D01*
X165319174Y-64090603D01*
X165173500Y-64030264D01*
X165173498Y-64030263D01*
X165173497Y-64030263D01*
X165173495Y-64030262D01*
X165173493Y-64030262D01*
X165095125Y-64014673D01*
X165018842Y-63999500D01*
X164861158Y-63999500D01*
X164810072Y-64009661D01*
X164706506Y-64030262D01*
X164706499Y-64030264D01*
X164560825Y-64090603D01*
X164560818Y-64090607D01*
X164429715Y-64178208D01*
X164429707Y-64178214D01*
X164318214Y-64289707D01*
X164318208Y-64289715D01*
X164230607Y-64420818D01*
X164230603Y-64420825D01*
X164170264Y-64566499D01*
X164170262Y-64566506D01*
X164139500Y-64721158D01*
X163200500Y-64721158D01*
X163169737Y-64566503D01*
X163109394Y-64420821D01*
X163021789Y-64289711D01*
X162910289Y-64178211D01*
X162844293Y-64134114D01*
X162779181Y-64090607D01*
X162779174Y-64090603D01*
X162633500Y-64030264D01*
X162633498Y-64030263D01*
X162633497Y-64030263D01*
X162633495Y-64030262D01*
X162633493Y-64030262D01*
X162555125Y-64014673D01*
X162478842Y-63999500D01*
X162321158Y-63999500D01*
X162270072Y-64009661D01*
X162166506Y-64030262D01*
X162166499Y-64030264D01*
X162020825Y-64090603D01*
X162020818Y-64090607D01*
X161889715Y-64178208D01*
X161889707Y-64178214D01*
X161778214Y-64289707D01*
X161778208Y-64289715D01*
X161690607Y-64420818D01*
X161690603Y-64420825D01*
X161630264Y-64566499D01*
X161630262Y-64566506D01*
X161599500Y-64721158D01*
X160660500Y-64721158D01*
X160629737Y-64566503D01*
X160569394Y-64420821D01*
X160481789Y-64289711D01*
X160370289Y-64178211D01*
X160304293Y-64134114D01*
X160239181Y-64090607D01*
X160239174Y-64090603D01*
X160093500Y-64030264D01*
X160093498Y-64030263D01*
X160093497Y-64030263D01*
X160093495Y-64030262D01*
X160093493Y-64030262D01*
X160015125Y-64014673D01*
X159938842Y-63999500D01*
X159781158Y-63999500D01*
X159730072Y-64009661D01*
X159626506Y-64030262D01*
X159626499Y-64030264D01*
X159480825Y-64090603D01*
X159480818Y-64090607D01*
X159349715Y-64178208D01*
X159349707Y-64178214D01*
X159238214Y-64289707D01*
X159238208Y-64289715D01*
X159150607Y-64420818D01*
X159150603Y-64420825D01*
X159090264Y-64566499D01*
X159090262Y-64566506D01*
X159059500Y-64721158D01*
X158120500Y-64721158D01*
X158089737Y-64566503D01*
X158029394Y-64420821D01*
X157941789Y-64289711D01*
X157830289Y-64178211D01*
X157764293Y-64134114D01*
X157699181Y-64090607D01*
X157699174Y-64090603D01*
X157553500Y-64030264D01*
X157553498Y-64030263D01*
X157553497Y-64030263D01*
X157553495Y-64030262D01*
X157553493Y-64030262D01*
X157475125Y-64014673D01*
X157398842Y-63999500D01*
X157241158Y-63999500D01*
X157190072Y-64009661D01*
X157086506Y-64030262D01*
X157086499Y-64030264D01*
X156940825Y-64090603D01*
X156940818Y-64090607D01*
X156809715Y-64178208D01*
X156809707Y-64178214D01*
X156698214Y-64289707D01*
X156698208Y-64289715D01*
X156610607Y-64420818D01*
X156610603Y-64420825D01*
X156550264Y-64566499D01*
X156550262Y-64566506D01*
X156519500Y-64721158D01*
X156519500Y-65422390D01*
X156499793Y-65508733D01*
X156461214Y-65563104D01*
X155799002Y-66225315D01*
X155724013Y-66272434D01*
X155636007Y-66282350D01*
X155552413Y-66253099D01*
X155489790Y-66190475D01*
X155460539Y-66106882D01*
X155470455Y-66018875D01*
X155485715Y-65988299D01*
X155484785Y-65987802D01*
X155489390Y-65979184D01*
X155489394Y-65979179D01*
X155549737Y-65833497D01*
X155580500Y-65678842D01*
X155580500Y-64721158D01*
X155549737Y-64566503D01*
X155489394Y-64420821D01*
X155401789Y-64289711D01*
X155290289Y-64178211D01*
X155224293Y-64134114D01*
X155159181Y-64090607D01*
X155159174Y-64090603D01*
X155013500Y-64030264D01*
X155013498Y-64030263D01*
X155013497Y-64030263D01*
X155013495Y-64030262D01*
X155013493Y-64030262D01*
X154935125Y-64014673D01*
X154858842Y-63999500D01*
X154701158Y-63999500D01*
X154650072Y-64009661D01*
X154546506Y-64030262D01*
X154546499Y-64030264D01*
X154400825Y-64090603D01*
X154400818Y-64090607D01*
X154269715Y-64178208D01*
X154269707Y-64178214D01*
X154158214Y-64289707D01*
X154158208Y-64289715D01*
X154070607Y-64420818D01*
X154070603Y-64420825D01*
X154010264Y-64566499D01*
X154010262Y-64566506D01*
X153979500Y-64721158D01*
X153979500Y-65678841D01*
X154010262Y-65833493D01*
X154010264Y-65833500D01*
X154070603Y-65979174D01*
X154070607Y-65979181D01*
X154076700Y-65988299D01*
X154158211Y-66110289D01*
X154269711Y-66221789D01*
X154396024Y-66306189D01*
X154400818Y-66309392D01*
X154400825Y-66309396D01*
X154459784Y-66333817D01*
X154546503Y-66369737D01*
X154701158Y-66400500D01*
X154701159Y-66400500D01*
X154858841Y-66400500D01*
X154858842Y-66400500D01*
X155013497Y-66369737D01*
X155159179Y-66309394D01*
X155159184Y-66309390D01*
X155167802Y-66304785D01*
X155169042Y-66307105D01*
X155236746Y-66281247D01*
X155324997Y-66288674D01*
X155401286Y-66333657D01*
X155450503Y-66407286D01*
X155462900Y-66494977D01*
X155436021Y-66579363D01*
X155405315Y-66619002D01*
X152930214Y-69094104D01*
X152855226Y-69141223D01*
X152767219Y-69151139D01*
X152683626Y-69121888D01*
X152621002Y-69059264D01*
X152591751Y-68975671D01*
X152590500Y-68953390D01*
X152590500Y-66434924D01*
X152610207Y-66348581D01*
X152665426Y-66279340D01*
X152678932Y-66269467D01*
X152750289Y-66221789D01*
X152861789Y-66110289D01*
X152949394Y-65979179D01*
X153009737Y-65833497D01*
X153040500Y-65678842D01*
X153040500Y-64721158D01*
X153009737Y-64566503D01*
X152949394Y-64420821D01*
X152861789Y-64289711D01*
X152750289Y-64178211D01*
X152684293Y-64134114D01*
X152619181Y-64090607D01*
X152619174Y-64090603D01*
X152473500Y-64030264D01*
X152473498Y-64030263D01*
X152473497Y-64030263D01*
X152473495Y-64030262D01*
X152473493Y-64030262D01*
X152395125Y-64014673D01*
X152318842Y-63999500D01*
X152161158Y-63999500D01*
X152110072Y-64009661D01*
X152006506Y-64030262D01*
X152006499Y-64030264D01*
X151860825Y-64090603D01*
X151860818Y-64090607D01*
X151729715Y-64178208D01*
X151729707Y-64178214D01*
X151618214Y-64289707D01*
X151618208Y-64289715D01*
X151530607Y-64420818D01*
X151530603Y-64420825D01*
X151470264Y-64566499D01*
X151470262Y-64566506D01*
X151439500Y-64721158D01*
X151439500Y-65678841D01*
X151470262Y-65833493D01*
X151470264Y-65833500D01*
X151530603Y-65979174D01*
X151530607Y-65979181D01*
X151536700Y-65988299D01*
X151618211Y-66110289D01*
X151729711Y-66221789D01*
X151801059Y-66269462D01*
X151861901Y-66333817D01*
X151888796Y-66418198D01*
X151889500Y-66434924D01*
X151889500Y-83732390D01*
X151869793Y-83818733D01*
X151831214Y-83873104D01*
X150390214Y-85314104D01*
X150315226Y-85361223D01*
X150227219Y-85371139D01*
X150143626Y-85341888D01*
X150081002Y-85279264D01*
X150051751Y-85195671D01*
X150050500Y-85173390D01*
X150050500Y-66434924D01*
X150070207Y-66348581D01*
X150125426Y-66279340D01*
X150138932Y-66269467D01*
X150210289Y-66221789D01*
X150321789Y-66110289D01*
X150409394Y-65979179D01*
X150469737Y-65833497D01*
X150500500Y-65678842D01*
X150500500Y-64721158D01*
X150469737Y-64566503D01*
X150409394Y-64420821D01*
X150321789Y-64289711D01*
X150210289Y-64178211D01*
X150144293Y-64134114D01*
X150079181Y-64090607D01*
X150079174Y-64090603D01*
X149933500Y-64030264D01*
X149933498Y-64030263D01*
X149933497Y-64030263D01*
X149933495Y-64030262D01*
X149933493Y-64030262D01*
X149855125Y-64014673D01*
X149778842Y-63999500D01*
X149621158Y-63999500D01*
X149570072Y-64009661D01*
X149466506Y-64030262D01*
X149466499Y-64030264D01*
X149320825Y-64090603D01*
X149320818Y-64090607D01*
X149189715Y-64178208D01*
X149189707Y-64178214D01*
X149078214Y-64289707D01*
X149078208Y-64289715D01*
X148990607Y-64420818D01*
X148990603Y-64420825D01*
X148930264Y-64566499D01*
X148930262Y-64566506D01*
X148899500Y-64721158D01*
X148899500Y-65678841D01*
X148930262Y-65833493D01*
X148930264Y-65833500D01*
X148990603Y-65979174D01*
X148990607Y-65979181D01*
X148996700Y-65988299D01*
X149078211Y-66110289D01*
X149189711Y-66221789D01*
X149261059Y-66269462D01*
X149321901Y-66333817D01*
X149348796Y-66418198D01*
X149349500Y-66434924D01*
X149349500Y-69773390D01*
X149329793Y-69859733D01*
X149274574Y-69928974D01*
X149194782Y-69967401D01*
X149106218Y-69967401D01*
X149026426Y-69928974D01*
X149009786Y-69914104D01*
X147568786Y-68473104D01*
X147521667Y-68398116D01*
X147510500Y-68332390D01*
X147510500Y-66434924D01*
X147530207Y-66348581D01*
X147585426Y-66279340D01*
X147598932Y-66269467D01*
X147670289Y-66221789D01*
X147781789Y-66110289D01*
X147869394Y-65979179D01*
X147929737Y-65833497D01*
X147960500Y-65678842D01*
X147960500Y-64721158D01*
X147929737Y-64566503D01*
X147869394Y-64420821D01*
X147781789Y-64289711D01*
X147670289Y-64178211D01*
X147604293Y-64134114D01*
X147539181Y-64090607D01*
X147539174Y-64090603D01*
X147393500Y-64030264D01*
X147393498Y-64030263D01*
X147393497Y-64030263D01*
X147393495Y-64030262D01*
X147393493Y-64030262D01*
X147315125Y-64014673D01*
X147238842Y-63999500D01*
X147081158Y-63999500D01*
X147030072Y-64009661D01*
X146926506Y-64030262D01*
X146926499Y-64030264D01*
X146780825Y-64090603D01*
X146780818Y-64090607D01*
X146649715Y-64178208D01*
X146649707Y-64178214D01*
X146538214Y-64289707D01*
X146538208Y-64289715D01*
X146450607Y-64420818D01*
X146450603Y-64420825D01*
X146390264Y-64566499D01*
X146390262Y-64566506D01*
X146359500Y-64721158D01*
X146359500Y-65678841D01*
X146390262Y-65833493D01*
X146390264Y-65833500D01*
X146450603Y-65979174D01*
X146450607Y-65979181D01*
X146456700Y-65988299D01*
X146538211Y-66110289D01*
X146649711Y-66221789D01*
X146721059Y-66269462D01*
X146781901Y-66333817D01*
X146808796Y-66418198D01*
X146809500Y-66434924D01*
X146809500Y-68233390D01*
X146789793Y-68319733D01*
X146734574Y-68388974D01*
X146654782Y-68427401D01*
X146566218Y-68427401D01*
X146486426Y-68388974D01*
X146469786Y-68374104D01*
X145028786Y-66933104D01*
X145011022Y-66904834D01*
X144990207Y-66878733D01*
X144987688Y-66867699D01*
X144981667Y-66858116D01*
X144970500Y-66792390D01*
X144970500Y-66434924D01*
X144990207Y-66348581D01*
X145045426Y-66279340D01*
X145058932Y-66269467D01*
X145130289Y-66221789D01*
X145241789Y-66110289D01*
X145329394Y-65979179D01*
X145389737Y-65833497D01*
X145420500Y-65678842D01*
X145420500Y-64721158D01*
X145389737Y-64566503D01*
X145329394Y-64420821D01*
X145241789Y-64289711D01*
X145130289Y-64178211D01*
X145064293Y-64134114D01*
X144999181Y-64090607D01*
X144999174Y-64090603D01*
X144853500Y-64030264D01*
X144853498Y-64030263D01*
X144853497Y-64030263D01*
X144853495Y-64030262D01*
X144853493Y-64030262D01*
X144775125Y-64014673D01*
X144698842Y-63999500D01*
X144541158Y-63999500D01*
X144490072Y-64009661D01*
X144386506Y-64030262D01*
X144386499Y-64030264D01*
X144240825Y-64090603D01*
X144240818Y-64090607D01*
X144109715Y-64178208D01*
X144109707Y-64178214D01*
X143998214Y-64289707D01*
X143998208Y-64289715D01*
X143910607Y-64420818D01*
X143910603Y-64420825D01*
X143850264Y-64566499D01*
X143850262Y-64566506D01*
X143819500Y-64721158D01*
X143819500Y-65678841D01*
X143850262Y-65833493D01*
X143850264Y-65833500D01*
X143910603Y-65979174D01*
X143910607Y-65979181D01*
X143916700Y-65988299D01*
X143998211Y-66110289D01*
X144109711Y-66221789D01*
X144181059Y-66269462D01*
X144186906Y-66275647D01*
X144194574Y-66279340D01*
X144217089Y-66307572D01*
X144241901Y-66333817D01*
X144244485Y-66341925D01*
X144249793Y-66348581D01*
X144257829Y-66383791D01*
X144268796Y-66418198D01*
X144269500Y-66434924D01*
X144269500Y-66793389D01*
X144249793Y-66879732D01*
X144194574Y-66948973D01*
X144114782Y-66987400D01*
X144026218Y-66987400D01*
X143946426Y-66948973D01*
X143929786Y-66934103D01*
X142921539Y-65925857D01*
X142874420Y-65850869D01*
X142864504Y-65762862D01*
X142867073Y-65746339D01*
X142880500Y-65678842D01*
X142880500Y-64721158D01*
X142849737Y-64566503D01*
X142789394Y-64420821D01*
X142701789Y-64289711D01*
X142590289Y-64178211D01*
X142524293Y-64134114D01*
X142459181Y-64090607D01*
X142459174Y-64090603D01*
X142313500Y-64030264D01*
X142313498Y-64030263D01*
X142313497Y-64030263D01*
X142313495Y-64030262D01*
X142313493Y-64030262D01*
X142235125Y-64014673D01*
X142158842Y-63999500D01*
X142001158Y-63999500D01*
X141950072Y-64009661D01*
X141846506Y-64030262D01*
X141846499Y-64030264D01*
X141700825Y-64090603D01*
X141700818Y-64090607D01*
X141569715Y-64178208D01*
X141569707Y-64178214D01*
X141458214Y-64289707D01*
X141458208Y-64289715D01*
X141370607Y-64420818D01*
X141370603Y-64420825D01*
X141310264Y-64566499D01*
X141310262Y-64566506D01*
X141279500Y-64721158D01*
X141279500Y-65678841D01*
X141310262Y-65833493D01*
X141310264Y-65833500D01*
X141370603Y-65979174D01*
X141370607Y-65979181D01*
X141376700Y-65988299D01*
X141458211Y-66110289D01*
X141569711Y-66221789D01*
X141696024Y-66306189D01*
X141700818Y-66309392D01*
X141700825Y-66309396D01*
X141759784Y-66333817D01*
X141846503Y-66369737D01*
X142001158Y-66400500D01*
X142001159Y-66400500D01*
X142158841Y-66400500D01*
X142158842Y-66400500D01*
X142259684Y-66380441D01*
X142348212Y-66382925D01*
X142426896Y-66423573D01*
X142439221Y-66434903D01*
X147168727Y-71164409D01*
X147215846Y-71239397D01*
X147227013Y-71305123D01*
X147227013Y-78747156D01*
X147207306Y-78833499D01*
X147152087Y-78902740D01*
X147072295Y-78941167D01*
X146983731Y-78941167D01*
X146917454Y-78912618D01*
X146802075Y-78835524D01*
X146802068Y-78835520D01*
X146624546Y-78761989D01*
X146624541Y-78761987D01*
X146436081Y-78724500D01*
X146436078Y-78724500D01*
X146243922Y-78724500D01*
X146243919Y-78724500D01*
X146055458Y-78761987D01*
X146055453Y-78761989D01*
X145877931Y-78835520D01*
X145877921Y-78835525D01*
X145865813Y-78843616D01*
X145783072Y-78875197D01*
X145694822Y-78867750D01*
X145618543Y-78822751D01*
X145614546Y-78818864D01*
X143304934Y-76509252D01*
X143257815Y-76434264D01*
X143247899Y-76346257D01*
X143277150Y-76262664D01*
X143339774Y-76200040D01*
X143406826Y-76173362D01*
X143584538Y-76138013D01*
X143584538Y-76138012D01*
X143584543Y-76138012D01*
X143762073Y-76064477D01*
X143921845Y-75957720D01*
X144057720Y-75821845D01*
X144164477Y-75662073D01*
X144238012Y-75484543D01*
X144253007Y-75409157D01*
X144275500Y-75296081D01*
X144275500Y-75103918D01*
X144238012Y-74915458D01*
X144238010Y-74915453D01*
X144164479Y-74737931D01*
X144164475Y-74737924D01*
X144057722Y-74578158D01*
X144057716Y-74578150D01*
X143921849Y-74442283D01*
X143921841Y-74442277D01*
X143762075Y-74335524D01*
X143762068Y-74335520D01*
X143584546Y-74261989D01*
X143584541Y-74261987D01*
X143396081Y-74224500D01*
X143396078Y-74224500D01*
X143203922Y-74224500D01*
X143203919Y-74224500D01*
X143015458Y-74261987D01*
X143015453Y-74261989D01*
X142837931Y-74335520D01*
X142837924Y-74335524D01*
X142678158Y-74442277D01*
X142678150Y-74442283D01*
X142542283Y-74578150D01*
X142542277Y-74578158D01*
X142435524Y-74737924D01*
X142435520Y-74737931D01*
X142361989Y-74915453D01*
X142361987Y-74915458D01*
X142326637Y-75093175D01*
X142290464Y-75174014D01*
X142222798Y-75231152D01*
X142137041Y-75253273D01*
X142050180Y-75235995D01*
X141990747Y-75195065D01*
X139948786Y-73153104D01*
X139901667Y-73078116D01*
X139890500Y-73012390D01*
X139890500Y-70603918D01*
X142324500Y-70603918D01*
X142324500Y-70796081D01*
X142361987Y-70984541D01*
X142361989Y-70984546D01*
X142435520Y-71162068D01*
X142435524Y-71162075D01*
X142542277Y-71321841D01*
X142542283Y-71321849D01*
X142678150Y-71457716D01*
X142678158Y-71457722D01*
X142837924Y-71564475D01*
X142837931Y-71564479D01*
X142852453Y-71570494D01*
X143015457Y-71638012D01*
X143062573Y-71647384D01*
X143203919Y-71675500D01*
X143203922Y-71675500D01*
X143396081Y-71675500D01*
X143509157Y-71653007D01*
X143584543Y-71638012D01*
X143762073Y-71564477D01*
X143921845Y-71457720D01*
X144057720Y-71321845D01*
X144164477Y-71162073D01*
X144238012Y-70984543D01*
X144265733Y-70845182D01*
X144275500Y-70796081D01*
X144275500Y-70603918D01*
X144238012Y-70415458D01*
X144238010Y-70415453D01*
X144164479Y-70237931D01*
X144164475Y-70237924D01*
X144057722Y-70078158D01*
X144057716Y-70078150D01*
X143921849Y-69942283D01*
X143921841Y-69942277D01*
X143762075Y-69835524D01*
X143762068Y-69835520D01*
X143584546Y-69761989D01*
X143584541Y-69761987D01*
X143396081Y-69724500D01*
X143396078Y-69724500D01*
X143203922Y-69724500D01*
X143203919Y-69724500D01*
X143015458Y-69761987D01*
X143015453Y-69761989D01*
X142837931Y-69835520D01*
X142837924Y-69835524D01*
X142678158Y-69942277D01*
X142678150Y-69942283D01*
X142542283Y-70078150D01*
X142542277Y-70078158D01*
X142435524Y-70237924D01*
X142435520Y-70237931D01*
X142361989Y-70415453D01*
X142361987Y-70415458D01*
X142324500Y-70603918D01*
X139890500Y-70603918D01*
X139890500Y-66434924D01*
X139910207Y-66348581D01*
X139965426Y-66279340D01*
X139978932Y-66269467D01*
X140050289Y-66221789D01*
X140161789Y-66110289D01*
X140249394Y-65979179D01*
X140309737Y-65833497D01*
X140340500Y-65678842D01*
X140340500Y-64721158D01*
X140309737Y-64566503D01*
X140249394Y-64420821D01*
X140161789Y-64289711D01*
X140050289Y-64178211D01*
X139984293Y-64134114D01*
X139919181Y-64090607D01*
X139919174Y-64090603D01*
X139773500Y-64030264D01*
X139773498Y-64030263D01*
X139773497Y-64030263D01*
X139773495Y-64030262D01*
X139773493Y-64030262D01*
X139695125Y-64014673D01*
X139618842Y-63999500D01*
X139461158Y-63999500D01*
X139410072Y-64009661D01*
X139306506Y-64030262D01*
X139306499Y-64030264D01*
X139160825Y-64090603D01*
X139160818Y-64090607D01*
X139029715Y-64178208D01*
X139029707Y-64178214D01*
X138918214Y-64289707D01*
X138918208Y-64289715D01*
X138830607Y-64420818D01*
X138830603Y-64420825D01*
X138770264Y-64566499D01*
X138770262Y-64566506D01*
X138739500Y-64721158D01*
X138739500Y-65678841D01*
X138770262Y-65833493D01*
X138770264Y-65833500D01*
X138830603Y-65979174D01*
X138830607Y-65979181D01*
X138836700Y-65988299D01*
X138918211Y-66110289D01*
X139029711Y-66221789D01*
X139101059Y-66269462D01*
X139161901Y-66333817D01*
X139188796Y-66418198D01*
X139189500Y-66434924D01*
X139189500Y-73286144D01*
X139213385Y-73375286D01*
X139213386Y-73375289D01*
X139259529Y-73455211D01*
X145306214Y-79501896D01*
X145353333Y-79576884D01*
X145364500Y-79642610D01*
X145364500Y-79796081D01*
X145401987Y-79984541D01*
X145401989Y-79984546D01*
X145475520Y-80162068D01*
X145475524Y-80162075D01*
X145582277Y-80321841D01*
X145582283Y-80321849D01*
X145718150Y-80457716D01*
X145718158Y-80457722D01*
X145877924Y-80564475D01*
X145877931Y-80564479D01*
X145919927Y-80581874D01*
X146055457Y-80638012D01*
X146102573Y-80647384D01*
X146243919Y-80675500D01*
X146243922Y-80675500D01*
X146436081Y-80675500D01*
X146549982Y-80652843D01*
X146624543Y-80638012D01*
X146802073Y-80564477D01*
X146917456Y-80487379D01*
X147000193Y-80455797D01*
X147088443Y-80463240D01*
X147164724Y-80508237D01*
X147213928Y-80581874D01*
X147227013Y-80652843D01*
X147227013Y-83247156D01*
X147207306Y-83333499D01*
X147152087Y-83402740D01*
X147072295Y-83441167D01*
X146983731Y-83441167D01*
X146917454Y-83412618D01*
X146802075Y-83335524D01*
X146802068Y-83335520D01*
X146624546Y-83261989D01*
X146624541Y-83261987D01*
X146436081Y-83224500D01*
X146436078Y-83224500D01*
X146243922Y-83224500D01*
X146243919Y-83224500D01*
X146055458Y-83261987D01*
X146055453Y-83261989D01*
X145877931Y-83335520D01*
X145877924Y-83335524D01*
X145718158Y-83442277D01*
X145718150Y-83442283D01*
X145582283Y-83578150D01*
X145582277Y-83578158D01*
X145475524Y-83737924D01*
X145475520Y-83737931D01*
X145401989Y-83915453D01*
X145401987Y-83915458D01*
X145364500Y-84103918D01*
X145364500Y-84296081D01*
X145401987Y-84484541D01*
X145401989Y-84484546D01*
X145475520Y-84662068D01*
X145475524Y-84662075D01*
X145582277Y-84821842D01*
X145584256Y-84824253D01*
X145585340Y-84826426D01*
X145587711Y-84829974D01*
X145587260Y-84830274D01*
X145623799Y-84903498D01*
X145625042Y-84992053D01*
X145587740Y-85072377D01*
X145519281Y-85128563D01*
X145433223Y-85149480D01*
X145430429Y-85149500D01*
X139013856Y-85149500D01*
X138924713Y-85173385D01*
X138924711Y-85173386D01*
X138844787Y-85219530D01*
X138844785Y-85219532D01*
X135307539Y-88756777D01*
X135232550Y-88803896D01*
X135144544Y-88813812D01*
X135090674Y-88799916D01*
X135066420Y-88789870D01*
X135066415Y-88789869D01*
X134863468Y-88749500D01*
X134863465Y-88749500D01*
X134656535Y-88749500D01*
X134656532Y-88749500D01*
X134453583Y-88789869D01*
X134453580Y-88789870D01*
X134262406Y-88869056D01*
X134262403Y-88869058D01*
X134090346Y-88984022D01*
X134090341Y-88984026D01*
X133944026Y-89130341D01*
X133944022Y-89130346D01*
X133829058Y-89302403D01*
X133829056Y-89302406D01*
X133749870Y-89493580D01*
X133749869Y-89493583D01*
X133709500Y-89696531D01*
X122279053Y-89696531D01*
X122265593Y-84103918D01*
X123364500Y-84103918D01*
X123364500Y-84296081D01*
X123401987Y-84484541D01*
X123401989Y-84484546D01*
X123475520Y-84662068D01*
X123475524Y-84662075D01*
X123582277Y-84821841D01*
X123582283Y-84821849D01*
X123718150Y-84957716D01*
X123718158Y-84957722D01*
X123877924Y-85064475D01*
X123877931Y-85064479D01*
X123966692Y-85101244D01*
X124055457Y-85138012D01*
X124102573Y-85147384D01*
X124243919Y-85175500D01*
X124243922Y-85175500D01*
X124436081Y-85175500D01*
X124549157Y-85153007D01*
X124624543Y-85138012D01*
X124802073Y-85064477D01*
X124961845Y-84957720D01*
X125097720Y-84821845D01*
X125204477Y-84662073D01*
X125278012Y-84484543D01*
X125311695Y-84315209D01*
X125315500Y-84296081D01*
X125315500Y-84103918D01*
X134364500Y-84103918D01*
X134364500Y-84296081D01*
X134401987Y-84484541D01*
X134401989Y-84484546D01*
X134475520Y-84662068D01*
X134475524Y-84662075D01*
X134582277Y-84821841D01*
X134582283Y-84821849D01*
X134718150Y-84957716D01*
X134718158Y-84957722D01*
X134877924Y-85064475D01*
X134877931Y-85064479D01*
X134966692Y-85101244D01*
X135055457Y-85138012D01*
X135102573Y-85147384D01*
X135243919Y-85175500D01*
X135243922Y-85175500D01*
X135436081Y-85175500D01*
X135549157Y-85153007D01*
X135624543Y-85138012D01*
X135802073Y-85064477D01*
X135961845Y-84957720D01*
X136097720Y-84821845D01*
X136204477Y-84662073D01*
X136278012Y-84484543D01*
X136311695Y-84315209D01*
X136315500Y-84296081D01*
X136315500Y-84103918D01*
X136278012Y-83915458D01*
X136278010Y-83915453D01*
X136204479Y-83737931D01*
X136204475Y-83737924D01*
X136097722Y-83578158D01*
X136097716Y-83578150D01*
X135961849Y-83442283D01*
X135961841Y-83442277D01*
X135802075Y-83335524D01*
X135802068Y-83335520D01*
X135624546Y-83261989D01*
X135624541Y-83261987D01*
X135436081Y-83224500D01*
X135436078Y-83224500D01*
X135243922Y-83224500D01*
X135243919Y-83224500D01*
X135055458Y-83261987D01*
X135055453Y-83261989D01*
X134877931Y-83335520D01*
X134877924Y-83335524D01*
X134718158Y-83442277D01*
X134718150Y-83442283D01*
X134582283Y-83578150D01*
X134582277Y-83578158D01*
X134475524Y-83737924D01*
X134475520Y-83737931D01*
X134401989Y-83915453D01*
X134401987Y-83915458D01*
X134364500Y-84103918D01*
X125315500Y-84103918D01*
X125278012Y-83915458D01*
X125278010Y-83915453D01*
X125204479Y-83737931D01*
X125204475Y-83737924D01*
X125097722Y-83578158D01*
X125097716Y-83578150D01*
X124961849Y-83442283D01*
X124961841Y-83442277D01*
X124802075Y-83335524D01*
X124802068Y-83335520D01*
X124624546Y-83261989D01*
X124624541Y-83261987D01*
X124436081Y-83224500D01*
X124436078Y-83224500D01*
X124243922Y-83224500D01*
X124243919Y-83224500D01*
X124055458Y-83261987D01*
X124055453Y-83261989D01*
X123877931Y-83335520D01*
X123877924Y-83335524D01*
X123718158Y-83442277D01*
X123718150Y-83442283D01*
X123582283Y-83578150D01*
X123582277Y-83578158D01*
X123475524Y-83737924D01*
X123475520Y-83737931D01*
X123401989Y-83915453D01*
X123401987Y-83915458D01*
X123364500Y-84103918D01*
X122265593Y-84103918D01*
X122254763Y-79603918D01*
X123364500Y-79603918D01*
X123364500Y-79796081D01*
X123401987Y-79984541D01*
X123401989Y-79984546D01*
X123475520Y-80162068D01*
X123475524Y-80162075D01*
X123582277Y-80321841D01*
X123582283Y-80321849D01*
X123718150Y-80457716D01*
X123718158Y-80457722D01*
X123877924Y-80564475D01*
X123877931Y-80564479D01*
X123919927Y-80581874D01*
X124055457Y-80638012D01*
X124102573Y-80647384D01*
X124243919Y-80675500D01*
X124243922Y-80675500D01*
X124436081Y-80675500D01*
X124549982Y-80652843D01*
X124624543Y-80638012D01*
X124802073Y-80564477D01*
X124961845Y-80457720D01*
X125097720Y-80321845D01*
X125204477Y-80162073D01*
X125278012Y-79984543D01*
X125293007Y-79909157D01*
X125315500Y-79796081D01*
X125315500Y-79603918D01*
X131324500Y-79603918D01*
X131324500Y-79796081D01*
X131361987Y-79984541D01*
X131361989Y-79984546D01*
X131435520Y-80162068D01*
X131435524Y-80162075D01*
X131542277Y-80321841D01*
X131542283Y-80321849D01*
X131678150Y-80457716D01*
X131678158Y-80457722D01*
X131837924Y-80564475D01*
X131837931Y-80564479D01*
X131879927Y-80581874D01*
X132015457Y-80638012D01*
X132062573Y-80647384D01*
X132203919Y-80675500D01*
X132203922Y-80675500D01*
X132396081Y-80675500D01*
X132509982Y-80652843D01*
X132584543Y-80638012D01*
X132762073Y-80564477D01*
X132921845Y-80457720D01*
X133057720Y-80321845D01*
X133164477Y-80162073D01*
X133238012Y-79984543D01*
X133253007Y-79909157D01*
X133275500Y-79796081D01*
X133275500Y-79603918D01*
X133238012Y-79415458D01*
X133238010Y-79415453D01*
X133238009Y-79415451D01*
X133164477Y-79237927D01*
X133057720Y-79078155D01*
X133057719Y-79078154D01*
X133057716Y-79078150D01*
X132921849Y-78942283D01*
X132921841Y-78942277D01*
X132762075Y-78835524D01*
X132762068Y-78835520D01*
X132584546Y-78761989D01*
X132584541Y-78761987D01*
X132396081Y-78724500D01*
X132396078Y-78724500D01*
X132203922Y-78724500D01*
X132203919Y-78724500D01*
X132015458Y-78761987D01*
X132015453Y-78761989D01*
X131837931Y-78835520D01*
X131837924Y-78835524D01*
X131678158Y-78942277D01*
X131678150Y-78942283D01*
X131542283Y-79078150D01*
X131542277Y-79078158D01*
X131435524Y-79237924D01*
X131435520Y-79237931D01*
X131361989Y-79415453D01*
X131361987Y-79415458D01*
X131324500Y-79603918D01*
X125315500Y-79603918D01*
X125278012Y-79415458D01*
X125278010Y-79415453D01*
X125278009Y-79415451D01*
X125204477Y-79237927D01*
X125097720Y-79078155D01*
X125097719Y-79078154D01*
X125097716Y-79078150D01*
X124961849Y-78942283D01*
X124961841Y-78942277D01*
X124802073Y-78835523D01*
X124795685Y-78832108D01*
X124728830Y-78774023D01*
X124693797Y-78692684D01*
X124690500Y-78656609D01*
X124690500Y-75687610D01*
X124710207Y-75601267D01*
X124748786Y-75546896D01*
X127283292Y-73012390D01*
X132200470Y-68095212D01*
X132246614Y-68015288D01*
X132270500Y-67926144D01*
X132270500Y-67833856D01*
X132270500Y-66434924D01*
X132290207Y-66348581D01*
X132345426Y-66279340D01*
X132358932Y-66269467D01*
X132430289Y-66221789D01*
X132541789Y-66110289D01*
X132629394Y-65979179D01*
X132689737Y-65833497D01*
X132720500Y-65678842D01*
X132720500Y-65613856D01*
X133649500Y-65613856D01*
X133649500Y-65620335D01*
X133649500Y-78406144D01*
X133673385Y-78495286D01*
X133673386Y-78495289D01*
X133719529Y-78575211D01*
X134354370Y-79210052D01*
X134401489Y-79285040D01*
X134411405Y-79373047D01*
X134404092Y-79408517D01*
X134401989Y-79415451D01*
X134364500Y-79603918D01*
X134364500Y-79796081D01*
X134401987Y-79984541D01*
X134401989Y-79984546D01*
X134475520Y-80162068D01*
X134475524Y-80162075D01*
X134582277Y-80321841D01*
X134582283Y-80321849D01*
X134718150Y-80457716D01*
X134718158Y-80457722D01*
X134877924Y-80564475D01*
X134877931Y-80564479D01*
X134919927Y-80581874D01*
X135055457Y-80638012D01*
X135102573Y-80647384D01*
X135243919Y-80675500D01*
X135243922Y-80675500D01*
X135436081Y-80675500D01*
X135549982Y-80652843D01*
X135624543Y-80638012D01*
X135802073Y-80564477D01*
X135961845Y-80457720D01*
X136097720Y-80321845D01*
X136204477Y-80162073D01*
X136278012Y-79984543D01*
X136293007Y-79909157D01*
X136315500Y-79796081D01*
X136315500Y-79603918D01*
X142324500Y-79603918D01*
X142324500Y-79796081D01*
X142361987Y-79984541D01*
X142361989Y-79984546D01*
X142435520Y-80162068D01*
X142435524Y-80162075D01*
X142542277Y-80321841D01*
X142542283Y-80321849D01*
X142678150Y-80457716D01*
X142678158Y-80457722D01*
X142837924Y-80564475D01*
X142837931Y-80564479D01*
X142879927Y-80581874D01*
X143015457Y-80638012D01*
X143062573Y-80647384D01*
X143203919Y-80675500D01*
X143203922Y-80675500D01*
X143396081Y-80675500D01*
X143509982Y-80652843D01*
X143584543Y-80638012D01*
X143762073Y-80564477D01*
X143921845Y-80457720D01*
X144057720Y-80321845D01*
X144164477Y-80162073D01*
X144238012Y-79984543D01*
X144253007Y-79909157D01*
X144275500Y-79796081D01*
X144275500Y-79603918D01*
X144238012Y-79415458D01*
X144238010Y-79415453D01*
X144238009Y-79415451D01*
X144164477Y-79237927D01*
X144057720Y-79078155D01*
X144057719Y-79078154D01*
X144057716Y-79078150D01*
X143921849Y-78942283D01*
X143921841Y-78942277D01*
X143762075Y-78835524D01*
X143762068Y-78835520D01*
X143584546Y-78761989D01*
X143584541Y-78761987D01*
X143396081Y-78724500D01*
X143396078Y-78724500D01*
X143203922Y-78724500D01*
X143203919Y-78724500D01*
X143015458Y-78761987D01*
X143015453Y-78761989D01*
X142837931Y-78835520D01*
X142837924Y-78835524D01*
X142678158Y-78942277D01*
X142678150Y-78942283D01*
X142542283Y-79078150D01*
X142542277Y-79078158D01*
X142435524Y-79237924D01*
X142435520Y-79237931D01*
X142361989Y-79415453D01*
X142361987Y-79415458D01*
X142324500Y-79603918D01*
X136315500Y-79603918D01*
X136278012Y-79415458D01*
X136278010Y-79415453D01*
X136278009Y-79415451D01*
X136204477Y-79237927D01*
X136097720Y-79078155D01*
X136097719Y-79078154D01*
X136097716Y-79078150D01*
X135961849Y-78942283D01*
X135961841Y-78942277D01*
X135802075Y-78835524D01*
X135802068Y-78835520D01*
X135624546Y-78761989D01*
X135624541Y-78761987D01*
X135436081Y-78724500D01*
X135436078Y-78724500D01*
X135243922Y-78724500D01*
X135243919Y-78724500D01*
X135055451Y-78761989D01*
X135048517Y-78764092D01*
X134960171Y-78770290D01*
X134877884Y-78737542D01*
X134850052Y-78714370D01*
X134408786Y-78273104D01*
X134361667Y-78198116D01*
X134350500Y-78132390D01*
X134350500Y-76070494D01*
X134370207Y-75984151D01*
X134425426Y-75914910D01*
X134505218Y-75876483D01*
X134593782Y-75876483D01*
X134673574Y-75914910D01*
X134690214Y-75929780D01*
X134718150Y-75957716D01*
X134718158Y-75957722D01*
X134877924Y-76064475D01*
X134877931Y-76064479D01*
X134966692Y-76101244D01*
X135055457Y-76138012D01*
X135102573Y-76147384D01*
X135243919Y-76175500D01*
X135243922Y-76175500D01*
X135436081Y-76175500D01*
X135549157Y-76153007D01*
X135624543Y-76138012D01*
X135802073Y-76064477D01*
X135961845Y-75957720D01*
X136097720Y-75821845D01*
X136204477Y-75662073D01*
X136278012Y-75484543D01*
X136293007Y-75409157D01*
X136315500Y-75296081D01*
X136315500Y-75103918D01*
X136278012Y-74915458D01*
X136278010Y-74915453D01*
X136204479Y-74737931D01*
X136204475Y-74737924D01*
X136097722Y-74578158D01*
X136097716Y-74578150D01*
X135961849Y-74442283D01*
X135961841Y-74442277D01*
X135802075Y-74335524D01*
X135802068Y-74335520D01*
X135624546Y-74261989D01*
X135624541Y-74261987D01*
X135436081Y-74224500D01*
X135436078Y-74224500D01*
X135243922Y-74224500D01*
X135243919Y-74224500D01*
X135055458Y-74261987D01*
X135055453Y-74261989D01*
X134877931Y-74335520D01*
X134877924Y-74335524D01*
X134718158Y-74442277D01*
X134718150Y-74442283D01*
X134690214Y-74470220D01*
X134615226Y-74517339D01*
X134527219Y-74527255D01*
X134443626Y-74498004D01*
X134381002Y-74435380D01*
X134351751Y-74351787D01*
X134350500Y-74329506D01*
X134350500Y-71570494D01*
X134370207Y-71484151D01*
X134425426Y-71414910D01*
X134505218Y-71376483D01*
X134593782Y-71376483D01*
X134673574Y-71414910D01*
X134690214Y-71429780D01*
X134718150Y-71457716D01*
X134718158Y-71457722D01*
X134877924Y-71564475D01*
X134877931Y-71564479D01*
X134892453Y-71570494D01*
X135055457Y-71638012D01*
X135102573Y-71647384D01*
X135243919Y-71675500D01*
X135243922Y-71675500D01*
X135436081Y-71675500D01*
X135549157Y-71653007D01*
X135624543Y-71638012D01*
X135802073Y-71564477D01*
X135961845Y-71457720D01*
X136097720Y-71321845D01*
X136204477Y-71162073D01*
X136278012Y-70984543D01*
X136305733Y-70845182D01*
X136315500Y-70796081D01*
X136315500Y-70603918D01*
X136278012Y-70415459D01*
X136278012Y-70415458D01*
X136278012Y-70415457D01*
X136277948Y-70415304D01*
X136277927Y-70415178D01*
X136275174Y-70406102D01*
X136276325Y-70405752D01*
X136263109Y-70327995D01*
X136287623Y-70242892D01*
X136289459Y-70239642D01*
X136326611Y-70175293D01*
X136326610Y-70175293D01*
X136326614Y-70175288D01*
X136350500Y-70086144D01*
X136350500Y-66495248D01*
X136370207Y-66408905D01*
X136425426Y-66339664D01*
X136505218Y-66301237D01*
X136593782Y-66301237D01*
X136625653Y-66311396D01*
X136693900Y-66339664D01*
X136766503Y-66369737D01*
X136921158Y-66400500D01*
X136921159Y-66400500D01*
X137078841Y-66400500D01*
X137078842Y-66400500D01*
X137233497Y-66369737D01*
X137379179Y-66309394D01*
X137510289Y-66221789D01*
X137621789Y-66110289D01*
X137709394Y-65979179D01*
X137769737Y-65833497D01*
X137800500Y-65678842D01*
X137800500Y-64721158D01*
X137769737Y-64566503D01*
X137709394Y-64420821D01*
X137621789Y-64289711D01*
X137510289Y-64178211D01*
X137444293Y-64134114D01*
X137379181Y-64090607D01*
X137379174Y-64090603D01*
X137233500Y-64030264D01*
X137233498Y-64030263D01*
X137233497Y-64030263D01*
X137233495Y-64030262D01*
X137233493Y-64030262D01*
X137155125Y-64014673D01*
X137078842Y-63999500D01*
X136921158Y-63999500D01*
X136870072Y-64009661D01*
X136766506Y-64030262D01*
X136766499Y-64030264D01*
X136620825Y-64090603D01*
X136620818Y-64090607D01*
X136489715Y-64178208D01*
X136489707Y-64178214D01*
X136378214Y-64289707D01*
X136378208Y-64289715D01*
X136290607Y-64420818D01*
X136290603Y-64420825D01*
X136230264Y-64566499D01*
X136230262Y-64566506D01*
X136199500Y-64721158D01*
X136199500Y-65222390D01*
X136179793Y-65308733D01*
X136141214Y-65363104D01*
X135719530Y-65784787D01*
X135719527Y-65784791D01*
X135693532Y-65829817D01*
X135673388Y-65864707D01*
X135673385Y-65864713D01*
X135649500Y-65953855D01*
X135649500Y-69525957D01*
X135629793Y-69612300D01*
X135574574Y-69681541D01*
X135494782Y-69719968D01*
X135445854Y-69723062D01*
X135445854Y-69724500D01*
X135243919Y-69724500D01*
X135055458Y-69761987D01*
X135055453Y-69761989D01*
X134877931Y-69835520D01*
X134877924Y-69835524D01*
X134718158Y-69942277D01*
X134718150Y-69942283D01*
X134690214Y-69970220D01*
X134615226Y-70017339D01*
X134527219Y-70027255D01*
X134443626Y-69998004D01*
X134381002Y-69935380D01*
X134351751Y-69851787D01*
X134350500Y-69829506D01*
X134350500Y-66599413D01*
X134370207Y-66513070D01*
X134425426Y-66443829D01*
X134505218Y-66405402D01*
X134529991Y-66401372D01*
X134538839Y-66400500D01*
X134538842Y-66400500D01*
X134693497Y-66369737D01*
X134839179Y-66309394D01*
X134970289Y-66221789D01*
X135081789Y-66110289D01*
X135169394Y-65979179D01*
X135229737Y-65833497D01*
X135260500Y-65678842D01*
X135260500Y-64721158D01*
X135229737Y-64566503D01*
X135169394Y-64420821D01*
X135081789Y-64289711D01*
X134970289Y-64178211D01*
X134904293Y-64134114D01*
X134839181Y-64090607D01*
X134839174Y-64090603D01*
X134693500Y-64030264D01*
X134693498Y-64030263D01*
X134693497Y-64030263D01*
X134693495Y-64030262D01*
X134693493Y-64030262D01*
X134615125Y-64014673D01*
X134538842Y-63999500D01*
X134381158Y-63999500D01*
X134330072Y-64009661D01*
X134226506Y-64030262D01*
X134226499Y-64030264D01*
X134080825Y-64090603D01*
X134080818Y-64090607D01*
X133949715Y-64178208D01*
X133949707Y-64178214D01*
X133838214Y-64289707D01*
X133838208Y-64289715D01*
X133750607Y-64420818D01*
X133750603Y-64420825D01*
X133690264Y-64566499D01*
X133690262Y-64566506D01*
X133659500Y-64721158D01*
X133659500Y-65550337D01*
X133655472Y-65580924D01*
X133655706Y-65589010D01*
X133654425Y-65595474D01*
X133649500Y-65613856D01*
X132720500Y-65613856D01*
X132720500Y-64721158D01*
X132689737Y-64566503D01*
X132629394Y-64420821D01*
X132541789Y-64289711D01*
X132430289Y-64178211D01*
X132364293Y-64134114D01*
X132299181Y-64090607D01*
X132299174Y-64090603D01*
X132153500Y-64030264D01*
X132153498Y-64030263D01*
X132153497Y-64030263D01*
X132153495Y-64030262D01*
X132153493Y-64030262D01*
X132075125Y-64014673D01*
X131998842Y-63999500D01*
X131841158Y-63999500D01*
X131790072Y-64009661D01*
X131686506Y-64030262D01*
X131686499Y-64030264D01*
X131540825Y-64090603D01*
X131540818Y-64090607D01*
X131409715Y-64178208D01*
X131409707Y-64178214D01*
X131298214Y-64289707D01*
X131298208Y-64289715D01*
X131210607Y-64420818D01*
X131210603Y-64420825D01*
X131150264Y-64566499D01*
X131150262Y-64566506D01*
X131119500Y-64721158D01*
X131119500Y-65678841D01*
X131150262Y-65833493D01*
X131150264Y-65833500D01*
X131210603Y-65979174D01*
X131210607Y-65979181D01*
X131216700Y-65988299D01*
X131298211Y-66110289D01*
X131409711Y-66221789D01*
X131481059Y-66269462D01*
X131541901Y-66333817D01*
X131568796Y-66418198D01*
X131569500Y-66434924D01*
X131569500Y-67652390D01*
X131549793Y-67738733D01*
X131511214Y-67793104D01*
X124059530Y-75244787D01*
X124059529Y-75244789D01*
X124029918Y-75296077D01*
X124013387Y-75324709D01*
X124013385Y-75324713D01*
X123989500Y-75413855D01*
X123989500Y-78656609D01*
X123969793Y-78742952D01*
X123914574Y-78812193D01*
X123884315Y-78832108D01*
X123877926Y-78835523D01*
X123718158Y-78942277D01*
X123718150Y-78942283D01*
X123582283Y-79078150D01*
X123582277Y-79078158D01*
X123475524Y-79237924D01*
X123475520Y-79237931D01*
X123401989Y-79415453D01*
X123401987Y-79415458D01*
X123364500Y-79603918D01*
X122254763Y-79603918D01*
X122218935Y-64717478D01*
X123502220Y-64717478D01*
X123502220Y-65675162D01*
X123502952Y-65678841D01*
X123532982Y-65829813D01*
X123532983Y-65829817D01*
X123593323Y-65975494D01*
X123593327Y-65975501D01*
X123622309Y-66018875D01*
X123680931Y-66106609D01*
X123792431Y-66218109D01*
X123898039Y-66288674D01*
X123923538Y-66305712D01*
X123923545Y-66305716D01*
X123991002Y-66333657D01*
X124069223Y-66366057D01*
X124223878Y-66396820D01*
X124223879Y-66396820D01*
X124381561Y-66396820D01*
X124381562Y-66396820D01*
X124536217Y-66366057D01*
X124681899Y-66305714D01*
X124813009Y-66218109D01*
X124924509Y-66106609D01*
X125012114Y-65975499D01*
X125072457Y-65829817D01*
X125103220Y-65675162D01*
X125103220Y-64717478D01*
X126042220Y-64717478D01*
X126042220Y-65675162D01*
X126042952Y-65678841D01*
X126072982Y-65829813D01*
X126072983Y-65829817D01*
X126133323Y-65975494D01*
X126133327Y-65975501D01*
X126162309Y-66018875D01*
X126220931Y-66106609D01*
X126332431Y-66218109D01*
X126438039Y-66288674D01*
X126463538Y-66305712D01*
X126463545Y-66305716D01*
X126531002Y-66333657D01*
X126609223Y-66366057D01*
X126763878Y-66396820D01*
X126763879Y-66396820D01*
X126921561Y-66396820D01*
X126921562Y-66396820D01*
X127076217Y-66366057D01*
X127221899Y-66305714D01*
X127353009Y-66218109D01*
X127464509Y-66106609D01*
X127552114Y-65975499D01*
X127612457Y-65829817D01*
X127643220Y-65675162D01*
X127643220Y-64721158D01*
X128579500Y-64721158D01*
X128579500Y-65678841D01*
X128610262Y-65833493D01*
X128610264Y-65833500D01*
X128670603Y-65979174D01*
X128670607Y-65979181D01*
X128676700Y-65988299D01*
X128758211Y-66110289D01*
X128869711Y-66221789D01*
X128996024Y-66306189D01*
X129000818Y-66309392D01*
X129000825Y-66309396D01*
X129059784Y-66333817D01*
X129146503Y-66369737D01*
X129301158Y-66400500D01*
X129301159Y-66400500D01*
X129458841Y-66400500D01*
X129458842Y-66400500D01*
X129613497Y-66369737D01*
X129759179Y-66309394D01*
X129890289Y-66221789D01*
X130001789Y-66110289D01*
X130089394Y-65979179D01*
X130149737Y-65833497D01*
X130180500Y-65678842D01*
X130180500Y-64721158D01*
X130149737Y-64566503D01*
X130089394Y-64420821D01*
X130001789Y-64289711D01*
X129890289Y-64178211D01*
X129824293Y-64134114D01*
X129759181Y-64090607D01*
X129759174Y-64090603D01*
X129613500Y-64030264D01*
X129613498Y-64030263D01*
X129613497Y-64030263D01*
X129613495Y-64030262D01*
X129613493Y-64030262D01*
X129535125Y-64014673D01*
X129458842Y-63999500D01*
X129301158Y-63999500D01*
X129250072Y-64009661D01*
X129146506Y-64030262D01*
X129146499Y-64030264D01*
X129000825Y-64090603D01*
X129000818Y-64090607D01*
X128869715Y-64178208D01*
X128869707Y-64178214D01*
X128758214Y-64289707D01*
X128758208Y-64289715D01*
X128670607Y-64420818D01*
X128670603Y-64420825D01*
X128610264Y-64566499D01*
X128610262Y-64566506D01*
X128579500Y-64721158D01*
X127643220Y-64721158D01*
X127643220Y-64717478D01*
X127612457Y-64562823D01*
X127553640Y-64420825D01*
X127552116Y-64417145D01*
X127552112Y-64417138D01*
X127551525Y-64416259D01*
X127464509Y-64286031D01*
X127353009Y-64174531D01*
X127227402Y-64090603D01*
X127221901Y-64086927D01*
X127221894Y-64086923D01*
X127076220Y-64026584D01*
X127076218Y-64026583D01*
X127076217Y-64026583D01*
X127076215Y-64026582D01*
X127076213Y-64026582D01*
X126940062Y-63999500D01*
X126921562Y-63995820D01*
X126763878Y-63995820D01*
X126745378Y-63999500D01*
X126609226Y-64026582D01*
X126609219Y-64026584D01*
X126463545Y-64086923D01*
X126463538Y-64086927D01*
X126332435Y-64174528D01*
X126332427Y-64174534D01*
X126220934Y-64286027D01*
X126220928Y-64286035D01*
X126133327Y-64417138D01*
X126133323Y-64417145D01*
X126072984Y-64562819D01*
X126072982Y-64562826D01*
X126072251Y-64566503D01*
X126042220Y-64717478D01*
X125103220Y-64717478D01*
X125072457Y-64562823D01*
X125013640Y-64420825D01*
X125012116Y-64417145D01*
X125012112Y-64417138D01*
X125011525Y-64416259D01*
X124924509Y-64286031D01*
X124813009Y-64174531D01*
X124687402Y-64090603D01*
X124681901Y-64086927D01*
X124681894Y-64086923D01*
X124536220Y-64026584D01*
X124536218Y-64026583D01*
X124536217Y-64026583D01*
X124536215Y-64026582D01*
X124536213Y-64026582D01*
X124400062Y-63999500D01*
X124381562Y-63995820D01*
X124223878Y-63995820D01*
X124205378Y-63999500D01*
X124069226Y-64026582D01*
X124069219Y-64026584D01*
X123923545Y-64086923D01*
X123923538Y-64086927D01*
X123792435Y-64174528D01*
X123792427Y-64174534D01*
X123680934Y-64286027D01*
X123680928Y-64286035D01*
X123593327Y-64417138D01*
X123593323Y-64417145D01*
X123532984Y-64562819D01*
X123532982Y-64562826D01*
X123532251Y-64566503D01*
X123502220Y-64717478D01*
X122218935Y-64717478D01*
X122198872Y-56381309D01*
X146979500Y-56381309D01*
X146979500Y-56558690D01*
X147014104Y-56732660D01*
X147014105Y-56732663D01*
X147014106Y-56732666D01*
X147059360Y-56841920D01*
X147081988Y-56896550D01*
X147180535Y-57044034D01*
X147180541Y-57044041D01*
X147305958Y-57169458D01*
X147305965Y-57169464D01*
X147453449Y-57268011D01*
X147453451Y-57268012D01*
X147453453Y-57268013D01*
X147617334Y-57335894D01*
X147791309Y-57370500D01*
X147791310Y-57370500D01*
X147968690Y-57370500D01*
X147968691Y-57370500D01*
X148142666Y-57335894D01*
X148306547Y-57268013D01*
X148454035Y-57169464D01*
X148579464Y-57044035D01*
X148678013Y-56896547D01*
X148745894Y-56732666D01*
X148780500Y-56558691D01*
X148780500Y-56381309D01*
X149519500Y-56381309D01*
X149519500Y-56558690D01*
X149554104Y-56732660D01*
X149554105Y-56732663D01*
X149554106Y-56732666D01*
X149599360Y-56841920D01*
X149621988Y-56896550D01*
X149720535Y-57044034D01*
X149720541Y-57044041D01*
X149845958Y-57169458D01*
X149845965Y-57169464D01*
X149993449Y-57268011D01*
X149993451Y-57268012D01*
X149993453Y-57268013D01*
X150157334Y-57335894D01*
X150331309Y-57370500D01*
X150331310Y-57370500D01*
X150508690Y-57370500D01*
X150508691Y-57370500D01*
X150682666Y-57335894D01*
X150846547Y-57268013D01*
X150994035Y-57169464D01*
X151119464Y-57044035D01*
X151218013Y-56896547D01*
X151285894Y-56732666D01*
X151320500Y-56558691D01*
X151320500Y-56381309D01*
X152059500Y-56381309D01*
X152059500Y-56558690D01*
X152094104Y-56732660D01*
X152094105Y-56732663D01*
X152094106Y-56732666D01*
X152139360Y-56841920D01*
X152161988Y-56896550D01*
X152260535Y-57044034D01*
X152260541Y-57044041D01*
X152385958Y-57169458D01*
X152385965Y-57169464D01*
X152533449Y-57268011D01*
X152533451Y-57268012D01*
X152533453Y-57268013D01*
X152697334Y-57335894D01*
X152871309Y-57370500D01*
X152871310Y-57370500D01*
X153048690Y-57370500D01*
X153048691Y-57370500D01*
X153222666Y-57335894D01*
X153386547Y-57268013D01*
X153534035Y-57169464D01*
X153659464Y-57044035D01*
X153758013Y-56896547D01*
X153825894Y-56732666D01*
X153860500Y-56558691D01*
X153860500Y-56381309D01*
X154599500Y-56381309D01*
X154599500Y-56558690D01*
X154634104Y-56732660D01*
X154634105Y-56732663D01*
X154634106Y-56732666D01*
X154679360Y-56841920D01*
X154701988Y-56896550D01*
X154800535Y-57044034D01*
X154800541Y-57044041D01*
X154925958Y-57169458D01*
X154925965Y-57169464D01*
X155073449Y-57268011D01*
X155073451Y-57268012D01*
X155073453Y-57268013D01*
X155237334Y-57335894D01*
X155411309Y-57370500D01*
X155411310Y-57370500D01*
X155588690Y-57370500D01*
X155588691Y-57370500D01*
X155762666Y-57335894D01*
X155926547Y-57268013D01*
X156074035Y-57169464D01*
X156199464Y-57044035D01*
X156298013Y-56896547D01*
X156365894Y-56732666D01*
X156400500Y-56558691D01*
X156400500Y-56381309D01*
X157139500Y-56381309D01*
X157139500Y-56558690D01*
X157174104Y-56732660D01*
X157174105Y-56732663D01*
X157174106Y-56732666D01*
X157219360Y-56841920D01*
X157241988Y-56896550D01*
X157340535Y-57044034D01*
X157340541Y-57044041D01*
X157465958Y-57169458D01*
X157465965Y-57169464D01*
X157613449Y-57268011D01*
X157613451Y-57268012D01*
X157613453Y-57268013D01*
X157777334Y-57335894D01*
X157951309Y-57370500D01*
X157951310Y-57370500D01*
X158128690Y-57370500D01*
X158128691Y-57370500D01*
X158302666Y-57335894D01*
X158466547Y-57268013D01*
X158614035Y-57169464D01*
X158739464Y-57044035D01*
X158838013Y-56896547D01*
X158905894Y-56732666D01*
X158940500Y-56558691D01*
X158940500Y-56381309D01*
X159679500Y-56381309D01*
X159679500Y-56558690D01*
X159714104Y-56732660D01*
X159714105Y-56732663D01*
X159714106Y-56732666D01*
X159759360Y-56841920D01*
X159781988Y-56896550D01*
X159880535Y-57044034D01*
X159880541Y-57044041D01*
X160005958Y-57169458D01*
X160005965Y-57169464D01*
X160153449Y-57268011D01*
X160153451Y-57268012D01*
X160153453Y-57268013D01*
X160317334Y-57335894D01*
X160491309Y-57370500D01*
X160491310Y-57370500D01*
X160668690Y-57370500D01*
X160668691Y-57370500D01*
X160842666Y-57335894D01*
X161006547Y-57268013D01*
X161154035Y-57169464D01*
X161279464Y-57044035D01*
X161378013Y-56896547D01*
X161445894Y-56732666D01*
X161480500Y-56558691D01*
X161480500Y-56381309D01*
X162219500Y-56381309D01*
X162219500Y-56558690D01*
X162254104Y-56732660D01*
X162254105Y-56732663D01*
X162254106Y-56732666D01*
X162299360Y-56841920D01*
X162321988Y-56896550D01*
X162420535Y-57044034D01*
X162420541Y-57044041D01*
X162545958Y-57169458D01*
X162545965Y-57169464D01*
X162693449Y-57268011D01*
X162693451Y-57268012D01*
X162693453Y-57268013D01*
X162857334Y-57335894D01*
X163031309Y-57370500D01*
X163031310Y-57370500D01*
X163208690Y-57370500D01*
X163208691Y-57370500D01*
X163382666Y-57335894D01*
X163546547Y-57268013D01*
X163694035Y-57169464D01*
X163819464Y-57044035D01*
X163918013Y-56896547D01*
X163985894Y-56732666D01*
X164020500Y-56558691D01*
X164020500Y-56381309D01*
X163985894Y-56207334D01*
X163918013Y-56043453D01*
X163918012Y-56043451D01*
X163918011Y-56043449D01*
X163819464Y-55895965D01*
X163819458Y-55895958D01*
X163694041Y-55770541D01*
X163694034Y-55770535D01*
X163546550Y-55671988D01*
X163491920Y-55649360D01*
X163382666Y-55604106D01*
X163382663Y-55604105D01*
X163382660Y-55604104D01*
X163243108Y-55576346D01*
X163208691Y-55569500D01*
X163031309Y-55569500D01*
X163002576Y-55575215D01*
X162857339Y-55604104D01*
X162693449Y-55671988D01*
X162545965Y-55770535D01*
X162545958Y-55770541D01*
X162420541Y-55895958D01*
X162420535Y-55895965D01*
X162321988Y-56043449D01*
X162254104Y-56207339D01*
X162219500Y-56381309D01*
X161480500Y-56381309D01*
X161445894Y-56207334D01*
X161378013Y-56043453D01*
X161378012Y-56043451D01*
X161378011Y-56043449D01*
X161279464Y-55895965D01*
X161279458Y-55895958D01*
X161154041Y-55770541D01*
X161154034Y-55770535D01*
X161006550Y-55671988D01*
X160951920Y-55649360D01*
X160842666Y-55604106D01*
X160842663Y-55604105D01*
X160842660Y-55604104D01*
X160703108Y-55576346D01*
X160668691Y-55569500D01*
X160491309Y-55569500D01*
X160462576Y-55575215D01*
X160317339Y-55604104D01*
X160153449Y-55671988D01*
X160005965Y-55770535D01*
X160005958Y-55770541D01*
X159880541Y-55895958D01*
X159880535Y-55895965D01*
X159781988Y-56043449D01*
X159714104Y-56207339D01*
X159679500Y-56381309D01*
X158940500Y-56381309D01*
X158905894Y-56207334D01*
X158838013Y-56043453D01*
X158838012Y-56043451D01*
X158838011Y-56043449D01*
X158739464Y-55895965D01*
X158739458Y-55895958D01*
X158614041Y-55770541D01*
X158614034Y-55770535D01*
X158466550Y-55671988D01*
X158411920Y-55649360D01*
X158302666Y-55604106D01*
X158302663Y-55604105D01*
X158302660Y-55604104D01*
X158163108Y-55576346D01*
X158128691Y-55569500D01*
X157951309Y-55569500D01*
X157922576Y-55575215D01*
X157777339Y-55604104D01*
X157613449Y-55671988D01*
X157465965Y-55770535D01*
X157465958Y-55770541D01*
X157340541Y-55895958D01*
X157340535Y-55895965D01*
X157241988Y-56043449D01*
X157174104Y-56207339D01*
X157139500Y-56381309D01*
X156400500Y-56381309D01*
X156365894Y-56207334D01*
X156298013Y-56043453D01*
X156298012Y-56043451D01*
X156298011Y-56043449D01*
X156199464Y-55895965D01*
X156199458Y-55895958D01*
X156074041Y-55770541D01*
X156074034Y-55770535D01*
X155926550Y-55671988D01*
X155871920Y-55649360D01*
X155762666Y-55604106D01*
X155762663Y-55604105D01*
X155762660Y-55604104D01*
X155623108Y-55576346D01*
X155588691Y-55569500D01*
X155411309Y-55569500D01*
X155382576Y-55575215D01*
X155237339Y-55604104D01*
X155073449Y-55671988D01*
X154925965Y-55770535D01*
X154925958Y-55770541D01*
X154800541Y-55895958D01*
X154800535Y-55895965D01*
X154701988Y-56043449D01*
X154634104Y-56207339D01*
X154599500Y-56381309D01*
X153860500Y-56381309D01*
X153825894Y-56207334D01*
X153758013Y-56043453D01*
X153758012Y-56043451D01*
X153758011Y-56043449D01*
X153659464Y-55895965D01*
X153659458Y-55895958D01*
X153534041Y-55770541D01*
X153534034Y-55770535D01*
X153386550Y-55671988D01*
X153331920Y-55649360D01*
X153222666Y-55604106D01*
X153222663Y-55604105D01*
X153222660Y-55604104D01*
X153083108Y-55576346D01*
X153048691Y-55569500D01*
X152871309Y-55569500D01*
X152842576Y-55575215D01*
X152697339Y-55604104D01*
X152533449Y-55671988D01*
X152385965Y-55770535D01*
X152385958Y-55770541D01*
X152260541Y-55895958D01*
X152260535Y-55895965D01*
X152161988Y-56043449D01*
X152094104Y-56207339D01*
X152059500Y-56381309D01*
X151320500Y-56381309D01*
X151285894Y-56207334D01*
X151218013Y-56043453D01*
X151218012Y-56043451D01*
X151218011Y-56043449D01*
X151119464Y-55895965D01*
X151119458Y-55895958D01*
X150994041Y-55770541D01*
X150994034Y-55770535D01*
X150846550Y-55671988D01*
X150791920Y-55649360D01*
X150682666Y-55604106D01*
X150682663Y-55604105D01*
X150682660Y-55604104D01*
X150543108Y-55576346D01*
X150508691Y-55569500D01*
X150331309Y-55569500D01*
X150302576Y-55575215D01*
X150157339Y-55604104D01*
X149993449Y-55671988D01*
X149845965Y-55770535D01*
X149845958Y-55770541D01*
X149720541Y-55895958D01*
X149720535Y-55895965D01*
X149621988Y-56043449D01*
X149554104Y-56207339D01*
X149519500Y-56381309D01*
X148780500Y-56381309D01*
X148745894Y-56207334D01*
X148678013Y-56043453D01*
X148678012Y-56043451D01*
X148678011Y-56043449D01*
X148579464Y-55895965D01*
X148579458Y-55895958D01*
X148454041Y-55770541D01*
X148454034Y-55770535D01*
X148306550Y-55671988D01*
X148251920Y-55649360D01*
X148142666Y-55604106D01*
X148142663Y-55604105D01*
X148142660Y-55604104D01*
X148003108Y-55576346D01*
X147968691Y-55569500D01*
X147791309Y-55569500D01*
X147762576Y-55575215D01*
X147617339Y-55604104D01*
X147453449Y-55671988D01*
X147305965Y-55770535D01*
X147305958Y-55770541D01*
X147180541Y-55895958D01*
X147180535Y-55895965D01*
X147081988Y-56043449D01*
X147014104Y-56207339D01*
X146979500Y-56381309D01*
X122198872Y-56381309D01*
X122179763Y-48441309D01*
X146979500Y-48441309D01*
X146979500Y-48618690D01*
X147014104Y-48792660D01*
X147081988Y-48956550D01*
X147180535Y-49104034D01*
X147180541Y-49104041D01*
X147305958Y-49229458D01*
X147305965Y-49229464D01*
X147453449Y-49328011D01*
X147453451Y-49328012D01*
X147453453Y-49328013D01*
X147617334Y-49395894D01*
X147791309Y-49430500D01*
X147791310Y-49430500D01*
X147968690Y-49430500D01*
X147968691Y-49430500D01*
X148142666Y-49395894D01*
X148306547Y-49328013D01*
X148454035Y-49229464D01*
X148579464Y-49104035D01*
X148678013Y-48956547D01*
X148745894Y-48792666D01*
X148780500Y-48618691D01*
X148780500Y-48441309D01*
X149519500Y-48441309D01*
X149519500Y-48618690D01*
X149554104Y-48792660D01*
X149621988Y-48956550D01*
X149720535Y-49104034D01*
X149720541Y-49104041D01*
X149845958Y-49229458D01*
X149845965Y-49229464D01*
X149993449Y-49328011D01*
X149993451Y-49328012D01*
X149993453Y-49328013D01*
X150157334Y-49395894D01*
X150331309Y-49430500D01*
X150331310Y-49430500D01*
X150508690Y-49430500D01*
X150508691Y-49430500D01*
X150682666Y-49395894D01*
X150846547Y-49328013D01*
X150994035Y-49229464D01*
X151119464Y-49104035D01*
X151218013Y-48956547D01*
X151285894Y-48792666D01*
X151320500Y-48618691D01*
X151320500Y-48441309D01*
X152059500Y-48441309D01*
X152059500Y-48618690D01*
X152094104Y-48792660D01*
X152161988Y-48956550D01*
X152260535Y-49104034D01*
X152260541Y-49104041D01*
X152385958Y-49229458D01*
X152385965Y-49229464D01*
X152533449Y-49328011D01*
X152533451Y-49328012D01*
X152533453Y-49328013D01*
X152697334Y-49395894D01*
X152871309Y-49430500D01*
X152871310Y-49430500D01*
X153048690Y-49430500D01*
X153048691Y-49430500D01*
X153222666Y-49395894D01*
X153386547Y-49328013D01*
X153534035Y-49229464D01*
X153659464Y-49104035D01*
X153758013Y-48956547D01*
X153825894Y-48792666D01*
X153860500Y-48618691D01*
X153860500Y-48441309D01*
X154599500Y-48441309D01*
X154599500Y-48618690D01*
X154634104Y-48792660D01*
X154701988Y-48956550D01*
X154800535Y-49104034D01*
X154800541Y-49104041D01*
X154925958Y-49229458D01*
X154925965Y-49229464D01*
X155073449Y-49328011D01*
X155073451Y-49328012D01*
X155073453Y-49328013D01*
X155237334Y-49395894D01*
X155411309Y-49430500D01*
X155411310Y-49430500D01*
X155588690Y-49430500D01*
X155588691Y-49430500D01*
X155748046Y-49398802D01*
X155836573Y-49401286D01*
X155915257Y-49441934D01*
X155927582Y-49453264D01*
X157754787Y-51280469D01*
X157808877Y-51311698D01*
X157808879Y-51311700D01*
X157828492Y-51323022D01*
X157834712Y-51326614D01*
X157923856Y-51350500D01*
X168962390Y-51350500D01*
X169048733Y-51370207D01*
X169103104Y-51408786D01*
X174766735Y-57072417D01*
X174813854Y-57147405D01*
X174823770Y-57235412D01*
X174821197Y-57251953D01*
X174797617Y-57370500D01*
X174789500Y-57411309D01*
X174789500Y-57588691D01*
X174796346Y-57623108D01*
X174824104Y-57762660D01*
X174891988Y-57926550D01*
X174990535Y-58074034D01*
X174990541Y-58074041D01*
X175115958Y-58199458D01*
X175115965Y-58199464D01*
X175263449Y-58298011D01*
X175263451Y-58298012D01*
X175263453Y-58298013D01*
X175427334Y-58365894D01*
X175601309Y-58400500D01*
X175601310Y-58400500D01*
X175778690Y-58400500D01*
X175778691Y-58400500D01*
X175952666Y-58365894D01*
X176116547Y-58298013D01*
X176264035Y-58199464D01*
X176389464Y-58074035D01*
X176488013Y-57926547D01*
X176555894Y-57762666D01*
X176590500Y-57588691D01*
X176590500Y-57411309D01*
X176555894Y-57237334D01*
X176488013Y-57073453D01*
X176488012Y-57073451D01*
X176488011Y-57073449D01*
X176389464Y-56925965D01*
X176389458Y-56925958D01*
X176264041Y-56800541D01*
X176264034Y-56800535D01*
X176116550Y-56701988D01*
X176037051Y-56669059D01*
X175952666Y-56634106D01*
X175952663Y-56634105D01*
X175952660Y-56634104D01*
X175813108Y-56606346D01*
X175778691Y-56599500D01*
X175601309Y-56599500D01*
X175441953Y-56631197D01*
X175353425Y-56628713D01*
X175274741Y-56588064D01*
X175262417Y-56576735D01*
X169405211Y-50719529D01*
X169325289Y-50673386D01*
X169325286Y-50673385D01*
X169236144Y-50649500D01*
X158197610Y-50649500D01*
X158111267Y-50629793D01*
X158056896Y-50591214D01*
X156423264Y-48957582D01*
X156376145Y-48882594D01*
X156366229Y-48794587D01*
X156368802Y-48778045D01*
X156400500Y-48618690D01*
X156400500Y-48441309D01*
X156365895Y-48267339D01*
X156365894Y-48267338D01*
X156365894Y-48267334D01*
X156298013Y-48103453D01*
X156298012Y-48103451D01*
X156298011Y-48103449D01*
X156199464Y-47955965D01*
X156199458Y-47955958D01*
X156074041Y-47830541D01*
X156074034Y-47830535D01*
X155926550Y-47731988D01*
X155838712Y-47695605D01*
X155762666Y-47664106D01*
X155762663Y-47664105D01*
X155762660Y-47664104D01*
X155623108Y-47636346D01*
X155588691Y-47629500D01*
X155411309Y-47629500D01*
X155382576Y-47635215D01*
X155237339Y-47664104D01*
X155073449Y-47731988D01*
X154925965Y-47830535D01*
X154925958Y-47830541D01*
X154800541Y-47955958D01*
X154800535Y-47955965D01*
X154701988Y-48103449D01*
X154634104Y-48267339D01*
X154599500Y-48441309D01*
X153860500Y-48441309D01*
X153825894Y-48267334D01*
X153758013Y-48103453D01*
X153758012Y-48103451D01*
X153758011Y-48103449D01*
X153659464Y-47955965D01*
X153659458Y-47955958D01*
X153534041Y-47830541D01*
X153534034Y-47830535D01*
X153386550Y-47731988D01*
X153298712Y-47695605D01*
X153222666Y-47664106D01*
X153222663Y-47664105D01*
X153222660Y-47664104D01*
X153083108Y-47636346D01*
X153048691Y-47629500D01*
X152871309Y-47629500D01*
X152842576Y-47635215D01*
X152697339Y-47664104D01*
X152533449Y-47731988D01*
X152385965Y-47830535D01*
X152385958Y-47830541D01*
X152260541Y-47955958D01*
X152260535Y-47955965D01*
X152161988Y-48103449D01*
X152094104Y-48267339D01*
X152059500Y-48441309D01*
X151320500Y-48441309D01*
X151285894Y-48267334D01*
X151218013Y-48103453D01*
X151218012Y-48103451D01*
X151218011Y-48103449D01*
X151119464Y-47955965D01*
X151119458Y-47955958D01*
X150994041Y-47830541D01*
X150994034Y-47830535D01*
X150846550Y-47731988D01*
X150758712Y-47695605D01*
X150682666Y-47664106D01*
X150682663Y-47664105D01*
X150682660Y-47664104D01*
X150543108Y-47636346D01*
X150508691Y-47629500D01*
X150331309Y-47629500D01*
X150302576Y-47635215D01*
X150157339Y-47664104D01*
X149993449Y-47731988D01*
X149845965Y-47830535D01*
X149845958Y-47830541D01*
X149720541Y-47955958D01*
X149720535Y-47955965D01*
X149621988Y-48103449D01*
X149554104Y-48267339D01*
X149519500Y-48441309D01*
X148780500Y-48441309D01*
X148745894Y-48267334D01*
X148678013Y-48103453D01*
X148678012Y-48103451D01*
X148678011Y-48103449D01*
X148579464Y-47955965D01*
X148579458Y-47955958D01*
X148454041Y-47830541D01*
X148454034Y-47830535D01*
X148306550Y-47731988D01*
X148218712Y-47695605D01*
X148142666Y-47664106D01*
X148142663Y-47664105D01*
X148142660Y-47664104D01*
X148003108Y-47636346D01*
X147968691Y-47629500D01*
X147791309Y-47629500D01*
X147762576Y-47635215D01*
X147617339Y-47664104D01*
X147453449Y-47731988D01*
X147305965Y-47830535D01*
X147305958Y-47830541D01*
X147180541Y-47955958D01*
X147180535Y-47955965D01*
X147081988Y-48103449D01*
X147014104Y-48267339D01*
X146979500Y-48441309D01*
X122179763Y-48441309D01*
X122146067Y-34440691D01*
X123049500Y-34440691D01*
X123049500Y-34451426D01*
X123049500Y-39059312D01*
X123073667Y-39149500D01*
X123079327Y-39170626D01*
X123080202Y-39173891D01*
X123139508Y-39276610D01*
X123139512Y-39276615D01*
X123441214Y-39578317D01*
X123488333Y-39653305D01*
X123499500Y-39719031D01*
X123499500Y-40278842D01*
X123511754Y-40340447D01*
X123530262Y-40433493D01*
X123530264Y-40433500D01*
X123590603Y-40579174D01*
X123590606Y-40579179D01*
X123678211Y-40710289D01*
X123789711Y-40821789D01*
X123867900Y-40874033D01*
X123920818Y-40909392D01*
X123920825Y-40909396D01*
X123953483Y-40922923D01*
X124066503Y-40969737D01*
X124221158Y-41000500D01*
X124221159Y-41000500D01*
X124378841Y-41000500D01*
X124378842Y-41000500D01*
X124533497Y-40969737D01*
X124679179Y-40909394D01*
X124810289Y-40821789D01*
X124921789Y-40710289D01*
X125009394Y-40579179D01*
X125069737Y-40433497D01*
X125100500Y-40278842D01*
X125100500Y-39321158D01*
X126039500Y-39321158D01*
X126039500Y-40278842D01*
X126051754Y-40340447D01*
X126070262Y-40433493D01*
X126070264Y-40433500D01*
X126130603Y-40579174D01*
X126130606Y-40579179D01*
X126218211Y-40710289D01*
X126329711Y-40821789D01*
X126407900Y-40874033D01*
X126460818Y-40909392D01*
X126460825Y-40909396D01*
X126493483Y-40922923D01*
X126606503Y-40969737D01*
X126761158Y-41000500D01*
X126761159Y-41000500D01*
X126918841Y-41000500D01*
X126918842Y-41000500D01*
X127073497Y-40969737D01*
X127219179Y-40909394D01*
X127350289Y-40821789D01*
X127461789Y-40710289D01*
X127549394Y-40579179D01*
X127609737Y-40433497D01*
X127640500Y-40278842D01*
X127640500Y-39321158D01*
X128579500Y-39321158D01*
X128579500Y-40278842D01*
X128591754Y-40340447D01*
X128610262Y-40433493D01*
X128610264Y-40433500D01*
X128670603Y-40579174D01*
X128670606Y-40579179D01*
X128758211Y-40710289D01*
X128869711Y-40821789D01*
X128947900Y-40874033D01*
X129000818Y-40909392D01*
X129000825Y-40909396D01*
X129033483Y-40922923D01*
X129146503Y-40969737D01*
X129301158Y-41000500D01*
X129301159Y-41000500D01*
X129458841Y-41000500D01*
X129458842Y-41000500D01*
X129613497Y-40969737D01*
X129759179Y-40909394D01*
X129890289Y-40821789D01*
X130001789Y-40710289D01*
X130089394Y-40579179D01*
X130149737Y-40433497D01*
X130180500Y-40278842D01*
X130180500Y-39321158D01*
X130149737Y-39166503D01*
X130119565Y-39093662D01*
X130089396Y-39020825D01*
X130089392Y-39020818D01*
X130052552Y-38965683D01*
X130001789Y-38889711D01*
X129890289Y-38778211D01*
X129823237Y-38733408D01*
X129759181Y-38690607D01*
X129759174Y-38690603D01*
X129613500Y-38630264D01*
X129613498Y-38630263D01*
X129613497Y-38630263D01*
X129613495Y-38630262D01*
X129613493Y-38630262D01*
X129535125Y-38614673D01*
X129458842Y-38599500D01*
X129301158Y-38599500D01*
X129272412Y-38605218D01*
X129146506Y-38630262D01*
X129146499Y-38630264D01*
X129000825Y-38690603D01*
X129000818Y-38690607D01*
X128869715Y-38778208D01*
X128869707Y-38778214D01*
X128758214Y-38889707D01*
X128758208Y-38889715D01*
X128670607Y-39020818D01*
X128670603Y-39020825D01*
X128610264Y-39166499D01*
X128610263Y-39166503D01*
X128579500Y-39321158D01*
X127640500Y-39321158D01*
X127609737Y-39166503D01*
X127579565Y-39093662D01*
X127549396Y-39020825D01*
X127549392Y-39020818D01*
X127512552Y-38965683D01*
X127461789Y-38889711D01*
X127350289Y-38778211D01*
X127283237Y-38733408D01*
X127219181Y-38690607D01*
X127219174Y-38690603D01*
X127073500Y-38630264D01*
X127073498Y-38630263D01*
X127073497Y-38630263D01*
X127073495Y-38630262D01*
X127073493Y-38630262D01*
X126995125Y-38614673D01*
X126918842Y-38599500D01*
X126761158Y-38599500D01*
X126732412Y-38605218D01*
X126606506Y-38630262D01*
X126606499Y-38630264D01*
X126460825Y-38690603D01*
X126460818Y-38690607D01*
X126329715Y-38778208D01*
X126329707Y-38778214D01*
X126218214Y-38889707D01*
X126218208Y-38889715D01*
X126130607Y-39020818D01*
X126130603Y-39020825D01*
X126070264Y-39166499D01*
X126070263Y-39166503D01*
X126039500Y-39321158D01*
X125100500Y-39321158D01*
X125069737Y-39166503D01*
X125039565Y-39093662D01*
X125009396Y-39020825D01*
X125009392Y-39020818D01*
X124972552Y-38965683D01*
X124921789Y-38889711D01*
X124810289Y-38778211D01*
X124743237Y-38733408D01*
X124679181Y-38690607D01*
X124679174Y-38690603D01*
X124533500Y-38630264D01*
X124533498Y-38630263D01*
X124533497Y-38630263D01*
X124533495Y-38630262D01*
X124533493Y-38630262D01*
X124455125Y-38614673D01*
X124378842Y-38599500D01*
X124221158Y-38599500D01*
X124188319Y-38606031D01*
X124099792Y-38603547D01*
X124021109Y-38562897D01*
X123967855Y-38492134D01*
X123950500Y-38410855D01*
X123950500Y-34769031D01*
X123970207Y-34682688D01*
X124008786Y-34628317D01*
X125128317Y-33508786D01*
X125203305Y-33461667D01*
X125269031Y-33450500D01*
X141630969Y-33450500D01*
X141717312Y-33470207D01*
X141771683Y-33508786D01*
X143168229Y-34905332D01*
X143215348Y-34980320D01*
X143225264Y-35068327D01*
X143222691Y-35084868D01*
X143199500Y-35201458D01*
X143199500Y-35398540D01*
X143237948Y-35591832D01*
X143237949Y-35591836D01*
X143313365Y-35773909D01*
X143313369Y-35773916D01*
X143367746Y-35855297D01*
X143422861Y-35937782D01*
X143562218Y-36077139D01*
X143636287Y-36126630D01*
X143726083Y-36186630D01*
X143726090Y-36186634D01*
X143917196Y-36265792D01*
X143916135Y-36268352D01*
X143978534Y-36303990D01*
X144028766Y-36376929D01*
X144042376Y-36464441D01*
X144016669Y-36549191D01*
X143956735Y-36614394D01*
X143874447Y-36647136D01*
X143843865Y-36649500D01*
X137947610Y-36649500D01*
X137861267Y-36629793D01*
X137806896Y-36591214D01*
X136644953Y-35429271D01*
X136597834Y-35354283D01*
X136587918Y-35266276D01*
X136599526Y-35221281D01*
X136599214Y-35221187D01*
X136601463Y-35213771D01*
X136601819Y-35212394D01*
X136602051Y-35211835D01*
X136640500Y-35018541D01*
X136640500Y-34821459D01*
X137179500Y-34821459D01*
X137179500Y-35018540D01*
X137217948Y-35211832D01*
X137217949Y-35211836D01*
X137293365Y-35393909D01*
X137293369Y-35393916D01*
X137316993Y-35429271D01*
X137402861Y-35557782D01*
X137542218Y-35697139D01*
X137657113Y-35773909D01*
X137706083Y-35806630D01*
X137706090Y-35806634D01*
X137736319Y-35819155D01*
X137888165Y-35882051D01*
X138081459Y-35920500D01*
X138081460Y-35920500D01*
X138278540Y-35920500D01*
X138278541Y-35920500D01*
X138471835Y-35882051D01*
X138653914Y-35806632D01*
X138817782Y-35697139D01*
X138957139Y-35557782D01*
X139066632Y-35393914D01*
X139142051Y-35211835D01*
X139180500Y-35018541D01*
X139180500Y-34821459D01*
X139142051Y-34628165D01*
X139073582Y-34462864D01*
X139066634Y-34446090D01*
X139066630Y-34446083D01*
X139047544Y-34417519D01*
X138957139Y-34282218D01*
X138817782Y-34142861D01*
X138735297Y-34087746D01*
X138653916Y-34033369D01*
X138653909Y-34033365D01*
X138471836Y-33957949D01*
X138471832Y-33957948D01*
X138342389Y-33932200D01*
X138278541Y-33919500D01*
X138081459Y-33919500D01*
X138033464Y-33929046D01*
X137888167Y-33957948D01*
X137888163Y-33957949D01*
X137706090Y-34033365D01*
X137706083Y-34033369D01*
X137542222Y-34142858D01*
X137542214Y-34142864D01*
X137402864Y-34282214D01*
X137402858Y-34282222D01*
X137293369Y-34446083D01*
X137293365Y-34446090D01*
X137217949Y-34628163D01*
X137217948Y-34628167D01*
X137179500Y-34821459D01*
X136640500Y-34821459D01*
X136602051Y-34628165D01*
X136533582Y-34462864D01*
X136526634Y-34446090D01*
X136526630Y-34446083D01*
X136507544Y-34417519D01*
X136417139Y-34282218D01*
X136277782Y-34142861D01*
X136195297Y-34087746D01*
X136113916Y-34033369D01*
X136113909Y-34033365D01*
X135931836Y-33957949D01*
X135931832Y-33957948D01*
X135802389Y-33932200D01*
X135738541Y-33919500D01*
X135541459Y-33919500D01*
X135493464Y-33929046D01*
X135348167Y-33957948D01*
X135348163Y-33957949D01*
X135166090Y-34033365D01*
X135166083Y-34033369D01*
X135002222Y-34142858D01*
X135002214Y-34142864D01*
X134862864Y-34282214D01*
X134862858Y-34282222D01*
X134753369Y-34446083D01*
X134753365Y-34446090D01*
X134677949Y-34628163D01*
X134677948Y-34628167D01*
X134639500Y-34821459D01*
X134639500Y-35018540D01*
X134677948Y-35211832D01*
X134677949Y-35211836D01*
X134753365Y-35393909D01*
X134753369Y-35393916D01*
X134776993Y-35429271D01*
X134862861Y-35557782D01*
X135002218Y-35697139D01*
X135117113Y-35773909D01*
X135166083Y-35806630D01*
X135166090Y-35806634D01*
X135196319Y-35819155D01*
X135348165Y-35882051D01*
X135541459Y-35920500D01*
X135541460Y-35920500D01*
X135738540Y-35920500D01*
X135738541Y-35920500D01*
X135833884Y-35901534D01*
X135931831Y-35882052D01*
X135931831Y-35882051D01*
X135931835Y-35882051D01*
X135932395Y-35881818D01*
X135932862Y-35881739D01*
X135941187Y-35879214D01*
X135941507Y-35880270D01*
X136019705Y-35866980D01*
X136104809Y-35891493D01*
X136149271Y-35924953D01*
X137134104Y-36909786D01*
X137181223Y-36984774D01*
X137191139Y-37072781D01*
X137161888Y-37156374D01*
X137099264Y-37218998D01*
X137015671Y-37248249D01*
X136993390Y-37249500D01*
X136007609Y-37249500D01*
X135921266Y-37229793D01*
X135866895Y-37191214D01*
X134104953Y-35429271D01*
X134057834Y-35354282D01*
X134047918Y-35266276D01*
X134059526Y-35221281D01*
X134059214Y-35221187D01*
X134061463Y-35213771D01*
X134061819Y-35212394D01*
X134062051Y-35211835D01*
X134100500Y-35018541D01*
X134100500Y-34821459D01*
X134062051Y-34628165D01*
X133993582Y-34462864D01*
X133986634Y-34446090D01*
X133986630Y-34446083D01*
X133967544Y-34417519D01*
X133877139Y-34282218D01*
X133737782Y-34142861D01*
X133655297Y-34087746D01*
X133573916Y-34033369D01*
X133573909Y-34033365D01*
X133391836Y-33957949D01*
X133391832Y-33957948D01*
X133262389Y-33932200D01*
X133198541Y-33919500D01*
X133001459Y-33919500D01*
X132953464Y-33929046D01*
X132808167Y-33957948D01*
X132808163Y-33957949D01*
X132626090Y-34033365D01*
X132626083Y-34033369D01*
X132462222Y-34142858D01*
X132462214Y-34142864D01*
X132322864Y-34282214D01*
X132322858Y-34282222D01*
X132213369Y-34446083D01*
X132213365Y-34446090D01*
X132137949Y-34628163D01*
X132137948Y-34628167D01*
X132099500Y-34821459D01*
X132099500Y-35018540D01*
X132137948Y-35211832D01*
X132137949Y-35211836D01*
X132213365Y-35393909D01*
X132213369Y-35393916D01*
X132236993Y-35429271D01*
X132322861Y-35557782D01*
X132462218Y-35697139D01*
X132577113Y-35773909D01*
X132626083Y-35806630D01*
X132626090Y-35806634D01*
X132656319Y-35819155D01*
X132808165Y-35882051D01*
X133001459Y-35920500D01*
X133001460Y-35920500D01*
X133198540Y-35920500D01*
X133198541Y-35920500D01*
X133293884Y-35901534D01*
X133391831Y-35882052D01*
X133391831Y-35882051D01*
X133391835Y-35882051D01*
X133392395Y-35881818D01*
X133392862Y-35881739D01*
X133401187Y-35879214D01*
X133401507Y-35880270D01*
X133479705Y-35866980D01*
X133564809Y-35891493D01*
X133609271Y-35924953D01*
X134403848Y-36719530D01*
X135094105Y-37409786D01*
X135141224Y-37484774D01*
X135151140Y-37572781D01*
X135121889Y-37656374D01*
X135059265Y-37718998D01*
X134975672Y-37748249D01*
X134953391Y-37749500D01*
X133967610Y-37749500D01*
X133881267Y-37729793D01*
X133826896Y-37691214D01*
X131564953Y-35429271D01*
X131517834Y-35354283D01*
X131507918Y-35266276D01*
X131519526Y-35221281D01*
X131519214Y-35221187D01*
X131521463Y-35213771D01*
X131521819Y-35212394D01*
X131522051Y-35211835D01*
X131560500Y-35018541D01*
X131560500Y-34821459D01*
X131522051Y-34628165D01*
X131453582Y-34462864D01*
X131446634Y-34446090D01*
X131446630Y-34446083D01*
X131427544Y-34417519D01*
X131337139Y-34282218D01*
X131197782Y-34142861D01*
X131115297Y-34087746D01*
X131033916Y-34033369D01*
X131033909Y-34033365D01*
X130851836Y-33957949D01*
X130851832Y-33957948D01*
X130722389Y-33932200D01*
X130658541Y-33919500D01*
X130461459Y-33919500D01*
X130413464Y-33929046D01*
X130268167Y-33957948D01*
X130268163Y-33957949D01*
X130086090Y-34033365D01*
X130086083Y-34033369D01*
X129922222Y-34142858D01*
X129922214Y-34142864D01*
X129782864Y-34282214D01*
X129782858Y-34282222D01*
X129673369Y-34446083D01*
X129673365Y-34446090D01*
X129597949Y-34628163D01*
X129597948Y-34628167D01*
X129559500Y-34821459D01*
X129559500Y-35018540D01*
X129597948Y-35211832D01*
X129597949Y-35211836D01*
X129673365Y-35393909D01*
X129673369Y-35393916D01*
X129696993Y-35429271D01*
X129782861Y-35557782D01*
X129922218Y-35697139D01*
X130037113Y-35773909D01*
X130086083Y-35806630D01*
X130086090Y-35806634D01*
X130116319Y-35819155D01*
X130268165Y-35882051D01*
X130461459Y-35920500D01*
X130461460Y-35920500D01*
X130658540Y-35920500D01*
X130658541Y-35920500D01*
X130753884Y-35901534D01*
X130851831Y-35882052D01*
X130851831Y-35882051D01*
X130851835Y-35882051D01*
X130852395Y-35881818D01*
X130852862Y-35881739D01*
X130861187Y-35879214D01*
X130861507Y-35880270D01*
X130939705Y-35866980D01*
X131024809Y-35891493D01*
X131069271Y-35924953D01*
X131954104Y-36809786D01*
X132001223Y-36884774D01*
X132011139Y-36972781D01*
X131981888Y-37056374D01*
X131919264Y-37118998D01*
X131835671Y-37148249D01*
X131813390Y-37149500D01*
X130227610Y-37149500D01*
X130141267Y-37129793D01*
X130086896Y-37091214D01*
X128814837Y-35819155D01*
X128767718Y-35744167D01*
X128757802Y-35656160D01*
X128787053Y-35572567D01*
X128791802Y-35565973D01*
X128791708Y-35565910D01*
X128797142Y-35557777D01*
X128906632Y-35393914D01*
X128982051Y-35211835D01*
X129020500Y-35018541D01*
X129020500Y-34821459D01*
X128982051Y-34628165D01*
X128913582Y-34462864D01*
X128906634Y-34446090D01*
X128906630Y-34446083D01*
X128887544Y-34417519D01*
X128797139Y-34282218D01*
X128657782Y-34142861D01*
X128575297Y-34087746D01*
X128493916Y-34033369D01*
X128493909Y-34033365D01*
X128311836Y-33957949D01*
X128311832Y-33957948D01*
X128182389Y-33932200D01*
X128118541Y-33919500D01*
X127921459Y-33919500D01*
X127873464Y-33929046D01*
X127728167Y-33957948D01*
X127728163Y-33957949D01*
X127546090Y-34033365D01*
X127546083Y-34033369D01*
X127382222Y-34142858D01*
X127382214Y-34142864D01*
X127242864Y-34282214D01*
X127242858Y-34282222D01*
X127133369Y-34446083D01*
X127133365Y-34446090D01*
X127057949Y-34628163D01*
X127057948Y-34628167D01*
X127019500Y-34821459D01*
X127019500Y-35018540D01*
X127057948Y-35211832D01*
X127057949Y-35211836D01*
X127133365Y-35393909D01*
X127133369Y-35393916D01*
X127156993Y-35429271D01*
X127242861Y-35557782D01*
X127382218Y-35697139D01*
X127497113Y-35773909D01*
X127546083Y-35806630D01*
X127546090Y-35806634D01*
X127576319Y-35819155D01*
X127728165Y-35882051D01*
X127866446Y-35909557D01*
X127947285Y-35945730D01*
X127968337Y-35964019D01*
X129784790Y-37780472D01*
X129829890Y-37806510D01*
X129852442Y-37819530D01*
X129864712Y-37826614D01*
X129864716Y-37826615D01*
X129953854Y-37850500D01*
X129953856Y-37850500D01*
X131932390Y-37850500D01*
X132018733Y-37870207D01*
X132073104Y-37908786D01*
X132545315Y-38380997D01*
X132592434Y-38455985D01*
X132602350Y-38543992D01*
X132573099Y-38627585D01*
X132510475Y-38690209D01*
X132426882Y-38719460D01*
X132338875Y-38709544D01*
X132308297Y-38694287D01*
X132307802Y-38695215D01*
X132299174Y-38690603D01*
X132153500Y-38630264D01*
X132153498Y-38630263D01*
X132153497Y-38630263D01*
X132153495Y-38630262D01*
X132153493Y-38630262D01*
X132075125Y-38614673D01*
X131998842Y-38599500D01*
X131841158Y-38599500D01*
X131812412Y-38605218D01*
X131686506Y-38630262D01*
X131686499Y-38630264D01*
X131540825Y-38690603D01*
X131540818Y-38690607D01*
X131409715Y-38778208D01*
X131409707Y-38778214D01*
X131298214Y-38889707D01*
X131298208Y-38889715D01*
X131210607Y-39020818D01*
X131210603Y-39020825D01*
X131150264Y-39166499D01*
X131150263Y-39166503D01*
X131119500Y-39321158D01*
X131119500Y-40278842D01*
X131131754Y-40340447D01*
X131150262Y-40433493D01*
X131150264Y-40433500D01*
X131210603Y-40579174D01*
X131210606Y-40579179D01*
X131298211Y-40710289D01*
X131409711Y-40821789D01*
X131487900Y-40874033D01*
X131540818Y-40909392D01*
X131540825Y-40909396D01*
X131573483Y-40922923D01*
X131686503Y-40969737D01*
X131841158Y-41000500D01*
X131841159Y-41000500D01*
X131998841Y-41000500D01*
X131998842Y-41000500D01*
X132153497Y-40969737D01*
X132299179Y-40909394D01*
X132430289Y-40821789D01*
X132541789Y-40710289D01*
X132629394Y-40579179D01*
X132689737Y-40433497D01*
X132720500Y-40278842D01*
X132720500Y-39321158D01*
X132689737Y-39166503D01*
X132659565Y-39093662D01*
X132629396Y-39020825D01*
X132624785Y-39012198D01*
X132627101Y-39010959D01*
X132601243Y-38943223D01*
X132608684Y-38854973D01*
X132653678Y-38778690D01*
X132727314Y-38729485D01*
X132815008Y-38717102D01*
X132899389Y-38743993D01*
X132939002Y-38774684D01*
X133601214Y-39436896D01*
X133648333Y-39511884D01*
X133659500Y-39577610D01*
X133659500Y-40278842D01*
X133671754Y-40340447D01*
X133690262Y-40433493D01*
X133690264Y-40433500D01*
X133750603Y-40579174D01*
X133750606Y-40579179D01*
X133838211Y-40710289D01*
X133949711Y-40821789D01*
X134027900Y-40874033D01*
X134080818Y-40909392D01*
X134080825Y-40909396D01*
X134113483Y-40922923D01*
X134226503Y-40969737D01*
X134381158Y-41000500D01*
X134381159Y-41000500D01*
X134538841Y-41000500D01*
X134538842Y-41000500D01*
X134693497Y-40969737D01*
X134839179Y-40909394D01*
X134970289Y-40821789D01*
X135081789Y-40710289D01*
X135169394Y-40579179D01*
X135229737Y-40433497D01*
X135260500Y-40278842D01*
X135260500Y-39321158D01*
X135229737Y-39166503D01*
X135199565Y-39093662D01*
X135169396Y-39020825D01*
X135169392Y-39020818D01*
X135132552Y-38965683D01*
X135081789Y-38889711D01*
X134982292Y-38790214D01*
X134935173Y-38715226D01*
X134925257Y-38627219D01*
X134954508Y-38543626D01*
X135017132Y-38481002D01*
X135100725Y-38451751D01*
X135123006Y-38450500D01*
X136336994Y-38450500D01*
X136423337Y-38470207D01*
X136492578Y-38525426D01*
X136531005Y-38605218D01*
X136531005Y-38693782D01*
X136492578Y-38773574D01*
X136477708Y-38790214D01*
X136378214Y-38889707D01*
X136378208Y-38889715D01*
X136290607Y-39020818D01*
X136290603Y-39020825D01*
X136230264Y-39166499D01*
X136230263Y-39166503D01*
X136199500Y-39321158D01*
X136199500Y-40278842D01*
X136211754Y-40340447D01*
X136230262Y-40433493D01*
X136230264Y-40433500D01*
X136290603Y-40579174D01*
X136290606Y-40579179D01*
X136378211Y-40710289D01*
X136489711Y-40821789D01*
X136567900Y-40874033D01*
X136620818Y-40909392D01*
X136620825Y-40909396D01*
X136653483Y-40922923D01*
X136766503Y-40969737D01*
X136921158Y-41000500D01*
X136921159Y-41000500D01*
X137078841Y-41000500D01*
X137078842Y-41000500D01*
X137233497Y-40969737D01*
X137379179Y-40909394D01*
X137510289Y-40821789D01*
X137621789Y-40710289D01*
X137709394Y-40579179D01*
X137769737Y-40433497D01*
X137800500Y-40278842D01*
X137800500Y-39321158D01*
X137769737Y-39166503D01*
X137739565Y-39093662D01*
X137709396Y-39020825D01*
X137709392Y-39020818D01*
X137672552Y-38965683D01*
X137621789Y-38889711D01*
X137522292Y-38790214D01*
X137475173Y-38715226D01*
X137465257Y-38627219D01*
X137494508Y-38543626D01*
X137557132Y-38481002D01*
X137640725Y-38451751D01*
X137663006Y-38450500D01*
X138876994Y-38450500D01*
X138963337Y-38470207D01*
X139032578Y-38525426D01*
X139071005Y-38605218D01*
X139071005Y-38693782D01*
X139032578Y-38773574D01*
X139017708Y-38790214D01*
X138918214Y-38889707D01*
X138918208Y-38889715D01*
X138830607Y-39020818D01*
X138830603Y-39020825D01*
X138770264Y-39166499D01*
X138770263Y-39166503D01*
X138739500Y-39321158D01*
X138739500Y-40278842D01*
X138751754Y-40340447D01*
X138770262Y-40433493D01*
X138770264Y-40433500D01*
X138830603Y-40579174D01*
X138830606Y-40579179D01*
X138918211Y-40710289D01*
X139029711Y-40821789D01*
X139107900Y-40874033D01*
X139160818Y-40909392D01*
X139160825Y-40909396D01*
X139193483Y-40922923D01*
X139306503Y-40969737D01*
X139461158Y-41000500D01*
X139461159Y-41000500D01*
X139618841Y-41000500D01*
X139618842Y-41000500D01*
X139773497Y-40969737D01*
X139919179Y-40909394D01*
X140050289Y-40821789D01*
X140161789Y-40710289D01*
X140249394Y-40579179D01*
X140309737Y-40433497D01*
X140340500Y-40278842D01*
X140340500Y-39321158D01*
X140309737Y-39166503D01*
X140279565Y-39093662D01*
X140249396Y-39020825D01*
X140249392Y-39020818D01*
X140212552Y-38965683D01*
X140180968Y-38882943D01*
X140188412Y-38794693D01*
X140233408Y-38718412D01*
X140307046Y-38669209D01*
X140394739Y-38656828D01*
X140479120Y-38683722D01*
X140518728Y-38714410D01*
X141221214Y-39416896D01*
X141268333Y-39491884D01*
X141279500Y-39557610D01*
X141279500Y-40278842D01*
X141291754Y-40340447D01*
X141310262Y-40433493D01*
X141310264Y-40433500D01*
X141370603Y-40579174D01*
X141370606Y-40579179D01*
X141458211Y-40710289D01*
X141569711Y-40821789D01*
X141647900Y-40874033D01*
X141700818Y-40909392D01*
X141700825Y-40909396D01*
X141733483Y-40922923D01*
X141846503Y-40969737D01*
X142001158Y-41000500D01*
X142001159Y-41000500D01*
X142158841Y-41000500D01*
X142158842Y-41000500D01*
X142313497Y-40969737D01*
X142459179Y-40909394D01*
X142590289Y-40821789D01*
X142701789Y-40710289D01*
X142789394Y-40579179D01*
X142849737Y-40433497D01*
X142880500Y-40278842D01*
X142880500Y-39321158D01*
X142849737Y-39166503D01*
X142793415Y-39030530D01*
X142778581Y-38943220D01*
X142803099Y-38858118D01*
X142862113Y-38792081D01*
X142943935Y-38758190D01*
X143032359Y-38763156D01*
X143109871Y-38805995D01*
X143117982Y-38813664D01*
X143761214Y-39456896D01*
X143808333Y-39531884D01*
X143819500Y-39597610D01*
X143819500Y-40278842D01*
X143831754Y-40340447D01*
X143850262Y-40433493D01*
X143850264Y-40433500D01*
X143910603Y-40579174D01*
X143910606Y-40579179D01*
X143998211Y-40710289D01*
X144109711Y-40821789D01*
X144187900Y-40874033D01*
X144240818Y-40909392D01*
X144240825Y-40909396D01*
X144273483Y-40922923D01*
X144386503Y-40969737D01*
X144541158Y-41000500D01*
X144541159Y-41000500D01*
X144698841Y-41000500D01*
X144698842Y-41000500D01*
X144853497Y-40969737D01*
X144999179Y-40909394D01*
X145130289Y-40821789D01*
X145241789Y-40710289D01*
X145329394Y-40579179D01*
X145389737Y-40433497D01*
X145420500Y-40278842D01*
X145420500Y-39321158D01*
X145389737Y-39166503D01*
X145359565Y-39093662D01*
X145329396Y-39020825D01*
X145324785Y-39012198D01*
X145327101Y-39010959D01*
X145301243Y-38943223D01*
X145308684Y-38854973D01*
X145353678Y-38778690D01*
X145427314Y-38729485D01*
X145515008Y-38717102D01*
X145599389Y-38743993D01*
X145639002Y-38774684D01*
X146301214Y-39436896D01*
X146348333Y-39511884D01*
X146359500Y-39577610D01*
X146359500Y-40278842D01*
X146371754Y-40340447D01*
X146390262Y-40433493D01*
X146390264Y-40433500D01*
X146450603Y-40579174D01*
X146450606Y-40579179D01*
X146538211Y-40710289D01*
X146649711Y-40821789D01*
X146727900Y-40874033D01*
X146780818Y-40909392D01*
X146780825Y-40909396D01*
X146813483Y-40922923D01*
X146926503Y-40969737D01*
X147081158Y-41000500D01*
X147081159Y-41000500D01*
X147238841Y-41000500D01*
X147238842Y-41000500D01*
X147393497Y-40969737D01*
X147539179Y-40909394D01*
X147670289Y-40821789D01*
X147781789Y-40710289D01*
X147869394Y-40579179D01*
X147929737Y-40433497D01*
X147960500Y-40278842D01*
X147960500Y-39321158D01*
X148899500Y-39321158D01*
X148899500Y-40278842D01*
X148911754Y-40340447D01*
X148930262Y-40433493D01*
X148930264Y-40433500D01*
X148990603Y-40579174D01*
X148990606Y-40579179D01*
X149078211Y-40710289D01*
X149189711Y-40821789D01*
X149267900Y-40874033D01*
X149320818Y-40909392D01*
X149320825Y-40909396D01*
X149353483Y-40922923D01*
X149466503Y-40969737D01*
X149621158Y-41000500D01*
X149621159Y-41000500D01*
X149778841Y-41000500D01*
X149778842Y-41000500D01*
X149933497Y-40969737D01*
X150079179Y-40909394D01*
X150210289Y-40821789D01*
X150321789Y-40710289D01*
X150409394Y-40579179D01*
X150469737Y-40433497D01*
X150500500Y-40278842D01*
X150500500Y-39321158D01*
X151439500Y-39321158D01*
X151439500Y-40278842D01*
X151451754Y-40340447D01*
X151470262Y-40433493D01*
X151470264Y-40433500D01*
X151530603Y-40579174D01*
X151530606Y-40579179D01*
X151618211Y-40710289D01*
X151729711Y-40821789D01*
X151801059Y-40869462D01*
X151861901Y-40933817D01*
X151888796Y-41018198D01*
X151889500Y-41034924D01*
X151889500Y-42776144D01*
X151902457Y-42824500D01*
X151902458Y-42824502D01*
X151913385Y-42865287D01*
X151959529Y-42945211D01*
X157116735Y-48102417D01*
X157163854Y-48177405D01*
X157173770Y-48265412D01*
X157171197Y-48281953D01*
X157139500Y-48441308D01*
X157139500Y-48618690D01*
X157174104Y-48792660D01*
X157241988Y-48956550D01*
X157340535Y-49104034D01*
X157340541Y-49104041D01*
X157465958Y-49229458D01*
X157465965Y-49229464D01*
X157613449Y-49328011D01*
X157613451Y-49328012D01*
X157613453Y-49328013D01*
X157777334Y-49395894D01*
X157951309Y-49430500D01*
X157951310Y-49430500D01*
X158128690Y-49430500D01*
X158128691Y-49430500D01*
X158302666Y-49395894D01*
X158466547Y-49328013D01*
X158614035Y-49229464D01*
X158739464Y-49104035D01*
X158838013Y-48956547D01*
X158905894Y-48792666D01*
X158940500Y-48618691D01*
X158940500Y-48441309D01*
X159679500Y-48441309D01*
X159679500Y-48618690D01*
X159714104Y-48792660D01*
X159781988Y-48956550D01*
X159880535Y-49104034D01*
X159880541Y-49104041D01*
X160005958Y-49229458D01*
X160005965Y-49229464D01*
X160153449Y-49328011D01*
X160153451Y-49328012D01*
X160153453Y-49328013D01*
X160317334Y-49395894D01*
X160491309Y-49430500D01*
X160491310Y-49430500D01*
X160668690Y-49430500D01*
X160668691Y-49430500D01*
X160842666Y-49395894D01*
X161006547Y-49328013D01*
X161154035Y-49229464D01*
X161279464Y-49104035D01*
X161378013Y-48956547D01*
X161445894Y-48792666D01*
X161480500Y-48618691D01*
X161480500Y-48441309D01*
X161445894Y-48267334D01*
X161378013Y-48103453D01*
X161378012Y-48103451D01*
X161378011Y-48103449D01*
X161279464Y-47955965D01*
X161279458Y-47955958D01*
X161154041Y-47830541D01*
X161154034Y-47830535D01*
X161006550Y-47731988D01*
X160918712Y-47695605D01*
X160842666Y-47664106D01*
X160842663Y-47664105D01*
X160842660Y-47664104D01*
X160703108Y-47636346D01*
X160668691Y-47629500D01*
X160491309Y-47629500D01*
X160462576Y-47635215D01*
X160317339Y-47664104D01*
X160153449Y-47731988D01*
X160005965Y-47830535D01*
X160005958Y-47830541D01*
X159880541Y-47955958D01*
X159880535Y-47955965D01*
X159781988Y-48103449D01*
X159714104Y-48267339D01*
X159679500Y-48441309D01*
X158940500Y-48441309D01*
X158905894Y-48267334D01*
X158838013Y-48103453D01*
X158838012Y-48103451D01*
X158838011Y-48103449D01*
X158739464Y-47955965D01*
X158739458Y-47955958D01*
X158614041Y-47830541D01*
X158614034Y-47830535D01*
X158466550Y-47731988D01*
X158378712Y-47695605D01*
X158302666Y-47664106D01*
X158302663Y-47664105D01*
X158302660Y-47664104D01*
X158163108Y-47636346D01*
X158128691Y-47629500D01*
X157951309Y-47629500D01*
X157791953Y-47661197D01*
X157703425Y-47658713D01*
X157624741Y-47618064D01*
X157612417Y-47606735D01*
X152648786Y-42643104D01*
X152601667Y-42568116D01*
X152590500Y-42502390D01*
X152590500Y-41034924D01*
X152610207Y-40948581D01*
X152665426Y-40879340D01*
X152678932Y-40869467D01*
X152750289Y-40821789D01*
X152861789Y-40710289D01*
X152949394Y-40579179D01*
X153009737Y-40433497D01*
X153040500Y-40278842D01*
X153040500Y-39321158D01*
X153979500Y-39321158D01*
X153979500Y-40278842D01*
X153991754Y-40340447D01*
X154010262Y-40433493D01*
X154010264Y-40433500D01*
X154070603Y-40579174D01*
X154070606Y-40579179D01*
X154158211Y-40710289D01*
X154269711Y-40821789D01*
X154347900Y-40874033D01*
X154400818Y-40909392D01*
X154400825Y-40909396D01*
X154433483Y-40922923D01*
X154546503Y-40969737D01*
X154701158Y-41000500D01*
X154701159Y-41000500D01*
X154858841Y-41000500D01*
X154858842Y-41000500D01*
X155013497Y-40969737D01*
X155159179Y-40909394D01*
X155175965Y-40898177D01*
X155258701Y-40866592D01*
X155346952Y-40874033D01*
X155423234Y-40919027D01*
X155427241Y-40922923D01*
X156274788Y-41770470D01*
X156326799Y-41800498D01*
X156326801Y-41800500D01*
X156345862Y-41811504D01*
X156354712Y-41816614D01*
X156443856Y-41840500D01*
X173944806Y-41840500D01*
X174031149Y-41860207D01*
X174100390Y-41915426D01*
X174110268Y-41928941D01*
X174200535Y-42064034D01*
X174200541Y-42064041D01*
X174325958Y-42189458D01*
X174325965Y-42189464D01*
X174473449Y-42288011D01*
X174473451Y-42288012D01*
X174473453Y-42288013D01*
X174637334Y-42355894D01*
X174811309Y-42390500D01*
X174811310Y-42390500D01*
X174988690Y-42390500D01*
X174988691Y-42390500D01*
X175162666Y-42355894D01*
X175326547Y-42288013D01*
X175474035Y-42189464D01*
X175599464Y-42064035D01*
X175683050Y-41938941D01*
X175747406Y-41878098D01*
X175831787Y-41851204D01*
X175848512Y-41850500D01*
X178933000Y-41850500D01*
X179019343Y-41870207D01*
X179088584Y-41925426D01*
X179127011Y-42005218D01*
X179132000Y-42049500D01*
X179132000Y-42484749D01*
X179143633Y-42543232D01*
X179187947Y-42609552D01*
X179254267Y-42653866D01*
X179254269Y-42653867D01*
X179289484Y-42660871D01*
X179312750Y-42665500D01*
X179542069Y-42665500D01*
X179628412Y-42685207D01*
X179697653Y-42740426D01*
X179736080Y-42820218D01*
X179736080Y-42908782D01*
X179697653Y-42988574D01*
X179659040Y-43025492D01*
X179546941Y-43106938D01*
X179546939Y-43106939D01*
X179546936Y-43106942D01*
X179546934Y-43106943D01*
X179414443Y-43239434D01*
X179414442Y-43239436D01*
X179304293Y-43391041D01*
X179219220Y-43558007D01*
X179219219Y-43558011D01*
X179161315Y-43736220D01*
X179161312Y-43736231D01*
X179132000Y-43921306D01*
X179132000Y-44108693D01*
X179161312Y-44293768D01*
X179161315Y-44293779D01*
X179219219Y-44471988D01*
X179219220Y-44471992D01*
X179219221Y-44471993D01*
X179304293Y-44638958D01*
X179414438Y-44790559D01*
X179414442Y-44790563D01*
X179414443Y-44790565D01*
X179546934Y-44923056D01*
X179546936Y-44923057D01*
X179546941Y-44923062D01*
X179698542Y-45033207D01*
X179844723Y-45107689D01*
X179912709Y-45164447D01*
X179949335Y-45245082D01*
X179947348Y-45333623D01*
X179907142Y-45412534D01*
X179844723Y-45462311D01*
X179698541Y-45536793D01*
X179597840Y-45609957D01*
X179546941Y-45646938D01*
X179546939Y-45646939D01*
X179546936Y-45646942D01*
X179546934Y-45646943D01*
X179414443Y-45779434D01*
X179414442Y-45779436D01*
X179304293Y-45931041D01*
X179219220Y-46098007D01*
X179219219Y-46098011D01*
X179161315Y-46276220D01*
X179161312Y-46276231D01*
X179132000Y-46461306D01*
X179132000Y-46648693D01*
X179161312Y-46833768D01*
X179161315Y-46833779D01*
X179219219Y-47011988D01*
X179219220Y-47011992D01*
X179219221Y-47011993D01*
X179304293Y-47178958D01*
X179414438Y-47330559D01*
X179414442Y-47330563D01*
X179414443Y-47330565D01*
X179546934Y-47463056D01*
X179546936Y-47463057D01*
X179546941Y-47463062D01*
X179698542Y-47573207D01*
X179865507Y-47658279D01*
X180043724Y-47716186D01*
X180228806Y-47745500D01*
X180416194Y-47745500D01*
X180601276Y-47716186D01*
X180779493Y-47658279D01*
X180946458Y-47573207D01*
X181098059Y-47463062D01*
X181230562Y-47330559D01*
X181340707Y-47178958D01*
X181425779Y-47011993D01*
X181483686Y-46833776D01*
X181513000Y-46648694D01*
X181513000Y-46587638D01*
X181532707Y-46501295D01*
X181587926Y-46432054D01*
X181667718Y-46393627D01*
X181756282Y-46393627D01*
X181836074Y-46432054D01*
X181852714Y-46446924D01*
X187791214Y-52385424D01*
X187838333Y-52460412D01*
X187849500Y-52526138D01*
X187849500Y-53939154D01*
X187829793Y-54025497D01*
X187815961Y-54049714D01*
X187761133Y-54131767D01*
X187749500Y-54190250D01*
X187749500Y-55929749D01*
X187761133Y-55988232D01*
X187805447Y-56054552D01*
X187871767Y-56098866D01*
X187871769Y-56098867D01*
X187906984Y-56105871D01*
X187930250Y-56110500D01*
X187930252Y-56110500D01*
X189669750Y-56110500D01*
X189689155Y-56106639D01*
X189728231Y-56098867D01*
X189794552Y-56054552D01*
X189838867Y-55988231D01*
X189850500Y-55929748D01*
X189850500Y-54190252D01*
X189838867Y-54131769D01*
X189794552Y-54065448D01*
X189784039Y-54049714D01*
X189752454Y-53966974D01*
X189750500Y-53939154D01*
X189750500Y-51956380D01*
X189713973Y-51772751D01*
X189713972Y-51772747D01*
X189684295Y-51701102D01*
X189684295Y-51701100D01*
X189642322Y-51599768D01*
X189642321Y-51599766D01*
X189590312Y-51521931D01*
X189538302Y-51444092D01*
X181370908Y-43276698D01*
X181292545Y-43224337D01*
X181215232Y-43172678D01*
X181215225Y-43172674D01*
X181164001Y-43151457D01*
X181120615Y-43126700D01*
X181109377Y-43118256D01*
X181098059Y-43106938D01*
X180984690Y-43024570D01*
X180983392Y-43023595D01*
X180955814Y-42990988D01*
X180927692Y-42958799D01*
X180927256Y-42957222D01*
X180926201Y-42955974D01*
X180915502Y-42914632D01*
X180904131Y-42873427D01*
X180904423Y-42871816D01*
X180904014Y-42870235D01*
X180912311Y-42828347D01*
X180919945Y-42786287D01*
X180920906Y-42784963D01*
X180921224Y-42783360D01*
X180946890Y-42749200D01*
X180972002Y-42714638D01*
X180973441Y-42713863D01*
X180974424Y-42712556D01*
X181012349Y-42692925D01*
X181049990Y-42672671D01*
X181052012Y-42672397D01*
X181053077Y-42671846D01*
X181056892Y-42671735D01*
X181102931Y-42665500D01*
X181332250Y-42665500D01*
X181351655Y-42661639D01*
X181390731Y-42653867D01*
X181457052Y-42609552D01*
X181501367Y-42543231D01*
X181513000Y-42484748D01*
X181513000Y-40465252D01*
X181501367Y-40406769D01*
X181501366Y-40406767D01*
X181457052Y-40340447D01*
X181390732Y-40296133D01*
X181332250Y-40284500D01*
X181332248Y-40284500D01*
X179312752Y-40284500D01*
X179312750Y-40284500D01*
X179254267Y-40296133D01*
X179187947Y-40340447D01*
X179143633Y-40406767D01*
X179132000Y-40465250D01*
X179132000Y-40950500D01*
X179112293Y-41036843D01*
X179057074Y-41106084D01*
X178977282Y-41144511D01*
X178933000Y-41149500D01*
X175861876Y-41149500D01*
X175775533Y-41129793D01*
X175706292Y-41074574D01*
X175696414Y-41061059D01*
X175645446Y-40984782D01*
X175599464Y-40915965D01*
X175599461Y-40915962D01*
X175599458Y-40915958D01*
X175474041Y-40790541D01*
X175474034Y-40790535D01*
X175326550Y-40691988D01*
X175241549Y-40656780D01*
X175162666Y-40624106D01*
X175162663Y-40624105D01*
X175162660Y-40624104D01*
X175023108Y-40596346D01*
X174988691Y-40589500D01*
X174811309Y-40589500D01*
X174782576Y-40595215D01*
X174637339Y-40624104D01*
X174473449Y-40691988D01*
X174325965Y-40790535D01*
X174325958Y-40790541D01*
X174200541Y-40915958D01*
X174200535Y-40915965D01*
X174110268Y-41051059D01*
X174045912Y-41111902D01*
X173961531Y-41138796D01*
X173944806Y-41139500D01*
X168153006Y-41139500D01*
X168066663Y-41119793D01*
X167997422Y-41064574D01*
X167958995Y-40984782D01*
X167958995Y-40896218D01*
X167997422Y-40816426D01*
X168012292Y-40799786D01*
X168025743Y-40786335D01*
X168101789Y-40710289D01*
X168189394Y-40579179D01*
X168249737Y-40433497D01*
X168280500Y-40278842D01*
X168280500Y-39321158D01*
X168249737Y-39166503D01*
X168219565Y-39093662D01*
X168189396Y-39020825D01*
X168189392Y-39020818D01*
X168152552Y-38965683D01*
X168101789Y-38889711D01*
X167990289Y-38778211D01*
X167923237Y-38733408D01*
X167859181Y-38690607D01*
X167859174Y-38690603D01*
X167713500Y-38630264D01*
X167713498Y-38630263D01*
X167713497Y-38630263D01*
X167713495Y-38630262D01*
X167713493Y-38630262D01*
X167635125Y-38614673D01*
X167558842Y-38599500D01*
X167401158Y-38599500D01*
X167372412Y-38605218D01*
X167246506Y-38630262D01*
X167246499Y-38630264D01*
X167100825Y-38690603D01*
X167100818Y-38690607D01*
X166969715Y-38778208D01*
X166969707Y-38778214D01*
X166858214Y-38889707D01*
X166858208Y-38889715D01*
X166770607Y-39020818D01*
X166770603Y-39020825D01*
X166710264Y-39166499D01*
X166710263Y-39166503D01*
X166679500Y-39321158D01*
X166679500Y-40278842D01*
X166691754Y-40340447D01*
X166710262Y-40433493D01*
X166710264Y-40433500D01*
X166770603Y-40579174D01*
X166770606Y-40579179D01*
X166858211Y-40710289D01*
X166858214Y-40710292D01*
X166947708Y-40799786D01*
X166994827Y-40874774D01*
X167004743Y-40962781D01*
X166975492Y-41046374D01*
X166912868Y-41108998D01*
X166829275Y-41138249D01*
X166806994Y-41139500D01*
X165613006Y-41139500D01*
X165526663Y-41119793D01*
X165457422Y-41064574D01*
X165418995Y-40984782D01*
X165418995Y-40896218D01*
X165457422Y-40816426D01*
X165472292Y-40799786D01*
X165485743Y-40786335D01*
X165561789Y-40710289D01*
X165649394Y-40579179D01*
X165709737Y-40433497D01*
X165740500Y-40278842D01*
X165740500Y-39321158D01*
X165709737Y-39166503D01*
X165679565Y-39093662D01*
X165649396Y-39020825D01*
X165649392Y-39020818D01*
X165612552Y-38965683D01*
X165561789Y-38889711D01*
X165450289Y-38778211D01*
X165383237Y-38733408D01*
X165319181Y-38690607D01*
X165319174Y-38690603D01*
X165173500Y-38630264D01*
X165173498Y-38630263D01*
X165173497Y-38630263D01*
X165173495Y-38630262D01*
X165173493Y-38630262D01*
X165095125Y-38614673D01*
X165018842Y-38599500D01*
X164861158Y-38599500D01*
X164832412Y-38605218D01*
X164706506Y-38630262D01*
X164706499Y-38630264D01*
X164560825Y-38690603D01*
X164560818Y-38690607D01*
X164429715Y-38778208D01*
X164429707Y-38778214D01*
X164318214Y-38889707D01*
X164318208Y-38889715D01*
X164230607Y-39020818D01*
X164230603Y-39020825D01*
X164170264Y-39166499D01*
X164170263Y-39166503D01*
X164139500Y-39321158D01*
X164139500Y-40278842D01*
X164151754Y-40340447D01*
X164170262Y-40433493D01*
X164170264Y-40433500D01*
X164230603Y-40579174D01*
X164230606Y-40579179D01*
X164318211Y-40710289D01*
X164318214Y-40710292D01*
X164407708Y-40799786D01*
X164454827Y-40874774D01*
X164464743Y-40962781D01*
X164435492Y-41046374D01*
X164372868Y-41108998D01*
X164289275Y-41138249D01*
X164266994Y-41139500D01*
X163073006Y-41139500D01*
X162986663Y-41119793D01*
X162917422Y-41064574D01*
X162878995Y-40984782D01*
X162878995Y-40896218D01*
X162917422Y-40816426D01*
X162932292Y-40799786D01*
X162945743Y-40786335D01*
X163021789Y-40710289D01*
X163109394Y-40579179D01*
X163169737Y-40433497D01*
X163200500Y-40278842D01*
X163200500Y-39321158D01*
X163169737Y-39166503D01*
X163139565Y-39093662D01*
X163109396Y-39020825D01*
X163109392Y-39020818D01*
X163072552Y-38965683D01*
X163021789Y-38889711D01*
X162910289Y-38778211D01*
X162843237Y-38733408D01*
X162779181Y-38690607D01*
X162779174Y-38690603D01*
X162633500Y-38630264D01*
X162633498Y-38630263D01*
X162633497Y-38630263D01*
X162633495Y-38630262D01*
X162633493Y-38630262D01*
X162555125Y-38614673D01*
X162478842Y-38599500D01*
X162321158Y-38599500D01*
X162292412Y-38605218D01*
X162166506Y-38630262D01*
X162166499Y-38630264D01*
X162020825Y-38690603D01*
X162020818Y-38690607D01*
X161889715Y-38778208D01*
X161889707Y-38778214D01*
X161778214Y-38889707D01*
X161778208Y-38889715D01*
X161690607Y-39020818D01*
X161690603Y-39020825D01*
X161630264Y-39166499D01*
X161630263Y-39166503D01*
X161599500Y-39321158D01*
X161599500Y-40278842D01*
X161611754Y-40340447D01*
X161630262Y-40433493D01*
X161630264Y-40433500D01*
X161690603Y-40579174D01*
X161690606Y-40579179D01*
X161778211Y-40710289D01*
X161778214Y-40710292D01*
X161867708Y-40799786D01*
X161914827Y-40874774D01*
X161924743Y-40962781D01*
X161895492Y-41046374D01*
X161832868Y-41108998D01*
X161749275Y-41138249D01*
X161726994Y-41139500D01*
X160533006Y-41139500D01*
X160446663Y-41119793D01*
X160377422Y-41064574D01*
X160338995Y-40984782D01*
X160338995Y-40896218D01*
X160377422Y-40816426D01*
X160392292Y-40799786D01*
X160405743Y-40786335D01*
X160481789Y-40710289D01*
X160569394Y-40579179D01*
X160629737Y-40433497D01*
X160660500Y-40278842D01*
X160660500Y-39321158D01*
X160629737Y-39166503D01*
X160599565Y-39093662D01*
X160569396Y-39020825D01*
X160569392Y-39020818D01*
X160532552Y-38965683D01*
X160481789Y-38889711D01*
X160370289Y-38778211D01*
X160303237Y-38733408D01*
X160239181Y-38690607D01*
X160239174Y-38690603D01*
X160093500Y-38630264D01*
X160093498Y-38630263D01*
X160093497Y-38630263D01*
X160093495Y-38630262D01*
X160093493Y-38630262D01*
X160015125Y-38614673D01*
X159938842Y-38599500D01*
X159781158Y-38599500D01*
X159752412Y-38605218D01*
X159626506Y-38630262D01*
X159626499Y-38630264D01*
X159480825Y-38690603D01*
X159480818Y-38690607D01*
X159349715Y-38778208D01*
X159349707Y-38778214D01*
X159238214Y-38889707D01*
X159238208Y-38889715D01*
X159150607Y-39020818D01*
X159150603Y-39020825D01*
X159090264Y-39166499D01*
X159090263Y-39166503D01*
X159059500Y-39321158D01*
X159059500Y-40278842D01*
X159071754Y-40340447D01*
X159090262Y-40433493D01*
X159090264Y-40433500D01*
X159150603Y-40579174D01*
X159150606Y-40579179D01*
X159238211Y-40710289D01*
X159238214Y-40710292D01*
X159327708Y-40799786D01*
X159374827Y-40874774D01*
X159384743Y-40962781D01*
X159355492Y-41046374D01*
X159292868Y-41108998D01*
X159209275Y-41138249D01*
X159186994Y-41139500D01*
X157993006Y-41139500D01*
X157906663Y-41119793D01*
X157837422Y-41064574D01*
X157798995Y-40984782D01*
X157798995Y-40896218D01*
X157837422Y-40816426D01*
X157852292Y-40799786D01*
X157865743Y-40786335D01*
X157941789Y-40710289D01*
X158029394Y-40579179D01*
X158089737Y-40433497D01*
X158120500Y-40278842D01*
X158120500Y-39321158D01*
X158089737Y-39166503D01*
X158059565Y-39093662D01*
X158029396Y-39020825D01*
X158029392Y-39020818D01*
X157992552Y-38965683D01*
X157941789Y-38889711D01*
X157830289Y-38778211D01*
X157763237Y-38733408D01*
X157699181Y-38690607D01*
X157699174Y-38690603D01*
X157553500Y-38630264D01*
X157553498Y-38630263D01*
X157553497Y-38630263D01*
X157553495Y-38630262D01*
X157553493Y-38630262D01*
X157475125Y-38614673D01*
X157398842Y-38599500D01*
X157241158Y-38599500D01*
X157212412Y-38605218D01*
X157086506Y-38630262D01*
X157086499Y-38630264D01*
X156940825Y-38690603D01*
X156940818Y-38690607D01*
X156809715Y-38778208D01*
X156809707Y-38778214D01*
X156698214Y-38889707D01*
X156698208Y-38889715D01*
X156610607Y-39020818D01*
X156610603Y-39020825D01*
X156550264Y-39166499D01*
X156550263Y-39166503D01*
X156519500Y-39321158D01*
X156519500Y-40278842D01*
X156531754Y-40340447D01*
X156550262Y-40433493D01*
X156550264Y-40433500D01*
X156606583Y-40569468D01*
X156621418Y-40656780D01*
X156596900Y-40741882D01*
X156537886Y-40807918D01*
X156456064Y-40841809D01*
X156367640Y-40836843D01*
X156290127Y-40794003D01*
X156282017Y-40786335D01*
X155638786Y-40143104D01*
X155591667Y-40068116D01*
X155580500Y-40002390D01*
X155580500Y-39321158D01*
X155571640Y-39276615D01*
X155549737Y-39166503D01*
X155519565Y-39093662D01*
X155489396Y-39020825D01*
X155489392Y-39020818D01*
X155452552Y-38965683D01*
X155401789Y-38889711D01*
X155290289Y-38778211D01*
X155223237Y-38733408D01*
X155159181Y-38690607D01*
X155159174Y-38690603D01*
X155013500Y-38630264D01*
X155013498Y-38630263D01*
X155013497Y-38630263D01*
X155013495Y-38630262D01*
X155013493Y-38630262D01*
X154935125Y-38614673D01*
X154858842Y-38599500D01*
X154701158Y-38599500D01*
X154672412Y-38605218D01*
X154546506Y-38630262D01*
X154546499Y-38630264D01*
X154400825Y-38690603D01*
X154400818Y-38690607D01*
X154269715Y-38778208D01*
X154269707Y-38778214D01*
X154158214Y-38889707D01*
X154158208Y-38889715D01*
X154070607Y-39020818D01*
X154070603Y-39020825D01*
X154010264Y-39166499D01*
X154010263Y-39166503D01*
X153979500Y-39321158D01*
X153040500Y-39321158D01*
X153009737Y-39166503D01*
X152979565Y-39093662D01*
X152949396Y-39020825D01*
X152949392Y-39020818D01*
X152912552Y-38965683D01*
X152861789Y-38889711D01*
X152750289Y-38778211D01*
X152683237Y-38733408D01*
X152619181Y-38690607D01*
X152619174Y-38690603D01*
X152473500Y-38630264D01*
X152473498Y-38630263D01*
X152473497Y-38630263D01*
X152473495Y-38630262D01*
X152473493Y-38630262D01*
X152395125Y-38614673D01*
X152318842Y-38599500D01*
X152161158Y-38599500D01*
X152132412Y-38605218D01*
X152006506Y-38630262D01*
X152006499Y-38630264D01*
X151860825Y-38690603D01*
X151860818Y-38690607D01*
X151729715Y-38778208D01*
X151729707Y-38778214D01*
X151618214Y-38889707D01*
X151618208Y-38889715D01*
X151530607Y-39020818D01*
X151530603Y-39020825D01*
X151470264Y-39166499D01*
X151470263Y-39166503D01*
X151439500Y-39321158D01*
X150500500Y-39321158D01*
X150469737Y-39166503D01*
X150439565Y-39093662D01*
X150409396Y-39020825D01*
X150409392Y-39020818D01*
X150372552Y-38965683D01*
X150321789Y-38889711D01*
X150210289Y-38778211D01*
X150143237Y-38733408D01*
X150079181Y-38690607D01*
X150079174Y-38690603D01*
X149933500Y-38630264D01*
X149933498Y-38630263D01*
X149933497Y-38630263D01*
X149933495Y-38630262D01*
X149933493Y-38630262D01*
X149855125Y-38614673D01*
X149778842Y-38599500D01*
X149621158Y-38599500D01*
X149592412Y-38605218D01*
X149466506Y-38630262D01*
X149466499Y-38630264D01*
X149320825Y-38690603D01*
X149320818Y-38690607D01*
X149189715Y-38778208D01*
X149189707Y-38778214D01*
X149078214Y-38889707D01*
X149078208Y-38889715D01*
X148990607Y-39020818D01*
X148990603Y-39020825D01*
X148930264Y-39166499D01*
X148930263Y-39166503D01*
X148899500Y-39321158D01*
X147960500Y-39321158D01*
X147929737Y-39166503D01*
X147899565Y-39093662D01*
X147869396Y-39020825D01*
X147869392Y-39020818D01*
X147832552Y-38965683D01*
X147781789Y-38889711D01*
X147670289Y-38778211D01*
X147603237Y-38733408D01*
X147539181Y-38690607D01*
X147539174Y-38690603D01*
X147393500Y-38630264D01*
X147393498Y-38630263D01*
X147393497Y-38630263D01*
X147393495Y-38630262D01*
X147393493Y-38630262D01*
X147315125Y-38614673D01*
X147238842Y-38599500D01*
X147081158Y-38599500D01*
X147052412Y-38605218D01*
X146926506Y-38630262D01*
X146926499Y-38630264D01*
X146780825Y-38690603D01*
X146780820Y-38690606D01*
X146776015Y-38693817D01*
X146693273Y-38725398D01*
X146605024Y-38717951D01*
X146528744Y-38672952D01*
X146524747Y-38669065D01*
X144575211Y-36719529D01*
X144495289Y-36673386D01*
X144495286Y-36673385D01*
X144437135Y-36657804D01*
X144401156Y-36638788D01*
X144364474Y-36621097D01*
X144362141Y-36618168D01*
X144358835Y-36616421D01*
X144334667Y-36583675D01*
X144309297Y-36551823D01*
X144308466Y-36548174D01*
X144306244Y-36545163D01*
X144298674Y-36505156D01*
X144289640Y-36465468D01*
X144290474Y-36461820D01*
X144289779Y-36458144D01*
X144300317Y-36418815D01*
X144309398Y-36379137D01*
X144311732Y-36376213D01*
X144312701Y-36372598D01*
X144339261Y-36341734D01*
X144364657Y-36309928D01*
X144367947Y-36308400D01*
X144370470Y-36305470D01*
X144444472Y-36271548D01*
X144447112Y-36270947D01*
X144491835Y-36262051D01*
X144498717Y-36259200D01*
X144515136Y-36255463D01*
X144534273Y-36255474D01*
X144559304Y-36250500D01*
X178323862Y-36250500D01*
X178410205Y-36270207D01*
X178464576Y-36308786D01*
X190991214Y-48835424D01*
X191038333Y-48910412D01*
X191049500Y-48976138D01*
X191049500Y-57523862D01*
X191029793Y-57610205D01*
X190991214Y-57664576D01*
X189524576Y-59131214D01*
X189496306Y-59148977D01*
X189470205Y-59169793D01*
X189459171Y-59172311D01*
X189449588Y-59178333D01*
X189383862Y-59189500D01*
X189289963Y-59189500D01*
X189213809Y-59174352D01*
X189152548Y-59148977D01*
X189106420Y-59129870D01*
X189106417Y-59129869D01*
X189106416Y-59129869D01*
X188903468Y-59089500D01*
X188903465Y-59089500D01*
X188696535Y-59089500D01*
X188696532Y-59089500D01*
X188493583Y-59129869D01*
X188493580Y-59129870D01*
X188302406Y-59209056D01*
X188302403Y-59209058D01*
X188130346Y-59324022D01*
X188130341Y-59324026D01*
X187984026Y-59470341D01*
X187984022Y-59470346D01*
X187869058Y-59642403D01*
X187869053Y-59642412D01*
X187859012Y-59666655D01*
X187807763Y-59738884D01*
X187730250Y-59781723D01*
X187675161Y-59789500D01*
X182367610Y-59789500D01*
X182281267Y-59769793D01*
X182226896Y-59731214D01*
X179906991Y-57411309D01*
X182409500Y-57411309D01*
X182409500Y-57588691D01*
X182416346Y-57623108D01*
X182444104Y-57762660D01*
X182511988Y-57926550D01*
X182610535Y-58074034D01*
X182610541Y-58074041D01*
X182735958Y-58199458D01*
X182735965Y-58199464D01*
X182883449Y-58298011D01*
X182883451Y-58298012D01*
X182883453Y-58298013D01*
X183047334Y-58365894D01*
X183221309Y-58400500D01*
X183221310Y-58400500D01*
X183398690Y-58400500D01*
X183398691Y-58400500D01*
X183572666Y-58365894D01*
X183736547Y-58298013D01*
X183884035Y-58199464D01*
X184009464Y-58074035D01*
X184099732Y-57938941D01*
X184164088Y-57878098D01*
X184248469Y-57851204D01*
X184265194Y-57850500D01*
X187633740Y-57850500D01*
X187720083Y-57870207D01*
X187789324Y-57925426D01*
X187817592Y-57973346D01*
X187869056Y-58097593D01*
X187869058Y-58097596D01*
X187869059Y-58097598D01*
X187984023Y-58269655D01*
X188130345Y-58415977D01*
X188302402Y-58530941D01*
X188302404Y-58530942D01*
X188302406Y-58530943D01*
X188351245Y-58551172D01*
X188493580Y-58610130D01*
X188595057Y-58630315D01*
X188696532Y-58650500D01*
X188696535Y-58650500D01*
X188903468Y-58650500D01*
X188990445Y-58633198D01*
X189106420Y-58610130D01*
X189297598Y-58530941D01*
X189469655Y-58415977D01*
X189615977Y-58269655D01*
X189730941Y-58097598D01*
X189810130Y-57906420D01*
X189838724Y-57762666D01*
X189850500Y-57703468D01*
X189850500Y-57496531D01*
X189818547Y-57335895D01*
X189810130Y-57293580D01*
X189730941Y-57102402D01*
X189615977Y-56930345D01*
X189469655Y-56784023D01*
X189297598Y-56669059D01*
X189297596Y-56669058D01*
X189297593Y-56669056D01*
X189165376Y-56614290D01*
X189106420Y-56589870D01*
X189106417Y-56589869D01*
X189106416Y-56589869D01*
X188903468Y-56549500D01*
X188903465Y-56549500D01*
X188696535Y-56549500D01*
X188696532Y-56549500D01*
X188493583Y-56589869D01*
X188493580Y-56589870D01*
X188302406Y-56669056D01*
X188302403Y-56669058D01*
X188130346Y-56784022D01*
X188130341Y-56784026D01*
X187984026Y-56930341D01*
X187984022Y-56930346D01*
X187896684Y-57061058D01*
X187832328Y-57121901D01*
X187747947Y-57148796D01*
X187731221Y-57149500D01*
X184265194Y-57149500D01*
X184178851Y-57129793D01*
X184109610Y-57074574D01*
X184099732Y-57061059D01*
X184009464Y-56925965D01*
X184009458Y-56925958D01*
X183884041Y-56800541D01*
X183884034Y-56800535D01*
X183736550Y-56701988D01*
X183657051Y-56669059D01*
X183572666Y-56634106D01*
X183572663Y-56634105D01*
X183572660Y-56634104D01*
X183433108Y-56606346D01*
X183398691Y-56599500D01*
X183221309Y-56599500D01*
X183192576Y-56605215D01*
X183047339Y-56634104D01*
X182883449Y-56701988D01*
X182735965Y-56800535D01*
X182735958Y-56800541D01*
X182610541Y-56925958D01*
X182610535Y-56925965D01*
X182511988Y-57073449D01*
X182444104Y-57237339D01*
X182417617Y-57370500D01*
X182409500Y-57411309D01*
X179906991Y-57411309D01*
X171516991Y-49021309D01*
X173999500Y-49021309D01*
X173999500Y-49198690D01*
X174034104Y-49372660D01*
X174034105Y-49372663D01*
X174034106Y-49372666D01*
X174079360Y-49481920D01*
X174101988Y-49536550D01*
X174200535Y-49684034D01*
X174200541Y-49684041D01*
X174325958Y-49809458D01*
X174325965Y-49809464D01*
X174473449Y-49908011D01*
X174473451Y-49908012D01*
X174473453Y-49908013D01*
X174637334Y-49975894D01*
X174811309Y-50010500D01*
X174811310Y-50010500D01*
X174988690Y-50010500D01*
X174988691Y-50010500D01*
X175162666Y-49975894D01*
X175326547Y-49908013D01*
X175474035Y-49809464D01*
X175599464Y-49684035D01*
X175698013Y-49536547D01*
X175765894Y-49372666D01*
X175800500Y-49198691D01*
X175800500Y-49021309D01*
X175765894Y-48847334D01*
X175698013Y-48683453D01*
X175698012Y-48683451D01*
X175698011Y-48683449D01*
X175599464Y-48535965D01*
X175599458Y-48535958D01*
X175474041Y-48410541D01*
X175474034Y-48410535D01*
X175326550Y-48311988D01*
X175254038Y-48281953D01*
X175162666Y-48244106D01*
X175162663Y-48244105D01*
X175162660Y-48244104D01*
X175023108Y-48216346D01*
X174988691Y-48209500D01*
X174811309Y-48209500D01*
X174782576Y-48215215D01*
X174637339Y-48244104D01*
X174473449Y-48311988D01*
X174325965Y-48410535D01*
X174325958Y-48410541D01*
X174200541Y-48535958D01*
X174200535Y-48535965D01*
X174101988Y-48683449D01*
X174034104Y-48847339D01*
X173999500Y-49021309D01*
X171516991Y-49021309D01*
X170745211Y-48249529D01*
X170665289Y-48203386D01*
X170665286Y-48203385D01*
X170576144Y-48179500D01*
X164075194Y-48179500D01*
X163988851Y-48159793D01*
X163919610Y-48104574D01*
X163909732Y-48091059D01*
X163819464Y-47955965D01*
X163819458Y-47955958D01*
X163694041Y-47830541D01*
X163694034Y-47830535D01*
X163546550Y-47731988D01*
X163458712Y-47695605D01*
X163382666Y-47664106D01*
X163382663Y-47664105D01*
X163382660Y-47664104D01*
X163243108Y-47636346D01*
X163208691Y-47629500D01*
X163031309Y-47629500D01*
X163002576Y-47635215D01*
X162857339Y-47664104D01*
X162693449Y-47731988D01*
X162545965Y-47830535D01*
X162545958Y-47830541D01*
X162420541Y-47955958D01*
X162420535Y-47955965D01*
X162321988Y-48103449D01*
X162254104Y-48267339D01*
X162219500Y-48441309D01*
X162219500Y-48618690D01*
X162254104Y-48792660D01*
X162321988Y-48956550D01*
X162420535Y-49104034D01*
X162420541Y-49104041D01*
X162545958Y-49229458D01*
X162545965Y-49229464D01*
X162693449Y-49328011D01*
X162693451Y-49328012D01*
X162693453Y-49328013D01*
X162857334Y-49395894D01*
X163031309Y-49430500D01*
X163031310Y-49430500D01*
X163208690Y-49430500D01*
X163208691Y-49430500D01*
X163382666Y-49395894D01*
X163546547Y-49328013D01*
X163694035Y-49229464D01*
X163819464Y-49104035D01*
X163909732Y-48968941D01*
X163974088Y-48908098D01*
X164058469Y-48881204D01*
X164075194Y-48880500D01*
X170302390Y-48880500D01*
X170388733Y-48900207D01*
X170443104Y-48938786D01*
X181924787Y-60420469D01*
X182004712Y-60466614D01*
X182093856Y-60490500D01*
X187675161Y-60490500D01*
X187761504Y-60510207D01*
X187830745Y-60565426D01*
X187859012Y-60613345D01*
X187869053Y-60637587D01*
X187869058Y-60637596D01*
X187869059Y-60637598D01*
X187984023Y-60809655D01*
X188130345Y-60955977D01*
X188302402Y-61070941D01*
X188302404Y-61070942D01*
X188302406Y-61070943D01*
X188349621Y-61090500D01*
X188493580Y-61150130D01*
X188595057Y-61170315D01*
X188696532Y-61190500D01*
X188696535Y-61190500D01*
X188903468Y-61190500D01*
X188990445Y-61173198D01*
X189106420Y-61150130D01*
X189213809Y-61105648D01*
X189289963Y-61090500D01*
X189953616Y-61090500D01*
X189953617Y-61090500D01*
X190051946Y-61070941D01*
X190137251Y-61053973D01*
X190208901Y-61024294D01*
X190310230Y-60982323D01*
X190465908Y-60878302D01*
X192738301Y-58605909D01*
X192842323Y-58450230D01*
X192913973Y-58277250D01*
X192932236Y-58185433D01*
X192950500Y-58093619D01*
X192950500Y-48406380D01*
X192919300Y-48249530D01*
X192913973Y-48222749D01*
X192864559Y-48103453D01*
X192864557Y-48103449D01*
X192842325Y-48049774D01*
X192842321Y-48049767D01*
X192779639Y-47955958D01*
X192738301Y-47894091D01*
X179405908Y-34561698D01*
X179257993Y-34462864D01*
X179250232Y-34457678D01*
X179250225Y-34457674D01*
X179153282Y-34417519D01*
X179153273Y-34417516D01*
X179143258Y-34413368D01*
X179077251Y-34386027D01*
X178985433Y-34367763D01*
X178976892Y-34366064D01*
X178976885Y-34366062D01*
X178893619Y-34349500D01*
X178893617Y-34349500D01*
X178893616Y-34349500D01*
X144559304Y-34349500D01*
X144501997Y-34338111D01*
X144501186Y-34340786D01*
X144491836Y-34337949D01*
X144491835Y-34337949D01*
X144491832Y-34337948D01*
X144491831Y-34337948D01*
X144393884Y-34318465D01*
X144298541Y-34299500D01*
X144101459Y-34299500D01*
X143984868Y-34322691D01*
X143896340Y-34320207D01*
X143817656Y-34279558D01*
X143805332Y-34268229D01*
X142176615Y-32639512D01*
X142176616Y-32639512D01*
X142164478Y-32632504D01*
X142073887Y-32580201D01*
X142049673Y-32573713D01*
X141959309Y-32549500D01*
X124940691Y-32549500D01*
X124902498Y-32559733D01*
X124826112Y-32580201D01*
X124782694Y-32605269D01*
X124723391Y-32639507D01*
X124723378Y-32639517D01*
X123139512Y-34223384D01*
X123139511Y-34223386D01*
X123080201Y-34326113D01*
X123080201Y-34326114D01*
X123049500Y-34440691D01*
X122146067Y-34440691D01*
X122106502Y-18001459D01*
X143199500Y-18001459D01*
X143199500Y-18198540D01*
X143237948Y-18391832D01*
X143237949Y-18391836D01*
X143313365Y-18573909D01*
X143313368Y-18573914D01*
X143422861Y-18737782D01*
X143562218Y-18877139D01*
X143695051Y-18965895D01*
X143726083Y-18986630D01*
X143726090Y-18986634D01*
X143847472Y-19036911D01*
X143908165Y-19062051D01*
X144101459Y-19100500D01*
X144101460Y-19100500D01*
X144298540Y-19100500D01*
X144298541Y-19100500D01*
X144491835Y-19062051D01*
X144673914Y-18986632D01*
X144837782Y-18877139D01*
X144977139Y-18737782D01*
X145086632Y-18573914D01*
X145162051Y-18391835D01*
X145200500Y-18198541D01*
X145200500Y-18011309D01*
X156589500Y-18011309D01*
X156589500Y-18188690D01*
X156624104Y-18362660D01*
X156624105Y-18362663D01*
X156624106Y-18362666D01*
X156642999Y-18408278D01*
X156691988Y-18526550D01*
X156790535Y-18674034D01*
X156790541Y-18674041D01*
X156915958Y-18799458D01*
X156915965Y-18799464D01*
X157063449Y-18898011D01*
X157063451Y-18898012D01*
X157063453Y-18898013D01*
X157227334Y-18965894D01*
X157401309Y-19000500D01*
X157401310Y-19000500D01*
X157578690Y-19000500D01*
X157578691Y-19000500D01*
X157752666Y-18965894D01*
X157916547Y-18898013D01*
X158064035Y-18799464D01*
X158189464Y-18674035D01*
X158288013Y-18526547D01*
X158355894Y-18362666D01*
X158390500Y-18188691D01*
X158390500Y-18011309D01*
X164209500Y-18011309D01*
X164209500Y-18188690D01*
X164244104Y-18362660D01*
X164244105Y-18362663D01*
X164244106Y-18362666D01*
X164262999Y-18408278D01*
X164311988Y-18526550D01*
X164410535Y-18674034D01*
X164410541Y-18674041D01*
X164535958Y-18799458D01*
X164535965Y-18799464D01*
X164683449Y-18898011D01*
X164683451Y-18898012D01*
X164683453Y-18898013D01*
X164847334Y-18965894D01*
X165021309Y-19000500D01*
X165021310Y-19000500D01*
X165198690Y-19000500D01*
X165198691Y-19000500D01*
X165372666Y-18965894D01*
X165536547Y-18898013D01*
X165684035Y-18799464D01*
X165809464Y-18674035D01*
X165908013Y-18526547D01*
X165908172Y-18526161D01*
X165909339Y-18523347D01*
X165910897Y-18521150D01*
X165912621Y-18517926D01*
X165913030Y-18518144D01*
X165960587Y-18451118D01*
X166038100Y-18408278D01*
X166093191Y-18400500D01*
X168116809Y-18400500D01*
X168203152Y-18420207D01*
X168272393Y-18475426D01*
X168300661Y-18523347D01*
X168301984Y-18526542D01*
X168301988Y-18526549D01*
X168400535Y-18674034D01*
X168400541Y-18674041D01*
X168525958Y-18799458D01*
X168525965Y-18799464D01*
X168673449Y-18898011D01*
X168673451Y-18898012D01*
X168673453Y-18898013D01*
X168837334Y-18965894D01*
X169011309Y-19000500D01*
X169011310Y-19000500D01*
X169188690Y-19000500D01*
X169188691Y-19000500D01*
X169362666Y-18965894D01*
X169526547Y-18898013D01*
X169674035Y-18799464D01*
X169799464Y-18674035D01*
X169898013Y-18526547D01*
X169965894Y-18362666D01*
X170000500Y-18188691D01*
X170000500Y-18011309D01*
X175819500Y-18011309D01*
X175819500Y-18188690D01*
X175854104Y-18362660D01*
X175854105Y-18362663D01*
X175854106Y-18362666D01*
X175872999Y-18408278D01*
X175921988Y-18526550D01*
X176020535Y-18674034D01*
X176020541Y-18674041D01*
X176145958Y-18799458D01*
X176145965Y-18799464D01*
X176281060Y-18889732D01*
X176341901Y-18954086D01*
X176368796Y-19038467D01*
X176369500Y-19055193D01*
X176369500Y-27666144D01*
X176393385Y-27755286D01*
X176393386Y-27755289D01*
X176439529Y-27835211D01*
X183395046Y-34790728D01*
X183442165Y-34865716D01*
X183452081Y-34953723D01*
X183440476Y-34998710D01*
X183440788Y-34998805D01*
X183438543Y-35006204D01*
X183438186Y-35007591D01*
X183437950Y-35008158D01*
X183437948Y-35008166D01*
X183399500Y-35201459D01*
X183399500Y-35398540D01*
X183437948Y-35591832D01*
X183437949Y-35591836D01*
X183513365Y-35773909D01*
X183513369Y-35773916D01*
X183567746Y-35855297D01*
X183622861Y-35937782D01*
X183762218Y-36077139D01*
X183836287Y-36126630D01*
X183926083Y-36186630D01*
X183926090Y-36186634D01*
X183971995Y-36205648D01*
X184108165Y-36262051D01*
X184301459Y-36300500D01*
X184301460Y-36300500D01*
X184498540Y-36300500D01*
X184498541Y-36300500D01*
X184691835Y-36262051D01*
X184828006Y-36205647D01*
X184904158Y-36190500D01*
X190140696Y-36190500D01*
X190198002Y-36201888D01*
X190198814Y-36199214D01*
X190208156Y-36202047D01*
X190208165Y-36202051D01*
X190401459Y-36240500D01*
X190401460Y-36240500D01*
X190598540Y-36240500D01*
X190598541Y-36240500D01*
X190791835Y-36202051D01*
X190973914Y-36126632D01*
X191137782Y-36017139D01*
X191277139Y-35877782D01*
X191386632Y-35713914D01*
X191462051Y-35531835D01*
X191500500Y-35338541D01*
X191500500Y-35141459D01*
X191462051Y-34948165D01*
X191386632Y-34766086D01*
X191277139Y-34602218D01*
X191137782Y-34462861D01*
X190992912Y-34366062D01*
X190973916Y-34353369D01*
X190973909Y-34353365D01*
X190791836Y-34277949D01*
X190791832Y-34277948D01*
X190662389Y-34252200D01*
X190598541Y-34239500D01*
X190401459Y-34239500D01*
X190337610Y-34252200D01*
X190208168Y-34277948D01*
X190198814Y-34280786D01*
X190198002Y-34278111D01*
X190140696Y-34289500D01*
X184366383Y-34289500D01*
X184338825Y-34294981D01*
X184316110Y-34299500D01*
X184301459Y-34299500D01*
X184108165Y-34337949D01*
X184089862Y-34345530D01*
X184071048Y-34349351D01*
X184045487Y-34348736D01*
X184020279Y-34353019D01*
X184001766Y-34347685D01*
X183982510Y-34347222D01*
X183959748Y-34335578D01*
X183935178Y-34328499D01*
X183912406Y-34311361D01*
X183903664Y-34306889D01*
X183899934Y-34301975D01*
X183890728Y-34295046D01*
X181525932Y-31930250D01*
X189549500Y-31930250D01*
X189549500Y-33469749D01*
X189561133Y-33528232D01*
X189605447Y-33594552D01*
X189671767Y-33638866D01*
X189671769Y-33638867D01*
X189706984Y-33645871D01*
X189730250Y-33650500D01*
X189730252Y-33650500D01*
X191893615Y-33650500D01*
X191893617Y-33650500D01*
X191985433Y-33632236D01*
X192077251Y-33613973D01*
X192148901Y-33584294D01*
X192250230Y-33542323D01*
X192405908Y-33438302D01*
X195938301Y-29905909D01*
X196042322Y-29750231D01*
X196113973Y-29577250D01*
X196150500Y-29393617D01*
X196150500Y-29206383D01*
X196150500Y-24420846D01*
X196170207Y-24334503D01*
X196184039Y-24310286D01*
X196238866Y-24228232D01*
X196238865Y-24228232D01*
X196238867Y-24228231D01*
X196250500Y-24169748D01*
X196250500Y-22430252D01*
X196238867Y-22371769D01*
X196238866Y-22371767D01*
X196194552Y-22305447D01*
X196128232Y-22261133D01*
X196069750Y-22249500D01*
X196069748Y-22249500D01*
X194330252Y-22249500D01*
X194330250Y-22249500D01*
X194271767Y-22261133D01*
X194205447Y-22305447D01*
X194161133Y-22371767D01*
X194149500Y-22430250D01*
X194149500Y-24169749D01*
X194161133Y-24228232D01*
X194215961Y-24310286D01*
X194247546Y-24393026D01*
X194249500Y-24420846D01*
X194249500Y-28823862D01*
X194229793Y-28910205D01*
X194191214Y-28964576D01*
X191464576Y-31691214D01*
X191389588Y-31738333D01*
X191323862Y-31749500D01*
X189730250Y-31749500D01*
X189671767Y-31761133D01*
X189605447Y-31805447D01*
X189561133Y-31871767D01*
X189549500Y-31930250D01*
X181525932Y-31930250D01*
X179657141Y-30061459D01*
X189499500Y-30061459D01*
X189499500Y-30258540D01*
X189537948Y-30451832D01*
X189537949Y-30451836D01*
X189613365Y-30633909D01*
X189613368Y-30633914D01*
X189722861Y-30797782D01*
X189862218Y-30937139D01*
X190024985Y-31045896D01*
X190026083Y-31046630D01*
X190026090Y-31046634D01*
X190147472Y-31096911D01*
X190208165Y-31122051D01*
X190401459Y-31160500D01*
X190401460Y-31160500D01*
X190598540Y-31160500D01*
X190598541Y-31160500D01*
X190791835Y-31122051D01*
X190973914Y-31046632D01*
X191137782Y-30937139D01*
X191277139Y-30797782D01*
X191386632Y-30633914D01*
X191462051Y-30451835D01*
X191500500Y-30258541D01*
X191500500Y-30061459D01*
X191462051Y-29868165D01*
X191436911Y-29807472D01*
X191386634Y-29686090D01*
X191386630Y-29686083D01*
X191313910Y-29577250D01*
X191277139Y-29522218D01*
X191137782Y-29382861D01*
X191055297Y-29327746D01*
X190973916Y-29273369D01*
X190973909Y-29273365D01*
X190791836Y-29197949D01*
X190791832Y-29197948D01*
X190662389Y-29172200D01*
X190598541Y-29159500D01*
X190401459Y-29159500D01*
X190353464Y-29169046D01*
X190208167Y-29197948D01*
X190208163Y-29197949D01*
X190026090Y-29273365D01*
X190026083Y-29273369D01*
X189862222Y-29382858D01*
X189862214Y-29382864D01*
X189722864Y-29522214D01*
X189722858Y-29522222D01*
X189613369Y-29686083D01*
X189613365Y-29686090D01*
X189537949Y-29868163D01*
X189537948Y-29868167D01*
X189499500Y-30061459D01*
X179657141Y-30061459D01*
X177128786Y-27533104D01*
X177081667Y-27458116D01*
X177070500Y-27392390D01*
X177070500Y-19055193D01*
X177090207Y-18968850D01*
X177145426Y-18899609D01*
X177158932Y-18889737D01*
X177294035Y-18799464D01*
X177419464Y-18674035D01*
X177518013Y-18526547D01*
X177585894Y-18362666D01*
X177620500Y-18188691D01*
X177620500Y-18011309D01*
X177618541Y-18001459D01*
X183399500Y-18001459D01*
X183399500Y-18198540D01*
X183437948Y-18391832D01*
X183437949Y-18391836D01*
X183513365Y-18573909D01*
X183513368Y-18573914D01*
X183622861Y-18737782D01*
X183762218Y-18877139D01*
X183895051Y-18965895D01*
X183926083Y-18986630D01*
X183926090Y-18986634D01*
X184047472Y-19036911D01*
X184108165Y-19062051D01*
X184301459Y-19100500D01*
X184301460Y-19100500D01*
X184498540Y-19100500D01*
X184498541Y-19100500D01*
X184691835Y-19062051D01*
X184691845Y-19062046D01*
X184701186Y-19059214D01*
X184701997Y-19061888D01*
X184759304Y-19050500D01*
X192063862Y-19050500D01*
X192150205Y-19070207D01*
X192204576Y-19108786D01*
X194181437Y-21085647D01*
X194224575Y-21150206D01*
X194269058Y-21257597D01*
X194269059Y-21257598D01*
X194384023Y-21429655D01*
X194530345Y-21575977D01*
X194702402Y-21690941D01*
X194702404Y-21690942D01*
X194702406Y-21690943D01*
X194751245Y-21711172D01*
X194893580Y-21770130D01*
X194995057Y-21790315D01*
X195096532Y-21810500D01*
X195096535Y-21810500D01*
X195303468Y-21810500D01*
X195390445Y-21793198D01*
X195506420Y-21770130D01*
X195697598Y-21690941D01*
X195869655Y-21575977D01*
X196015977Y-21429655D01*
X196130941Y-21257598D01*
X196210130Y-21066420D01*
X196233198Y-20950445D01*
X196250500Y-20863468D01*
X196250500Y-20656531D01*
X196227431Y-20540560D01*
X196210130Y-20453580D01*
X196130941Y-20262402D01*
X196015977Y-20090345D01*
X195869655Y-19944023D01*
X195697598Y-19829059D01*
X195697599Y-19829059D01*
X195697597Y-19829058D01*
X195590206Y-19784575D01*
X195525647Y-19741437D01*
X193145911Y-17361701D01*
X193145908Y-17361698D01*
X193056544Y-17301987D01*
X192990232Y-17257678D01*
X192990225Y-17257674D01*
X192893282Y-17217519D01*
X192893273Y-17217516D01*
X192883258Y-17213368D01*
X192817251Y-17186027D01*
X192725433Y-17167763D01*
X192716892Y-17166064D01*
X192716885Y-17166062D01*
X192633619Y-17149500D01*
X192633617Y-17149500D01*
X192633616Y-17149500D01*
X184759304Y-17149500D01*
X184701997Y-17138111D01*
X184701186Y-17140786D01*
X184691836Y-17137949D01*
X184691835Y-17137949D01*
X184691832Y-17137948D01*
X184691831Y-17137948D01*
X184593884Y-17118465D01*
X184498541Y-17099500D01*
X184301459Y-17099500D01*
X184253464Y-17109046D01*
X184108167Y-17137948D01*
X184108163Y-17137949D01*
X183926090Y-17213365D01*
X183926083Y-17213369D01*
X183762222Y-17322858D01*
X183762214Y-17322864D01*
X183622864Y-17462214D01*
X183622858Y-17462222D01*
X183513369Y-17626083D01*
X183513365Y-17626090D01*
X183437949Y-17808163D01*
X183437948Y-17808167D01*
X183399500Y-18001459D01*
X177618541Y-18001459D01*
X177585894Y-17837334D01*
X177518013Y-17673453D01*
X177518011Y-17673450D01*
X177518011Y-17673449D01*
X177419464Y-17525965D01*
X177419458Y-17525958D01*
X177294041Y-17400541D01*
X177294034Y-17400535D01*
X177146550Y-17301988D01*
X177039574Y-17257678D01*
X176982666Y-17234106D01*
X176982663Y-17234105D01*
X176982660Y-17234104D01*
X176843108Y-17206346D01*
X176808691Y-17199500D01*
X176631309Y-17199500D01*
X176602576Y-17205215D01*
X176457339Y-17234104D01*
X176293449Y-17301988D01*
X176145965Y-17400535D01*
X176145958Y-17400541D01*
X176020541Y-17525958D01*
X176020535Y-17525965D01*
X175921988Y-17673449D01*
X175854104Y-17837339D01*
X175819500Y-18011309D01*
X170000500Y-18011309D01*
X169965894Y-17837334D01*
X169898013Y-17673453D01*
X169898011Y-17673450D01*
X169898011Y-17673449D01*
X169799464Y-17525965D01*
X169799458Y-17525958D01*
X169674041Y-17400541D01*
X169674034Y-17400535D01*
X169526550Y-17301988D01*
X169419574Y-17257678D01*
X169362666Y-17234106D01*
X169362663Y-17234105D01*
X169362660Y-17234104D01*
X169223108Y-17206346D01*
X169188691Y-17199500D01*
X169011309Y-17199500D01*
X168982576Y-17205215D01*
X168837339Y-17234104D01*
X168673449Y-17301988D01*
X168525965Y-17400535D01*
X168525958Y-17400541D01*
X168400541Y-17525958D01*
X168400535Y-17525965D01*
X168301988Y-17673450D01*
X168301984Y-17673457D01*
X168300661Y-17676653D01*
X168299102Y-17678849D01*
X168297379Y-17682074D01*
X168296969Y-17681855D01*
X168249413Y-17748882D01*
X168171900Y-17791722D01*
X168116809Y-17799500D01*
X166093191Y-17799500D01*
X166006848Y-17779793D01*
X165937607Y-17724574D01*
X165909339Y-17676653D01*
X165908015Y-17673457D01*
X165908011Y-17673450D01*
X165809464Y-17525965D01*
X165809458Y-17525958D01*
X165684041Y-17400541D01*
X165684034Y-17400535D01*
X165536550Y-17301988D01*
X165429574Y-17257678D01*
X165372666Y-17234106D01*
X165372663Y-17234105D01*
X165372660Y-17234104D01*
X165233108Y-17206346D01*
X165198691Y-17199500D01*
X165021309Y-17199500D01*
X164992576Y-17205215D01*
X164847339Y-17234104D01*
X164683449Y-17301988D01*
X164535965Y-17400535D01*
X164535958Y-17400541D01*
X164410541Y-17525958D01*
X164410535Y-17525965D01*
X164311988Y-17673449D01*
X164244104Y-17837339D01*
X164209500Y-18011309D01*
X158390500Y-18011309D01*
X158355894Y-17837334D01*
X158288013Y-17673453D01*
X158288011Y-17673450D01*
X158288011Y-17673449D01*
X158189464Y-17525965D01*
X158189458Y-17525958D01*
X158064041Y-17400541D01*
X158064034Y-17400535D01*
X157916550Y-17301988D01*
X157809574Y-17257678D01*
X157752666Y-17234106D01*
X157752663Y-17234105D01*
X157752660Y-17234104D01*
X157613108Y-17206346D01*
X157578691Y-17199500D01*
X157401309Y-17199500D01*
X157372576Y-17205215D01*
X157227339Y-17234104D01*
X157063449Y-17301988D01*
X156915965Y-17400535D01*
X156915958Y-17400541D01*
X156790541Y-17525958D01*
X156790535Y-17525965D01*
X156691988Y-17673449D01*
X156624104Y-17837339D01*
X156589500Y-18011309D01*
X145200500Y-18011309D01*
X145200500Y-18001459D01*
X145162051Y-17808165D01*
X145108487Y-17678849D01*
X145086634Y-17626090D01*
X145086630Y-17626083D01*
X145019733Y-17525965D01*
X144977139Y-17462218D01*
X144837782Y-17322861D01*
X144704948Y-17234104D01*
X144673916Y-17213369D01*
X144673909Y-17213365D01*
X144491836Y-17137949D01*
X144491832Y-17137948D01*
X144362389Y-17112200D01*
X144298541Y-17099500D01*
X144101459Y-17099500D01*
X144053464Y-17109046D01*
X143908167Y-17137948D01*
X143908163Y-17137949D01*
X143726090Y-17213365D01*
X143726083Y-17213369D01*
X143562222Y-17322858D01*
X143562214Y-17322864D01*
X143422864Y-17462214D01*
X143422858Y-17462222D01*
X143313369Y-17626083D01*
X143313365Y-17626090D01*
X143237949Y-17808163D01*
X143237948Y-17808167D01*
X143199500Y-18001459D01*
X122106502Y-18001459D01*
X122100480Y-15499478D01*
X122119979Y-15413089D01*
X122175030Y-15343715D01*
X122254731Y-15305096D01*
X122299479Y-15300000D01*
X197601000Y-15300000D01*
X197687343Y-15319707D01*
G37*
G04 #@! TD.AperFunction*
G04 #@! TD*
M02*
