G04 #@! TF.GenerationSoftware,KiCad,Pcbnew,9.0.0*
G04 #@! TF.CreationDate,2025-04-11T21:54:49+02:00*
G04 #@! TF.ProjectId,eConBadge,65436f6e-4261-4646-9765-2e6b69636164,rev?*
G04 #@! TF.SameCoordinates,Original*
G04 #@! TF.FileFunction,Copper,L2,Bot*
G04 #@! TF.FilePolarity,Positive*
%FSLAX46Y46*%
G04 Gerber Fmt 4.6, Leading zero omitted, Abs format (unit mm)*
G04 Created by KiCad (PCBNEW 9.0.0) date 2025-04-11 21:54:49*
%MOMM*%
%LPD*%
G01*
G04 APERTURE LIST*
G04 #@! TA.AperFunction,ComponentPad*
%ADD10C,1.400000*%
G04 #@! TD*
G04 #@! TA.AperFunction,ComponentPad*
%ADD11C,1.550000*%
G04 #@! TD*
G04 #@! TA.AperFunction,ComponentPad*
%ADD12C,1.600000*%
G04 #@! TD*
G04 #@! TA.AperFunction,ComponentPad*
%ADD13R,1.980000X1.980000*%
G04 #@! TD*
G04 #@! TA.AperFunction,ComponentPad*
%ADD14C,1.980000*%
G04 #@! TD*
G04 #@! TA.AperFunction,ComponentPad*
%ADD15R,1.700000X1.700000*%
G04 #@! TD*
G04 #@! TA.AperFunction,ComponentPad*
%ADD16O,1.700000X1.700000*%
G04 #@! TD*
G04 #@! TA.AperFunction,ComponentPad*
%ADD17R,1.500000X1.500000*%
G04 #@! TD*
G04 #@! TA.AperFunction,ComponentPad*
%ADD18R,1.200000X2.000000*%
G04 #@! TD*
G04 #@! TA.AperFunction,ComponentPad*
%ADD19O,1.200000X2.000000*%
G04 #@! TD*
G04 #@! TA.AperFunction,ComponentPad*
%ADD20O,1.400000X1.400000*%
G04 #@! TD*
G04 #@! TA.AperFunction,Conductor*
%ADD21C,0.300000*%
G04 #@! TD*
G04 APERTURE END LIST*
D10*
G04 #@! TO.P,74AHCT125 ,14*
G04 #@! TO.N,VCC_5V*
X163120000Y-48530000D03*
G04 #@! TO.P,74AHCT125 ,13*
G04 #@! TO.N,GND*
X160580000Y-48530000D03*
G04 #@! TO.P,74AHCT125 ,12*
G04 #@! TO.N,LED_DATA_3V*
X158040000Y-48530000D03*
G04 #@! TO.P,74AHCT125 ,11*
G04 #@! TO.N,LED_DATA_5V_SHIFT*
X155500000Y-48530000D03*
G04 #@! TO.P,74AHCT125 ,10*
G04 #@! TO.N,GND*
X152960000Y-48530000D03*
G04 #@! TO.P,74AHCT125 ,9*
G04 #@! TO.N,N/C*
X150420000Y-48530000D03*
G04 #@! TO.P,74AHCT125 ,8*
X147880000Y-48530000D03*
G04 #@! TO.P,74AHCT125 ,7*
G04 #@! TO.N,GND*
X147880000Y-56470000D03*
G04 #@! TO.P,74AHCT125 ,6*
G04 #@! TO.N,N/C*
X150420000Y-56470000D03*
G04 #@! TO.P,74AHCT125 ,5*
X152960000Y-56470000D03*
G04 #@! TO.P,74AHCT125 ,1*
G04 #@! TO.N,GND*
X163120000Y-56470000D03*
G04 #@! TO.P,74AHCT125 ,2*
G04 #@! TO.N,N/C*
X160580000Y-56470000D03*
G04 #@! TO.P,74AHCT125 ,3*
X158040000Y-56470000D03*
G04 #@! TO.P,74AHCT125 ,4*
G04 #@! TO.N,GND*
X155500000Y-56470000D03*
G04 #@! TD*
D11*
G04 #@! TO.P,BackBtn,2*
G04 #@! TO.N,VCC3.3*
X132300000Y-84200000D03*
G04 #@! TO.P,BackBtn,1*
G04 #@! TO.N,BTN_BACK*
X124340000Y-79700000D03*
G04 #@! TO.N,N/C*
X132300000Y-79700000D03*
G04 #@! TO.P,BackBtn,2*
X124340000Y-84200000D03*
G04 #@! TD*
D12*
G04 #@! TO.P,OLED,2*
G04 #@! TO.N,VCC3.3*
X167940000Y-69100000D03*
G04 #@! TO.P,OLED,1*
G04 #@! TO.N,GND*
X165400000Y-69100000D03*
G04 #@! TO.P,OLED,3*
G04 #@! TO.N,OLED_CLK*
X170480000Y-69100000D03*
G04 #@! TO.P,OLED,4*
G04 #@! TO.N,OLED_SDA*
X173020000Y-69100000D03*
G04 #@! TD*
D13*
G04 #@! TO.P,LED_EN_MOSFET,1*
G04 #@! TO.N,LED_EN*
X180322500Y-41475000D03*
D14*
G04 #@! TO.P,LED_EN_MOSFET,2*
G04 #@! TO.N,LED_GND*
X180322500Y-44015000D03*
G04 #@! TO.P,LED_EN_MOSFET,3*
G04 #@! TO.N,GND*
X180322500Y-46555000D03*
G04 #@! TD*
D15*
G04 #@! TO.P,LEDConnector,1*
G04 #@! TO.N,LED_GND*
X188800000Y-55060000D03*
D16*
G04 #@! TO.P,LEDConnector,2*
G04 #@! TO.N,LED_DATA_5V_OUT*
X188800000Y-57600000D03*
G04 #@! TO.P,LEDConnector,3*
G04 #@! TO.N,VCC_5V*
X188800000Y-60140000D03*
G04 #@! TD*
D12*
G04 #@! TO.P,4005-DCDC,1*
G04 #@! TO.N,VCC_5V*
X144200000Y-35300000D03*
G04 #@! TO.P,4005-DCDC,2*
G04 #@! TO.N,GND*
X144200000Y-18100000D03*
G04 #@! TO.P,4005-DCDC,3*
G04 #@! TO.N,BATT_IN_REG*
X184400000Y-35300000D03*
G04 #@! TO.P,4005-DCDC,4*
G04 #@! TO.N,BATT_IN_GND*
X184400000Y-18100000D03*
G04 #@! TD*
D15*
G04 #@! TO.P,EInkConnector,1*
G04 #@! TO.N,VCC3.3*
X152540000Y-89800000D03*
D16*
G04 #@! TO.P,EInkConnector,2*
G04 #@! TO.N,GND*
X150000000Y-89800000D03*
G04 #@! TO.P,EInkConnector,3*
G04 #@! TO.N,EINK_DIN*
X147460000Y-89800000D03*
G04 #@! TO.P,EInkConnector,4*
G04 #@! TO.N,EINK_CLK*
X144920000Y-89800000D03*
G04 #@! TO.P,EInkConnector,5*
G04 #@! TO.N,EINK_CS*
X142380000Y-89800000D03*
G04 #@! TO.P,EInkConnector,6*
G04 #@! TO.N,EINK_DC*
X139840000Y-89800000D03*
G04 #@! TO.P,EInkConnector,7*
G04 #@! TO.N,EINK_RESET*
X137300000Y-89800000D03*
G04 #@! TO.P,EInkConnector,8*
G04 #@! TO.N,EINK_BUSY*
X134760000Y-89800000D03*
G04 #@! TD*
D15*
G04 #@! TO.P,BATT-,1*
G04 #@! TO.N,BATT_IN_VCC*
X195200000Y-23300000D03*
D16*
G04 #@! TO.P,BATT-,2*
G04 #@! TO.N,BATT_IN_GND*
X195200000Y-20760000D03*
G04 #@! TD*
D17*
G04 #@! TO.P,SwitchOnOff,1*
G04 #@! TO.N,BATT_IN_VCC*
X190500000Y-32700000D03*
D12*
G04 #@! TO.P,SwitchOnOff,2*
G04 #@! TO.N,BATT_IN_REG*
X190500000Y-35240000D03*
G04 #@! TO.P,SwitchOnOff,3*
G04 #@! TO.N,N/C*
X190500000Y-30160000D03*
G04 #@! TD*
D18*
G04 #@! TO.P,ESP32,1*
G04 #@! TO.N,VCC3.3*
X170020000Y-39800000D03*
D19*
G04 #@! TO.P,ESP32,2*
G04 #@! TO.N,N/C*
X167480000Y-39800000D03*
G04 #@! TO.P,ESP32,3*
X164940000Y-39800000D03*
G04 #@! TO.P,ESP32,4*
X162400000Y-39800000D03*
G04 #@! TO.P,ESP32,5*
G04 #@! TO.N,BATT_V_MEASURE*
X159860000Y-39800000D03*
G04 #@! TO.P,ESP32,6*
G04 #@! TO.N,N/C*
X157320000Y-39800000D03*
G04 #@! TO.P,ESP32,7*
G04 #@! TO.N,LED_EN*
X154780000Y-39800000D03*
G04 #@! TO.P,ESP32,8*
G04 #@! TO.N,LED_DATA_3V*
X152240000Y-39800000D03*
G04 #@! TO.P,ESP32,9*
G04 #@! TO.N,N/C*
X149700000Y-39800000D03*
G04 #@! TO.P,ESP32,10*
G04 #@! TO.N,SD_MISO*
X147160000Y-39800000D03*
G04 #@! TO.P,ESP32,11*
G04 #@! TO.N,SD_CLK*
X144620000Y-39800000D03*
G04 #@! TO.P,ESP32,12*
G04 #@! TO.N,SD_MOSI*
X142080000Y-39800000D03*
G04 #@! TO.P,ESP32,13*
G04 #@! TO.N,N/C*
X139540000Y-39800000D03*
G04 #@! TO.P,ESP32,14*
G04 #@! TO.N,GND*
X137000000Y-39800000D03*
G04 #@! TO.P,ESP32,15*
G04 #@! TO.N,SD_CS*
X134460000Y-39800000D03*
G04 #@! TO.P,ESP32,16*
G04 #@! TO.N,N/C*
X131920000Y-39800000D03*
G04 #@! TO.P,ESP32,17*
X129380000Y-39800000D03*
G04 #@! TO.P,ESP32,18*
X126840000Y-39800000D03*
G04 #@! TO.P,ESP32,19*
G04 #@! TO.N,VCC_5V*
X124300000Y-39800000D03*
G04 #@! TO.P,ESP32,20*
G04 #@! TO.N,N/C*
X124302720Y-65196320D03*
G04 #@! TO.P,ESP32,21*
X126842720Y-65196320D03*
G04 #@! TO.P,ESP32,22*
X129380000Y-65200000D03*
G04 #@! TO.P,ESP32,23*
G04 #@! TO.N,BTN_BACK*
X131920000Y-65200000D03*
G04 #@! TO.P,ESP32,24*
G04 #@! TO.N,BTN_DOWN*
X134460000Y-65200000D03*
G04 #@! TO.P,ESP32,25*
G04 #@! TO.N,BTN_UP*
X137000000Y-65200000D03*
G04 #@! TO.P,ESP32,26*
G04 #@! TO.N,BTN_ENTER*
X139540000Y-65200000D03*
G04 #@! TO.P,ESP32,27*
G04 #@! TO.N,EINK_BUSY*
X142080000Y-65200000D03*
G04 #@! TO.P,ESP32,28*
G04 #@! TO.N,EINK_RESET*
X144620000Y-65200000D03*
G04 #@! TO.P,ESP32,29*
G04 #@! TO.N,EINK_DC*
X147160000Y-65200000D03*
G04 #@! TO.P,ESP32,30*
G04 #@! TO.N,EINK_CS*
X149700000Y-65200000D03*
G04 #@! TO.P,ESP32,31*
G04 #@! TO.N,EINK_CLK*
X152240000Y-65200000D03*
G04 #@! TO.P,ESP32,32*
G04 #@! TO.N,GND*
X154780000Y-65200000D03*
G04 #@! TO.P,ESP32,33*
G04 #@! TO.N,EINK_DIN*
X157320000Y-65200000D03*
G04 #@! TO.P,ESP32,34*
G04 #@! TO.N,N/C*
X159860000Y-65200000D03*
G04 #@! TO.P,ESP32,35*
X162400000Y-65200000D03*
G04 #@! TO.P,ESP32,36*
G04 #@! TO.N,OLED_CLK*
X164940000Y-65200000D03*
G04 #@! TO.P,ESP32,37*
G04 #@! TO.N,OLED_SDA*
X167480000Y-65200000D03*
G04 #@! TO.P,ESP32,38*
G04 #@! TO.N,GND*
X170020000Y-65200000D03*
G04 #@! TD*
D11*
G04 #@! TO.P,DownBtn,2*
G04 #@! TO.N,VCC3.3*
X143300000Y-84200000D03*
G04 #@! TO.P,DownBtn,1*
G04 #@! TO.N,BTN_DOWN*
X135340000Y-79700000D03*
G04 #@! TO.N,N/C*
X143300000Y-79700000D03*
G04 #@! TO.P,DownBtn,2*
X135340000Y-84200000D03*
G04 #@! TD*
G04 #@! TO.P,UpBtn,1*
G04 #@! TO.N,BTN_UP*
X135340000Y-70700000D03*
G04 #@! TO.N,N/C*
X143300000Y-70700000D03*
G04 #@! TO.P,UpBtn,2*
X135340000Y-75200000D03*
G04 #@! TO.N,GND*
X143300000Y-75200000D03*
G04 #@! TD*
G04 #@! TO.P,EnterBtn,2*
G04 #@! TO.N,VCC3.3*
X154300000Y-84200000D03*
G04 #@! TO.P,EnterBtn,1*
G04 #@! TO.N,BTN_ENTER*
X146340000Y-79700000D03*
G04 #@! TO.N,N/C*
X154300000Y-79700000D03*
G04 #@! TO.P,EnterBtn,2*
X146340000Y-84200000D03*
G04 #@! TD*
D12*
G04 #@! TO.P,SDCardReader,1*
G04 #@! TO.N,VCC3.3*
X125480000Y-34920000D03*
G04 #@! TO.P,SDCardReader,2*
G04 #@! TO.N,SD_CS*
X128020000Y-34920000D03*
G04 #@! TO.P,SDCardReader,3*
G04 #@! TO.N,SD_MOSI*
X130560000Y-34920000D03*
G04 #@! TO.P,SDCardReader,4*
G04 #@! TO.N,SD_CLK*
X133100000Y-34920000D03*
G04 #@! TO.P,SDCardReader,5*
G04 #@! TO.N,SD_MISO*
X135640000Y-34920000D03*
G04 #@! TO.P,SDCardReader,6*
G04 #@! TO.N,GND*
X138180000Y-34920000D03*
G04 #@! TD*
D10*
G04 #@! TO.P,10K LED_MOSFET,1*
G04 #@! TO.N,GND*
X174900000Y-49110000D03*
D20*
G04 #@! TO.P,10K LED_MOSFET,2*
G04 #@! TO.N,LED_EN*
X174900000Y-41490000D03*
G04 #@! TD*
D10*
G04 #@! TO.P,R2 20K,1*
G04 #@! TO.N,BATT_V_MEASURE*
X165110000Y-18100000D03*
D20*
G04 #@! TO.P,R2 20K,2*
G04 #@! TO.N,GND*
X157490000Y-18100000D03*
G04 #@! TD*
D10*
G04 #@! TO.P,330 LED_DATA_R,1*
G04 #@! TO.N,LED_DATA_5V_OUT*
X183310000Y-57500000D03*
D20*
G04 #@! TO.P,330 LED_DATA_R,2*
G04 #@! TO.N,LED_DATA_5V_SHIFT*
X175690000Y-57500000D03*
G04 #@! TD*
D10*
G04 #@! TO.P,R1 220K,1*
G04 #@! TO.N,BATT_IN_REG*
X176720000Y-18100000D03*
D20*
G04 #@! TO.P,R1 220K,2*
G04 #@! TO.N,BATT_V_MEASURE*
X169100000Y-18100000D03*
G04 #@! TD*
D21*
G04 #@! TO.N,BATT_V_MEASURE*
X169100000Y-30560000D02*
X159860000Y-39800000D01*
X169100000Y-18100000D02*
X169100000Y-30560000D01*
G04 #@! TD*
G04 #@! TA.AperFunction,Conductor*
G04 #@! TO.N,GND*
G36*
X197523818Y-15319528D02*
G01*
X197635046Y-15376202D01*
X197723318Y-15464474D01*
X197779992Y-15575702D01*
X197799520Y-15699000D01*
X197799520Y-15699479D01*
X197700479Y-98200421D01*
X197680802Y-98323695D01*
X197623995Y-98434856D01*
X197535618Y-98523021D01*
X197424321Y-98579561D01*
X197301000Y-98598942D01*
X197300422Y-98598941D01*
X122597464Y-98401052D01*
X122474218Y-98381197D01*
X122363140Y-98324228D01*
X122275103Y-98235723D01*
X122218724Y-98124345D01*
X122199521Y-98002537D01*
X122189542Y-89709454D01*
X133609500Y-89709454D01*
X133609500Y-89890546D01*
X133637829Y-90069409D01*
X133637830Y-90069415D01*
X133693785Y-90241631D01*
X133693787Y-90241636D01*
X133776005Y-90402997D01*
X133882444Y-90549497D01*
X133882447Y-90549501D01*
X134010499Y-90677553D01*
X134010502Y-90677555D01*
X134157002Y-90783994D01*
X134318363Y-90866212D01*
X134318368Y-90866214D01*
X134490584Y-90922169D01*
X134490585Y-90922169D01*
X134490591Y-90922171D01*
X134669454Y-90950500D01*
X134669458Y-90950500D01*
X134850542Y-90950500D01*
X134850546Y-90950500D01*
X135029409Y-90922171D01*
X135090856Y-90902206D01*
X135201631Y-90866214D01*
X135201636Y-90866212D01*
X135201636Y-90866211D01*
X135201639Y-90866211D01*
X135362994Y-90783996D01*
X135509501Y-90677553D01*
X135637553Y-90549501D01*
X135707202Y-90453637D01*
X135795473Y-90365366D01*
X135906702Y-90308692D01*
X136029999Y-90289163D01*
X136153297Y-90308691D01*
X136264526Y-90365365D01*
X136352798Y-90453637D01*
X136422447Y-90549501D01*
X136550499Y-90677553D01*
X136550502Y-90677555D01*
X136697002Y-90783994D01*
X136858363Y-90866212D01*
X136858368Y-90866214D01*
X137030584Y-90922169D01*
X137030585Y-90922169D01*
X137030591Y-90922171D01*
X137209454Y-90950500D01*
X137209458Y-90950500D01*
X137390542Y-90950500D01*
X137390546Y-90950500D01*
X137569409Y-90922171D01*
X137630856Y-90902206D01*
X137741631Y-90866214D01*
X137741636Y-90866212D01*
X137741636Y-90866211D01*
X137741639Y-90866211D01*
X137902994Y-90783996D01*
X138049501Y-90677553D01*
X138177553Y-90549501D01*
X138247202Y-90453637D01*
X138335473Y-90365366D01*
X138446702Y-90308692D01*
X138569999Y-90289163D01*
X138693297Y-90308691D01*
X138804526Y-90365365D01*
X138892798Y-90453637D01*
X138962447Y-90549501D01*
X139090499Y-90677553D01*
X139090502Y-90677555D01*
X139237002Y-90783994D01*
X139398363Y-90866212D01*
X139398368Y-90866214D01*
X139570584Y-90922169D01*
X139570585Y-90922169D01*
X139570591Y-90922171D01*
X139749454Y-90950500D01*
X139749458Y-90950500D01*
X139930542Y-90950500D01*
X139930546Y-90950500D01*
X140109409Y-90922171D01*
X140170856Y-90902206D01*
X140281631Y-90866214D01*
X140281636Y-90866212D01*
X140281636Y-90866211D01*
X140281639Y-90866211D01*
X140442994Y-90783996D01*
X140589501Y-90677553D01*
X140717553Y-90549501D01*
X140787202Y-90453637D01*
X140875473Y-90365366D01*
X140986702Y-90308692D01*
X141109999Y-90289163D01*
X141233297Y-90308691D01*
X141344526Y-90365365D01*
X141432798Y-90453637D01*
X141502447Y-90549501D01*
X141630499Y-90677553D01*
X141630502Y-90677555D01*
X141777002Y-90783994D01*
X141938363Y-90866212D01*
X141938368Y-90866214D01*
X142110584Y-90922169D01*
X142110585Y-90922169D01*
X142110591Y-90922171D01*
X142289454Y-90950500D01*
X142289458Y-90950500D01*
X142470542Y-90950500D01*
X142470546Y-90950500D01*
X142649409Y-90922171D01*
X142710856Y-90902206D01*
X142821631Y-90866214D01*
X142821636Y-90866212D01*
X142821636Y-90866211D01*
X142821639Y-90866211D01*
X142982994Y-90783996D01*
X143129501Y-90677553D01*
X143257553Y-90549501D01*
X143327202Y-90453637D01*
X143415473Y-90365366D01*
X143526702Y-90308692D01*
X143649999Y-90289163D01*
X143773297Y-90308691D01*
X143884526Y-90365365D01*
X143972798Y-90453637D01*
X144042447Y-90549501D01*
X144170499Y-90677553D01*
X144170502Y-90677555D01*
X144317002Y-90783994D01*
X144478363Y-90866212D01*
X144478368Y-90866214D01*
X144650584Y-90922169D01*
X144650585Y-90922169D01*
X144650591Y-90922171D01*
X144829454Y-90950500D01*
X144829458Y-90950500D01*
X145010542Y-90950500D01*
X145010546Y-90950500D01*
X145189409Y-90922171D01*
X145250856Y-90902206D01*
X145361631Y-90866214D01*
X145361636Y-90866212D01*
X145361636Y-90866211D01*
X145361639Y-90866211D01*
X145522994Y-90783996D01*
X145669501Y-90677553D01*
X145797553Y-90549501D01*
X145867202Y-90453637D01*
X145955473Y-90365366D01*
X146066702Y-90308692D01*
X146189999Y-90289163D01*
X146313297Y-90308691D01*
X146424526Y-90365365D01*
X146512798Y-90453637D01*
X146582447Y-90549501D01*
X146710499Y-90677553D01*
X146710502Y-90677555D01*
X146857002Y-90783994D01*
X147018363Y-90866212D01*
X147018368Y-90866214D01*
X147190584Y-90922169D01*
X147190585Y-90922169D01*
X147190591Y-90922171D01*
X147369454Y-90950500D01*
X147369458Y-90950500D01*
X147550542Y-90950500D01*
X147550546Y-90950500D01*
X147729409Y-90922171D01*
X147790856Y-90902206D01*
X147901631Y-90866214D01*
X147901636Y-90866212D01*
X147901636Y-90866211D01*
X147901639Y-90866211D01*
X148062994Y-90783996D01*
X148209501Y-90677553D01*
X148337553Y-90549501D01*
X148443996Y-90402994D01*
X148526211Y-90241639D01*
X148582171Y-90069409D01*
X148610500Y-89890546D01*
X148610500Y-89709454D01*
X148582171Y-89530591D01*
X148582169Y-89530584D01*
X148526214Y-89358368D01*
X148526212Y-89358363D01*
X148443994Y-89197002D01*
X148393960Y-89128137D01*
X148337553Y-89050499D01*
X148209501Y-88922447D01*
X148185680Y-88905140D01*
X148185666Y-88905130D01*
X151389500Y-88905130D01*
X151389500Y-90694859D01*
X151389501Y-90694864D01*
X151392415Y-90719992D01*
X151437792Y-90822762D01*
X151437793Y-90822763D01*
X151437794Y-90822765D01*
X151517235Y-90902206D01*
X151620009Y-90947585D01*
X151645135Y-90950500D01*
X153434864Y-90950499D01*
X153459991Y-90947585D01*
X153562765Y-90902206D01*
X153642206Y-90822765D01*
X153687585Y-90719991D01*
X153690500Y-90694865D01*
X153690499Y-88905136D01*
X153687585Y-88880009D01*
X153642206Y-88777235D01*
X153562765Y-88697794D01*
X153562763Y-88697793D01*
X153562762Y-88697792D01*
X153459994Y-88652416D01*
X153459991Y-88652415D01*
X153459990Y-88652414D01*
X153459987Y-88652414D01*
X153434869Y-88649500D01*
X151645140Y-88649500D01*
X151645135Y-88649501D01*
X151620007Y-88652415D01*
X151517237Y-88697792D01*
X151437792Y-88777237D01*
X151392416Y-88880005D01*
X151392414Y-88880012D01*
X151389500Y-88905130D01*
X148185666Y-88905130D01*
X148062997Y-88816005D01*
X147901636Y-88733787D01*
X147901631Y-88733785D01*
X147729415Y-88677830D01*
X147729409Y-88677829D01*
X147550546Y-88649500D01*
X147369454Y-88649500D01*
X147216777Y-88673681D01*
X147190584Y-88677830D01*
X147018368Y-88733785D01*
X147018363Y-88733787D01*
X146857002Y-88816005D01*
X146710502Y-88922444D01*
X146582442Y-89050504D01*
X146512797Y-89146363D01*
X146424525Y-89234634D01*
X146313297Y-89291308D01*
X146189999Y-89310836D01*
X146066701Y-89291307D01*
X145955473Y-89234633D01*
X145867203Y-89146363D01*
X145797557Y-89050504D01*
X145797555Y-89050502D01*
X145797553Y-89050499D01*
X145669501Y-88922447D01*
X145645680Y-88905140D01*
X145522997Y-88816005D01*
X145361636Y-88733787D01*
X145361631Y-88733785D01*
X145189415Y-88677830D01*
X145189409Y-88677829D01*
X145010546Y-88649500D01*
X144829454Y-88649500D01*
X144676777Y-88673681D01*
X144650584Y-88677830D01*
X144478368Y-88733785D01*
X144478363Y-88733787D01*
X144317002Y-88816005D01*
X144170502Y-88922444D01*
X144042442Y-89050504D01*
X143972797Y-89146363D01*
X143884525Y-89234634D01*
X143773297Y-89291308D01*
X143649999Y-89310836D01*
X143526701Y-89291307D01*
X143415473Y-89234633D01*
X143327203Y-89146363D01*
X143257557Y-89050504D01*
X143257555Y-89050502D01*
X143257553Y-89050499D01*
X143129501Y-88922447D01*
X143105680Y-88905140D01*
X142982997Y-88816005D01*
X142821636Y-88733787D01*
X142821631Y-88733785D01*
X142649415Y-88677830D01*
X142649409Y-88677829D01*
X142470546Y-88649500D01*
X142289454Y-88649500D01*
X142136777Y-88673681D01*
X142110584Y-88677830D01*
X141938368Y-88733785D01*
X141938363Y-88733787D01*
X141777002Y-88816005D01*
X141630502Y-88922444D01*
X141502442Y-89050504D01*
X141432797Y-89146363D01*
X141344525Y-89234634D01*
X141233297Y-89291308D01*
X141109999Y-89310836D01*
X140986701Y-89291307D01*
X140875473Y-89234633D01*
X140787203Y-89146363D01*
X140717557Y-89050504D01*
X140717555Y-89050502D01*
X140717553Y-89050499D01*
X140589501Y-88922447D01*
X140565680Y-88905140D01*
X140442997Y-88816005D01*
X140281636Y-88733787D01*
X140281631Y-88733785D01*
X140109415Y-88677830D01*
X140109409Y-88677829D01*
X139930546Y-88649500D01*
X139749454Y-88649500D01*
X139596777Y-88673681D01*
X139570584Y-88677830D01*
X139398368Y-88733785D01*
X139398363Y-88733787D01*
X139237002Y-88816005D01*
X139090502Y-88922444D01*
X138962442Y-89050504D01*
X138892797Y-89146363D01*
X138804525Y-89234634D01*
X138693297Y-89291308D01*
X138569999Y-89310836D01*
X138446701Y-89291307D01*
X138335473Y-89234633D01*
X138247203Y-89146363D01*
X138177557Y-89050504D01*
X138177555Y-89050502D01*
X138177553Y-89050499D01*
X138049501Y-88922447D01*
X138025680Y-88905140D01*
X137902997Y-88816005D01*
X137741636Y-88733787D01*
X137741631Y-88733785D01*
X137569415Y-88677830D01*
X137569409Y-88677829D01*
X137390546Y-88649500D01*
X137209454Y-88649500D01*
X137056777Y-88673681D01*
X137030584Y-88677830D01*
X136858368Y-88733785D01*
X136858363Y-88733787D01*
X136697002Y-88816005D01*
X136550502Y-88922444D01*
X136422442Y-89050504D01*
X136352797Y-89146363D01*
X136264525Y-89234634D01*
X136153297Y-89291308D01*
X136029999Y-89310836D01*
X135906701Y-89291307D01*
X135795473Y-89234633D01*
X135707203Y-89146363D01*
X135637557Y-89050504D01*
X135637555Y-89050502D01*
X135637553Y-89050499D01*
X135509501Y-88922447D01*
X135485680Y-88905140D01*
X135362997Y-88816005D01*
X135201636Y-88733787D01*
X135201631Y-88733785D01*
X135029415Y-88677830D01*
X135029409Y-88677829D01*
X134850546Y-88649500D01*
X134669454Y-88649500D01*
X134516777Y-88673681D01*
X134490584Y-88677830D01*
X134318368Y-88733785D01*
X134318363Y-88733787D01*
X134157002Y-88816005D01*
X134010502Y-88922444D01*
X133882444Y-89050502D01*
X133776005Y-89197002D01*
X133693787Y-89358363D01*
X133693785Y-89358368D01*
X133637830Y-89530584D01*
X133637829Y-89530591D01*
X133609500Y-89709454D01*
X122189542Y-89709454D01*
X122182810Y-84115358D01*
X123264500Y-84115358D01*
X123264500Y-84284641D01*
X123290983Y-84451853D01*
X123343292Y-84612841D01*
X123343296Y-84612851D01*
X123420150Y-84763686D01*
X123420152Y-84763688D01*
X123519649Y-84900635D01*
X123519651Y-84900637D01*
X123519654Y-84900641D01*
X123639359Y-85020346D01*
X123639362Y-85020348D01*
X123639364Y-85020350D01*
X123776311Y-85119847D01*
X123776313Y-85119849D01*
X123776315Y-85119850D01*
X123927151Y-85196705D01*
X124007652Y-85222861D01*
X124088146Y-85249016D01*
X124088147Y-85249016D01*
X124088153Y-85249018D01*
X124255356Y-85275500D01*
X124255359Y-85275500D01*
X124424641Y-85275500D01*
X124424644Y-85275500D01*
X124591847Y-85249018D01*
X124752849Y-85196705D01*
X124903685Y-85119850D01*
X125040641Y-85020346D01*
X125160346Y-84900641D01*
X125259850Y-84763685D01*
X125336705Y-84612849D01*
X125389018Y-84451847D01*
X125415500Y-84284644D01*
X125415500Y-84115358D01*
X131224500Y-84115358D01*
X131224500Y-84284641D01*
X131250983Y-84451853D01*
X131303292Y-84612841D01*
X131303296Y-84612851D01*
X131380150Y-84763686D01*
X131380152Y-84763688D01*
X131479649Y-84900635D01*
X131479651Y-84900637D01*
X131479654Y-84900641D01*
X131599359Y-85020346D01*
X131599362Y-85020348D01*
X131599364Y-85020350D01*
X131736311Y-85119847D01*
X131736313Y-85119849D01*
X131736315Y-85119850D01*
X131887151Y-85196705D01*
X131967652Y-85222861D01*
X132048146Y-85249016D01*
X132048147Y-85249016D01*
X132048153Y-85249018D01*
X132215356Y-85275500D01*
X132215359Y-85275500D01*
X132384641Y-85275500D01*
X132384644Y-85275500D01*
X132551847Y-85249018D01*
X132712849Y-85196705D01*
X132863685Y-85119850D01*
X133000641Y-85020346D01*
X133120346Y-84900641D01*
X133219850Y-84763685D01*
X133296705Y-84612849D01*
X133349018Y-84451847D01*
X133375500Y-84284644D01*
X133375500Y-84115358D01*
X134264500Y-84115358D01*
X134264500Y-84284641D01*
X134290983Y-84451853D01*
X134343292Y-84612841D01*
X134343296Y-84612851D01*
X134420150Y-84763686D01*
X134420152Y-84763688D01*
X134519649Y-84900635D01*
X134519651Y-84900637D01*
X134519654Y-84900641D01*
X134639359Y-85020346D01*
X134639362Y-85020348D01*
X134639364Y-85020350D01*
X134776311Y-85119847D01*
X134776313Y-85119849D01*
X134776315Y-85119850D01*
X134927151Y-85196705D01*
X135007652Y-85222861D01*
X135088146Y-85249016D01*
X135088147Y-85249016D01*
X135088153Y-85249018D01*
X135255356Y-85275500D01*
X135255359Y-85275500D01*
X135424641Y-85275500D01*
X135424644Y-85275500D01*
X135591847Y-85249018D01*
X135752849Y-85196705D01*
X135903685Y-85119850D01*
X136040641Y-85020346D01*
X136160346Y-84900641D01*
X136259850Y-84763685D01*
X136336705Y-84612849D01*
X136389018Y-84451847D01*
X136415500Y-84284644D01*
X136415500Y-84115358D01*
X142224500Y-84115358D01*
X142224500Y-84284641D01*
X142250983Y-84451853D01*
X142303292Y-84612841D01*
X142303296Y-84612851D01*
X142380150Y-84763686D01*
X142380152Y-84763688D01*
X142479649Y-84900635D01*
X142479651Y-84900637D01*
X142479654Y-84900641D01*
X142599359Y-85020346D01*
X142599362Y-85020348D01*
X142599364Y-85020350D01*
X142736311Y-85119847D01*
X142736313Y-85119849D01*
X142736315Y-85119850D01*
X142887151Y-85196705D01*
X142967652Y-85222861D01*
X143048146Y-85249016D01*
X143048147Y-85249016D01*
X143048153Y-85249018D01*
X143215356Y-85275500D01*
X143215359Y-85275500D01*
X143384641Y-85275500D01*
X143384644Y-85275500D01*
X143551847Y-85249018D01*
X143712849Y-85196705D01*
X143863685Y-85119850D01*
X144000641Y-85020346D01*
X144120346Y-84900641D01*
X144219850Y-84763685D01*
X144296705Y-84612849D01*
X144349018Y-84451847D01*
X144375500Y-84284644D01*
X144375500Y-84115358D01*
X145264500Y-84115358D01*
X145264500Y-84284641D01*
X145290983Y-84451853D01*
X145343292Y-84612841D01*
X145343296Y-84612851D01*
X145420150Y-84763686D01*
X145420152Y-84763688D01*
X145519649Y-84900635D01*
X145519651Y-84900637D01*
X145519654Y-84900641D01*
X145639359Y-85020346D01*
X145639362Y-85020348D01*
X145639364Y-85020350D01*
X145776311Y-85119847D01*
X145776313Y-85119849D01*
X145776315Y-85119850D01*
X145927151Y-85196705D01*
X146007652Y-85222861D01*
X146088146Y-85249016D01*
X146088147Y-85249016D01*
X146088153Y-85249018D01*
X146255356Y-85275500D01*
X146255359Y-85275500D01*
X146424641Y-85275500D01*
X146424644Y-85275500D01*
X146591847Y-85249018D01*
X146752849Y-85196705D01*
X146903685Y-85119850D01*
X147040641Y-85020346D01*
X147160346Y-84900641D01*
X147259850Y-84763685D01*
X147336705Y-84612849D01*
X147389018Y-84451847D01*
X147415500Y-84284644D01*
X147415500Y-84115358D01*
X153224500Y-84115358D01*
X153224500Y-84284641D01*
X153250983Y-84451853D01*
X153303292Y-84612841D01*
X153303296Y-84612851D01*
X153380150Y-84763686D01*
X153380152Y-84763688D01*
X153479649Y-84900635D01*
X153479651Y-84900637D01*
X153479654Y-84900641D01*
X153599359Y-85020346D01*
X153599362Y-85020348D01*
X153599364Y-85020350D01*
X153736311Y-85119847D01*
X153736313Y-85119849D01*
X153736315Y-85119850D01*
X153887151Y-85196705D01*
X153967652Y-85222861D01*
X154048146Y-85249016D01*
X154048147Y-85249016D01*
X154048153Y-85249018D01*
X154215356Y-85275500D01*
X154215359Y-85275500D01*
X154384641Y-85275500D01*
X154384644Y-85275500D01*
X154551847Y-85249018D01*
X154712849Y-85196705D01*
X154863685Y-85119850D01*
X155000641Y-85020346D01*
X155120346Y-84900641D01*
X155219850Y-84763685D01*
X155296705Y-84612849D01*
X155349018Y-84451847D01*
X155375500Y-84284644D01*
X155375500Y-84115356D01*
X155349018Y-83948153D01*
X155296705Y-83787151D01*
X155219850Y-83636315D01*
X155120346Y-83499359D01*
X155000641Y-83379654D01*
X155000637Y-83379651D01*
X155000635Y-83379649D01*
X154863688Y-83280152D01*
X154863686Y-83280150D01*
X154712851Y-83203296D01*
X154712841Y-83203292D01*
X154551853Y-83150983D01*
X154551847Y-83150982D01*
X154384644Y-83124500D01*
X154215356Y-83124500D01*
X154079272Y-83146053D01*
X154048146Y-83150983D01*
X153887158Y-83203292D01*
X153887148Y-83203296D01*
X153736313Y-83280150D01*
X153736311Y-83280152D01*
X153599364Y-83379649D01*
X153479649Y-83499364D01*
X153380152Y-83636311D01*
X153380150Y-83636313D01*
X153303296Y-83787148D01*
X153303292Y-83787158D01*
X153250983Y-83948146D01*
X153224500Y-84115358D01*
X147415500Y-84115358D01*
X147415500Y-84115356D01*
X147389018Y-83948153D01*
X147336705Y-83787151D01*
X147259850Y-83636315D01*
X147160346Y-83499359D01*
X147040641Y-83379654D01*
X147040637Y-83379651D01*
X147040635Y-83379649D01*
X146903688Y-83280152D01*
X146903686Y-83280150D01*
X146752851Y-83203296D01*
X146752841Y-83203292D01*
X146591853Y-83150983D01*
X146591847Y-83150982D01*
X146424644Y-83124500D01*
X146255356Y-83124500D01*
X146119272Y-83146053D01*
X146088146Y-83150983D01*
X145927158Y-83203292D01*
X145927148Y-83203296D01*
X145776313Y-83280150D01*
X145776311Y-83280152D01*
X145639364Y-83379649D01*
X145519649Y-83499364D01*
X145420152Y-83636311D01*
X145420150Y-83636313D01*
X145343296Y-83787148D01*
X145343292Y-83787158D01*
X145290983Y-83948146D01*
X145264500Y-84115358D01*
X144375500Y-84115358D01*
X144375500Y-84115356D01*
X144349018Y-83948153D01*
X144296705Y-83787151D01*
X144219850Y-83636315D01*
X144120346Y-83499359D01*
X144000641Y-83379654D01*
X144000637Y-83379651D01*
X144000635Y-83379649D01*
X143863688Y-83280152D01*
X143863686Y-83280150D01*
X143712851Y-83203296D01*
X143712841Y-83203292D01*
X143551853Y-83150983D01*
X143551847Y-83150982D01*
X143384644Y-83124500D01*
X143215356Y-83124500D01*
X143079272Y-83146053D01*
X143048146Y-83150983D01*
X142887158Y-83203292D01*
X142887148Y-83203296D01*
X142736313Y-83280150D01*
X142736311Y-83280152D01*
X142599364Y-83379649D01*
X142479649Y-83499364D01*
X142380152Y-83636311D01*
X142380150Y-83636313D01*
X142303296Y-83787148D01*
X142303292Y-83787158D01*
X142250983Y-83948146D01*
X142224500Y-84115358D01*
X136415500Y-84115358D01*
X136415500Y-84115356D01*
X136389018Y-83948153D01*
X136336705Y-83787151D01*
X136259850Y-83636315D01*
X136160346Y-83499359D01*
X136040641Y-83379654D01*
X136040637Y-83379651D01*
X136040635Y-83379649D01*
X135903688Y-83280152D01*
X135903686Y-83280150D01*
X135752851Y-83203296D01*
X135752841Y-83203292D01*
X135591853Y-83150983D01*
X135591847Y-83150982D01*
X135424644Y-83124500D01*
X135255356Y-83124500D01*
X135119272Y-83146053D01*
X135088146Y-83150983D01*
X134927158Y-83203292D01*
X134927148Y-83203296D01*
X134776313Y-83280150D01*
X134776311Y-83280152D01*
X134639364Y-83379649D01*
X134519649Y-83499364D01*
X134420152Y-83636311D01*
X134420150Y-83636313D01*
X134343296Y-83787148D01*
X134343292Y-83787158D01*
X134290983Y-83948146D01*
X134264500Y-84115358D01*
X133375500Y-84115358D01*
X133375500Y-84115356D01*
X133349018Y-83948153D01*
X133296705Y-83787151D01*
X133219850Y-83636315D01*
X133120346Y-83499359D01*
X133000641Y-83379654D01*
X133000637Y-83379651D01*
X133000635Y-83379649D01*
X132863688Y-83280152D01*
X132863686Y-83280150D01*
X132712851Y-83203296D01*
X132712841Y-83203292D01*
X132551853Y-83150983D01*
X132551847Y-83150982D01*
X132384644Y-83124500D01*
X132215356Y-83124500D01*
X132079272Y-83146053D01*
X132048146Y-83150983D01*
X131887158Y-83203292D01*
X131887148Y-83203296D01*
X131736313Y-83280150D01*
X131736311Y-83280152D01*
X131599364Y-83379649D01*
X131479649Y-83499364D01*
X131380152Y-83636311D01*
X131380150Y-83636313D01*
X131303296Y-83787148D01*
X131303292Y-83787158D01*
X131250983Y-83948146D01*
X131224500Y-84115358D01*
X125415500Y-84115358D01*
X125415500Y-84115356D01*
X125389018Y-83948153D01*
X125336705Y-83787151D01*
X125259850Y-83636315D01*
X125160346Y-83499359D01*
X125040641Y-83379654D01*
X125040637Y-83379651D01*
X125040635Y-83379649D01*
X124903688Y-83280152D01*
X124903686Y-83280150D01*
X124752851Y-83203296D01*
X124752841Y-83203292D01*
X124591853Y-83150983D01*
X124591847Y-83150982D01*
X124424644Y-83124500D01*
X124255356Y-83124500D01*
X124119272Y-83146053D01*
X124088146Y-83150983D01*
X123927158Y-83203292D01*
X123927148Y-83203296D01*
X123776313Y-83280150D01*
X123776311Y-83280152D01*
X123639364Y-83379649D01*
X123519649Y-83499364D01*
X123420152Y-83636311D01*
X123420150Y-83636313D01*
X123343296Y-83787148D01*
X123343292Y-83787158D01*
X123290983Y-83948146D01*
X123264500Y-84115358D01*
X122182810Y-84115358D01*
X122177395Y-79615358D01*
X123264500Y-79615358D01*
X123264500Y-79784641D01*
X123290983Y-79951853D01*
X123343292Y-80112841D01*
X123343296Y-80112851D01*
X123420150Y-80263686D01*
X123420152Y-80263688D01*
X123519649Y-80400635D01*
X123519651Y-80400637D01*
X123519654Y-80400641D01*
X123639359Y-80520346D01*
X123639362Y-80520348D01*
X123639364Y-80520350D01*
X123776311Y-80619847D01*
X123776313Y-80619849D01*
X123776315Y-80619850D01*
X123927151Y-80696705D01*
X124007652Y-80722861D01*
X124088146Y-80749016D01*
X124088147Y-80749016D01*
X124088153Y-80749018D01*
X124255356Y-80775500D01*
X124255359Y-80775500D01*
X124424641Y-80775500D01*
X124424644Y-80775500D01*
X124591847Y-80749018D01*
X124752849Y-80696705D01*
X124903685Y-80619850D01*
X125040641Y-80520346D01*
X125160346Y-80400641D01*
X125259850Y-80263685D01*
X125336705Y-80112849D01*
X125389018Y-79951847D01*
X125415500Y-79784644D01*
X125415500Y-79615358D01*
X131224500Y-79615358D01*
X131224500Y-79784641D01*
X131250983Y-79951853D01*
X131303292Y-80112841D01*
X131303296Y-80112851D01*
X131380150Y-80263686D01*
X131380152Y-80263688D01*
X131479649Y-80400635D01*
X131479651Y-80400637D01*
X131479654Y-80400641D01*
X131599359Y-80520346D01*
X131599362Y-80520348D01*
X131599364Y-80520350D01*
X131736311Y-80619847D01*
X131736313Y-80619849D01*
X131736315Y-80619850D01*
X131887151Y-80696705D01*
X131967652Y-80722861D01*
X132048146Y-80749016D01*
X132048147Y-80749016D01*
X132048153Y-80749018D01*
X132215356Y-80775500D01*
X132215359Y-80775500D01*
X132384641Y-80775500D01*
X132384644Y-80775500D01*
X132551847Y-80749018D01*
X132712849Y-80696705D01*
X132863685Y-80619850D01*
X133000641Y-80520346D01*
X133120346Y-80400641D01*
X133219850Y-80263685D01*
X133296705Y-80112849D01*
X133349018Y-79951847D01*
X133375500Y-79784644D01*
X133375500Y-79615358D01*
X134264500Y-79615358D01*
X134264500Y-79784641D01*
X134290983Y-79951853D01*
X134343292Y-80112841D01*
X134343296Y-80112851D01*
X134420150Y-80263686D01*
X134420152Y-80263688D01*
X134519649Y-80400635D01*
X134519651Y-80400637D01*
X134519654Y-80400641D01*
X134639359Y-80520346D01*
X134639362Y-80520348D01*
X134639364Y-80520350D01*
X134776311Y-80619847D01*
X134776313Y-80619849D01*
X134776315Y-80619850D01*
X134927151Y-80696705D01*
X135007652Y-80722861D01*
X135088146Y-80749016D01*
X135088147Y-80749016D01*
X135088153Y-80749018D01*
X135255356Y-80775500D01*
X135255359Y-80775500D01*
X135424641Y-80775500D01*
X135424644Y-80775500D01*
X135591847Y-80749018D01*
X135752849Y-80696705D01*
X135903685Y-80619850D01*
X136040641Y-80520346D01*
X136160346Y-80400641D01*
X136259850Y-80263685D01*
X136336705Y-80112849D01*
X136389018Y-79951847D01*
X136415500Y-79784644D01*
X136415500Y-79615358D01*
X142224500Y-79615358D01*
X142224500Y-79784641D01*
X142250983Y-79951853D01*
X142303292Y-80112841D01*
X142303296Y-80112851D01*
X142380150Y-80263686D01*
X142380152Y-80263688D01*
X142479649Y-80400635D01*
X142479651Y-80400637D01*
X142479654Y-80400641D01*
X142599359Y-80520346D01*
X142599362Y-80520348D01*
X142599364Y-80520350D01*
X142736311Y-80619847D01*
X142736313Y-80619849D01*
X142736315Y-80619850D01*
X142887151Y-80696705D01*
X142967652Y-80722861D01*
X143048146Y-80749016D01*
X143048147Y-80749016D01*
X143048153Y-80749018D01*
X143215356Y-80775500D01*
X143215359Y-80775500D01*
X143384641Y-80775500D01*
X143384644Y-80775500D01*
X143551847Y-80749018D01*
X143712849Y-80696705D01*
X143863685Y-80619850D01*
X144000641Y-80520346D01*
X144120346Y-80400641D01*
X144219850Y-80263685D01*
X144296705Y-80112849D01*
X144349018Y-79951847D01*
X144375500Y-79784644D01*
X144375500Y-79615358D01*
X145264500Y-79615358D01*
X145264500Y-79784641D01*
X145290983Y-79951853D01*
X145343292Y-80112841D01*
X145343296Y-80112851D01*
X145420150Y-80263686D01*
X145420152Y-80263688D01*
X145519649Y-80400635D01*
X145519651Y-80400637D01*
X145519654Y-80400641D01*
X145639359Y-80520346D01*
X145639362Y-80520348D01*
X145639364Y-80520350D01*
X145776311Y-80619847D01*
X145776313Y-80619849D01*
X145776315Y-80619850D01*
X145927151Y-80696705D01*
X146007652Y-80722861D01*
X146088146Y-80749016D01*
X146088147Y-80749016D01*
X146088153Y-80749018D01*
X146255356Y-80775500D01*
X146255359Y-80775500D01*
X146424641Y-80775500D01*
X146424644Y-80775500D01*
X146591847Y-80749018D01*
X146752849Y-80696705D01*
X146903685Y-80619850D01*
X147040641Y-80520346D01*
X147160346Y-80400641D01*
X147259850Y-80263685D01*
X147336705Y-80112849D01*
X147389018Y-79951847D01*
X147415500Y-79784644D01*
X147415500Y-79615358D01*
X153224500Y-79615358D01*
X153224500Y-79784641D01*
X153250983Y-79951853D01*
X153303292Y-80112841D01*
X153303296Y-80112851D01*
X153380150Y-80263686D01*
X153380152Y-80263688D01*
X153479649Y-80400635D01*
X153479651Y-80400637D01*
X153479654Y-80400641D01*
X153599359Y-80520346D01*
X153599362Y-80520348D01*
X153599364Y-80520350D01*
X153736311Y-80619847D01*
X153736313Y-80619849D01*
X153736315Y-80619850D01*
X153887151Y-80696705D01*
X153967652Y-80722861D01*
X154048146Y-80749016D01*
X154048147Y-80749016D01*
X154048153Y-80749018D01*
X154215356Y-80775500D01*
X154215359Y-80775500D01*
X154384641Y-80775500D01*
X154384644Y-80775500D01*
X154551847Y-80749018D01*
X154712849Y-80696705D01*
X154863685Y-80619850D01*
X155000641Y-80520346D01*
X155120346Y-80400641D01*
X155219850Y-80263685D01*
X155296705Y-80112849D01*
X155349018Y-79951847D01*
X155375500Y-79784644D01*
X155375500Y-79615356D01*
X155349018Y-79448153D01*
X155296705Y-79287151D01*
X155219850Y-79136315D01*
X155120346Y-78999359D01*
X155000641Y-78879654D01*
X155000637Y-78879651D01*
X155000635Y-78879649D01*
X154863688Y-78780152D01*
X154863686Y-78780150D01*
X154712851Y-78703296D01*
X154712841Y-78703292D01*
X154551853Y-78650983D01*
X154551847Y-78650982D01*
X154384644Y-78624500D01*
X154215356Y-78624500D01*
X154079272Y-78646053D01*
X154048146Y-78650983D01*
X153887158Y-78703292D01*
X153887148Y-78703296D01*
X153736313Y-78780150D01*
X153736311Y-78780152D01*
X153599364Y-78879649D01*
X153479649Y-78999364D01*
X153380152Y-79136311D01*
X153380150Y-79136313D01*
X153303296Y-79287148D01*
X153303292Y-79287158D01*
X153250983Y-79448146D01*
X153224500Y-79615358D01*
X147415500Y-79615358D01*
X147415500Y-79615356D01*
X147389018Y-79448153D01*
X147336705Y-79287151D01*
X147259850Y-79136315D01*
X147160346Y-78999359D01*
X147040641Y-78879654D01*
X147040637Y-78879651D01*
X147040635Y-78879649D01*
X146903688Y-78780152D01*
X146903686Y-78780150D01*
X146752851Y-78703296D01*
X146752841Y-78703292D01*
X146591853Y-78650983D01*
X146591847Y-78650982D01*
X146424644Y-78624500D01*
X146255356Y-78624500D01*
X146119272Y-78646053D01*
X146088146Y-78650983D01*
X145927158Y-78703292D01*
X145927148Y-78703296D01*
X145776313Y-78780150D01*
X145776311Y-78780152D01*
X145639364Y-78879649D01*
X145519649Y-78999364D01*
X145420152Y-79136311D01*
X145420150Y-79136313D01*
X145343296Y-79287148D01*
X145343292Y-79287158D01*
X145290983Y-79448146D01*
X145264500Y-79615358D01*
X144375500Y-79615358D01*
X144375500Y-79615356D01*
X144349018Y-79448153D01*
X144296705Y-79287151D01*
X144219850Y-79136315D01*
X144120346Y-78999359D01*
X144000641Y-78879654D01*
X144000637Y-78879651D01*
X144000635Y-78879649D01*
X143863688Y-78780152D01*
X143863686Y-78780150D01*
X143712851Y-78703296D01*
X143712841Y-78703292D01*
X143551853Y-78650983D01*
X143551847Y-78650982D01*
X143384644Y-78624500D01*
X143215356Y-78624500D01*
X143079272Y-78646053D01*
X143048146Y-78650983D01*
X142887158Y-78703292D01*
X142887148Y-78703296D01*
X142736313Y-78780150D01*
X142736311Y-78780152D01*
X142599364Y-78879649D01*
X142479649Y-78999364D01*
X142380152Y-79136311D01*
X142380150Y-79136313D01*
X142303296Y-79287148D01*
X142303292Y-79287158D01*
X142250983Y-79448146D01*
X142224500Y-79615358D01*
X136415500Y-79615358D01*
X136415500Y-79615356D01*
X136389018Y-79448153D01*
X136336705Y-79287151D01*
X136259850Y-79136315D01*
X136160346Y-78999359D01*
X136040641Y-78879654D01*
X136040637Y-78879651D01*
X136040635Y-78879649D01*
X135903688Y-78780152D01*
X135903686Y-78780150D01*
X135752851Y-78703296D01*
X135752841Y-78703292D01*
X135591853Y-78650983D01*
X135591847Y-78650982D01*
X135424644Y-78624500D01*
X135255356Y-78624500D01*
X135119272Y-78646053D01*
X135088146Y-78650983D01*
X134927158Y-78703292D01*
X134927148Y-78703296D01*
X134776313Y-78780150D01*
X134776311Y-78780152D01*
X134639364Y-78879649D01*
X134519649Y-78999364D01*
X134420152Y-79136311D01*
X134420150Y-79136313D01*
X134343296Y-79287148D01*
X134343292Y-79287158D01*
X134290983Y-79448146D01*
X134264500Y-79615358D01*
X133375500Y-79615358D01*
X133375500Y-79615356D01*
X133349018Y-79448153D01*
X133296705Y-79287151D01*
X133219850Y-79136315D01*
X133120346Y-78999359D01*
X133000641Y-78879654D01*
X133000637Y-78879651D01*
X133000635Y-78879649D01*
X132863688Y-78780152D01*
X132863686Y-78780150D01*
X132712851Y-78703296D01*
X132712841Y-78703292D01*
X132551853Y-78650983D01*
X132551847Y-78650982D01*
X132384644Y-78624500D01*
X132215356Y-78624500D01*
X132079272Y-78646053D01*
X132048146Y-78650983D01*
X131887158Y-78703292D01*
X131887148Y-78703296D01*
X131736313Y-78780150D01*
X131736311Y-78780152D01*
X131599364Y-78879649D01*
X131479649Y-78999364D01*
X131380152Y-79136311D01*
X131380150Y-79136313D01*
X131303296Y-79287148D01*
X131303292Y-79287158D01*
X131250983Y-79448146D01*
X131224500Y-79615358D01*
X125415500Y-79615358D01*
X125415500Y-79615356D01*
X125389018Y-79448153D01*
X125336705Y-79287151D01*
X125259850Y-79136315D01*
X125160346Y-78999359D01*
X125040641Y-78879654D01*
X125040637Y-78879651D01*
X125040635Y-78879649D01*
X124903688Y-78780152D01*
X124903686Y-78780150D01*
X124752851Y-78703296D01*
X124752841Y-78703292D01*
X124591853Y-78650983D01*
X124591847Y-78650982D01*
X124424644Y-78624500D01*
X124255356Y-78624500D01*
X124119272Y-78646053D01*
X124088146Y-78650983D01*
X123927158Y-78703292D01*
X123927148Y-78703296D01*
X123776313Y-78780150D01*
X123776311Y-78780152D01*
X123639364Y-78879649D01*
X123519649Y-78999364D01*
X123420152Y-79136311D01*
X123420150Y-79136313D01*
X123343296Y-79287148D01*
X123343292Y-79287158D01*
X123290983Y-79448146D01*
X123264500Y-79615358D01*
X122177395Y-79615358D01*
X122171979Y-75115358D01*
X134264500Y-75115358D01*
X134264500Y-75284641D01*
X134290983Y-75451853D01*
X134343292Y-75612841D01*
X134343296Y-75612851D01*
X134420150Y-75763686D01*
X134420152Y-75763688D01*
X134519649Y-75900635D01*
X134519651Y-75900637D01*
X134519654Y-75900641D01*
X134639359Y-76020346D01*
X134639362Y-76020348D01*
X134639364Y-76020350D01*
X134776311Y-76119847D01*
X134776313Y-76119849D01*
X134776315Y-76119850D01*
X134927151Y-76196705D01*
X135007652Y-76222861D01*
X135088146Y-76249016D01*
X135088147Y-76249016D01*
X135088153Y-76249018D01*
X135255356Y-76275500D01*
X135255359Y-76275500D01*
X135424641Y-76275500D01*
X135424644Y-76275500D01*
X135591847Y-76249018D01*
X135752849Y-76196705D01*
X135903685Y-76119850D01*
X136040641Y-76020346D01*
X136160346Y-75900641D01*
X136259850Y-75763685D01*
X136336705Y-75612849D01*
X136389018Y-75451847D01*
X136415500Y-75284644D01*
X136415500Y-75115356D01*
X136389018Y-74948153D01*
X136336705Y-74787151D01*
X136259850Y-74636315D01*
X136160346Y-74499359D01*
X136040641Y-74379654D01*
X136040637Y-74379651D01*
X136040635Y-74379649D01*
X135903688Y-74280152D01*
X135903686Y-74280150D01*
X135752851Y-74203296D01*
X135752841Y-74203292D01*
X135591853Y-74150983D01*
X135591847Y-74150982D01*
X135424644Y-74124500D01*
X135255356Y-74124500D01*
X135119272Y-74146053D01*
X135088146Y-74150983D01*
X134927158Y-74203292D01*
X134927148Y-74203296D01*
X134776313Y-74280150D01*
X134776311Y-74280152D01*
X134639364Y-74379649D01*
X134519649Y-74499364D01*
X134420152Y-74636311D01*
X134420150Y-74636313D01*
X134343296Y-74787148D01*
X134343292Y-74787158D01*
X134290983Y-74948146D01*
X134264500Y-75115358D01*
X122171979Y-75115358D01*
X122166564Y-70615358D01*
X134264500Y-70615358D01*
X134264500Y-70784641D01*
X134290983Y-70951853D01*
X134343292Y-71112841D01*
X134343296Y-71112851D01*
X134420150Y-71263686D01*
X134420152Y-71263688D01*
X134519649Y-71400635D01*
X134519651Y-71400637D01*
X134519654Y-71400641D01*
X134639359Y-71520346D01*
X134639362Y-71520348D01*
X134639364Y-71520350D01*
X134776311Y-71619847D01*
X134776313Y-71619849D01*
X134776315Y-71619850D01*
X134927151Y-71696705D01*
X135007652Y-71722861D01*
X135088146Y-71749016D01*
X135088147Y-71749016D01*
X135088153Y-71749018D01*
X135255356Y-71775500D01*
X135255359Y-71775500D01*
X135424641Y-71775500D01*
X135424644Y-71775500D01*
X135591847Y-71749018D01*
X135752849Y-71696705D01*
X135903685Y-71619850D01*
X136040641Y-71520346D01*
X136160346Y-71400641D01*
X136259850Y-71263685D01*
X136336705Y-71112849D01*
X136389018Y-70951847D01*
X136415500Y-70784644D01*
X136415500Y-70615358D01*
X142224500Y-70615358D01*
X142224500Y-70784641D01*
X142250983Y-70951853D01*
X142303292Y-71112841D01*
X142303296Y-71112851D01*
X142380150Y-71263686D01*
X142380152Y-71263688D01*
X142479649Y-71400635D01*
X142479651Y-71400637D01*
X142479654Y-71400641D01*
X142599359Y-71520346D01*
X142599362Y-71520348D01*
X142599364Y-71520350D01*
X142736311Y-71619847D01*
X142736313Y-71619849D01*
X142736315Y-71619850D01*
X142887151Y-71696705D01*
X142967652Y-71722861D01*
X143048146Y-71749016D01*
X143048147Y-71749016D01*
X143048153Y-71749018D01*
X143215356Y-71775500D01*
X143215359Y-71775500D01*
X143384641Y-71775500D01*
X143384644Y-71775500D01*
X143551847Y-71749018D01*
X143712849Y-71696705D01*
X143863685Y-71619850D01*
X144000641Y-71520346D01*
X144120346Y-71400641D01*
X144219850Y-71263685D01*
X144296705Y-71112849D01*
X144349018Y-70951847D01*
X144375500Y-70784644D01*
X144375500Y-70615356D01*
X144349018Y-70448153D01*
X144296705Y-70287151D01*
X144219850Y-70136315D01*
X144199599Y-70108442D01*
X144120350Y-69999364D01*
X144120348Y-69999362D01*
X144120346Y-69999359D01*
X144000641Y-69879654D01*
X144000637Y-69879651D01*
X144000635Y-69879649D01*
X143863688Y-69780152D01*
X143863686Y-69780150D01*
X143712851Y-69703296D01*
X143712841Y-69703292D01*
X143551853Y-69650983D01*
X143551847Y-69650982D01*
X143384644Y-69624500D01*
X143215356Y-69624500D01*
X143079272Y-69646053D01*
X143048146Y-69650983D01*
X142887158Y-69703292D01*
X142887148Y-69703296D01*
X142736313Y-69780150D01*
X142736311Y-69780152D01*
X142599364Y-69879649D01*
X142479649Y-69999364D01*
X142380152Y-70136311D01*
X142380150Y-70136313D01*
X142303296Y-70287148D01*
X142303292Y-70287158D01*
X142250983Y-70448146D01*
X142224500Y-70615358D01*
X136415500Y-70615358D01*
X136415500Y-70615356D01*
X136389018Y-70448153D01*
X136336705Y-70287151D01*
X136259850Y-70136315D01*
X136239599Y-70108442D01*
X136160350Y-69999364D01*
X136160348Y-69999362D01*
X136160346Y-69999359D01*
X136040641Y-69879654D01*
X136040637Y-69879651D01*
X136040635Y-69879649D01*
X135903688Y-69780152D01*
X135903686Y-69780150D01*
X135752851Y-69703296D01*
X135752841Y-69703292D01*
X135591853Y-69650983D01*
X135591847Y-69650982D01*
X135424644Y-69624500D01*
X135255356Y-69624500D01*
X135119272Y-69646053D01*
X135088146Y-69650983D01*
X134927158Y-69703292D01*
X134927148Y-69703296D01*
X134776313Y-69780150D01*
X134776311Y-69780152D01*
X134639364Y-69879649D01*
X134519649Y-69999364D01*
X134420152Y-70136311D01*
X134420150Y-70136313D01*
X134343296Y-70287148D01*
X134343292Y-70287158D01*
X134290983Y-70448146D01*
X134264500Y-70615358D01*
X122166564Y-70615358D01*
X122164636Y-69013391D01*
X166839500Y-69013391D01*
X166839500Y-69186608D01*
X166866599Y-69357707D01*
X166920124Y-69522436D01*
X166920127Y-69522445D01*
X166998768Y-69676789D01*
X167100585Y-69816927D01*
X167223072Y-69939414D01*
X167363210Y-70041231D01*
X167363212Y-70041232D01*
X167517555Y-70119873D01*
X167630553Y-70156588D01*
X167682292Y-70173400D01*
X167682293Y-70173400D01*
X167682299Y-70173402D01*
X167853389Y-70200500D01*
X167853392Y-70200500D01*
X168026608Y-70200500D01*
X168026611Y-70200500D01*
X168197701Y-70173402D01*
X168362445Y-70119873D01*
X168516788Y-70041232D01*
X168656928Y-69939414D01*
X168779414Y-69816928D01*
X168881232Y-69676788D01*
X168881233Y-69676784D01*
X168887202Y-69668570D01*
X168975474Y-69580298D01*
X169086702Y-69523625D01*
X169210000Y-69504096D01*
X169333298Y-69523624D01*
X169444526Y-69580298D01*
X169532798Y-69668570D01*
X169538766Y-69676784D01*
X169538768Y-69676788D01*
X169613865Y-69780150D01*
X169640586Y-69816928D01*
X169763072Y-69939414D01*
X169903210Y-70041231D01*
X169903212Y-70041232D01*
X170057555Y-70119873D01*
X170170553Y-70156588D01*
X170222292Y-70173400D01*
X170222293Y-70173400D01*
X170222299Y-70173402D01*
X170393389Y-70200500D01*
X170393392Y-70200500D01*
X170566608Y-70200500D01*
X170566611Y-70200500D01*
X170737701Y-70173402D01*
X170902445Y-70119873D01*
X171056788Y-70041232D01*
X171196928Y-69939414D01*
X171319414Y-69816928D01*
X171421232Y-69676788D01*
X171421233Y-69676784D01*
X171427202Y-69668570D01*
X171515474Y-69580298D01*
X171626702Y-69523625D01*
X171750000Y-69504096D01*
X171873298Y-69523624D01*
X171984526Y-69580298D01*
X172072798Y-69668570D01*
X172078766Y-69676784D01*
X172078768Y-69676788D01*
X172153865Y-69780150D01*
X172180586Y-69816928D01*
X172303072Y-69939414D01*
X172443210Y-70041231D01*
X172443212Y-70041232D01*
X172597555Y-70119873D01*
X172710553Y-70156588D01*
X172762292Y-70173400D01*
X172762293Y-70173400D01*
X172762299Y-70173402D01*
X172933389Y-70200500D01*
X172933392Y-70200500D01*
X173106608Y-70200500D01*
X173106611Y-70200500D01*
X173277701Y-70173402D01*
X173442445Y-70119873D01*
X173596788Y-70041232D01*
X173736928Y-69939414D01*
X173859414Y-69816928D01*
X173961232Y-69676788D01*
X174039873Y-69522445D01*
X174093402Y-69357701D01*
X174120500Y-69186611D01*
X174120500Y-69013389D01*
X174093402Y-68842299D01*
X174039873Y-68677555D01*
X173961232Y-68523212D01*
X173859414Y-68383072D01*
X173736928Y-68260586D01*
X173736927Y-68260585D01*
X173596789Y-68158768D01*
X173442445Y-68080127D01*
X173442436Y-68080124D01*
X173277707Y-68026599D01*
X173277701Y-68026598D01*
X173106611Y-67999500D01*
X172933389Y-67999500D01*
X172794144Y-68021554D01*
X172762292Y-68026599D01*
X172597563Y-68080124D01*
X172597554Y-68080127D01*
X172443210Y-68158768D01*
X172303072Y-68260585D01*
X172180585Y-68383072D01*
X172072797Y-68531430D01*
X171984526Y-68619701D01*
X171873297Y-68676375D01*
X171749999Y-68695903D01*
X171626701Y-68676374D01*
X171515473Y-68619700D01*
X171427203Y-68531430D01*
X171319414Y-68383072D01*
X171196927Y-68260585D01*
X171056789Y-68158768D01*
X170902445Y-68080127D01*
X170902436Y-68080124D01*
X170737707Y-68026599D01*
X170737701Y-68026598D01*
X170566611Y-67999500D01*
X170393389Y-67999500D01*
X170254144Y-68021554D01*
X170222292Y-68026599D01*
X170057563Y-68080124D01*
X170057554Y-68080127D01*
X169903210Y-68158768D01*
X169763072Y-68260585D01*
X169640585Y-68383072D01*
X169532797Y-68531430D01*
X169444526Y-68619701D01*
X169333297Y-68676375D01*
X169209999Y-68695903D01*
X169086701Y-68676374D01*
X168975473Y-68619700D01*
X168887203Y-68531430D01*
X168779414Y-68383072D01*
X168656927Y-68260585D01*
X168516789Y-68158768D01*
X168362445Y-68080127D01*
X168362436Y-68080124D01*
X168197707Y-68026599D01*
X168197701Y-68026598D01*
X168026611Y-67999500D01*
X167853389Y-67999500D01*
X167714144Y-68021554D01*
X167682292Y-68026599D01*
X167517563Y-68080124D01*
X167517554Y-68080127D01*
X167363210Y-68158768D01*
X167223072Y-68260585D01*
X167100585Y-68383072D01*
X166998768Y-68523210D01*
X166920127Y-68677554D01*
X166920124Y-68677563D01*
X166866599Y-68842292D01*
X166839500Y-69013391D01*
X122164636Y-69013391D01*
X122159455Y-64707629D01*
X123402220Y-64707629D01*
X123402220Y-65685010D01*
X123436824Y-65858981D01*
X123436825Y-65858985D01*
X123436826Y-65858986D01*
X123504707Y-66022867D01*
X123603256Y-66170355D01*
X123728685Y-66295784D01*
X123876173Y-66394333D01*
X124040054Y-66462214D01*
X124040057Y-66462214D01*
X124040058Y-66462215D01*
X124214029Y-66496820D01*
X124391411Y-66496820D01*
X124565381Y-66462215D01*
X124565381Y-66462214D01*
X124565386Y-66462214D01*
X124729267Y-66394333D01*
X124876755Y-66295784D01*
X125002184Y-66170355D01*
X125100733Y-66022867D01*
X125168614Y-65858986D01*
X125181387Y-65794771D01*
X125224594Y-65677653D01*
X125301878Y-65579618D01*
X125405675Y-65510264D01*
X125525822Y-65476379D01*
X125650561Y-65481280D01*
X125767680Y-65524487D01*
X125865715Y-65601771D01*
X125935069Y-65705568D01*
X125964052Y-65794771D01*
X125976826Y-65858986D01*
X126044707Y-66022867D01*
X126143256Y-66170355D01*
X126268685Y-66295784D01*
X126416173Y-66394333D01*
X126580054Y-66462214D01*
X126580057Y-66462214D01*
X126580058Y-66462215D01*
X126754029Y-66496820D01*
X126931411Y-66496820D01*
X127105381Y-66462215D01*
X127105381Y-66462214D01*
X127105386Y-66462214D01*
X127269267Y-66394333D01*
X127416755Y-66295784D01*
X127542184Y-66170355D01*
X127640733Y-66022867D01*
X127708614Y-65858986D01*
X127719661Y-65803448D01*
X127762868Y-65686331D01*
X127840152Y-65588296D01*
X127943948Y-65518941D01*
X128064096Y-65485056D01*
X128188835Y-65489957D01*
X128305953Y-65533164D01*
X128403988Y-65610448D01*
X128473343Y-65714244D01*
X128502326Y-65803448D01*
X128514106Y-65862666D01*
X128581987Y-66026547D01*
X128680536Y-66174035D01*
X128805965Y-66299464D01*
X128953453Y-66398013D01*
X129117334Y-66465894D01*
X129117337Y-66465894D01*
X129117338Y-66465895D01*
X129291309Y-66500500D01*
X129468691Y-66500500D01*
X129642661Y-66465895D01*
X129642661Y-66465894D01*
X129642666Y-66465894D01*
X129806547Y-66398013D01*
X129954035Y-66299464D01*
X130079464Y-66174035D01*
X130178013Y-66026547D01*
X130245894Y-65862666D01*
X130258667Y-65798451D01*
X130301874Y-65681333D01*
X130379158Y-65583298D01*
X130482955Y-65513944D01*
X130603102Y-65480059D01*
X130727841Y-65484960D01*
X130844960Y-65528167D01*
X130942995Y-65605451D01*
X131012349Y-65709248D01*
X131041332Y-65798451D01*
X131054106Y-65862666D01*
X131121987Y-66026547D01*
X131220536Y-66174035D01*
X131345965Y-66299464D01*
X131493453Y-66398013D01*
X131657334Y-66465894D01*
X131657337Y-66465894D01*
X131657338Y-66465895D01*
X131831309Y-66500500D01*
X132008691Y-66500500D01*
X132182661Y-66465895D01*
X132182661Y-66465894D01*
X132182666Y-66465894D01*
X132346547Y-66398013D01*
X132494035Y-66299464D01*
X132619464Y-66174035D01*
X132718013Y-66026547D01*
X132785894Y-65862666D01*
X132798667Y-65798451D01*
X132841874Y-65681333D01*
X132919158Y-65583298D01*
X133022955Y-65513944D01*
X133143102Y-65480059D01*
X133267841Y-65484960D01*
X133384960Y-65528167D01*
X133482995Y-65605451D01*
X133552349Y-65709248D01*
X133581332Y-65798451D01*
X133594106Y-65862666D01*
X133661987Y-66026547D01*
X133760536Y-66174035D01*
X133885965Y-66299464D01*
X134033453Y-66398013D01*
X134197334Y-66465894D01*
X134197337Y-66465894D01*
X134197338Y-66465895D01*
X134371309Y-66500500D01*
X134548691Y-66500500D01*
X134722661Y-66465895D01*
X134722661Y-66465894D01*
X134722666Y-66465894D01*
X134886547Y-66398013D01*
X135034035Y-66299464D01*
X135159464Y-66174035D01*
X135258013Y-66026547D01*
X135325894Y-65862666D01*
X135338667Y-65798451D01*
X135381874Y-65681333D01*
X135459158Y-65583298D01*
X135562955Y-65513944D01*
X135683102Y-65480059D01*
X135807841Y-65484960D01*
X135924960Y-65528167D01*
X136022995Y-65605451D01*
X136092349Y-65709248D01*
X136121332Y-65798451D01*
X136134106Y-65862666D01*
X136201987Y-66026547D01*
X136300536Y-66174035D01*
X136425965Y-66299464D01*
X136573453Y-66398013D01*
X136737334Y-66465894D01*
X136737337Y-66465894D01*
X136737338Y-66465895D01*
X136911309Y-66500500D01*
X137088691Y-66500500D01*
X137262661Y-66465895D01*
X137262661Y-66465894D01*
X137262666Y-66465894D01*
X137426547Y-66398013D01*
X137574035Y-66299464D01*
X137699464Y-66174035D01*
X137798013Y-66026547D01*
X137865894Y-65862666D01*
X137878667Y-65798451D01*
X137921874Y-65681333D01*
X137999158Y-65583298D01*
X138102955Y-65513944D01*
X138223102Y-65480059D01*
X138347841Y-65484960D01*
X138464960Y-65528167D01*
X138562995Y-65605451D01*
X138632349Y-65709248D01*
X138661332Y-65798451D01*
X138674106Y-65862666D01*
X138741987Y-66026547D01*
X138840536Y-66174035D01*
X138965965Y-66299464D01*
X139113453Y-66398013D01*
X139277334Y-66465894D01*
X139277337Y-66465894D01*
X139277338Y-66465895D01*
X139451309Y-66500500D01*
X139628691Y-66500500D01*
X139802661Y-66465895D01*
X139802661Y-66465894D01*
X139802666Y-66465894D01*
X139966547Y-66398013D01*
X140114035Y-66299464D01*
X140239464Y-66174035D01*
X140338013Y-66026547D01*
X140405894Y-65862666D01*
X140418667Y-65798451D01*
X140461874Y-65681333D01*
X140539158Y-65583298D01*
X140642955Y-65513944D01*
X140763102Y-65480059D01*
X140887841Y-65484960D01*
X141004960Y-65528167D01*
X141102995Y-65605451D01*
X141172349Y-65709248D01*
X141201332Y-65798451D01*
X141214106Y-65862666D01*
X141281987Y-66026547D01*
X141380536Y-66174035D01*
X141505965Y-66299464D01*
X141653453Y-66398013D01*
X141817334Y-66465894D01*
X141817337Y-66465894D01*
X141817338Y-66465895D01*
X141991309Y-66500500D01*
X142168691Y-66500500D01*
X142342661Y-66465895D01*
X142342661Y-66465894D01*
X142342666Y-66465894D01*
X142506547Y-66398013D01*
X142654035Y-66299464D01*
X142779464Y-66174035D01*
X142878013Y-66026547D01*
X142945894Y-65862666D01*
X142958667Y-65798451D01*
X143001874Y-65681333D01*
X143079158Y-65583298D01*
X143182955Y-65513944D01*
X143303102Y-65480059D01*
X143427841Y-65484960D01*
X143544960Y-65528167D01*
X143642995Y-65605451D01*
X143712349Y-65709248D01*
X143741332Y-65798451D01*
X143754106Y-65862666D01*
X143821987Y-66026547D01*
X143920536Y-66174035D01*
X144045965Y-66299464D01*
X144193453Y-66398013D01*
X144357334Y-66465894D01*
X144357337Y-66465894D01*
X144357338Y-66465895D01*
X144531309Y-66500500D01*
X144708691Y-66500500D01*
X144882661Y-66465895D01*
X144882661Y-66465894D01*
X144882666Y-66465894D01*
X145046547Y-66398013D01*
X145194035Y-66299464D01*
X145319464Y-66174035D01*
X145418013Y-66026547D01*
X145485894Y-65862666D01*
X145498667Y-65798451D01*
X145541874Y-65681333D01*
X145619158Y-65583298D01*
X145722955Y-65513944D01*
X145843102Y-65480059D01*
X145967841Y-65484960D01*
X146084960Y-65528167D01*
X146182995Y-65605451D01*
X146252349Y-65709248D01*
X146281332Y-65798451D01*
X146294106Y-65862666D01*
X146361987Y-66026547D01*
X146460536Y-66174035D01*
X146585965Y-66299464D01*
X146733453Y-66398013D01*
X146897334Y-66465894D01*
X146897337Y-66465894D01*
X146897338Y-66465895D01*
X147071309Y-66500500D01*
X147248691Y-66500500D01*
X147422661Y-66465895D01*
X147422661Y-66465894D01*
X147422666Y-66465894D01*
X147586547Y-66398013D01*
X147734035Y-66299464D01*
X147859464Y-66174035D01*
X147958013Y-66026547D01*
X148025894Y-65862666D01*
X148038667Y-65798451D01*
X148081874Y-65681333D01*
X148159158Y-65583298D01*
X148262955Y-65513944D01*
X148383102Y-65480059D01*
X148507841Y-65484960D01*
X148624960Y-65528167D01*
X148722995Y-65605451D01*
X148792349Y-65709248D01*
X148821332Y-65798451D01*
X148834106Y-65862666D01*
X148901987Y-66026547D01*
X149000536Y-66174035D01*
X149125965Y-66299464D01*
X149273453Y-66398013D01*
X149437334Y-66465894D01*
X149437337Y-66465894D01*
X149437338Y-66465895D01*
X149611309Y-66500500D01*
X149788691Y-66500500D01*
X149962661Y-66465895D01*
X149962661Y-66465894D01*
X149962666Y-66465894D01*
X150126547Y-66398013D01*
X150274035Y-66299464D01*
X150399464Y-66174035D01*
X150498013Y-66026547D01*
X150565894Y-65862666D01*
X150578667Y-65798451D01*
X150621874Y-65681333D01*
X150699158Y-65583298D01*
X150802955Y-65513944D01*
X150923102Y-65480059D01*
X151047841Y-65484960D01*
X151164960Y-65528167D01*
X151262995Y-65605451D01*
X151332349Y-65709248D01*
X151361332Y-65798451D01*
X151374106Y-65862666D01*
X151441987Y-66026547D01*
X151540536Y-66174035D01*
X151665965Y-66299464D01*
X151813453Y-66398013D01*
X151977334Y-66465894D01*
X151977337Y-66465894D01*
X151977338Y-66465895D01*
X152151309Y-66500500D01*
X152328691Y-66500500D01*
X152502661Y-66465895D01*
X152502661Y-66465894D01*
X152502666Y-66465894D01*
X152666547Y-66398013D01*
X152814035Y-66299464D01*
X152939464Y-66174035D01*
X153038013Y-66026547D01*
X153105894Y-65862666D01*
X153140500Y-65688691D01*
X153140500Y-64711309D01*
X156419500Y-64711309D01*
X156419500Y-65688690D01*
X156454104Y-65862661D01*
X156454105Y-65862665D01*
X156454106Y-65862666D01*
X156521987Y-66026547D01*
X156620536Y-66174035D01*
X156745965Y-66299464D01*
X156893453Y-66398013D01*
X157057334Y-66465894D01*
X157057337Y-66465894D01*
X157057338Y-66465895D01*
X157231309Y-66500500D01*
X157408691Y-66500500D01*
X157582661Y-66465895D01*
X157582661Y-66465894D01*
X157582666Y-66465894D01*
X157746547Y-66398013D01*
X157894035Y-66299464D01*
X158019464Y-66174035D01*
X158118013Y-66026547D01*
X158185894Y-65862666D01*
X158198667Y-65798451D01*
X158241874Y-65681333D01*
X158319158Y-65583298D01*
X158422955Y-65513944D01*
X158543102Y-65480059D01*
X158667841Y-65484960D01*
X158784960Y-65528167D01*
X158882995Y-65605451D01*
X158952349Y-65709248D01*
X158981332Y-65798451D01*
X158994106Y-65862666D01*
X159061987Y-66026547D01*
X159160536Y-66174035D01*
X159285965Y-66299464D01*
X159433453Y-66398013D01*
X159597334Y-66465894D01*
X159597337Y-66465894D01*
X159597338Y-66465895D01*
X159771309Y-66500500D01*
X159948691Y-66500500D01*
X160122661Y-66465895D01*
X160122661Y-66465894D01*
X160122666Y-66465894D01*
X160286547Y-66398013D01*
X160434035Y-66299464D01*
X160559464Y-66174035D01*
X160658013Y-66026547D01*
X160725894Y-65862666D01*
X160738667Y-65798451D01*
X160781874Y-65681333D01*
X160859158Y-65583298D01*
X160962955Y-65513944D01*
X161083102Y-65480059D01*
X161207841Y-65484960D01*
X161324960Y-65528167D01*
X161422995Y-65605451D01*
X161492349Y-65709248D01*
X161521332Y-65798451D01*
X161534106Y-65862666D01*
X161601987Y-66026547D01*
X161700536Y-66174035D01*
X161825965Y-66299464D01*
X161973453Y-66398013D01*
X162137334Y-66465894D01*
X162137337Y-66465894D01*
X162137338Y-66465895D01*
X162311309Y-66500500D01*
X162488691Y-66500500D01*
X162662661Y-66465895D01*
X162662661Y-66465894D01*
X162662666Y-66465894D01*
X162826547Y-66398013D01*
X162974035Y-66299464D01*
X163099464Y-66174035D01*
X163198013Y-66026547D01*
X163265894Y-65862666D01*
X163278667Y-65798451D01*
X163321874Y-65681333D01*
X163399158Y-65583298D01*
X163502955Y-65513944D01*
X163623102Y-65480059D01*
X163747841Y-65484960D01*
X163864960Y-65528167D01*
X163962995Y-65605451D01*
X164032349Y-65709248D01*
X164061332Y-65798451D01*
X164074106Y-65862666D01*
X164141987Y-66026547D01*
X164240536Y-66174035D01*
X164365965Y-66299464D01*
X164513453Y-66398013D01*
X164677334Y-66465894D01*
X164677337Y-66465894D01*
X164677338Y-66465895D01*
X164851309Y-66500500D01*
X165028691Y-66500500D01*
X165202661Y-66465895D01*
X165202661Y-66465894D01*
X165202666Y-66465894D01*
X165366547Y-66398013D01*
X165514035Y-66299464D01*
X165639464Y-66174035D01*
X165738013Y-66026547D01*
X165805894Y-65862666D01*
X165818667Y-65798451D01*
X165861874Y-65681333D01*
X165939158Y-65583298D01*
X166042955Y-65513944D01*
X166163102Y-65480059D01*
X166287841Y-65484960D01*
X166404960Y-65528167D01*
X166502995Y-65605451D01*
X166572349Y-65709248D01*
X166601332Y-65798451D01*
X166614106Y-65862666D01*
X166681987Y-66026547D01*
X166780536Y-66174035D01*
X166905965Y-66299464D01*
X167053453Y-66398013D01*
X167217334Y-66465894D01*
X167217337Y-66465894D01*
X167217338Y-66465895D01*
X167391309Y-66500500D01*
X167568691Y-66500500D01*
X167742661Y-66465895D01*
X167742661Y-66465894D01*
X167742666Y-66465894D01*
X167906547Y-66398013D01*
X168054035Y-66299464D01*
X168179464Y-66174035D01*
X168278013Y-66026547D01*
X168345894Y-65862666D01*
X168380500Y-65688691D01*
X168380500Y-64711309D01*
X168345894Y-64537334D01*
X168278013Y-64373453D01*
X168179464Y-64225965D01*
X168054035Y-64100536D01*
X168048528Y-64096856D01*
X167906549Y-64001988D01*
X167897662Y-63998307D01*
X167742666Y-63934106D01*
X167742665Y-63934105D01*
X167742661Y-63934104D01*
X167568691Y-63899500D01*
X167391309Y-63899500D01*
X167217338Y-63934104D01*
X167053450Y-64001988D01*
X166905968Y-64100533D01*
X166780533Y-64225968D01*
X166681988Y-64373450D01*
X166681987Y-64373453D01*
X166615630Y-64533656D01*
X166614105Y-64537337D01*
X166601333Y-64601548D01*
X166558126Y-64718666D01*
X166480841Y-64816701D01*
X166377045Y-64886055D01*
X166256897Y-64919940D01*
X166132158Y-64915039D01*
X166015040Y-64871832D01*
X165917005Y-64794547D01*
X165847651Y-64690751D01*
X165818667Y-64601548D01*
X165816940Y-64592866D01*
X165805894Y-64537334D01*
X165738013Y-64373453D01*
X165639464Y-64225965D01*
X165514035Y-64100536D01*
X165508528Y-64096856D01*
X165366549Y-64001988D01*
X165357662Y-63998307D01*
X165202666Y-63934106D01*
X165202665Y-63934105D01*
X165202661Y-63934104D01*
X165028691Y-63899500D01*
X164851309Y-63899500D01*
X164677338Y-63934104D01*
X164513450Y-64001988D01*
X164365968Y-64100533D01*
X164240533Y-64225968D01*
X164141988Y-64373450D01*
X164141987Y-64373453D01*
X164075630Y-64533656D01*
X164074105Y-64537337D01*
X164061333Y-64601548D01*
X164018126Y-64718666D01*
X163940841Y-64816701D01*
X163837045Y-64886055D01*
X163716897Y-64919940D01*
X163592158Y-64915039D01*
X163475040Y-64871832D01*
X163377005Y-64794547D01*
X163307651Y-64690751D01*
X163278667Y-64601548D01*
X163276940Y-64592866D01*
X163265894Y-64537334D01*
X163198013Y-64373453D01*
X163099464Y-64225965D01*
X162974035Y-64100536D01*
X162968528Y-64096856D01*
X162826549Y-64001988D01*
X162817662Y-63998307D01*
X162662666Y-63934106D01*
X162662665Y-63934105D01*
X162662661Y-63934104D01*
X162488691Y-63899500D01*
X162311309Y-63899500D01*
X162137338Y-63934104D01*
X161973450Y-64001988D01*
X161825968Y-64100533D01*
X161700533Y-64225968D01*
X161601988Y-64373450D01*
X161601987Y-64373453D01*
X161535630Y-64533656D01*
X161534105Y-64537337D01*
X161521333Y-64601548D01*
X161478126Y-64718666D01*
X161400841Y-64816701D01*
X161297045Y-64886055D01*
X161176897Y-64919940D01*
X161052158Y-64915039D01*
X160935040Y-64871832D01*
X160837005Y-64794547D01*
X160767651Y-64690751D01*
X160738667Y-64601548D01*
X160736940Y-64592866D01*
X160725894Y-64537334D01*
X160658013Y-64373453D01*
X160559464Y-64225965D01*
X160434035Y-64100536D01*
X160428528Y-64096856D01*
X160286549Y-64001988D01*
X160277662Y-63998307D01*
X160122666Y-63934106D01*
X160122665Y-63934105D01*
X160122661Y-63934104D01*
X159948691Y-63899500D01*
X159771309Y-63899500D01*
X159597338Y-63934104D01*
X159433450Y-64001988D01*
X159285968Y-64100533D01*
X159160533Y-64225968D01*
X159061988Y-64373450D01*
X159061987Y-64373453D01*
X158995630Y-64533656D01*
X158994105Y-64537337D01*
X158981333Y-64601548D01*
X158938126Y-64718666D01*
X158860841Y-64816701D01*
X158757045Y-64886055D01*
X158636897Y-64919940D01*
X158512158Y-64915039D01*
X158395040Y-64871832D01*
X158297005Y-64794547D01*
X158227651Y-64690751D01*
X158198667Y-64601548D01*
X158196940Y-64592866D01*
X158185894Y-64537334D01*
X158118013Y-64373453D01*
X158019464Y-64225965D01*
X157894035Y-64100536D01*
X157888528Y-64096856D01*
X157746549Y-64001988D01*
X157737662Y-63998307D01*
X157582666Y-63934106D01*
X157582665Y-63934105D01*
X157582661Y-63934104D01*
X157408691Y-63899500D01*
X157231309Y-63899500D01*
X157057338Y-63934104D01*
X156893450Y-64001988D01*
X156745968Y-64100533D01*
X156620533Y-64225968D01*
X156521988Y-64373450D01*
X156454104Y-64537338D01*
X156419500Y-64711309D01*
X153140500Y-64711309D01*
X153105894Y-64537334D01*
X153038013Y-64373453D01*
X152939464Y-64225965D01*
X152814035Y-64100536D01*
X152808528Y-64096856D01*
X152666549Y-64001988D01*
X152657662Y-63998307D01*
X152502666Y-63934106D01*
X152502665Y-63934105D01*
X152502661Y-63934104D01*
X152328691Y-63899500D01*
X152151309Y-63899500D01*
X151977338Y-63934104D01*
X151813450Y-64001988D01*
X151665968Y-64100533D01*
X151540533Y-64225968D01*
X151441988Y-64373450D01*
X151441987Y-64373453D01*
X151375630Y-64533656D01*
X151374105Y-64537337D01*
X151361333Y-64601548D01*
X151318126Y-64718666D01*
X151240841Y-64816701D01*
X151137045Y-64886055D01*
X151016897Y-64919940D01*
X150892158Y-64915039D01*
X150775040Y-64871832D01*
X150677005Y-64794547D01*
X150607651Y-64690751D01*
X150578667Y-64601548D01*
X150576940Y-64592866D01*
X150565894Y-64537334D01*
X150498013Y-64373453D01*
X150399464Y-64225965D01*
X150274035Y-64100536D01*
X150268528Y-64096856D01*
X150126549Y-64001988D01*
X150117662Y-63998307D01*
X149962666Y-63934106D01*
X149962665Y-63934105D01*
X149962661Y-63934104D01*
X149788691Y-63899500D01*
X149611309Y-63899500D01*
X149437338Y-63934104D01*
X149273450Y-64001988D01*
X149125968Y-64100533D01*
X149000533Y-64225968D01*
X148901988Y-64373450D01*
X148901987Y-64373453D01*
X148835630Y-64533656D01*
X148834105Y-64537337D01*
X148821333Y-64601548D01*
X148778126Y-64718666D01*
X148700841Y-64816701D01*
X148597045Y-64886055D01*
X148476897Y-64919940D01*
X148352158Y-64915039D01*
X148235040Y-64871832D01*
X148137005Y-64794547D01*
X148067651Y-64690751D01*
X148038667Y-64601548D01*
X148036940Y-64592866D01*
X148025894Y-64537334D01*
X147958013Y-64373453D01*
X147859464Y-64225965D01*
X147734035Y-64100536D01*
X147728528Y-64096856D01*
X147586549Y-64001988D01*
X147577662Y-63998307D01*
X147422666Y-63934106D01*
X147422665Y-63934105D01*
X147422661Y-63934104D01*
X147248691Y-63899500D01*
X147071309Y-63899500D01*
X146897338Y-63934104D01*
X146733450Y-64001988D01*
X146585968Y-64100533D01*
X146460533Y-64225968D01*
X146361988Y-64373450D01*
X146361987Y-64373453D01*
X146295630Y-64533656D01*
X146294105Y-64537337D01*
X146281333Y-64601548D01*
X146238126Y-64718666D01*
X146160841Y-64816701D01*
X146057045Y-64886055D01*
X145936897Y-64919940D01*
X145812158Y-64915039D01*
X145695040Y-64871832D01*
X145597005Y-64794547D01*
X145527651Y-64690751D01*
X145498667Y-64601548D01*
X145496940Y-64592866D01*
X145485894Y-64537334D01*
X145418013Y-64373453D01*
X145319464Y-64225965D01*
X145194035Y-64100536D01*
X145188528Y-64096856D01*
X145046549Y-64001988D01*
X145037662Y-63998307D01*
X144882666Y-63934106D01*
X144882665Y-63934105D01*
X144882661Y-63934104D01*
X144708691Y-63899500D01*
X144531309Y-63899500D01*
X144357338Y-63934104D01*
X144193450Y-64001988D01*
X144045968Y-64100533D01*
X143920533Y-64225968D01*
X143821988Y-64373450D01*
X143821987Y-64373453D01*
X143755630Y-64533656D01*
X143754105Y-64537337D01*
X143741333Y-64601548D01*
X143698126Y-64718666D01*
X143620841Y-64816701D01*
X143517045Y-64886055D01*
X143396897Y-64919940D01*
X143272158Y-64915039D01*
X143155040Y-64871832D01*
X143057005Y-64794547D01*
X142987651Y-64690751D01*
X142958667Y-64601548D01*
X142956940Y-64592866D01*
X142945894Y-64537334D01*
X142878013Y-64373453D01*
X142779464Y-64225965D01*
X142654035Y-64100536D01*
X142648528Y-64096856D01*
X142506549Y-64001988D01*
X142497662Y-63998307D01*
X142342666Y-63934106D01*
X142342665Y-63934105D01*
X142342661Y-63934104D01*
X142168691Y-63899500D01*
X141991309Y-63899500D01*
X141817338Y-63934104D01*
X141653450Y-64001988D01*
X141505968Y-64100533D01*
X141380533Y-64225968D01*
X141281988Y-64373450D01*
X141281987Y-64373453D01*
X141215630Y-64533656D01*
X141214105Y-64537337D01*
X141201333Y-64601548D01*
X141158126Y-64718666D01*
X141080841Y-64816701D01*
X140977045Y-64886055D01*
X140856897Y-64919940D01*
X140732158Y-64915039D01*
X140615040Y-64871832D01*
X140517005Y-64794547D01*
X140447651Y-64690751D01*
X140418667Y-64601548D01*
X140416940Y-64592866D01*
X140405894Y-64537334D01*
X140338013Y-64373453D01*
X140239464Y-64225965D01*
X140114035Y-64100536D01*
X140108528Y-64096856D01*
X139966549Y-64001988D01*
X139957662Y-63998307D01*
X139802666Y-63934106D01*
X139802665Y-63934105D01*
X139802661Y-63934104D01*
X139628691Y-63899500D01*
X139451309Y-63899500D01*
X139277338Y-63934104D01*
X139113450Y-64001988D01*
X138965968Y-64100533D01*
X138840533Y-64225968D01*
X138741988Y-64373450D01*
X138741987Y-64373453D01*
X138675630Y-64533656D01*
X138674105Y-64537337D01*
X138661333Y-64601548D01*
X138618126Y-64718666D01*
X138540841Y-64816701D01*
X138437045Y-64886055D01*
X138316897Y-64919940D01*
X138192158Y-64915039D01*
X138075040Y-64871832D01*
X137977005Y-64794547D01*
X137907651Y-64690751D01*
X137878667Y-64601548D01*
X137876940Y-64592866D01*
X137865894Y-64537334D01*
X137798013Y-64373453D01*
X137699464Y-64225965D01*
X137574035Y-64100536D01*
X137568528Y-64096856D01*
X137426549Y-64001988D01*
X137417662Y-63998307D01*
X137262666Y-63934106D01*
X137262665Y-63934105D01*
X137262661Y-63934104D01*
X137088691Y-63899500D01*
X136911309Y-63899500D01*
X136737338Y-63934104D01*
X136573450Y-64001988D01*
X136425968Y-64100533D01*
X136300533Y-64225968D01*
X136201988Y-64373450D01*
X136201987Y-64373453D01*
X136135630Y-64533656D01*
X136134105Y-64537337D01*
X136121333Y-64601548D01*
X136078126Y-64718666D01*
X136000841Y-64816701D01*
X135897045Y-64886055D01*
X135776897Y-64919940D01*
X135652158Y-64915039D01*
X135535040Y-64871832D01*
X135437005Y-64794547D01*
X135367651Y-64690751D01*
X135338667Y-64601548D01*
X135336940Y-64592866D01*
X135325894Y-64537334D01*
X135258013Y-64373453D01*
X135159464Y-64225965D01*
X135034035Y-64100536D01*
X135028528Y-64096856D01*
X134886549Y-64001988D01*
X134877662Y-63998307D01*
X134722666Y-63934106D01*
X134722665Y-63934105D01*
X134722661Y-63934104D01*
X134548691Y-63899500D01*
X134371309Y-63899500D01*
X134197338Y-63934104D01*
X134033450Y-64001988D01*
X133885968Y-64100533D01*
X133760533Y-64225968D01*
X133661988Y-64373450D01*
X133661987Y-64373453D01*
X133595630Y-64533656D01*
X133594105Y-64537337D01*
X133581333Y-64601548D01*
X133538126Y-64718666D01*
X133460841Y-64816701D01*
X133357045Y-64886055D01*
X133236897Y-64919940D01*
X133112158Y-64915039D01*
X132995040Y-64871832D01*
X132897005Y-64794547D01*
X132827651Y-64690751D01*
X132798667Y-64601548D01*
X132796940Y-64592866D01*
X132785894Y-64537334D01*
X132718013Y-64373453D01*
X132619464Y-64225965D01*
X132494035Y-64100536D01*
X132488528Y-64096856D01*
X132346549Y-64001988D01*
X132337662Y-63998307D01*
X132182666Y-63934106D01*
X132182665Y-63934105D01*
X132182661Y-63934104D01*
X132008691Y-63899500D01*
X131831309Y-63899500D01*
X131657338Y-63934104D01*
X131493450Y-64001988D01*
X131345968Y-64100533D01*
X131220533Y-64225968D01*
X131121988Y-64373450D01*
X131121987Y-64373453D01*
X131055630Y-64533656D01*
X131054105Y-64537337D01*
X131041333Y-64601548D01*
X130998126Y-64718666D01*
X130920841Y-64816701D01*
X130817045Y-64886055D01*
X130696897Y-64919940D01*
X130572158Y-64915039D01*
X130455040Y-64871832D01*
X130357005Y-64794547D01*
X130287651Y-64690751D01*
X130258667Y-64601548D01*
X130256940Y-64592866D01*
X130245894Y-64537334D01*
X130178013Y-64373453D01*
X130079464Y-64225965D01*
X129954035Y-64100536D01*
X129948528Y-64096856D01*
X129806549Y-64001988D01*
X129797662Y-63998307D01*
X129642666Y-63934106D01*
X129642665Y-63934105D01*
X129642661Y-63934104D01*
X129468691Y-63899500D01*
X129291309Y-63899500D01*
X129117338Y-63934104D01*
X128953450Y-64001988D01*
X128805968Y-64100533D01*
X128680533Y-64225968D01*
X128581988Y-64373450D01*
X128514104Y-64537338D01*
X128503057Y-64592876D01*
X128459848Y-64709994D01*
X128382562Y-64808028D01*
X128278765Y-64877381D01*
X128158617Y-64911264D01*
X128033878Y-64906361D01*
X127916760Y-64863152D01*
X127818726Y-64785866D01*
X127749373Y-64682069D01*
X127720393Y-64592874D01*
X127708614Y-64533654D01*
X127640733Y-64369773D01*
X127542184Y-64222285D01*
X127416755Y-64096856D01*
X127274776Y-64001988D01*
X127269269Y-63998308D01*
X127114265Y-63934104D01*
X127105386Y-63930426D01*
X127105385Y-63930425D01*
X127105381Y-63930424D01*
X126931411Y-63895820D01*
X126754029Y-63895820D01*
X126580058Y-63930424D01*
X126416170Y-63998308D01*
X126268688Y-64096853D01*
X126143253Y-64222288D01*
X126044708Y-64369770D01*
X125976825Y-64533657D01*
X125964053Y-64597868D01*
X125920846Y-64714986D01*
X125843561Y-64813021D01*
X125739765Y-64882375D01*
X125619617Y-64916260D01*
X125494878Y-64911359D01*
X125377760Y-64868152D01*
X125279725Y-64790867D01*
X125210371Y-64687071D01*
X125181387Y-64597868D01*
X125180392Y-64592866D01*
X125168614Y-64533654D01*
X125100733Y-64369773D01*
X125002184Y-64222285D01*
X124876755Y-64096856D01*
X124734776Y-64001988D01*
X124729269Y-63998308D01*
X124574265Y-63934104D01*
X124565386Y-63930426D01*
X124565385Y-63930425D01*
X124565381Y-63930424D01*
X124391411Y-63895820D01*
X124214029Y-63895820D01*
X124040058Y-63930424D01*
X123876170Y-63998308D01*
X123728688Y-64096853D01*
X123603253Y-64222288D01*
X123504708Y-64369770D01*
X123436824Y-64533658D01*
X123402220Y-64707629D01*
X122159455Y-64707629D01*
X122149424Y-56371459D01*
X149419500Y-56371459D01*
X149419500Y-56568541D01*
X149457949Y-56761835D01*
X149533368Y-56943914D01*
X149533371Y-56943919D01*
X149533372Y-56943920D01*
X149588273Y-57026086D01*
X149642861Y-57107782D01*
X149782218Y-57247139D01*
X149946086Y-57356632D01*
X150128165Y-57432051D01*
X150321459Y-57470500D01*
X150321460Y-57470500D01*
X150518540Y-57470500D01*
X150518541Y-57470500D01*
X150711835Y-57432051D01*
X150893914Y-57356632D01*
X151057782Y-57247139D01*
X151197139Y-57107782D01*
X151306632Y-56943914D01*
X151321372Y-56908327D01*
X151386597Y-56801889D01*
X151481522Y-56720815D01*
X151596854Y-56673043D01*
X151721304Y-56663248D01*
X151842690Y-56692390D01*
X151949129Y-56757615D01*
X152030203Y-56852540D01*
X152058627Y-56908327D01*
X152073368Y-56943914D01*
X152073371Y-56943919D01*
X152073372Y-56943920D01*
X152128273Y-57026086D01*
X152182861Y-57107782D01*
X152322218Y-57247139D01*
X152486086Y-57356632D01*
X152668165Y-57432051D01*
X152861459Y-57470500D01*
X152861460Y-57470500D01*
X153058540Y-57470500D01*
X153058541Y-57470500D01*
X153251835Y-57432051D01*
X153433914Y-57356632D01*
X153597782Y-57247139D01*
X153737139Y-57107782D01*
X153846632Y-56943914D01*
X153922051Y-56761835D01*
X153960500Y-56568541D01*
X153960500Y-56371459D01*
X157039500Y-56371459D01*
X157039500Y-56568541D01*
X157077949Y-56761835D01*
X157153368Y-56943914D01*
X157153371Y-56943919D01*
X157153372Y-56943920D01*
X157208273Y-57026086D01*
X157262861Y-57107782D01*
X157402218Y-57247139D01*
X157566086Y-57356632D01*
X157748165Y-57432051D01*
X157941459Y-57470500D01*
X157941460Y-57470500D01*
X158138540Y-57470500D01*
X158138541Y-57470500D01*
X158331835Y-57432051D01*
X158513914Y-57356632D01*
X158677782Y-57247139D01*
X158817139Y-57107782D01*
X158926632Y-56943914D01*
X158941372Y-56908327D01*
X159006597Y-56801889D01*
X159101522Y-56720815D01*
X159216854Y-56673043D01*
X159341304Y-56663248D01*
X159462690Y-56692390D01*
X159569129Y-56757615D01*
X159650203Y-56852540D01*
X159678627Y-56908327D01*
X159693368Y-56943914D01*
X159693371Y-56943919D01*
X159693372Y-56943920D01*
X159748273Y-57026086D01*
X159802861Y-57107782D01*
X159942218Y-57247139D01*
X160106086Y-57356632D01*
X160288165Y-57432051D01*
X160481459Y-57470500D01*
X160481460Y-57470500D01*
X160678540Y-57470500D01*
X160678541Y-57470500D01*
X160871835Y-57432051D01*
X160945691Y-57401459D01*
X174689500Y-57401459D01*
X174689500Y-57598541D01*
X174727949Y-57791835D01*
X174803368Y-57973914D01*
X174912861Y-58137782D01*
X175052218Y-58277139D01*
X175216086Y-58386632D01*
X175398165Y-58462051D01*
X175591459Y-58500500D01*
X175591460Y-58500500D01*
X175788540Y-58500500D01*
X175788541Y-58500500D01*
X175981835Y-58462051D01*
X176163914Y-58386632D01*
X176327782Y-58277139D01*
X176467139Y-58137782D01*
X176576632Y-57973914D01*
X176652051Y-57791835D01*
X176690500Y-57598541D01*
X176690500Y-57401459D01*
X182309500Y-57401459D01*
X182309500Y-57598541D01*
X182347949Y-57791835D01*
X182423368Y-57973914D01*
X182532861Y-58137782D01*
X182672218Y-58277139D01*
X182836086Y-58386632D01*
X183018165Y-58462051D01*
X183211459Y-58500500D01*
X183211460Y-58500500D01*
X183408540Y-58500500D01*
X183408541Y-58500500D01*
X183601835Y-58462051D01*
X183783914Y-58386632D01*
X183947782Y-58277139D01*
X184087139Y-58137782D01*
X184196632Y-57973914D01*
X184272051Y-57791835D01*
X184310500Y-57598541D01*
X184310500Y-57401459D01*
X184272051Y-57208165D01*
X184196632Y-57026086D01*
X184087139Y-56862218D01*
X183947782Y-56722861D01*
X183947162Y-56722447D01*
X183783920Y-56613372D01*
X183783919Y-56613371D01*
X183783914Y-56613368D01*
X183601835Y-56537949D01*
X183408541Y-56499500D01*
X183211459Y-56499500D01*
X183114812Y-56518724D01*
X183018164Y-56537949D01*
X182836090Y-56613366D01*
X182836079Y-56613372D01*
X182672221Y-56722858D01*
X182532858Y-56862221D01*
X182423372Y-57026079D01*
X182423366Y-57026090D01*
X182347949Y-57208164D01*
X182340196Y-57247141D01*
X182309500Y-57401459D01*
X176690500Y-57401459D01*
X176652051Y-57208165D01*
X176576632Y-57026086D01*
X176467139Y-56862218D01*
X176327782Y-56722861D01*
X176327162Y-56722447D01*
X176163920Y-56613372D01*
X176163919Y-56613371D01*
X176163914Y-56613368D01*
X175981835Y-56537949D01*
X175788541Y-56499500D01*
X175591459Y-56499500D01*
X175494812Y-56518724D01*
X175398164Y-56537949D01*
X175216090Y-56613366D01*
X175216079Y-56613372D01*
X175052221Y-56722858D01*
X174912858Y-56862221D01*
X174803372Y-57026079D01*
X174803366Y-57026090D01*
X174727949Y-57208164D01*
X174720196Y-57247141D01*
X174689500Y-57401459D01*
X160945691Y-57401459D01*
X161053914Y-57356632D01*
X161217782Y-57247139D01*
X161357139Y-57107782D01*
X161466632Y-56943914D01*
X161542051Y-56761835D01*
X161580500Y-56568541D01*
X161580500Y-56371459D01*
X161542051Y-56178165D01*
X161466632Y-55996086D01*
X161357139Y-55832218D01*
X161217782Y-55692861D01*
X161053914Y-55583368D01*
X160871835Y-55507949D01*
X160678541Y-55469500D01*
X160481459Y-55469500D01*
X160384812Y-55488724D01*
X160288164Y-55507949D01*
X160106090Y-55583366D01*
X160106079Y-55583372D01*
X159942221Y-55692858D01*
X159802858Y-55832221D01*
X159693372Y-55996079D01*
X159693364Y-55996092D01*
X159678627Y-56031673D01*
X159613401Y-56138112D01*
X159518476Y-56219185D01*
X159403143Y-56266957D01*
X159278693Y-56276751D01*
X159157308Y-56247608D01*
X159050869Y-56182382D01*
X158969796Y-56087457D01*
X158941373Y-56031673D01*
X158926635Y-55996092D01*
X158926633Y-55996089D01*
X158926632Y-55996086D01*
X158817139Y-55832218D01*
X158677782Y-55692861D01*
X158513914Y-55583368D01*
X158331835Y-55507949D01*
X158138541Y-55469500D01*
X157941459Y-55469500D01*
X157844812Y-55488724D01*
X157748164Y-55507949D01*
X157566090Y-55583366D01*
X157566079Y-55583372D01*
X157402221Y-55692858D01*
X157262858Y-55832221D01*
X157153372Y-55996079D01*
X157153366Y-55996090D01*
X157077949Y-56178164D01*
X157064136Y-56247608D01*
X157039500Y-56371459D01*
X153960500Y-56371459D01*
X153922051Y-56178165D01*
X153846632Y-55996086D01*
X153737139Y-55832218D01*
X153597782Y-55692861D01*
X153433914Y-55583368D01*
X153251835Y-55507949D01*
X153058541Y-55469500D01*
X152861459Y-55469500D01*
X152764812Y-55488724D01*
X152668164Y-55507949D01*
X152486090Y-55583366D01*
X152486079Y-55583372D01*
X152322221Y-55692858D01*
X152182858Y-55832221D01*
X152073372Y-55996079D01*
X152073364Y-55996092D01*
X152058627Y-56031673D01*
X151993401Y-56138112D01*
X151898476Y-56219185D01*
X151783143Y-56266957D01*
X151658693Y-56276751D01*
X151537308Y-56247608D01*
X151430869Y-56182382D01*
X151349796Y-56087457D01*
X151321373Y-56031673D01*
X151306635Y-55996092D01*
X151306633Y-55996089D01*
X151306632Y-55996086D01*
X151197139Y-55832218D01*
X151057782Y-55692861D01*
X150893914Y-55583368D01*
X150711835Y-55507949D01*
X150518541Y-55469500D01*
X150321459Y-55469500D01*
X150224812Y-55488724D01*
X150128164Y-55507949D01*
X149946090Y-55583366D01*
X149946079Y-55583372D01*
X149782221Y-55692858D01*
X149642858Y-55832221D01*
X149533372Y-55996079D01*
X149533366Y-55996090D01*
X149457949Y-56178164D01*
X149444136Y-56247608D01*
X149419500Y-56371459D01*
X122149424Y-56371459D01*
X122146769Y-54165130D01*
X187649500Y-54165130D01*
X187649500Y-55954859D01*
X187649501Y-55954864D01*
X187652415Y-55979992D01*
X187697792Y-56082762D01*
X187697793Y-56082763D01*
X187697794Y-56082765D01*
X187777235Y-56162206D01*
X187822601Y-56182237D01*
X187927502Y-56249902D01*
X188006362Y-56346674D01*
X188051458Y-56463079D01*
X188058376Y-56587721D01*
X188026439Y-56708402D01*
X187958772Y-56813306D01*
X187943575Y-56829370D01*
X187922451Y-56850494D01*
X187922445Y-56850501D01*
X187816005Y-56997002D01*
X187733787Y-57158363D01*
X187733785Y-57158368D01*
X187677830Y-57330584D01*
X187677829Y-57330591D01*
X187649500Y-57509454D01*
X187649500Y-57690546D01*
X187665543Y-57791835D01*
X187677830Y-57869415D01*
X187733785Y-58041631D01*
X187733787Y-58041636D01*
X187816005Y-58202997D01*
X187922444Y-58349497D01*
X187922447Y-58349501D01*
X188050499Y-58477553D01*
X188050502Y-58477555D01*
X188050504Y-58477557D01*
X188146363Y-58547203D01*
X188234634Y-58635475D01*
X188291308Y-58746703D01*
X188310836Y-58870001D01*
X188291307Y-58993299D01*
X188234633Y-59104527D01*
X188146363Y-59192797D01*
X188050504Y-59262442D01*
X187922444Y-59390502D01*
X187816005Y-59537002D01*
X187733787Y-59698363D01*
X187733785Y-59698368D01*
X187677830Y-59870584D01*
X187677829Y-59870591D01*
X187649500Y-60049454D01*
X187649500Y-60230546D01*
X187677829Y-60409409D01*
X187677830Y-60409415D01*
X187733785Y-60581631D01*
X187733787Y-60581636D01*
X187816005Y-60742997D01*
X187922444Y-60889497D01*
X187922447Y-60889501D01*
X188050499Y-61017553D01*
X188050502Y-61017555D01*
X188197002Y-61123994D01*
X188358363Y-61206212D01*
X188358368Y-61206214D01*
X188530584Y-61262169D01*
X188530585Y-61262169D01*
X188530591Y-61262171D01*
X188709454Y-61290500D01*
X188709458Y-61290500D01*
X188890542Y-61290500D01*
X188890546Y-61290500D01*
X189069409Y-61262171D01*
X189088695Y-61255904D01*
X189241631Y-61206214D01*
X189241636Y-61206212D01*
X189241636Y-61206211D01*
X189241639Y-61206211D01*
X189402994Y-61123996D01*
X189549501Y-61017553D01*
X189677553Y-60889501D01*
X189783996Y-60742994D01*
X189866211Y-60581639D01*
X189922171Y-60409409D01*
X189950500Y-60230546D01*
X189950500Y-60049454D01*
X189922171Y-59870591D01*
X189922169Y-59870584D01*
X189866214Y-59698368D01*
X189866212Y-59698363D01*
X189783994Y-59537002D01*
X189677555Y-59390502D01*
X189677553Y-59390499D01*
X189549501Y-59262447D01*
X189453637Y-59192798D01*
X189365366Y-59104527D01*
X189308692Y-58993298D01*
X189289163Y-58870001D01*
X189308691Y-58746703D01*
X189365365Y-58635474D01*
X189453637Y-58547202D01*
X189462953Y-58540433D01*
X189549501Y-58477553D01*
X189677553Y-58349501D01*
X189783996Y-58202994D01*
X189866211Y-58041639D01*
X189888218Y-57973909D01*
X189922169Y-57869415D01*
X189922168Y-57869415D01*
X189922171Y-57869409D01*
X189950500Y-57690546D01*
X189950500Y-57509454D01*
X189922171Y-57330591D01*
X189895057Y-57247141D01*
X189866214Y-57158368D01*
X189866212Y-57158363D01*
X189783994Y-56997002D01*
X189677555Y-56850502D01*
X189677554Y-56850501D01*
X189677553Y-56850499D01*
X189656424Y-56829370D01*
X189583052Y-56728381D01*
X189544476Y-56609656D01*
X189544476Y-56484822D01*
X189583052Y-56366097D01*
X189656428Y-56265103D01*
X189757422Y-56191727D01*
X189777403Y-56182235D01*
X189786623Y-56178164D01*
X189822765Y-56162206D01*
X189902206Y-56082765D01*
X189947585Y-55979991D01*
X189950500Y-55954865D01*
X189950499Y-54165136D01*
X189947585Y-54140009D01*
X189902206Y-54037235D01*
X189822765Y-53957794D01*
X189822763Y-53957793D01*
X189822762Y-53957792D01*
X189719994Y-53912416D01*
X189719991Y-53912415D01*
X189719990Y-53912414D01*
X189719987Y-53912414D01*
X189694869Y-53909500D01*
X187905140Y-53909500D01*
X187905135Y-53909501D01*
X187880007Y-53912415D01*
X187777237Y-53957792D01*
X187697792Y-54037237D01*
X187652416Y-54140005D01*
X187652414Y-54140012D01*
X187649500Y-54165130D01*
X122146769Y-54165130D01*
X122146461Y-53909501D01*
X122141192Y-49530500D01*
X122139869Y-48431459D01*
X146879500Y-48431459D01*
X146879500Y-48628541D01*
X146917949Y-48821835D01*
X146993368Y-49003914D01*
X147102861Y-49167782D01*
X147242218Y-49307139D01*
X147406086Y-49416632D01*
X147588165Y-49492051D01*
X147781459Y-49530500D01*
X147781460Y-49530500D01*
X147978540Y-49530500D01*
X147978541Y-49530500D01*
X148171835Y-49492051D01*
X148353914Y-49416632D01*
X148517782Y-49307139D01*
X148657139Y-49167782D01*
X148766632Y-49003914D01*
X148781372Y-48968327D01*
X148846597Y-48861889D01*
X148941522Y-48780815D01*
X149056854Y-48733043D01*
X149181304Y-48723248D01*
X149302690Y-48752390D01*
X149409129Y-48817615D01*
X149490203Y-48912540D01*
X149518627Y-48968327D01*
X149533368Y-49003914D01*
X149642861Y-49167782D01*
X149782218Y-49307139D01*
X149946086Y-49416632D01*
X150128165Y-49492051D01*
X150321459Y-49530500D01*
X150321460Y-49530500D01*
X150518540Y-49530500D01*
X150518541Y-49530500D01*
X150711835Y-49492051D01*
X150893914Y-49416632D01*
X151057782Y-49307139D01*
X151197139Y-49167782D01*
X151306632Y-49003914D01*
X151382051Y-48821835D01*
X151420500Y-48628541D01*
X151420500Y-48431459D01*
X154499500Y-48431459D01*
X154499500Y-48628541D01*
X154537949Y-48821835D01*
X154613368Y-49003914D01*
X154722861Y-49167782D01*
X154862218Y-49307139D01*
X155026086Y-49416632D01*
X155208165Y-49492051D01*
X155401459Y-49530500D01*
X155401460Y-49530500D01*
X155598540Y-49530500D01*
X155598541Y-49530500D01*
X155791835Y-49492051D01*
X155973914Y-49416632D01*
X156137782Y-49307139D01*
X156277139Y-49167782D01*
X156386632Y-49003914D01*
X156401372Y-48968327D01*
X156466597Y-48861889D01*
X156561522Y-48780815D01*
X156676854Y-48733043D01*
X156801304Y-48723248D01*
X156922690Y-48752390D01*
X157029129Y-48817615D01*
X157110203Y-48912540D01*
X157138627Y-48968327D01*
X157153368Y-49003914D01*
X157262861Y-49167782D01*
X157402218Y-49307139D01*
X157566086Y-49416632D01*
X157748165Y-49492051D01*
X157941459Y-49530500D01*
X157941460Y-49530500D01*
X158138540Y-49530500D01*
X158138541Y-49530500D01*
X158331835Y-49492051D01*
X158513914Y-49416632D01*
X158677782Y-49307139D01*
X158817139Y-49167782D01*
X158926632Y-49003914D01*
X159002051Y-48821835D01*
X159040500Y-48628541D01*
X159040500Y-48431459D01*
X162119500Y-48431459D01*
X162119500Y-48628541D01*
X162157949Y-48821835D01*
X162233368Y-49003914D01*
X162342861Y-49167782D01*
X162482218Y-49307139D01*
X162646086Y-49416632D01*
X162828165Y-49492051D01*
X163021459Y-49530500D01*
X163021460Y-49530500D01*
X163218540Y-49530500D01*
X163218541Y-49530500D01*
X163411835Y-49492051D01*
X163593914Y-49416632D01*
X163757782Y-49307139D01*
X163897139Y-49167782D01*
X164006632Y-49003914D01*
X164082051Y-48821835D01*
X164120500Y-48628541D01*
X164120500Y-48431459D01*
X164082051Y-48238165D01*
X164006632Y-48056086D01*
X163897139Y-47892218D01*
X163757782Y-47752861D01*
X163593914Y-47643368D01*
X163411835Y-47567949D01*
X163218541Y-47529500D01*
X163021459Y-47529500D01*
X162924812Y-47548724D01*
X162828164Y-47567949D01*
X162646090Y-47643366D01*
X162646079Y-47643372D01*
X162482221Y-47752858D01*
X162342858Y-47892221D01*
X162233372Y-48056079D01*
X162233366Y-48056090D01*
X162157949Y-48238164D01*
X162144136Y-48307608D01*
X162119500Y-48431459D01*
X159040500Y-48431459D01*
X159002051Y-48238165D01*
X158926632Y-48056086D01*
X158817139Y-47892218D01*
X158677782Y-47752861D01*
X158513914Y-47643368D01*
X158331835Y-47567949D01*
X158138541Y-47529500D01*
X157941459Y-47529500D01*
X157844812Y-47548724D01*
X157748164Y-47567949D01*
X157566090Y-47643366D01*
X157566079Y-47643372D01*
X157402221Y-47752858D01*
X157262858Y-47892221D01*
X157153372Y-48056079D01*
X157153364Y-48056092D01*
X157138627Y-48091673D01*
X157073401Y-48198112D01*
X156978476Y-48279185D01*
X156863143Y-48326957D01*
X156738693Y-48336751D01*
X156617308Y-48307608D01*
X156510869Y-48242382D01*
X156429796Y-48147457D01*
X156401373Y-48091673D01*
X156386635Y-48056092D01*
X156386633Y-48056089D01*
X156386632Y-48056086D01*
X156277139Y-47892218D01*
X156137782Y-47752861D01*
X155973914Y-47643368D01*
X155791835Y-47567949D01*
X155598541Y-47529500D01*
X155401459Y-47529500D01*
X155304812Y-47548724D01*
X155208164Y-47567949D01*
X155026090Y-47643366D01*
X155026079Y-47643372D01*
X154862221Y-47752858D01*
X154722858Y-47892221D01*
X154613372Y-48056079D01*
X154613366Y-48056090D01*
X154537949Y-48238164D01*
X154524136Y-48307608D01*
X154499500Y-48431459D01*
X151420500Y-48431459D01*
X151382051Y-48238165D01*
X151306632Y-48056086D01*
X151197139Y-47892218D01*
X151057782Y-47752861D01*
X150893914Y-47643368D01*
X150711835Y-47567949D01*
X150518541Y-47529500D01*
X150321459Y-47529500D01*
X150224812Y-47548724D01*
X150128164Y-47567949D01*
X149946090Y-47643366D01*
X149946079Y-47643372D01*
X149782221Y-47752858D01*
X149642858Y-47892221D01*
X149533372Y-48056079D01*
X149533364Y-48056092D01*
X149518627Y-48091673D01*
X149453401Y-48198112D01*
X149358476Y-48279185D01*
X149243143Y-48326957D01*
X149118693Y-48336751D01*
X148997308Y-48307608D01*
X148890869Y-48242382D01*
X148809796Y-48147457D01*
X148781373Y-48091673D01*
X148766635Y-48056092D01*
X148766633Y-48056089D01*
X148766632Y-48056086D01*
X148657139Y-47892218D01*
X148517782Y-47752861D01*
X148353914Y-47643368D01*
X148171835Y-47567949D01*
X147978541Y-47529500D01*
X147781459Y-47529500D01*
X147684812Y-47548724D01*
X147588164Y-47567949D01*
X147406090Y-47643366D01*
X147406079Y-47643372D01*
X147242221Y-47752858D01*
X147102858Y-47892221D01*
X146993372Y-48056079D01*
X146993366Y-48056090D01*
X146917949Y-48238164D01*
X146904136Y-48307608D01*
X146879500Y-48431459D01*
X122139869Y-48431459D01*
X122131398Y-41391459D01*
X173899500Y-41391459D01*
X173899500Y-41588541D01*
X173937949Y-41781835D01*
X174013368Y-41963914D01*
X174122861Y-42127782D01*
X174262218Y-42267139D01*
X174426086Y-42376632D01*
X174608165Y-42452051D01*
X174801459Y-42490500D01*
X174801460Y-42490500D01*
X174998540Y-42490500D01*
X174998541Y-42490500D01*
X175191835Y-42452051D01*
X175373914Y-42376632D01*
X175537782Y-42267139D01*
X175677139Y-42127782D01*
X175786632Y-41963914D01*
X175862051Y-41781835D01*
X175900500Y-41588541D01*
X175900500Y-41391459D01*
X175862051Y-41198165D01*
X175786632Y-41016086D01*
X175677139Y-40852218D01*
X175537782Y-40712861D01*
X175373914Y-40603368D01*
X175191835Y-40527949D01*
X174998541Y-40489500D01*
X174801459Y-40489500D01*
X174709606Y-40507771D01*
X174608164Y-40527949D01*
X174426090Y-40603366D01*
X174426079Y-40603372D01*
X174262221Y-40712858D01*
X174122858Y-40852221D01*
X174013372Y-41016079D01*
X174013366Y-41016090D01*
X173978403Y-41100500D01*
X173937949Y-41198165D01*
X173899500Y-41391459D01*
X122131398Y-41391459D01*
X122128895Y-39311309D01*
X123399500Y-39311309D01*
X123399500Y-40288690D01*
X123434104Y-40462661D01*
X123434105Y-40462665D01*
X123434106Y-40462666D01*
X123501985Y-40626543D01*
X123501988Y-40626549D01*
X123600533Y-40774031D01*
X123600536Y-40774035D01*
X123725965Y-40899464D01*
X123873453Y-40998013D01*
X124037334Y-41065894D01*
X124037337Y-41065894D01*
X124037338Y-41065895D01*
X124211309Y-41100500D01*
X124388691Y-41100500D01*
X124562661Y-41065895D01*
X124562661Y-41065894D01*
X124562666Y-41065894D01*
X124726547Y-40998013D01*
X124874035Y-40899464D01*
X124999464Y-40774035D01*
X125098013Y-40626547D01*
X125165894Y-40462666D01*
X125178667Y-40398451D01*
X125221874Y-40281333D01*
X125299158Y-40183298D01*
X125402955Y-40113944D01*
X125523102Y-40080059D01*
X125647841Y-40084960D01*
X125764960Y-40128167D01*
X125862995Y-40205451D01*
X125932349Y-40309248D01*
X125961332Y-40398451D01*
X125974106Y-40462666D01*
X126041987Y-40626547D01*
X126041988Y-40626549D01*
X126140533Y-40774031D01*
X126140536Y-40774035D01*
X126265965Y-40899464D01*
X126413453Y-40998013D01*
X126577334Y-41065894D01*
X126577337Y-41065894D01*
X126577338Y-41065895D01*
X126751309Y-41100500D01*
X126928691Y-41100500D01*
X127102661Y-41065895D01*
X127102661Y-41065894D01*
X127102666Y-41065894D01*
X127266547Y-40998013D01*
X127414035Y-40899464D01*
X127539464Y-40774035D01*
X127638013Y-40626547D01*
X127705894Y-40462666D01*
X127718667Y-40398451D01*
X127761874Y-40281333D01*
X127839158Y-40183298D01*
X127942955Y-40113944D01*
X128063102Y-40080059D01*
X128187841Y-40084960D01*
X128304960Y-40128167D01*
X128402995Y-40205451D01*
X128472349Y-40309248D01*
X128501332Y-40398451D01*
X128514106Y-40462666D01*
X128581987Y-40626547D01*
X128581988Y-40626549D01*
X128680533Y-40774031D01*
X128680536Y-40774035D01*
X128805965Y-40899464D01*
X128953453Y-40998013D01*
X129117334Y-41065894D01*
X129117337Y-41065894D01*
X129117338Y-41065895D01*
X129291309Y-41100500D01*
X129468691Y-41100500D01*
X129642661Y-41065895D01*
X129642661Y-41065894D01*
X129642666Y-41065894D01*
X129806547Y-40998013D01*
X129954035Y-40899464D01*
X130079464Y-40774035D01*
X130178013Y-40626547D01*
X130245894Y-40462666D01*
X130258667Y-40398451D01*
X130301874Y-40281333D01*
X130379158Y-40183298D01*
X130482955Y-40113944D01*
X130603102Y-40080059D01*
X130727841Y-40084960D01*
X130844960Y-40128167D01*
X130942995Y-40205451D01*
X131012349Y-40309248D01*
X131041332Y-40398451D01*
X131054106Y-40462666D01*
X131121987Y-40626547D01*
X131121988Y-40626549D01*
X131220533Y-40774031D01*
X131220536Y-40774035D01*
X131345965Y-40899464D01*
X131493453Y-40998013D01*
X131657334Y-41065894D01*
X131657337Y-41065894D01*
X131657338Y-41065895D01*
X131831309Y-41100500D01*
X132008691Y-41100500D01*
X132182661Y-41065895D01*
X132182661Y-41065894D01*
X132182666Y-41065894D01*
X132346547Y-40998013D01*
X132494035Y-40899464D01*
X132619464Y-40774035D01*
X132718013Y-40626547D01*
X132785894Y-40462666D01*
X132798667Y-40398451D01*
X132841874Y-40281333D01*
X132919158Y-40183298D01*
X133022955Y-40113944D01*
X133143102Y-40080059D01*
X133267841Y-40084960D01*
X133384960Y-40128167D01*
X133482995Y-40205451D01*
X133552349Y-40309248D01*
X133581332Y-40398451D01*
X133594106Y-40462666D01*
X133661987Y-40626547D01*
X133661988Y-40626549D01*
X133760533Y-40774031D01*
X133760536Y-40774035D01*
X133885965Y-40899464D01*
X134033453Y-40998013D01*
X134197334Y-41065894D01*
X134197337Y-41065894D01*
X134197338Y-41065895D01*
X134371309Y-41100500D01*
X134548691Y-41100500D01*
X134722661Y-41065895D01*
X134722661Y-41065894D01*
X134722666Y-41065894D01*
X134886547Y-40998013D01*
X135034035Y-40899464D01*
X135159464Y-40774035D01*
X135258013Y-40626547D01*
X135325894Y-40462666D01*
X135360500Y-40288691D01*
X135360500Y-39311309D01*
X138639500Y-39311309D01*
X138639500Y-40288690D01*
X138674104Y-40462661D01*
X138674105Y-40462665D01*
X138674106Y-40462666D01*
X138741985Y-40626543D01*
X138741988Y-40626549D01*
X138840533Y-40774031D01*
X138840536Y-40774035D01*
X138965965Y-40899464D01*
X139113453Y-40998013D01*
X139277334Y-41065894D01*
X139277337Y-41065894D01*
X139277338Y-41065895D01*
X139451309Y-41100500D01*
X139628691Y-41100500D01*
X139802661Y-41065895D01*
X139802661Y-41065894D01*
X139802666Y-41065894D01*
X139966547Y-40998013D01*
X140114035Y-40899464D01*
X140239464Y-40774035D01*
X140338013Y-40626547D01*
X140405894Y-40462666D01*
X140418667Y-40398451D01*
X140461874Y-40281333D01*
X140539158Y-40183298D01*
X140642955Y-40113944D01*
X140763102Y-40080059D01*
X140887841Y-40084960D01*
X141004960Y-40128167D01*
X141102995Y-40205451D01*
X141172349Y-40309248D01*
X141201332Y-40398451D01*
X141214106Y-40462666D01*
X141281987Y-40626547D01*
X141281988Y-40626549D01*
X141380533Y-40774031D01*
X141380536Y-40774035D01*
X141505965Y-40899464D01*
X141653453Y-40998013D01*
X141817334Y-41065894D01*
X141817337Y-41065894D01*
X141817338Y-41065895D01*
X141991309Y-41100500D01*
X142168691Y-41100500D01*
X142342661Y-41065895D01*
X142342661Y-41065894D01*
X142342666Y-41065894D01*
X142506547Y-40998013D01*
X142654035Y-40899464D01*
X142779464Y-40774035D01*
X142878013Y-40626547D01*
X142945894Y-40462666D01*
X142958667Y-40398451D01*
X143001874Y-40281333D01*
X143079158Y-40183298D01*
X143182955Y-40113944D01*
X143303102Y-40080059D01*
X143427841Y-40084960D01*
X143544960Y-40128167D01*
X143642995Y-40205451D01*
X143712349Y-40309248D01*
X143741332Y-40398451D01*
X143754106Y-40462666D01*
X143821987Y-40626547D01*
X143821988Y-40626549D01*
X143920533Y-40774031D01*
X143920536Y-40774035D01*
X144045965Y-40899464D01*
X144193453Y-40998013D01*
X144357334Y-41065894D01*
X144357337Y-41065894D01*
X144357338Y-41065895D01*
X144531309Y-41100500D01*
X144708691Y-41100500D01*
X144882661Y-41065895D01*
X144882661Y-41065894D01*
X144882666Y-41065894D01*
X145046547Y-40998013D01*
X145194035Y-40899464D01*
X145319464Y-40774035D01*
X145418013Y-40626547D01*
X145485894Y-40462666D01*
X145498667Y-40398451D01*
X145541874Y-40281333D01*
X145619158Y-40183298D01*
X145722955Y-40113944D01*
X145843102Y-40080059D01*
X145967841Y-40084960D01*
X146084960Y-40128167D01*
X146182995Y-40205451D01*
X146252349Y-40309248D01*
X146281332Y-40398451D01*
X146294106Y-40462666D01*
X146361987Y-40626547D01*
X146361988Y-40626549D01*
X146460533Y-40774031D01*
X146460536Y-40774035D01*
X146585965Y-40899464D01*
X146733453Y-40998013D01*
X146897334Y-41065894D01*
X146897337Y-41065894D01*
X146897338Y-41065895D01*
X147071309Y-41100500D01*
X147248691Y-41100500D01*
X147422661Y-41065895D01*
X147422661Y-41065894D01*
X147422666Y-41065894D01*
X147586547Y-40998013D01*
X147734035Y-40899464D01*
X147859464Y-40774035D01*
X147958013Y-40626547D01*
X148025894Y-40462666D01*
X148038667Y-40398451D01*
X148081874Y-40281333D01*
X148159158Y-40183298D01*
X148262955Y-40113944D01*
X148383102Y-40080059D01*
X148507841Y-40084960D01*
X148624960Y-40128167D01*
X148722995Y-40205451D01*
X148792349Y-40309248D01*
X148821332Y-40398451D01*
X148834106Y-40462666D01*
X148901987Y-40626547D01*
X148901988Y-40626549D01*
X149000533Y-40774031D01*
X149000536Y-40774035D01*
X149125965Y-40899464D01*
X149273453Y-40998013D01*
X149437334Y-41065894D01*
X149437337Y-41065894D01*
X149437338Y-41065895D01*
X149611309Y-41100500D01*
X149788691Y-41100500D01*
X149962661Y-41065895D01*
X149962661Y-41065894D01*
X149962666Y-41065894D01*
X150126547Y-40998013D01*
X150274035Y-40899464D01*
X150399464Y-40774035D01*
X150498013Y-40626547D01*
X150565894Y-40462666D01*
X150578667Y-40398451D01*
X150621874Y-40281333D01*
X150699158Y-40183298D01*
X150802955Y-40113944D01*
X150923102Y-40080059D01*
X151047841Y-40084960D01*
X151164960Y-40128167D01*
X151262995Y-40205451D01*
X151332349Y-40309248D01*
X151361332Y-40398451D01*
X151374106Y-40462666D01*
X151441987Y-40626547D01*
X151441988Y-40626549D01*
X151540533Y-40774031D01*
X151540536Y-40774035D01*
X151665965Y-40899464D01*
X151813453Y-40998013D01*
X151977334Y-41065894D01*
X151977337Y-41065894D01*
X151977338Y-41065895D01*
X152151309Y-41100500D01*
X152328691Y-41100500D01*
X152502661Y-41065895D01*
X152502661Y-41065894D01*
X152502666Y-41065894D01*
X152666547Y-40998013D01*
X152814035Y-40899464D01*
X152939464Y-40774035D01*
X153038013Y-40626547D01*
X153105894Y-40462666D01*
X153118667Y-40398451D01*
X153161874Y-40281333D01*
X153239158Y-40183298D01*
X153342955Y-40113944D01*
X153463102Y-40080059D01*
X153587841Y-40084960D01*
X153704960Y-40128167D01*
X153802995Y-40205451D01*
X153872349Y-40309248D01*
X153901332Y-40398451D01*
X153914106Y-40462666D01*
X153981987Y-40626547D01*
X153981988Y-40626549D01*
X154080533Y-40774031D01*
X154080536Y-40774035D01*
X154205965Y-40899464D01*
X154353453Y-40998013D01*
X154517334Y-41065894D01*
X154517337Y-41065894D01*
X154517338Y-41065895D01*
X154691309Y-41100500D01*
X154868691Y-41100500D01*
X155042661Y-41065895D01*
X155042661Y-41065894D01*
X155042666Y-41065894D01*
X155206547Y-40998013D01*
X155354035Y-40899464D01*
X155479464Y-40774035D01*
X155578013Y-40626547D01*
X155645894Y-40462666D01*
X155658667Y-40398451D01*
X155701874Y-40281333D01*
X155779158Y-40183298D01*
X155882955Y-40113944D01*
X156003102Y-40080059D01*
X156127841Y-40084960D01*
X156244960Y-40128167D01*
X156342995Y-40205451D01*
X156412349Y-40309248D01*
X156441332Y-40398451D01*
X156454106Y-40462666D01*
X156521987Y-40626547D01*
X156521988Y-40626549D01*
X156620533Y-40774031D01*
X156620536Y-40774035D01*
X156745965Y-40899464D01*
X156893453Y-40998013D01*
X157057334Y-41065894D01*
X157057337Y-41065894D01*
X157057338Y-41065895D01*
X157231309Y-41100500D01*
X157408691Y-41100500D01*
X157582661Y-41065895D01*
X157582661Y-41065894D01*
X157582666Y-41065894D01*
X157746547Y-40998013D01*
X157894035Y-40899464D01*
X158019464Y-40774035D01*
X158118013Y-40626547D01*
X158185894Y-40462666D01*
X158198667Y-40398451D01*
X158241874Y-40281333D01*
X158319158Y-40183298D01*
X158422955Y-40113944D01*
X158543102Y-40080059D01*
X158667841Y-40084960D01*
X158784960Y-40128167D01*
X158882995Y-40205451D01*
X158952349Y-40309248D01*
X158981332Y-40398451D01*
X158994106Y-40462666D01*
X159061987Y-40626547D01*
X159061988Y-40626549D01*
X159160533Y-40774031D01*
X159160536Y-40774035D01*
X159285965Y-40899464D01*
X159433453Y-40998013D01*
X159597334Y-41065894D01*
X159597337Y-41065894D01*
X159597338Y-41065895D01*
X159771309Y-41100500D01*
X159948691Y-41100500D01*
X160122661Y-41065895D01*
X160122661Y-41065894D01*
X160122666Y-41065894D01*
X160286547Y-40998013D01*
X160434035Y-40899464D01*
X160559464Y-40774035D01*
X160658013Y-40626547D01*
X160725894Y-40462666D01*
X160738667Y-40398451D01*
X160781874Y-40281333D01*
X160859158Y-40183298D01*
X160962955Y-40113944D01*
X161083102Y-40080059D01*
X161207841Y-40084960D01*
X161324960Y-40128167D01*
X161422995Y-40205451D01*
X161492349Y-40309248D01*
X161521332Y-40398451D01*
X161534106Y-40462666D01*
X161601987Y-40626547D01*
X161601988Y-40626549D01*
X161700533Y-40774031D01*
X161700536Y-40774035D01*
X161825965Y-40899464D01*
X161973453Y-40998013D01*
X162137334Y-41065894D01*
X162137337Y-41065894D01*
X162137338Y-41065895D01*
X162311309Y-41100500D01*
X162488691Y-41100500D01*
X162662661Y-41065895D01*
X162662661Y-41065894D01*
X162662666Y-41065894D01*
X162826547Y-40998013D01*
X162974035Y-40899464D01*
X163099464Y-40774035D01*
X163198013Y-40626547D01*
X163265894Y-40462666D01*
X163278667Y-40398451D01*
X163321874Y-40281333D01*
X163399158Y-40183298D01*
X163502955Y-40113944D01*
X163623102Y-40080059D01*
X163747841Y-40084960D01*
X163864960Y-40128167D01*
X163962995Y-40205451D01*
X164032349Y-40309248D01*
X164061332Y-40398451D01*
X164074106Y-40462666D01*
X164141987Y-40626547D01*
X164141988Y-40626549D01*
X164240533Y-40774031D01*
X164240536Y-40774035D01*
X164365965Y-40899464D01*
X164513453Y-40998013D01*
X164677334Y-41065894D01*
X164677337Y-41065894D01*
X164677338Y-41065895D01*
X164851309Y-41100500D01*
X165028691Y-41100500D01*
X165202661Y-41065895D01*
X165202661Y-41065894D01*
X165202666Y-41065894D01*
X165366547Y-40998013D01*
X165514035Y-40899464D01*
X165639464Y-40774035D01*
X165738013Y-40626547D01*
X165805894Y-40462666D01*
X165818667Y-40398451D01*
X165861874Y-40281333D01*
X165939158Y-40183298D01*
X166042955Y-40113944D01*
X166163102Y-40080059D01*
X166287841Y-40084960D01*
X166404960Y-40128167D01*
X166502995Y-40205451D01*
X166572349Y-40309248D01*
X166601332Y-40398451D01*
X166614106Y-40462666D01*
X166681987Y-40626547D01*
X166681988Y-40626549D01*
X166780533Y-40774031D01*
X166780536Y-40774035D01*
X166905965Y-40899464D01*
X167053453Y-40998013D01*
X167217334Y-41065894D01*
X167217337Y-41065894D01*
X167217338Y-41065895D01*
X167391309Y-41100500D01*
X167568691Y-41100500D01*
X167742661Y-41065895D01*
X167742661Y-41065894D01*
X167742666Y-41065894D01*
X167906547Y-40998013D01*
X168054035Y-40899464D01*
X168179464Y-40774035D01*
X168278013Y-40626547D01*
X168345894Y-40462666D01*
X168345895Y-40462660D01*
X168351871Y-40448233D01*
X168417095Y-40341793D01*
X168512020Y-40260719D01*
X168627351Y-40212945D01*
X168751801Y-40203150D01*
X168873187Y-40232291D01*
X168979627Y-40297515D01*
X169060701Y-40392440D01*
X169108475Y-40507771D01*
X169119500Y-40600918D01*
X169119500Y-40844859D01*
X169119501Y-40844864D01*
X169122415Y-40869992D01*
X169167792Y-40972762D01*
X169167793Y-40972763D01*
X169167794Y-40972765D01*
X169247235Y-41052206D01*
X169350009Y-41097585D01*
X169375135Y-41100500D01*
X170664864Y-41100499D01*
X170689991Y-41097585D01*
X170792765Y-41052206D01*
X170872206Y-40972765D01*
X170917585Y-40869991D01*
X170920500Y-40844865D01*
X170920500Y-40440130D01*
X179032000Y-40440130D01*
X179032000Y-42509859D01*
X179032001Y-42509864D01*
X179034915Y-42534992D01*
X179080292Y-42637762D01*
X179080293Y-42637763D01*
X179080294Y-42637765D01*
X179159735Y-42717206D01*
X179159736Y-42717206D01*
X179159740Y-42717210D01*
X179162185Y-42718885D01*
X179252867Y-42804677D01*
X179312601Y-42914293D01*
X179335537Y-43037003D01*
X179319431Y-43160794D01*
X179265860Y-43273550D01*
X179259491Y-43282577D01*
X179218767Y-43338630D01*
X179218762Y-43338638D01*
X179126549Y-43519615D01*
X179126548Y-43519616D01*
X179063776Y-43712810D01*
X179063775Y-43712814D01*
X179032000Y-43913430D01*
X179032000Y-44116569D01*
X179063775Y-44317185D01*
X179063776Y-44317189D01*
X179126548Y-44510383D01*
X179126549Y-44510384D01*
X179218766Y-44691369D01*
X179218768Y-44691372D01*
X179218770Y-44691375D01*
X179338155Y-44855696D01*
X179338159Y-44855700D01*
X179338162Y-44855704D01*
X179481796Y-44999338D01*
X179481799Y-44999340D01*
X179481803Y-44999344D01*
X179646124Y-45118729D01*
X179646131Y-45118734D01*
X179827120Y-45210953D01*
X180020307Y-45273723D01*
X180220931Y-45305499D01*
X180220933Y-45305500D01*
X180220935Y-45305500D01*
X180424067Y-45305500D01*
X180424067Y-45305499D01*
X180624693Y-45273723D01*
X180817880Y-45210953D01*
X180998869Y-45118734D01*
X181163204Y-44999338D01*
X181306838Y-44855704D01*
X181426234Y-44691369D01*
X181518453Y-44510380D01*
X181581223Y-44317193D01*
X181613000Y-44116565D01*
X181613000Y-43913435D01*
X181581223Y-43712807D01*
X181518453Y-43519620D01*
X181426234Y-43338631D01*
X181385508Y-43282576D01*
X181328837Y-43171351D01*
X181309309Y-43048053D01*
X181328838Y-42924756D01*
X181385512Y-42813527D01*
X181473784Y-42725256D01*
X181482819Y-42718881D01*
X181485259Y-42717208D01*
X181485265Y-42717206D01*
X181564706Y-42637765D01*
X181610085Y-42534991D01*
X181613000Y-42509865D01*
X181612999Y-40440136D01*
X181610085Y-40415009D01*
X181564706Y-40312235D01*
X181485265Y-40232794D01*
X181485263Y-40232793D01*
X181485262Y-40232792D01*
X181382494Y-40187416D01*
X181382491Y-40187415D01*
X181382490Y-40187414D01*
X181382487Y-40187414D01*
X181357369Y-40184500D01*
X179287640Y-40184500D01*
X179287635Y-40184501D01*
X179262507Y-40187415D01*
X179159737Y-40232792D01*
X179080292Y-40312237D01*
X179034916Y-40415005D01*
X179034914Y-40415012D01*
X179032000Y-40440130D01*
X170920500Y-40440130D01*
X170920499Y-38755136D01*
X170917585Y-38730009D01*
X170872206Y-38627235D01*
X170792765Y-38547794D01*
X170792763Y-38547793D01*
X170792762Y-38547792D01*
X170689994Y-38502416D01*
X170689991Y-38502415D01*
X170689990Y-38502414D01*
X170689987Y-38502414D01*
X170664869Y-38499500D01*
X169375140Y-38499500D01*
X169375135Y-38499501D01*
X169350007Y-38502415D01*
X169247237Y-38547792D01*
X169167792Y-38627237D01*
X169122416Y-38730005D01*
X169122414Y-38730012D01*
X169119500Y-38755130D01*
X169119500Y-38999077D01*
X169099972Y-39122375D01*
X169043298Y-39233603D01*
X168955026Y-39321875D01*
X168843798Y-39378549D01*
X168720500Y-39398077D01*
X168597202Y-39378549D01*
X168485974Y-39321875D01*
X168397702Y-39233603D01*
X168351871Y-39151766D01*
X168345894Y-39137337D01*
X168345894Y-39137334D01*
X168278013Y-38973453D01*
X168179464Y-38825965D01*
X168054035Y-38700536D01*
X167987091Y-38655805D01*
X167906549Y-38601988D01*
X167816710Y-38564776D01*
X167742666Y-38534106D01*
X167742665Y-38534105D01*
X167742661Y-38534104D01*
X167568691Y-38499500D01*
X167391309Y-38499500D01*
X167217338Y-38534104D01*
X167053450Y-38601988D01*
X166905968Y-38700533D01*
X166780533Y-38825968D01*
X166681988Y-38973450D01*
X166614105Y-39137337D01*
X166601333Y-39201548D01*
X166558126Y-39318666D01*
X166480841Y-39416701D01*
X166377045Y-39486055D01*
X166256897Y-39519940D01*
X166132158Y-39515039D01*
X166015040Y-39471832D01*
X165917005Y-39394547D01*
X165847651Y-39290751D01*
X165818667Y-39201548D01*
X165805894Y-39137334D01*
X165738013Y-38973453D01*
X165639464Y-38825965D01*
X165514035Y-38700536D01*
X165447091Y-38655805D01*
X165366549Y-38601988D01*
X165276710Y-38564776D01*
X165202666Y-38534106D01*
X165202665Y-38534105D01*
X165202661Y-38534104D01*
X165028691Y-38499500D01*
X164851309Y-38499500D01*
X164677338Y-38534104D01*
X164513450Y-38601988D01*
X164365968Y-38700533D01*
X164240533Y-38825968D01*
X164141988Y-38973450D01*
X164074105Y-39137337D01*
X164061333Y-39201548D01*
X164018126Y-39318666D01*
X163940841Y-39416701D01*
X163837045Y-39486055D01*
X163716897Y-39519940D01*
X163592158Y-39515039D01*
X163475040Y-39471832D01*
X163377005Y-39394547D01*
X163307651Y-39290751D01*
X163278667Y-39201548D01*
X163265894Y-39137334D01*
X163198013Y-38973453D01*
X163099464Y-38825965D01*
X162974035Y-38700536D01*
X162907091Y-38655805D01*
X162826549Y-38601988D01*
X162826547Y-38601987D01*
X162662666Y-38534106D01*
X162662663Y-38534105D01*
X162662660Y-38534104D01*
X162644389Y-38530470D01*
X162527271Y-38487261D01*
X162429237Y-38409975D01*
X162359884Y-38306178D01*
X162326001Y-38186030D01*
X162330904Y-38061291D01*
X162374113Y-37944173D01*
X162440096Y-37857006D01*
X165083713Y-35213389D01*
X183299500Y-35213389D01*
X183299500Y-35386611D01*
X183317095Y-35497701D01*
X183326599Y-35557707D01*
X183380124Y-35722436D01*
X183380127Y-35722445D01*
X183458768Y-35876789D01*
X183560585Y-36016927D01*
X183683072Y-36139414D01*
X183823210Y-36241231D01*
X183823212Y-36241232D01*
X183977555Y-36319873D01*
X184090553Y-36356588D01*
X184142292Y-36373400D01*
X184142293Y-36373400D01*
X184142299Y-36373402D01*
X184313389Y-36400500D01*
X184313392Y-36400500D01*
X184486608Y-36400500D01*
X184486611Y-36400500D01*
X184657701Y-36373402D01*
X184822445Y-36319873D01*
X184976788Y-36241232D01*
X185116928Y-36139414D01*
X185239414Y-36016928D01*
X185341232Y-35876788D01*
X185419873Y-35722445D01*
X185473402Y-35557701D01*
X185500500Y-35386611D01*
X185500500Y-35213389D01*
X185473402Y-35042299D01*
X185419873Y-34877555D01*
X185341232Y-34723212D01*
X185297639Y-34663212D01*
X185239414Y-34583072D01*
X185116927Y-34460585D01*
X184976789Y-34358768D01*
X184822445Y-34280127D01*
X184822436Y-34280124D01*
X184657707Y-34226599D01*
X184657701Y-34226598D01*
X184486611Y-34199500D01*
X184313389Y-34199500D01*
X184183155Y-34220127D01*
X184142292Y-34226599D01*
X183977563Y-34280124D01*
X183977554Y-34280127D01*
X183823210Y-34358768D01*
X183683072Y-34460585D01*
X183560585Y-34583072D01*
X183458768Y-34723210D01*
X183380127Y-34877554D01*
X183380124Y-34877563D01*
X183326599Y-35042292D01*
X183326598Y-35042299D01*
X183299500Y-35213389D01*
X165083713Y-35213389D01*
X169460489Y-30836614D01*
X169494731Y-30777304D01*
X169519799Y-30733886D01*
X169550500Y-30619309D01*
X169550500Y-30073391D01*
X189399500Y-30073391D01*
X189399500Y-30246608D01*
X189426599Y-30417707D01*
X189480124Y-30582436D01*
X189480127Y-30582445D01*
X189558768Y-30736789D01*
X189660585Y-30876927D01*
X189792623Y-31008965D01*
X189865999Y-31109959D01*
X189904575Y-31228684D01*
X189904575Y-31353518D01*
X189865999Y-31472243D01*
X189792623Y-31573237D01*
X189691629Y-31646613D01*
X189671654Y-31656103D01*
X189577237Y-31697792D01*
X189497792Y-31777237D01*
X189452416Y-31880005D01*
X189452414Y-31880012D01*
X189449500Y-31905130D01*
X189449500Y-33494859D01*
X189449501Y-33494864D01*
X189452415Y-33519992D01*
X189497792Y-33622762D01*
X189497793Y-33622763D01*
X189497794Y-33622765D01*
X189577235Y-33702206D01*
X189577236Y-33702206D01*
X189577237Y-33702207D01*
X189671651Y-33743895D01*
X189776555Y-33811562D01*
X189855415Y-33908335D01*
X189900511Y-34024739D01*
X189907428Y-34149382D01*
X189875490Y-34270062D01*
X189807823Y-34374966D01*
X189792624Y-34391033D01*
X189660585Y-34523071D01*
X189558768Y-34663210D01*
X189480127Y-34817554D01*
X189480124Y-34817563D01*
X189426599Y-34982292D01*
X189426598Y-34982299D01*
X189399500Y-35153389D01*
X189399500Y-35326611D01*
X189402008Y-35342445D01*
X189426599Y-35497707D01*
X189480124Y-35662436D01*
X189480127Y-35662445D01*
X189558768Y-35816789D01*
X189660585Y-35956927D01*
X189783072Y-36079414D01*
X189923210Y-36181231D01*
X189923212Y-36181232D01*
X190077555Y-36259873D01*
X190190553Y-36296588D01*
X190242292Y-36313400D01*
X190242293Y-36313400D01*
X190242299Y-36313402D01*
X190413389Y-36340500D01*
X190413392Y-36340500D01*
X190586608Y-36340500D01*
X190586611Y-36340500D01*
X190757701Y-36313402D01*
X190922445Y-36259873D01*
X191076788Y-36181232D01*
X191216928Y-36079414D01*
X191339414Y-35956928D01*
X191441232Y-35816788D01*
X191519873Y-35662445D01*
X191573402Y-35497701D01*
X191600500Y-35326611D01*
X191600500Y-35153389D01*
X191573402Y-34982299D01*
X191519873Y-34817555D01*
X191441232Y-34663212D01*
X191339414Y-34523072D01*
X191216928Y-34400586D01*
X191207376Y-34391034D01*
X191134000Y-34290040D01*
X191095424Y-34171315D01*
X191095424Y-34046481D01*
X191134000Y-33927756D01*
X191207376Y-33826762D01*
X191308370Y-33753386D01*
X191328349Y-33743895D01*
X191380754Y-33720755D01*
X191422765Y-33702206D01*
X191502206Y-33622765D01*
X191547585Y-33519991D01*
X191550500Y-33494865D01*
X191550499Y-31905136D01*
X191547585Y-31880009D01*
X191502206Y-31777235D01*
X191422765Y-31697794D01*
X191422763Y-31697793D01*
X191422762Y-31697792D01*
X191328346Y-31656103D01*
X191223442Y-31588436D01*
X191144583Y-31491663D01*
X191099488Y-31375258D01*
X191092571Y-31250615D01*
X191124510Y-31129935D01*
X191192177Y-31025031D01*
X191207377Y-31008964D01*
X191216924Y-30999416D01*
X191216928Y-30999414D01*
X191339414Y-30876928D01*
X191441232Y-30736788D01*
X191519873Y-30582445D01*
X191573402Y-30417701D01*
X191600500Y-30246611D01*
X191600500Y-30073389D01*
X191573402Y-29902299D01*
X191519873Y-29737555D01*
X191441232Y-29583212D01*
X191339414Y-29443072D01*
X191216928Y-29320586D01*
X191216927Y-29320585D01*
X191076789Y-29218768D01*
X190922445Y-29140127D01*
X190922436Y-29140124D01*
X190757707Y-29086599D01*
X190757701Y-29086598D01*
X190586611Y-29059500D01*
X190413389Y-29059500D01*
X190274144Y-29081554D01*
X190242292Y-29086599D01*
X190077563Y-29140124D01*
X190077554Y-29140127D01*
X189923210Y-29218768D01*
X189783072Y-29320585D01*
X189660585Y-29443072D01*
X189558768Y-29583210D01*
X189480127Y-29737554D01*
X189480124Y-29737563D01*
X189426599Y-29902292D01*
X189399500Y-30073391D01*
X169550500Y-30073391D01*
X169550500Y-20669454D01*
X194049500Y-20669454D01*
X194049500Y-20850546D01*
X194077829Y-21029409D01*
X194077830Y-21029415D01*
X194133785Y-21201631D01*
X194133787Y-21201636D01*
X194216005Y-21362997D01*
X194322444Y-21509497D01*
X194322447Y-21509501D01*
X194343573Y-21530627D01*
X194416947Y-21631618D01*
X194455523Y-21750343D01*
X194455523Y-21875177D01*
X194416947Y-21993902D01*
X194343571Y-22094896D01*
X194242577Y-22168272D01*
X194222601Y-22177762D01*
X194177237Y-22197792D01*
X194097792Y-22277237D01*
X194052416Y-22380005D01*
X194052414Y-22380012D01*
X194049500Y-22405130D01*
X194049500Y-24194859D01*
X194049501Y-24194864D01*
X194052415Y-24219992D01*
X194097792Y-24322762D01*
X194097793Y-24322763D01*
X194097794Y-24322765D01*
X194177235Y-24402206D01*
X194280009Y-24447585D01*
X194305135Y-24450500D01*
X196094864Y-24450499D01*
X196119991Y-24447585D01*
X196222765Y-24402206D01*
X196302206Y-24322765D01*
X196347585Y-24219991D01*
X196350500Y-24194865D01*
X196350499Y-22405136D01*
X196347585Y-22380009D01*
X196302206Y-22277235D01*
X196222765Y-22197794D01*
X196222760Y-22197792D01*
X196177399Y-22177763D01*
X196072495Y-22110095D01*
X195993636Y-22013323D01*
X195948540Y-21896918D01*
X195941623Y-21772275D01*
X195973561Y-21651595D01*
X196041229Y-21546691D01*
X196056415Y-21530638D01*
X196077553Y-21509501D01*
X196183996Y-21362994D01*
X196266211Y-21201639D01*
X196322171Y-21029409D01*
X196350500Y-20850546D01*
X196350500Y-20669454D01*
X196322171Y-20490591D01*
X196322169Y-20490584D01*
X196266214Y-20318368D01*
X196266212Y-20318363D01*
X196183994Y-20157002D01*
X196077555Y-20010502D01*
X196077553Y-20010499D01*
X195949501Y-19882447D01*
X195949497Y-19882444D01*
X195802997Y-19776005D01*
X195641636Y-19693787D01*
X195641631Y-19693785D01*
X195469415Y-19637830D01*
X195469409Y-19637829D01*
X195290546Y-19609500D01*
X195109454Y-19609500D01*
X194956777Y-19633681D01*
X194930584Y-19637830D01*
X194758368Y-19693785D01*
X194758363Y-19693787D01*
X194597002Y-19776005D01*
X194450502Y-19882444D01*
X194322444Y-20010502D01*
X194216005Y-20157002D01*
X194133787Y-20318363D01*
X194133785Y-20318368D01*
X194077830Y-20490584D01*
X194077829Y-20490591D01*
X194049500Y-20669454D01*
X169550500Y-20669454D01*
X169550500Y-19215546D01*
X169570028Y-19092248D01*
X169626702Y-18981020D01*
X169714974Y-18892748D01*
X169727834Y-18883786D01*
X169737782Y-18877139D01*
X169877139Y-18737782D01*
X169986632Y-18573914D01*
X170062051Y-18391835D01*
X170100500Y-18198541D01*
X170100500Y-18001459D01*
X175719500Y-18001459D01*
X175719500Y-18198541D01*
X175757949Y-18391835D01*
X175833368Y-18573914D01*
X175942861Y-18737782D01*
X176082218Y-18877139D01*
X176246086Y-18986632D01*
X176428165Y-19062051D01*
X176621459Y-19100500D01*
X176621460Y-19100500D01*
X176818540Y-19100500D01*
X176818541Y-19100500D01*
X177011835Y-19062051D01*
X177193914Y-18986632D01*
X177357782Y-18877139D01*
X177497139Y-18737782D01*
X177606632Y-18573914D01*
X177682051Y-18391835D01*
X177720500Y-18198541D01*
X177720500Y-18013389D01*
X183299500Y-18013389D01*
X183299500Y-18186611D01*
X183301390Y-18198541D01*
X183326599Y-18357707D01*
X183380124Y-18522436D01*
X183380127Y-18522445D01*
X183458768Y-18676789D01*
X183560585Y-18816927D01*
X183683072Y-18939414D01*
X183823210Y-19041231D01*
X183823212Y-19041232D01*
X183977555Y-19119873D01*
X184090553Y-19156588D01*
X184142292Y-19173400D01*
X184142293Y-19173400D01*
X184142299Y-19173402D01*
X184313389Y-19200500D01*
X184313392Y-19200500D01*
X184486608Y-19200500D01*
X184486611Y-19200500D01*
X184657701Y-19173402D01*
X184822445Y-19119873D01*
X184976788Y-19041232D01*
X185116928Y-18939414D01*
X185239414Y-18816928D01*
X185341232Y-18676788D01*
X185419873Y-18522445D01*
X185473402Y-18357701D01*
X185500500Y-18186611D01*
X185500500Y-18013389D01*
X185473402Y-17842299D01*
X185419873Y-17677555D01*
X185341232Y-17523212D01*
X185296919Y-17462221D01*
X185239414Y-17383072D01*
X185116927Y-17260585D01*
X184976789Y-17158768D01*
X184822445Y-17080127D01*
X184822436Y-17080124D01*
X184657707Y-17026599D01*
X184657701Y-17026598D01*
X184486611Y-16999500D01*
X184313389Y-16999500D01*
X184174144Y-17021554D01*
X184142292Y-17026599D01*
X183977563Y-17080124D01*
X183977554Y-17080127D01*
X183823210Y-17158768D01*
X183683072Y-17260585D01*
X183560585Y-17383072D01*
X183458768Y-17523210D01*
X183380127Y-17677554D01*
X183380124Y-17677563D01*
X183326599Y-17842292D01*
X183326598Y-17842299D01*
X183299500Y-18013389D01*
X177720500Y-18013389D01*
X177720500Y-18001459D01*
X177682051Y-17808165D01*
X177606632Y-17626086D01*
X177497139Y-17462218D01*
X177357782Y-17322861D01*
X177264579Y-17260585D01*
X177193920Y-17213372D01*
X177193919Y-17213371D01*
X177193914Y-17213368D01*
X177011835Y-17137949D01*
X176818541Y-17099500D01*
X176621459Y-17099500D01*
X176524812Y-17118724D01*
X176428164Y-17137949D01*
X176246090Y-17213366D01*
X176246079Y-17213372D01*
X176082221Y-17322858D01*
X175942858Y-17462221D01*
X175833372Y-17626079D01*
X175833366Y-17626090D01*
X175757949Y-17808164D01*
X175751159Y-17842299D01*
X175719500Y-18001459D01*
X170100500Y-18001459D01*
X170062051Y-17808165D01*
X169986632Y-17626086D01*
X169877139Y-17462218D01*
X169737782Y-17322861D01*
X169644579Y-17260585D01*
X169573920Y-17213372D01*
X169573919Y-17213371D01*
X169573914Y-17213368D01*
X169391835Y-17137949D01*
X169198541Y-17099500D01*
X169001459Y-17099500D01*
X168904812Y-17118724D01*
X168808164Y-17137949D01*
X168626090Y-17213366D01*
X168626079Y-17213372D01*
X168462221Y-17322858D01*
X168322858Y-17462221D01*
X168213372Y-17626079D01*
X168213366Y-17626090D01*
X168137949Y-17808164D01*
X168131159Y-17842299D01*
X168099500Y-18001459D01*
X168099500Y-18198541D01*
X168137949Y-18391835D01*
X168213368Y-18573914D01*
X168322861Y-18737782D01*
X168462218Y-18877139D01*
X168462221Y-18877141D01*
X168472166Y-18883786D01*
X168563837Y-18968522D01*
X168624836Y-19077438D01*
X168649192Y-19199874D01*
X168649500Y-19215546D01*
X168649500Y-30208124D01*
X168629972Y-30331422D01*
X168573298Y-30442650D01*
X168532636Y-30490260D01*
X160570071Y-38452824D01*
X160469077Y-38526200D01*
X160350352Y-38564776D01*
X160225518Y-38564776D01*
X160135253Y-38539319D01*
X160122668Y-38534106D01*
X160122665Y-38534105D01*
X159948691Y-38499500D01*
X159771309Y-38499500D01*
X159597338Y-38534104D01*
X159433450Y-38601988D01*
X159285968Y-38700533D01*
X159160533Y-38825968D01*
X159061988Y-38973450D01*
X158994105Y-39137337D01*
X158981333Y-39201548D01*
X158938126Y-39318666D01*
X158860841Y-39416701D01*
X158757045Y-39486055D01*
X158636897Y-39519940D01*
X158512158Y-39515039D01*
X158395040Y-39471832D01*
X158297005Y-39394547D01*
X158227651Y-39290751D01*
X158198667Y-39201548D01*
X158185894Y-39137334D01*
X158118013Y-38973453D01*
X158019464Y-38825965D01*
X157894035Y-38700536D01*
X157827091Y-38655805D01*
X157746549Y-38601988D01*
X157656710Y-38564776D01*
X157582666Y-38534106D01*
X157582665Y-38534105D01*
X157582661Y-38534104D01*
X157408691Y-38499500D01*
X157231309Y-38499500D01*
X157057338Y-38534104D01*
X156893450Y-38601988D01*
X156745968Y-38700533D01*
X156620533Y-38825968D01*
X156521988Y-38973450D01*
X156454105Y-39137337D01*
X156441333Y-39201548D01*
X156398126Y-39318666D01*
X156320841Y-39416701D01*
X156217045Y-39486055D01*
X156096897Y-39519940D01*
X155972158Y-39515039D01*
X155855040Y-39471832D01*
X155757005Y-39394547D01*
X155687651Y-39290751D01*
X155658667Y-39201548D01*
X155645894Y-39137334D01*
X155578013Y-38973453D01*
X155479464Y-38825965D01*
X155354035Y-38700536D01*
X155287091Y-38655805D01*
X155206549Y-38601988D01*
X155116710Y-38564776D01*
X155042666Y-38534106D01*
X155042665Y-38534105D01*
X155042661Y-38534104D01*
X154868691Y-38499500D01*
X154691309Y-38499500D01*
X154517338Y-38534104D01*
X154353450Y-38601988D01*
X154205968Y-38700533D01*
X154080533Y-38825968D01*
X153981988Y-38973450D01*
X153914105Y-39137337D01*
X153901333Y-39201548D01*
X153858126Y-39318666D01*
X153780841Y-39416701D01*
X153677045Y-39486055D01*
X153556897Y-39519940D01*
X153432158Y-39515039D01*
X153315040Y-39471832D01*
X153217005Y-39394547D01*
X153147651Y-39290751D01*
X153118667Y-39201548D01*
X153105894Y-39137334D01*
X153038013Y-38973453D01*
X152939464Y-38825965D01*
X152814035Y-38700536D01*
X152747091Y-38655805D01*
X152666549Y-38601988D01*
X152576710Y-38564776D01*
X152502666Y-38534106D01*
X152502665Y-38534105D01*
X152502661Y-38534104D01*
X152328691Y-38499500D01*
X152151309Y-38499500D01*
X151977338Y-38534104D01*
X151813450Y-38601988D01*
X151665968Y-38700533D01*
X151540533Y-38825968D01*
X151441988Y-38973450D01*
X151374105Y-39137337D01*
X151361333Y-39201548D01*
X151318126Y-39318666D01*
X151240841Y-39416701D01*
X151137045Y-39486055D01*
X151016897Y-39519940D01*
X150892158Y-39515039D01*
X150775040Y-39471832D01*
X150677005Y-39394547D01*
X150607651Y-39290751D01*
X150578667Y-39201548D01*
X150565894Y-39137334D01*
X150498013Y-38973453D01*
X150399464Y-38825965D01*
X150274035Y-38700536D01*
X150207091Y-38655805D01*
X150126549Y-38601988D01*
X150036710Y-38564776D01*
X149962666Y-38534106D01*
X149962665Y-38534105D01*
X149962661Y-38534104D01*
X149788691Y-38499500D01*
X149611309Y-38499500D01*
X149437338Y-38534104D01*
X149273450Y-38601988D01*
X149125968Y-38700533D01*
X149000533Y-38825968D01*
X148901988Y-38973450D01*
X148834105Y-39137337D01*
X148821333Y-39201548D01*
X148778126Y-39318666D01*
X148700841Y-39416701D01*
X148597045Y-39486055D01*
X148476897Y-39519940D01*
X148352158Y-39515039D01*
X148235040Y-39471832D01*
X148137005Y-39394547D01*
X148067651Y-39290751D01*
X148038667Y-39201548D01*
X148025894Y-39137334D01*
X147958013Y-38973453D01*
X147859464Y-38825965D01*
X147734035Y-38700536D01*
X147667091Y-38655805D01*
X147586549Y-38601988D01*
X147496710Y-38564776D01*
X147422666Y-38534106D01*
X147422665Y-38534105D01*
X147422661Y-38534104D01*
X147248691Y-38499500D01*
X147071309Y-38499500D01*
X146897338Y-38534104D01*
X146733450Y-38601988D01*
X146585968Y-38700533D01*
X146460533Y-38825968D01*
X146361988Y-38973450D01*
X146294105Y-39137337D01*
X146281333Y-39201548D01*
X146238126Y-39318666D01*
X146160841Y-39416701D01*
X146057045Y-39486055D01*
X145936897Y-39519940D01*
X145812158Y-39515039D01*
X145695040Y-39471832D01*
X145597005Y-39394547D01*
X145527651Y-39290751D01*
X145498667Y-39201548D01*
X145485894Y-39137334D01*
X145418013Y-38973453D01*
X145319464Y-38825965D01*
X145194035Y-38700536D01*
X145127091Y-38655805D01*
X145046549Y-38601988D01*
X144956710Y-38564776D01*
X144882666Y-38534106D01*
X144882665Y-38534105D01*
X144882661Y-38534104D01*
X144708691Y-38499500D01*
X144531309Y-38499500D01*
X144357338Y-38534104D01*
X144193450Y-38601988D01*
X144045968Y-38700533D01*
X143920533Y-38825968D01*
X143821988Y-38973450D01*
X143754105Y-39137337D01*
X143741333Y-39201548D01*
X143698126Y-39318666D01*
X143620841Y-39416701D01*
X143517045Y-39486055D01*
X143396897Y-39519940D01*
X143272158Y-39515039D01*
X143155040Y-39471832D01*
X143057005Y-39394547D01*
X142987651Y-39290751D01*
X142958667Y-39201548D01*
X142945894Y-39137334D01*
X142878013Y-38973453D01*
X142779464Y-38825965D01*
X142654035Y-38700536D01*
X142587091Y-38655805D01*
X142506549Y-38601988D01*
X142416710Y-38564776D01*
X142342666Y-38534106D01*
X142342665Y-38534105D01*
X142342661Y-38534104D01*
X142168691Y-38499500D01*
X141991309Y-38499500D01*
X141817338Y-38534104D01*
X141653450Y-38601988D01*
X141505968Y-38700533D01*
X141380533Y-38825968D01*
X141281988Y-38973450D01*
X141214105Y-39137337D01*
X141201333Y-39201548D01*
X141158126Y-39318666D01*
X141080841Y-39416701D01*
X140977045Y-39486055D01*
X140856897Y-39519940D01*
X140732158Y-39515039D01*
X140615040Y-39471832D01*
X140517005Y-39394547D01*
X140447651Y-39290751D01*
X140418667Y-39201548D01*
X140405894Y-39137334D01*
X140338013Y-38973453D01*
X140239464Y-38825965D01*
X140114035Y-38700536D01*
X140047091Y-38655805D01*
X139966549Y-38601988D01*
X139876710Y-38564776D01*
X139802666Y-38534106D01*
X139802665Y-38534105D01*
X139802661Y-38534104D01*
X139628691Y-38499500D01*
X139451309Y-38499500D01*
X139277338Y-38534104D01*
X139113450Y-38601988D01*
X138965968Y-38700533D01*
X138840533Y-38825968D01*
X138741988Y-38973450D01*
X138674104Y-39137338D01*
X138639500Y-39311309D01*
X135360500Y-39311309D01*
X135325894Y-39137334D01*
X135258013Y-38973453D01*
X135159464Y-38825965D01*
X135034035Y-38700536D01*
X134967091Y-38655805D01*
X134886549Y-38601988D01*
X134796710Y-38564776D01*
X134722666Y-38534106D01*
X134722665Y-38534105D01*
X134722661Y-38534104D01*
X134548691Y-38499500D01*
X134371309Y-38499500D01*
X134197338Y-38534104D01*
X134033450Y-38601988D01*
X133885968Y-38700533D01*
X133760533Y-38825968D01*
X133661988Y-38973450D01*
X133594105Y-39137337D01*
X133581333Y-39201548D01*
X133538126Y-39318666D01*
X133460841Y-39416701D01*
X133357045Y-39486055D01*
X133236897Y-39519940D01*
X133112158Y-39515039D01*
X132995040Y-39471832D01*
X132897005Y-39394547D01*
X132827651Y-39290751D01*
X132798667Y-39201548D01*
X132785894Y-39137334D01*
X132718013Y-38973453D01*
X132619464Y-38825965D01*
X132494035Y-38700536D01*
X132427091Y-38655805D01*
X132346549Y-38601988D01*
X132256710Y-38564776D01*
X132182666Y-38534106D01*
X132182665Y-38534105D01*
X132182661Y-38534104D01*
X132008691Y-38499500D01*
X131831309Y-38499500D01*
X131657338Y-38534104D01*
X131493450Y-38601988D01*
X131345968Y-38700533D01*
X131220533Y-38825968D01*
X131121988Y-38973450D01*
X131054105Y-39137337D01*
X131041333Y-39201548D01*
X130998126Y-39318666D01*
X130920841Y-39416701D01*
X130817045Y-39486055D01*
X130696897Y-39519940D01*
X130572158Y-39515039D01*
X130455040Y-39471832D01*
X130357005Y-39394547D01*
X130287651Y-39290751D01*
X130258667Y-39201548D01*
X130245894Y-39137334D01*
X130178013Y-38973453D01*
X130079464Y-38825965D01*
X129954035Y-38700536D01*
X129887091Y-38655805D01*
X129806549Y-38601988D01*
X129716710Y-38564776D01*
X129642666Y-38534106D01*
X129642665Y-38534105D01*
X129642661Y-38534104D01*
X129468691Y-38499500D01*
X129291309Y-38499500D01*
X129117338Y-38534104D01*
X128953450Y-38601988D01*
X128805968Y-38700533D01*
X128680533Y-38825968D01*
X128581988Y-38973450D01*
X128514105Y-39137337D01*
X128501333Y-39201548D01*
X128458126Y-39318666D01*
X128380841Y-39416701D01*
X128277045Y-39486055D01*
X128156897Y-39519940D01*
X128032158Y-39515039D01*
X127915040Y-39471832D01*
X127817005Y-39394547D01*
X127747651Y-39290751D01*
X127718667Y-39201548D01*
X127705894Y-39137334D01*
X127638013Y-38973453D01*
X127539464Y-38825965D01*
X127414035Y-38700536D01*
X127347091Y-38655805D01*
X127266549Y-38601988D01*
X127176710Y-38564776D01*
X127102666Y-38534106D01*
X127102665Y-38534105D01*
X127102661Y-38534104D01*
X126928691Y-38499500D01*
X126751309Y-38499500D01*
X126577338Y-38534104D01*
X126413450Y-38601988D01*
X126265968Y-38700533D01*
X126140533Y-38825968D01*
X126041988Y-38973450D01*
X125974105Y-39137337D01*
X125961333Y-39201548D01*
X125918126Y-39318666D01*
X125840841Y-39416701D01*
X125737045Y-39486055D01*
X125616897Y-39519940D01*
X125492158Y-39515039D01*
X125375040Y-39471832D01*
X125277005Y-39394547D01*
X125207651Y-39290751D01*
X125178667Y-39201548D01*
X125165894Y-39137334D01*
X125098013Y-38973453D01*
X124999464Y-38825965D01*
X124874035Y-38700536D01*
X124807091Y-38655805D01*
X124726549Y-38601988D01*
X124636710Y-38564776D01*
X124562666Y-38534106D01*
X124562665Y-38534105D01*
X124562661Y-38534104D01*
X124388691Y-38499500D01*
X124211309Y-38499500D01*
X124037338Y-38534104D01*
X123873450Y-38601988D01*
X123725968Y-38700533D01*
X123600533Y-38825968D01*
X123501988Y-38973450D01*
X123434104Y-39137338D01*
X123399500Y-39311309D01*
X122128895Y-39311309D01*
X122123506Y-34833389D01*
X124379500Y-34833389D01*
X124379500Y-35006611D01*
X124402747Y-35153389D01*
X124406599Y-35177707D01*
X124460124Y-35342436D01*
X124460127Y-35342445D01*
X124538768Y-35496789D01*
X124640585Y-35636927D01*
X124763072Y-35759414D01*
X124903210Y-35861231D01*
X124903212Y-35861232D01*
X125057555Y-35939873D01*
X125170553Y-35976588D01*
X125222292Y-35993400D01*
X125222293Y-35993400D01*
X125222299Y-35993402D01*
X125393389Y-36020500D01*
X125393392Y-36020500D01*
X125566608Y-36020500D01*
X125566611Y-36020500D01*
X125737701Y-35993402D01*
X125902445Y-35939873D01*
X126056788Y-35861232D01*
X126196928Y-35759414D01*
X126319414Y-35636928D01*
X126421232Y-35496788D01*
X126421233Y-35496784D01*
X126427202Y-35488570D01*
X126515474Y-35400298D01*
X126626702Y-35343625D01*
X126750000Y-35324096D01*
X126873298Y-35343624D01*
X126984526Y-35400298D01*
X127072798Y-35488570D01*
X127078766Y-35496784D01*
X127078768Y-35496788D01*
X127180585Y-35636927D01*
X127180586Y-35636928D01*
X127303072Y-35759414D01*
X127443210Y-35861231D01*
X127443212Y-35861232D01*
X127597555Y-35939873D01*
X127710553Y-35976588D01*
X127762292Y-35993400D01*
X127762293Y-35993400D01*
X127762299Y-35993402D01*
X127933389Y-36020500D01*
X127933392Y-36020500D01*
X128106608Y-36020500D01*
X128106611Y-36020500D01*
X128277701Y-35993402D01*
X128442445Y-35939873D01*
X128596788Y-35861232D01*
X128736928Y-35759414D01*
X128859414Y-35636928D01*
X128961232Y-35496788D01*
X128961233Y-35496784D01*
X128967202Y-35488570D01*
X129055474Y-35400298D01*
X129166702Y-35343625D01*
X129290000Y-35324096D01*
X129413298Y-35343624D01*
X129524526Y-35400298D01*
X129612798Y-35488570D01*
X129618766Y-35496784D01*
X129618768Y-35496788D01*
X129720585Y-35636927D01*
X129720586Y-35636928D01*
X129843072Y-35759414D01*
X129983210Y-35861231D01*
X129983212Y-35861232D01*
X130137555Y-35939873D01*
X130250553Y-35976588D01*
X130302292Y-35993400D01*
X130302293Y-35993400D01*
X130302299Y-35993402D01*
X130473389Y-36020500D01*
X130473392Y-36020500D01*
X130646608Y-36020500D01*
X130646611Y-36020500D01*
X130817701Y-35993402D01*
X130982445Y-35939873D01*
X131136788Y-35861232D01*
X131276928Y-35759414D01*
X131399414Y-35636928D01*
X131501232Y-35496788D01*
X131501233Y-35496784D01*
X131507202Y-35488570D01*
X131595474Y-35400298D01*
X131706702Y-35343625D01*
X131830000Y-35324096D01*
X131953298Y-35343624D01*
X132064526Y-35400298D01*
X132152798Y-35488570D01*
X132158766Y-35496784D01*
X132158768Y-35496788D01*
X132260585Y-35636927D01*
X132260586Y-35636928D01*
X132383072Y-35759414D01*
X132523210Y-35861231D01*
X132523212Y-35861232D01*
X132677555Y-35939873D01*
X132790553Y-35976588D01*
X132842292Y-35993400D01*
X132842293Y-35993400D01*
X132842299Y-35993402D01*
X133013389Y-36020500D01*
X133013392Y-36020500D01*
X133186608Y-36020500D01*
X133186611Y-36020500D01*
X133357701Y-35993402D01*
X133522445Y-35939873D01*
X133676788Y-35861232D01*
X133816928Y-35759414D01*
X133939414Y-35636928D01*
X134041232Y-35496788D01*
X134041233Y-35496784D01*
X134047202Y-35488570D01*
X134135474Y-35400298D01*
X134246702Y-35343625D01*
X134370000Y-35324096D01*
X134493298Y-35343624D01*
X134604526Y-35400298D01*
X134692798Y-35488570D01*
X134698766Y-35496784D01*
X134698768Y-35496788D01*
X134800585Y-35636927D01*
X134800586Y-35636928D01*
X134923072Y-35759414D01*
X135063210Y-35861231D01*
X135063212Y-35861232D01*
X135217555Y-35939873D01*
X135330553Y-35976588D01*
X135382292Y-35993400D01*
X135382293Y-35993400D01*
X135382299Y-35993402D01*
X135553389Y-36020500D01*
X135553392Y-36020500D01*
X135726608Y-36020500D01*
X135726611Y-36020500D01*
X135897701Y-35993402D01*
X136062445Y-35939873D01*
X136216788Y-35861232D01*
X136356928Y-35759414D01*
X136479414Y-35636928D01*
X136581232Y-35496788D01*
X136659873Y-35342445D01*
X136701806Y-35213389D01*
X143099500Y-35213389D01*
X143099500Y-35386611D01*
X143117095Y-35497701D01*
X143126599Y-35557707D01*
X143180124Y-35722436D01*
X143180127Y-35722445D01*
X143258768Y-35876789D01*
X143360585Y-36016927D01*
X143483072Y-36139414D01*
X143623210Y-36241231D01*
X143623212Y-36241232D01*
X143777555Y-36319873D01*
X143890553Y-36356588D01*
X143942292Y-36373400D01*
X143942293Y-36373400D01*
X143942299Y-36373402D01*
X144113389Y-36400500D01*
X144113392Y-36400500D01*
X144286608Y-36400500D01*
X144286611Y-36400500D01*
X144457701Y-36373402D01*
X144622445Y-36319873D01*
X144776788Y-36241232D01*
X144916928Y-36139414D01*
X145039414Y-36016928D01*
X145141232Y-35876788D01*
X145219873Y-35722445D01*
X145273402Y-35557701D01*
X145300500Y-35386611D01*
X145300500Y-35213389D01*
X145273402Y-35042299D01*
X145219873Y-34877555D01*
X145141232Y-34723212D01*
X145097639Y-34663212D01*
X145039414Y-34583072D01*
X144916927Y-34460585D01*
X144776789Y-34358768D01*
X144622445Y-34280127D01*
X144622436Y-34280124D01*
X144457707Y-34226599D01*
X144457701Y-34226598D01*
X144286611Y-34199500D01*
X144113389Y-34199500D01*
X143983155Y-34220127D01*
X143942292Y-34226599D01*
X143777563Y-34280124D01*
X143777554Y-34280127D01*
X143623210Y-34358768D01*
X143483072Y-34460585D01*
X143360585Y-34583072D01*
X143258768Y-34723210D01*
X143180127Y-34877554D01*
X143180124Y-34877563D01*
X143126599Y-35042292D01*
X143126598Y-35042299D01*
X143099500Y-35213389D01*
X136701806Y-35213389D01*
X136713402Y-35177701D01*
X136740500Y-35006611D01*
X136740500Y-34833389D01*
X136713402Y-34662299D01*
X136659873Y-34497555D01*
X136581232Y-34343212D01*
X136548941Y-34298768D01*
X136479414Y-34203072D01*
X136356927Y-34080585D01*
X136216789Y-33978768D01*
X136062445Y-33900127D01*
X136062436Y-33900124D01*
X135897707Y-33846599D01*
X135897701Y-33846598D01*
X135726611Y-33819500D01*
X135553389Y-33819500D01*
X135414144Y-33841554D01*
X135382292Y-33846599D01*
X135217563Y-33900124D01*
X135217554Y-33900127D01*
X135063210Y-33978768D01*
X134923072Y-34080585D01*
X134800585Y-34203072D01*
X134692797Y-34351430D01*
X134604526Y-34439701D01*
X134493297Y-34496375D01*
X134369999Y-34515903D01*
X134246701Y-34496374D01*
X134135473Y-34439700D01*
X134047203Y-34351430D01*
X133939414Y-34203072D01*
X133816927Y-34080585D01*
X133676789Y-33978768D01*
X133522445Y-33900127D01*
X133522436Y-33900124D01*
X133357707Y-33846599D01*
X133357701Y-33846598D01*
X133186611Y-33819500D01*
X133013389Y-33819500D01*
X132874144Y-33841554D01*
X132842292Y-33846599D01*
X132677563Y-33900124D01*
X132677554Y-33900127D01*
X132523210Y-33978768D01*
X132383072Y-34080585D01*
X132260585Y-34203072D01*
X132152797Y-34351430D01*
X132064526Y-34439701D01*
X131953297Y-34496375D01*
X131829999Y-34515903D01*
X131706701Y-34496374D01*
X131595473Y-34439700D01*
X131507203Y-34351430D01*
X131399414Y-34203072D01*
X131276927Y-34080585D01*
X131136789Y-33978768D01*
X130982445Y-33900127D01*
X130982436Y-33900124D01*
X130817707Y-33846599D01*
X130817701Y-33846598D01*
X130646611Y-33819500D01*
X130473389Y-33819500D01*
X130334144Y-33841554D01*
X130302292Y-33846599D01*
X130137563Y-33900124D01*
X130137554Y-33900127D01*
X129983210Y-33978768D01*
X129843072Y-34080585D01*
X129720585Y-34203072D01*
X129612797Y-34351430D01*
X129524526Y-34439701D01*
X129413297Y-34496375D01*
X129289999Y-34515903D01*
X129166701Y-34496374D01*
X129055473Y-34439700D01*
X128967203Y-34351430D01*
X128859414Y-34203072D01*
X128736927Y-34080585D01*
X128596789Y-33978768D01*
X128442445Y-33900127D01*
X128442436Y-33900124D01*
X128277707Y-33846599D01*
X128277701Y-33846598D01*
X128106611Y-33819500D01*
X127933389Y-33819500D01*
X127794144Y-33841554D01*
X127762292Y-33846599D01*
X127597563Y-33900124D01*
X127597554Y-33900127D01*
X127443210Y-33978768D01*
X127303072Y-34080585D01*
X127180585Y-34203072D01*
X127072797Y-34351430D01*
X126984526Y-34439701D01*
X126873297Y-34496375D01*
X126749999Y-34515903D01*
X126626701Y-34496374D01*
X126515473Y-34439700D01*
X126427203Y-34351430D01*
X126319414Y-34203072D01*
X126196927Y-34080585D01*
X126056789Y-33978768D01*
X125902445Y-33900127D01*
X125902436Y-33900124D01*
X125737707Y-33846599D01*
X125737701Y-33846598D01*
X125566611Y-33819500D01*
X125393389Y-33819500D01*
X125254144Y-33841554D01*
X125222292Y-33846599D01*
X125057563Y-33900124D01*
X125057554Y-33900127D01*
X124903210Y-33978768D01*
X124763072Y-34080585D01*
X124640585Y-34203072D01*
X124538768Y-34343210D01*
X124460127Y-34497554D01*
X124460124Y-34497563D01*
X124406599Y-34662292D01*
X124406598Y-34662299D01*
X124379500Y-34833389D01*
X122123506Y-34833389D01*
X122105845Y-20157002D01*
X122103251Y-18001459D01*
X164109500Y-18001459D01*
X164109500Y-18198541D01*
X164147949Y-18391835D01*
X164223368Y-18573914D01*
X164332861Y-18737782D01*
X164472218Y-18877139D01*
X164636086Y-18986632D01*
X164818165Y-19062051D01*
X165011459Y-19100500D01*
X165011460Y-19100500D01*
X165208540Y-19100500D01*
X165208541Y-19100500D01*
X165401835Y-19062051D01*
X165583914Y-18986632D01*
X165747782Y-18877139D01*
X165887139Y-18737782D01*
X165996632Y-18573914D01*
X166072051Y-18391835D01*
X166110500Y-18198541D01*
X166110500Y-18001459D01*
X166072051Y-17808165D01*
X165996632Y-17626086D01*
X165887139Y-17462218D01*
X165747782Y-17322861D01*
X165654579Y-17260585D01*
X165583920Y-17213372D01*
X165583919Y-17213371D01*
X165583914Y-17213368D01*
X165401835Y-17137949D01*
X165208541Y-17099500D01*
X165011459Y-17099500D01*
X164914812Y-17118724D01*
X164818164Y-17137949D01*
X164636090Y-17213366D01*
X164636079Y-17213372D01*
X164472221Y-17322858D01*
X164332858Y-17462221D01*
X164223372Y-17626079D01*
X164223366Y-17626090D01*
X164147949Y-17808164D01*
X164141159Y-17842299D01*
X164109500Y-18001459D01*
X122103251Y-18001459D01*
X122103228Y-17982337D01*
X122100481Y-15699480D01*
X122119861Y-15576159D01*
X122176401Y-15464862D01*
X122264566Y-15376485D01*
X122375727Y-15319677D01*
X122499001Y-15300000D01*
X197400520Y-15300000D01*
X197523818Y-15319528D01*
G37*
G04 #@! TD.AperFunction*
G04 #@! TD*
M02*
