G04 #@! TF.GenerationSoftware,KiCad,Pcbnew,9.0.0*
G04 #@! TF.CreationDate,2025-04-11T21:54:49+02:00*
G04 #@! TF.ProjectId,eConBadge,65436f6e-4261-4646-9765-2e6b69636164,rev?*
G04 #@! TF.SameCoordinates,Original*
G04 #@! TF.FileFunction,Soldermask,Top*
G04 #@! TF.FilePolarity,Negative*
%FSLAX46Y46*%
G04 Gerber Fmt 4.6, Leading zero omitted, Abs format (unit mm)*
G04 Created by KiCad (PCBNEW 9.0.0) date 2025-04-11 21:54:49*
%MOMM*%
%LPD*%
G01*
G04 APERTURE LIST*
G04 Aperture macros list*
%AMRoundRect*
0 Rectangle with rounded corners*
0 $1 Rounding radius*
0 $2 $3 $4 $5 $6 $7 $8 $9 X,Y pos of 4 corners*
0 Add a 4 corners polygon primitive as box body*
4,1,4,$2,$3,$4,$5,$6,$7,$8,$9,$2,$3,0*
0 Add four circle primitives for the rounded corners*
1,1,$1+$1,$2,$3*
1,1,$1+$1,$4,$5*
1,1,$1+$1,$6,$7*
1,1,$1+$1,$8,$9*
0 Add four rect primitives between the rounded corners*
20,1,$1+$1,$2,$3,$4,$5,0*
20,1,$1+$1,$4,$5,$6,$7,0*
20,1,$1+$1,$6,$7,$8,$9,0*
20,1,$1+$1,$8,$9,$2,$3,0*%
G04 Aperture macros list end*
%ADD10C,1.400000*%
%ADD11C,1.550000*%
%ADD12C,1.600000*%
%ADD13RoundRect,0.102000X-0.990000X0.990000X-0.990000X-0.990000X0.990000X-0.990000X0.990000X0.990000X0*%
%ADD14C,2.184000*%
%ADD15R,1.700000X1.700000*%
%ADD16O,1.700000X1.700000*%
%ADD17R,1.500000X1.500000*%
%ADD18R,1.200000X2.000000*%
%ADD19O,1.200000X2.000000*%
%ADD20O,1.400000X1.400000*%
G04 APERTURE END LIST*
D10*
G04 #@! TO.C,74AHCT125 *
X163120000Y-48530000D03*
X160580000Y-48530000D03*
X158040000Y-48530000D03*
X155500000Y-48530000D03*
X152960000Y-48530000D03*
X150420000Y-48530000D03*
X147880000Y-48530000D03*
X147880000Y-56470000D03*
X150420000Y-56470000D03*
X152960000Y-56470000D03*
X163120000Y-56470000D03*
X160580000Y-56470000D03*
X158040000Y-56470000D03*
X155500000Y-56470000D03*
G04 #@! TD*
D11*
G04 #@! TO.C,BackBtn*
X132300000Y-84200000D03*
X124340000Y-79700000D03*
X132300000Y-79700000D03*
X124340000Y-84200000D03*
G04 #@! TD*
D12*
G04 #@! TO.C,OLED*
X167940000Y-69100000D03*
X165400000Y-69100000D03*
X170480000Y-69100000D03*
X173020000Y-69100000D03*
G04 #@! TD*
D13*
G04 #@! TO.C,LED_EN_MOSFET*
X180322500Y-41475000D03*
D14*
X180322500Y-44015000D03*
X180322500Y-46555000D03*
G04 #@! TD*
D15*
G04 #@! TO.C,LEDConnector*
X188800000Y-55060000D03*
D16*
X188800000Y-57600000D03*
X188800000Y-60140000D03*
G04 #@! TD*
D12*
G04 #@! TO.C,4005-DCDC*
X144200000Y-35300000D03*
X144200000Y-18100000D03*
X184400000Y-35300000D03*
X184400000Y-18100000D03*
G04 #@! TD*
D15*
G04 #@! TO.C,EInkConnector*
X152540000Y-89800000D03*
D16*
X150000000Y-89800000D03*
X147460000Y-89800000D03*
X144920000Y-89800000D03*
X142380000Y-89800000D03*
X139840000Y-89800000D03*
X137300000Y-89800000D03*
X134760000Y-89800000D03*
G04 #@! TD*
D15*
G04 #@! TO.C,BATT-*
X195200000Y-23300000D03*
D16*
X195200000Y-20760000D03*
G04 #@! TD*
D17*
G04 #@! TO.C,SwitchOnOff*
X190500000Y-32700000D03*
D12*
X190500000Y-35240000D03*
X190500000Y-30160000D03*
G04 #@! TD*
D18*
G04 #@! TO.C,ESP32*
X170020000Y-39800000D03*
D19*
X167480000Y-39800000D03*
X164940000Y-39800000D03*
X162400000Y-39800000D03*
X159860000Y-39800000D03*
X157320000Y-39800000D03*
X154780000Y-39800000D03*
X152240000Y-39800000D03*
X149700000Y-39800000D03*
X147160000Y-39800000D03*
X144620000Y-39800000D03*
X142080000Y-39800000D03*
X139540000Y-39800000D03*
X137000000Y-39800000D03*
X134460000Y-39800000D03*
X131920000Y-39800000D03*
X129380000Y-39800000D03*
X126840000Y-39800000D03*
X124300000Y-39800000D03*
X124302720Y-65196320D03*
X126842720Y-65196320D03*
X129380000Y-65200000D03*
X131920000Y-65200000D03*
X134460000Y-65200000D03*
X137000000Y-65200000D03*
X139540000Y-65200000D03*
X142080000Y-65200000D03*
X144620000Y-65200000D03*
X147160000Y-65200000D03*
X149700000Y-65200000D03*
X152240000Y-65200000D03*
X154780000Y-65200000D03*
X157320000Y-65200000D03*
X159860000Y-65200000D03*
X162400000Y-65200000D03*
X164940000Y-65200000D03*
X167480000Y-65200000D03*
X170020000Y-65200000D03*
G04 #@! TD*
D11*
G04 #@! TO.C,DownBtn*
X143300000Y-84200000D03*
X135340000Y-79700000D03*
X143300000Y-79700000D03*
X135340000Y-84200000D03*
G04 #@! TD*
G04 #@! TO.C,UpBtn*
X135340000Y-70700000D03*
X143300000Y-70700000D03*
X135340000Y-75200000D03*
X143300000Y-75200000D03*
G04 #@! TD*
G04 #@! TO.C,EnterBtn*
X154300000Y-84200000D03*
X146340000Y-79700000D03*
X154300000Y-79700000D03*
X146340000Y-84200000D03*
G04 #@! TD*
D12*
G04 #@! TO.C,SDCardReader*
X125480000Y-34920000D03*
X128020000Y-34920000D03*
X130560000Y-34920000D03*
X133100000Y-34920000D03*
X135640000Y-34920000D03*
X138180000Y-34920000D03*
G04 #@! TD*
D10*
G04 #@! TO.C,10K LED_MOSFET*
X174900000Y-49110000D03*
D20*
X174900000Y-41490000D03*
G04 #@! TD*
D10*
G04 #@! TO.C,R2 20K*
X165110000Y-18100000D03*
D20*
X157490000Y-18100000D03*
G04 #@! TD*
D10*
G04 #@! TO.C,330 LED_DATA_R*
X183310000Y-57500000D03*
D20*
X175690000Y-57500000D03*
G04 #@! TD*
D10*
G04 #@! TO.C,R1 220K*
X176720000Y-18100000D03*
D20*
X169100000Y-18100000D03*
G04 #@! TD*
M02*
