M48
; DRILL file {KiCad 9.0.0} date 2025-04-11T21:54:36+0200
; FORMAT={-:-/ absolute / metric / decimal}
; #@! TF.CreationDate,2025-04-11T21:54:36+02:00
; #@! TF.GenerationSoftware,Kicad,Pcbnew,9.0.0
; #@! TF.FileFunction,Plated,1,2,PTH
FMAT,2
METRIC
; #@! TA.AperFunction,Plated,PTH,ComponentDrill
T1C0.700
; #@! TA.AperFunction,Plated,PTH,ComponentDrill
T2C0.800
; #@! TA.AperFunction,Plated,PTH,ComponentDrill
T3C1.000
; #@! TA.AperFunction,Plated,PTH,ComponentDrill
T4C1.320
%
G90
G05
T1
X147.88Y-48.53
X147.88Y-56.47
X150.42Y-48.53
X150.42Y-56.47
X152.96Y-48.53
X152.96Y-56.47
X155.5Y-48.53
X155.5Y-56.47
X157.49Y-18.1
X158.04Y-48.53
X158.04Y-56.47
X160.58Y-48.53
X160.58Y-56.47
X163.12Y-48.53
X163.12Y-56.47
X165.11Y-18.1
X169.1Y-18.1
X174.9Y-41.49
X174.9Y-49.11
X175.69Y-57.5
X176.72Y-18.1
X183.31Y-57.5
T2
X124.3Y-39.8
X124.303Y-65.196
X124.34Y-79.7
X124.34Y-84.2
X125.48Y-34.92
X126.84Y-39.8
X126.843Y-65.196
X128.02Y-34.92
X129.38Y-39.8
X129.38Y-65.2
X130.56Y-34.92
X131.92Y-39.8
X131.92Y-65.2
X132.3Y-79.7
X132.3Y-84.2
X133.1Y-34.92
X134.46Y-39.8
X134.46Y-65.2
X135.34Y-70.7
X135.34Y-75.2
X135.34Y-79.7
X135.34Y-84.2
X135.64Y-34.92
X137.0Y-39.8
X137.0Y-65.2
X138.18Y-34.92
X139.54Y-39.8
X139.54Y-65.2
X142.08Y-39.8
X142.08Y-65.2
X143.3Y-70.7
X143.3Y-75.2
X143.3Y-79.7
X143.3Y-84.2
X144.2Y-18.1
X144.2Y-35.3
X144.62Y-39.8
X144.62Y-65.2
X146.34Y-79.7
X146.34Y-84.2
X147.16Y-39.8
X147.16Y-65.2
X149.7Y-39.8
X149.7Y-65.2
X152.24Y-39.8
X152.24Y-65.2
X154.3Y-79.7
X154.3Y-84.2
X154.78Y-39.8
X154.78Y-65.2
X157.32Y-39.8
X157.32Y-65.2
X159.86Y-39.8
X159.86Y-65.2
X162.4Y-39.8
X162.4Y-65.2
X164.94Y-39.8
X164.94Y-65.2
X165.4Y-69.1
X167.48Y-39.8
X167.48Y-65.2
X167.94Y-69.1
X170.02Y-39.8
X170.02Y-65.2
X170.48Y-69.1
X173.02Y-69.1
X184.4Y-18.1
X184.4Y-35.3
X190.5Y-30.16
X190.5Y-32.7
X190.5Y-35.24
T3
X134.76Y-89.8
X137.3Y-89.8
X139.84Y-89.8
X142.38Y-89.8
X144.92Y-89.8
X147.46Y-89.8
X150.0Y-89.8
X152.54Y-89.8
X188.8Y-55.06
X188.8Y-57.6
X188.8Y-60.14
X195.2Y-20.76
X195.2Y-23.3
T4
X180.322Y-41.475
X180.322Y-44.015
X180.322Y-46.555
M30
