G04 #@! TF.GenerationSoftware,KiCad,Pcbnew,9.0.0*
G04 #@! TF.CreationDate,2025-04-11T21:54:49+02:00*
G04 #@! TF.ProjectId,eConBadge,65436f6e-4261-4646-9765-2e6b69636164,rev?*
G04 #@! TF.SameCoordinates,Original*
G04 #@! TF.FileFunction,Legend,Bot*
G04 #@! TF.FilePolarity,Positive*
%FSLAX46Y46*%
G04 Gerber Fmt 4.6, Leading zero omitted, Abs format (unit mm)*
G04 Created by KiCad (PCBNEW 9.0.0) date 2025-04-11 21:54:49*
%MOMM*%
%LPD*%
G01*
G04 APERTURE LIST*
%ADD10C,0.150000*%
%ADD11C,0.100000*%
%ADD12C,0.127000*%
%ADD13C,0.120000*%
%ADD14C,1.400000*%
%ADD15C,1.550000*%
%ADD16C,1.600000*%
%ADD17R,1.980000X1.980000*%
%ADD18C,1.980000*%
%ADD19R,1.700000X1.700000*%
%ADD20O,1.700000X1.700000*%
%ADD21R,1.500000X1.500000*%
%ADD22R,1.200000X2.000000*%
%ADD23O,1.200000X2.000000*%
%ADD24O,1.400000X1.400000*%
G04 APERTURE END LIST*
D10*
X149953990Y-95963220D02*
X149953990Y-95629887D01*
X149430180Y-95487030D02*
X149430180Y-95963220D01*
X149430180Y-95963220D02*
X150430180Y-95963220D01*
X150430180Y-95963220D02*
X150430180Y-95487030D01*
X149334942Y-95296554D02*
X149334942Y-94534649D01*
X150382561Y-93772744D02*
X150430180Y-93867982D01*
X150430180Y-93867982D02*
X150430180Y-94010839D01*
X150430180Y-94010839D02*
X150382561Y-94153696D01*
X150382561Y-94153696D02*
X150287323Y-94248934D01*
X150287323Y-94248934D02*
X150192085Y-94296553D01*
X150192085Y-94296553D02*
X150001609Y-94344172D01*
X150001609Y-94344172D02*
X149858752Y-94344172D01*
X149858752Y-94344172D02*
X149668276Y-94296553D01*
X149668276Y-94296553D02*
X149573038Y-94248934D01*
X149573038Y-94248934D02*
X149477800Y-94153696D01*
X149477800Y-94153696D02*
X149430180Y-94010839D01*
X149430180Y-94010839D02*
X149430180Y-93915601D01*
X149430180Y-93915601D02*
X149477800Y-93772744D01*
X149477800Y-93772744D02*
X149525419Y-93725125D01*
X149525419Y-93725125D02*
X149858752Y-93725125D01*
X149858752Y-93725125D02*
X149858752Y-93915601D01*
X149430180Y-93296553D02*
X150430180Y-93296553D01*
X150430180Y-93296553D02*
X149430180Y-92725125D01*
X149430180Y-92725125D02*
X150430180Y-92725125D01*
X149430180Y-92248934D02*
X150430180Y-92248934D01*
X150430180Y-92248934D02*
X150430180Y-92010839D01*
X150430180Y-92010839D02*
X150382561Y-91867982D01*
X150382561Y-91867982D02*
X150287323Y-91772744D01*
X150287323Y-91772744D02*
X150192085Y-91725125D01*
X150192085Y-91725125D02*
X150001609Y-91677506D01*
X150001609Y-91677506D02*
X149858752Y-91677506D01*
X149858752Y-91677506D02*
X149668276Y-91725125D01*
X149668276Y-91725125D02*
X149573038Y-91772744D01*
X149573038Y-91772744D02*
X149477800Y-91867982D01*
X149477800Y-91867982D02*
X149430180Y-92010839D01*
X149430180Y-92010839D02*
X149430180Y-92248934D01*
X190812969Y-59730180D02*
X190336779Y-59730180D01*
X190336779Y-59730180D02*
X190336779Y-60730180D01*
X190908208Y-59634942D02*
X191670112Y-59634942D01*
X192384398Y-60730180D02*
X191908208Y-60730180D01*
X191908208Y-60730180D02*
X191860589Y-60253990D01*
X191860589Y-60253990D02*
X191908208Y-60301609D01*
X191908208Y-60301609D02*
X192003446Y-60349228D01*
X192003446Y-60349228D02*
X192241541Y-60349228D01*
X192241541Y-60349228D02*
X192336779Y-60301609D01*
X192336779Y-60301609D02*
X192384398Y-60253990D01*
X192384398Y-60253990D02*
X192432017Y-60158752D01*
X192432017Y-60158752D02*
X192432017Y-59920657D01*
X192432017Y-59920657D02*
X192384398Y-59825419D01*
X192384398Y-59825419D02*
X192336779Y-59777800D01*
X192336779Y-59777800D02*
X192241541Y-59730180D01*
X192241541Y-59730180D02*
X192003446Y-59730180D01*
X192003446Y-59730180D02*
X191908208Y-59777800D01*
X191908208Y-59777800D02*
X191860589Y-59825419D01*
X192717732Y-60730180D02*
X193051065Y-59730180D01*
X193051065Y-59730180D02*
X193384398Y-60730180D01*
X142253990Y-94863220D02*
X142253990Y-94529887D01*
X141730180Y-94387030D02*
X141730180Y-94863220D01*
X141730180Y-94863220D02*
X142730180Y-94863220D01*
X142730180Y-94863220D02*
X142730180Y-94387030D01*
X141634942Y-94196554D02*
X141634942Y-93434649D01*
X141825419Y-92625125D02*
X141777800Y-92672744D01*
X141777800Y-92672744D02*
X141730180Y-92815601D01*
X141730180Y-92815601D02*
X141730180Y-92910839D01*
X141730180Y-92910839D02*
X141777800Y-93053696D01*
X141777800Y-93053696D02*
X141873038Y-93148934D01*
X141873038Y-93148934D02*
X141968276Y-93196553D01*
X141968276Y-93196553D02*
X142158752Y-93244172D01*
X142158752Y-93244172D02*
X142301609Y-93244172D01*
X142301609Y-93244172D02*
X142492085Y-93196553D01*
X142492085Y-93196553D02*
X142587323Y-93148934D01*
X142587323Y-93148934D02*
X142682561Y-93053696D01*
X142682561Y-93053696D02*
X142730180Y-92910839D01*
X142730180Y-92910839D02*
X142730180Y-92815601D01*
X142730180Y-92815601D02*
X142682561Y-92672744D01*
X142682561Y-92672744D02*
X142634942Y-92625125D01*
X141777800Y-92244172D02*
X141730180Y-92101315D01*
X141730180Y-92101315D02*
X141730180Y-91863220D01*
X141730180Y-91863220D02*
X141777800Y-91767982D01*
X141777800Y-91767982D02*
X141825419Y-91720363D01*
X141825419Y-91720363D02*
X141920657Y-91672744D01*
X141920657Y-91672744D02*
X142015895Y-91672744D01*
X142015895Y-91672744D02*
X142111133Y-91720363D01*
X142111133Y-91720363D02*
X142158752Y-91767982D01*
X142158752Y-91767982D02*
X142206371Y-91863220D01*
X142206371Y-91863220D02*
X142253990Y-92053696D01*
X142253990Y-92053696D02*
X142301609Y-92148934D01*
X142301609Y-92148934D02*
X142349228Y-92196553D01*
X142349228Y-92196553D02*
X142444466Y-92244172D01*
X142444466Y-92244172D02*
X142539704Y-92244172D01*
X142539704Y-92244172D02*
X142634942Y-92196553D01*
X142634942Y-92196553D02*
X142682561Y-92148934D01*
X142682561Y-92148934D02*
X142730180Y-92053696D01*
X142730180Y-92053696D02*
X142730180Y-91815601D01*
X142730180Y-91815601D02*
X142682561Y-91672744D01*
X137153990Y-97463220D02*
X137153990Y-97129887D01*
X136630180Y-96987030D02*
X136630180Y-97463220D01*
X136630180Y-97463220D02*
X137630180Y-97463220D01*
X137630180Y-97463220D02*
X137630180Y-96987030D01*
X136534942Y-96796554D02*
X136534942Y-96034649D01*
X136630180Y-95225125D02*
X137106371Y-95558458D01*
X136630180Y-95796553D02*
X137630180Y-95796553D01*
X137630180Y-95796553D02*
X137630180Y-95415601D01*
X137630180Y-95415601D02*
X137582561Y-95320363D01*
X137582561Y-95320363D02*
X137534942Y-95272744D01*
X137534942Y-95272744D02*
X137439704Y-95225125D01*
X137439704Y-95225125D02*
X137296847Y-95225125D01*
X137296847Y-95225125D02*
X137201609Y-95272744D01*
X137201609Y-95272744D02*
X137153990Y-95320363D01*
X137153990Y-95320363D02*
X137106371Y-95415601D01*
X137106371Y-95415601D02*
X137106371Y-95796553D01*
X137153990Y-94796553D02*
X137153990Y-94463220D01*
X136630180Y-94320363D02*
X136630180Y-94796553D01*
X136630180Y-94796553D02*
X137630180Y-94796553D01*
X137630180Y-94796553D02*
X137630180Y-94320363D01*
X136677800Y-93939410D02*
X136630180Y-93796553D01*
X136630180Y-93796553D02*
X136630180Y-93558458D01*
X136630180Y-93558458D02*
X136677800Y-93463220D01*
X136677800Y-93463220D02*
X136725419Y-93415601D01*
X136725419Y-93415601D02*
X136820657Y-93367982D01*
X136820657Y-93367982D02*
X136915895Y-93367982D01*
X136915895Y-93367982D02*
X137011133Y-93415601D01*
X137011133Y-93415601D02*
X137058752Y-93463220D01*
X137058752Y-93463220D02*
X137106371Y-93558458D01*
X137106371Y-93558458D02*
X137153990Y-93748934D01*
X137153990Y-93748934D02*
X137201609Y-93844172D01*
X137201609Y-93844172D02*
X137249228Y-93891791D01*
X137249228Y-93891791D02*
X137344466Y-93939410D01*
X137344466Y-93939410D02*
X137439704Y-93939410D01*
X137439704Y-93939410D02*
X137534942Y-93891791D01*
X137534942Y-93891791D02*
X137582561Y-93844172D01*
X137582561Y-93844172D02*
X137630180Y-93748934D01*
X137630180Y-93748934D02*
X137630180Y-93510839D01*
X137630180Y-93510839D02*
X137582561Y-93367982D01*
X137153990Y-92939410D02*
X137153990Y-92606077D01*
X136630180Y-92463220D02*
X136630180Y-92939410D01*
X136630180Y-92939410D02*
X137630180Y-92939410D01*
X137630180Y-92939410D02*
X137630180Y-92463220D01*
X137630180Y-92177505D02*
X137630180Y-91606077D01*
X136630180Y-91891791D02*
X137630180Y-91891791D01*
X134553990Y-96863220D02*
X134553990Y-96529887D01*
X134030180Y-96387030D02*
X134030180Y-96863220D01*
X134030180Y-96863220D02*
X135030180Y-96863220D01*
X135030180Y-96863220D02*
X135030180Y-96387030D01*
X133934942Y-96196554D02*
X133934942Y-95434649D01*
X134553990Y-94863220D02*
X134506371Y-94720363D01*
X134506371Y-94720363D02*
X134458752Y-94672744D01*
X134458752Y-94672744D02*
X134363514Y-94625125D01*
X134363514Y-94625125D02*
X134220657Y-94625125D01*
X134220657Y-94625125D02*
X134125419Y-94672744D01*
X134125419Y-94672744D02*
X134077800Y-94720363D01*
X134077800Y-94720363D02*
X134030180Y-94815601D01*
X134030180Y-94815601D02*
X134030180Y-95196553D01*
X134030180Y-95196553D02*
X135030180Y-95196553D01*
X135030180Y-95196553D02*
X135030180Y-94863220D01*
X135030180Y-94863220D02*
X134982561Y-94767982D01*
X134982561Y-94767982D02*
X134934942Y-94720363D01*
X134934942Y-94720363D02*
X134839704Y-94672744D01*
X134839704Y-94672744D02*
X134744466Y-94672744D01*
X134744466Y-94672744D02*
X134649228Y-94720363D01*
X134649228Y-94720363D02*
X134601609Y-94767982D01*
X134601609Y-94767982D02*
X134553990Y-94863220D01*
X134553990Y-94863220D02*
X134553990Y-95196553D01*
X135030180Y-94196553D02*
X134220657Y-94196553D01*
X134220657Y-94196553D02*
X134125419Y-94148934D01*
X134125419Y-94148934D02*
X134077800Y-94101315D01*
X134077800Y-94101315D02*
X134030180Y-94006077D01*
X134030180Y-94006077D02*
X134030180Y-93815601D01*
X134030180Y-93815601D02*
X134077800Y-93720363D01*
X134077800Y-93720363D02*
X134125419Y-93672744D01*
X134125419Y-93672744D02*
X134220657Y-93625125D01*
X134220657Y-93625125D02*
X135030180Y-93625125D01*
X134077800Y-93196553D02*
X134030180Y-93053696D01*
X134030180Y-93053696D02*
X134030180Y-92815601D01*
X134030180Y-92815601D02*
X134077800Y-92720363D01*
X134077800Y-92720363D02*
X134125419Y-92672744D01*
X134125419Y-92672744D02*
X134220657Y-92625125D01*
X134220657Y-92625125D02*
X134315895Y-92625125D01*
X134315895Y-92625125D02*
X134411133Y-92672744D01*
X134411133Y-92672744D02*
X134458752Y-92720363D01*
X134458752Y-92720363D02*
X134506371Y-92815601D01*
X134506371Y-92815601D02*
X134553990Y-93006077D01*
X134553990Y-93006077D02*
X134601609Y-93101315D01*
X134601609Y-93101315D02*
X134649228Y-93148934D01*
X134649228Y-93148934D02*
X134744466Y-93196553D01*
X134744466Y-93196553D02*
X134839704Y-93196553D01*
X134839704Y-93196553D02*
X134934942Y-93148934D01*
X134934942Y-93148934D02*
X134982561Y-93101315D01*
X134982561Y-93101315D02*
X135030180Y-93006077D01*
X135030180Y-93006077D02*
X135030180Y-92767982D01*
X135030180Y-92767982D02*
X134982561Y-92625125D01*
X134506371Y-92006077D02*
X134030180Y-92006077D01*
X135030180Y-92339410D02*
X134506371Y-92006077D01*
X134506371Y-92006077D02*
X135030180Y-91672744D01*
X139753990Y-94863220D02*
X139753990Y-94529887D01*
X139230180Y-94387030D02*
X139230180Y-94863220D01*
X139230180Y-94863220D02*
X140230180Y-94863220D01*
X140230180Y-94863220D02*
X140230180Y-94387030D01*
X139134942Y-94196554D02*
X139134942Y-93434649D01*
X139230180Y-93196553D02*
X140230180Y-93196553D01*
X140230180Y-93196553D02*
X140230180Y-92958458D01*
X140230180Y-92958458D02*
X140182561Y-92815601D01*
X140182561Y-92815601D02*
X140087323Y-92720363D01*
X140087323Y-92720363D02*
X139992085Y-92672744D01*
X139992085Y-92672744D02*
X139801609Y-92625125D01*
X139801609Y-92625125D02*
X139658752Y-92625125D01*
X139658752Y-92625125D02*
X139468276Y-92672744D01*
X139468276Y-92672744D02*
X139373038Y-92720363D01*
X139373038Y-92720363D02*
X139277800Y-92815601D01*
X139277800Y-92815601D02*
X139230180Y-92958458D01*
X139230180Y-92958458D02*
X139230180Y-93196553D01*
X139325419Y-91625125D02*
X139277800Y-91672744D01*
X139277800Y-91672744D02*
X139230180Y-91815601D01*
X139230180Y-91815601D02*
X139230180Y-91910839D01*
X139230180Y-91910839D02*
X139277800Y-92053696D01*
X139277800Y-92053696D02*
X139373038Y-92148934D01*
X139373038Y-92148934D02*
X139468276Y-92196553D01*
X139468276Y-92196553D02*
X139658752Y-92244172D01*
X139658752Y-92244172D02*
X139801609Y-92244172D01*
X139801609Y-92244172D02*
X139992085Y-92196553D01*
X139992085Y-92196553D02*
X140087323Y-92148934D01*
X140087323Y-92148934D02*
X140182561Y-92053696D01*
X140182561Y-92053696D02*
X140230180Y-91910839D01*
X140230180Y-91910839D02*
X140230180Y-91815601D01*
X140230180Y-91815601D02*
X140182561Y-91672744D01*
X140182561Y-91672744D02*
X140134942Y-91625125D01*
X152453990Y-98163220D02*
X152453990Y-97829887D01*
X151930180Y-97687030D02*
X151930180Y-98163220D01*
X151930180Y-98163220D02*
X152930180Y-98163220D01*
X152930180Y-98163220D02*
X152930180Y-97687030D01*
X151834942Y-97496554D02*
X151834942Y-96734649D01*
X152930180Y-96639410D02*
X151930180Y-96306077D01*
X151930180Y-96306077D02*
X152930180Y-95972744D01*
X152025419Y-95067982D02*
X151977800Y-95115601D01*
X151977800Y-95115601D02*
X151930180Y-95258458D01*
X151930180Y-95258458D02*
X151930180Y-95353696D01*
X151930180Y-95353696D02*
X151977800Y-95496553D01*
X151977800Y-95496553D02*
X152073038Y-95591791D01*
X152073038Y-95591791D02*
X152168276Y-95639410D01*
X152168276Y-95639410D02*
X152358752Y-95687029D01*
X152358752Y-95687029D02*
X152501609Y-95687029D01*
X152501609Y-95687029D02*
X152692085Y-95639410D01*
X152692085Y-95639410D02*
X152787323Y-95591791D01*
X152787323Y-95591791D02*
X152882561Y-95496553D01*
X152882561Y-95496553D02*
X152930180Y-95353696D01*
X152930180Y-95353696D02*
X152930180Y-95258458D01*
X152930180Y-95258458D02*
X152882561Y-95115601D01*
X152882561Y-95115601D02*
X152834942Y-95067982D01*
X152025419Y-94067982D02*
X151977800Y-94115601D01*
X151977800Y-94115601D02*
X151930180Y-94258458D01*
X151930180Y-94258458D02*
X151930180Y-94353696D01*
X151930180Y-94353696D02*
X151977800Y-94496553D01*
X151977800Y-94496553D02*
X152073038Y-94591791D01*
X152073038Y-94591791D02*
X152168276Y-94639410D01*
X152168276Y-94639410D02*
X152358752Y-94687029D01*
X152358752Y-94687029D02*
X152501609Y-94687029D01*
X152501609Y-94687029D02*
X152692085Y-94639410D01*
X152692085Y-94639410D02*
X152787323Y-94591791D01*
X152787323Y-94591791D02*
X152882561Y-94496553D01*
X152882561Y-94496553D02*
X152930180Y-94353696D01*
X152930180Y-94353696D02*
X152930180Y-94258458D01*
X152930180Y-94258458D02*
X152882561Y-94115601D01*
X152882561Y-94115601D02*
X152834942Y-94067982D01*
X152930180Y-93734648D02*
X152930180Y-93115601D01*
X152930180Y-93115601D02*
X152549228Y-93448934D01*
X152549228Y-93448934D02*
X152549228Y-93306077D01*
X152549228Y-93306077D02*
X152501609Y-93210839D01*
X152501609Y-93210839D02*
X152453990Y-93163220D01*
X152453990Y-93163220D02*
X152358752Y-93115601D01*
X152358752Y-93115601D02*
X152120657Y-93115601D01*
X152120657Y-93115601D02*
X152025419Y-93163220D01*
X152025419Y-93163220D02*
X151977800Y-93210839D01*
X151977800Y-93210839D02*
X151930180Y-93306077D01*
X151930180Y-93306077D02*
X151930180Y-93591791D01*
X151930180Y-93591791D02*
X151977800Y-93687029D01*
X151977800Y-93687029D02*
X152025419Y-93734648D01*
X152025419Y-92687029D02*
X151977800Y-92639410D01*
X151977800Y-92639410D02*
X151930180Y-92687029D01*
X151930180Y-92687029D02*
X151977800Y-92734648D01*
X151977800Y-92734648D02*
X152025419Y-92687029D01*
X152025419Y-92687029D02*
X151930180Y-92687029D01*
X152930180Y-92306077D02*
X152930180Y-91687030D01*
X152930180Y-91687030D02*
X152549228Y-92020363D01*
X152549228Y-92020363D02*
X152549228Y-91877506D01*
X152549228Y-91877506D02*
X152501609Y-91782268D01*
X152501609Y-91782268D02*
X152453990Y-91734649D01*
X152453990Y-91734649D02*
X152358752Y-91687030D01*
X152358752Y-91687030D02*
X152120657Y-91687030D01*
X152120657Y-91687030D02*
X152025419Y-91734649D01*
X152025419Y-91734649D02*
X151977800Y-91782268D01*
X151977800Y-91782268D02*
X151930180Y-91877506D01*
X151930180Y-91877506D02*
X151930180Y-92163220D01*
X151930180Y-92163220D02*
X151977800Y-92258458D01*
X151977800Y-92258458D02*
X152025419Y-92306077D01*
X147353990Y-95363220D02*
X147353990Y-95029887D01*
X146830180Y-94887030D02*
X146830180Y-95363220D01*
X146830180Y-95363220D02*
X147830180Y-95363220D01*
X147830180Y-95363220D02*
X147830180Y-94887030D01*
X146734942Y-94696554D02*
X146734942Y-93934649D01*
X146830180Y-93696553D02*
X147830180Y-93696553D01*
X147830180Y-93696553D02*
X147830180Y-93458458D01*
X147830180Y-93458458D02*
X147782561Y-93315601D01*
X147782561Y-93315601D02*
X147687323Y-93220363D01*
X147687323Y-93220363D02*
X147592085Y-93172744D01*
X147592085Y-93172744D02*
X147401609Y-93125125D01*
X147401609Y-93125125D02*
X147258752Y-93125125D01*
X147258752Y-93125125D02*
X147068276Y-93172744D01*
X147068276Y-93172744D02*
X146973038Y-93220363D01*
X146973038Y-93220363D02*
X146877800Y-93315601D01*
X146877800Y-93315601D02*
X146830180Y-93458458D01*
X146830180Y-93458458D02*
X146830180Y-93696553D01*
X146830180Y-92696553D02*
X147830180Y-92696553D01*
X146830180Y-92220363D02*
X147830180Y-92220363D01*
X147830180Y-92220363D02*
X146830180Y-91648935D01*
X146830180Y-91648935D02*
X147830180Y-91648935D01*
X190812969Y-57130180D02*
X190336779Y-57130180D01*
X190336779Y-57130180D02*
X190336779Y-58130180D01*
X190908208Y-57034942D02*
X191670112Y-57034942D01*
X191908208Y-57130180D02*
X191908208Y-58130180D01*
X191908208Y-58130180D02*
X192146303Y-58130180D01*
X192146303Y-58130180D02*
X192289160Y-58082561D01*
X192289160Y-58082561D02*
X192384398Y-57987323D01*
X192384398Y-57987323D02*
X192432017Y-57892085D01*
X192432017Y-57892085D02*
X192479636Y-57701609D01*
X192479636Y-57701609D02*
X192479636Y-57558752D01*
X192479636Y-57558752D02*
X192432017Y-57368276D01*
X192432017Y-57368276D02*
X192384398Y-57273038D01*
X192384398Y-57273038D02*
X192289160Y-57177800D01*
X192289160Y-57177800D02*
X192146303Y-57130180D01*
X192146303Y-57130180D02*
X191908208Y-57130180D01*
X190812969Y-54730180D02*
X190336779Y-54730180D01*
X190336779Y-54730180D02*
X190336779Y-55730180D01*
X190908208Y-54634942D02*
X191670112Y-54634942D01*
X192432017Y-55682561D02*
X192336779Y-55730180D01*
X192336779Y-55730180D02*
X192193922Y-55730180D01*
X192193922Y-55730180D02*
X192051065Y-55682561D01*
X192051065Y-55682561D02*
X191955827Y-55587323D01*
X191955827Y-55587323D02*
X191908208Y-55492085D01*
X191908208Y-55492085D02*
X191860589Y-55301609D01*
X191860589Y-55301609D02*
X191860589Y-55158752D01*
X191860589Y-55158752D02*
X191908208Y-54968276D01*
X191908208Y-54968276D02*
X191955827Y-54873038D01*
X191955827Y-54873038D02*
X192051065Y-54777800D01*
X192051065Y-54777800D02*
X192193922Y-54730180D01*
X192193922Y-54730180D02*
X192289160Y-54730180D01*
X192289160Y-54730180D02*
X192432017Y-54777800D01*
X192432017Y-54777800D02*
X192479636Y-54825419D01*
X192479636Y-54825419D02*
X192479636Y-55158752D01*
X192479636Y-55158752D02*
X192289160Y-55158752D01*
X192908208Y-54730180D02*
X192908208Y-55730180D01*
X192908208Y-55730180D02*
X193479636Y-54730180D01*
X193479636Y-54730180D02*
X193479636Y-55730180D01*
X193955827Y-54730180D02*
X193955827Y-55730180D01*
X193955827Y-55730180D02*
X194193922Y-55730180D01*
X194193922Y-55730180D02*
X194336779Y-55682561D01*
X194336779Y-55682561D02*
X194432017Y-55587323D01*
X194432017Y-55587323D02*
X194479636Y-55492085D01*
X194479636Y-55492085D02*
X194527255Y-55301609D01*
X194527255Y-55301609D02*
X194527255Y-55158752D01*
X194527255Y-55158752D02*
X194479636Y-54968276D01*
X194479636Y-54968276D02*
X194432017Y-54873038D01*
X194432017Y-54873038D02*
X194336779Y-54777800D01*
X194336779Y-54777800D02*
X194193922Y-54730180D01*
X194193922Y-54730180D02*
X193955827Y-54730180D01*
X145053990Y-95763220D02*
X145053990Y-95429887D01*
X144530180Y-95287030D02*
X144530180Y-95763220D01*
X144530180Y-95763220D02*
X145530180Y-95763220D01*
X145530180Y-95763220D02*
X145530180Y-95287030D01*
X144434942Y-95096554D02*
X144434942Y-94334649D01*
X144625419Y-93525125D02*
X144577800Y-93572744D01*
X144577800Y-93572744D02*
X144530180Y-93715601D01*
X144530180Y-93715601D02*
X144530180Y-93810839D01*
X144530180Y-93810839D02*
X144577800Y-93953696D01*
X144577800Y-93953696D02*
X144673038Y-94048934D01*
X144673038Y-94048934D02*
X144768276Y-94096553D01*
X144768276Y-94096553D02*
X144958752Y-94144172D01*
X144958752Y-94144172D02*
X145101609Y-94144172D01*
X145101609Y-94144172D02*
X145292085Y-94096553D01*
X145292085Y-94096553D02*
X145387323Y-94048934D01*
X145387323Y-94048934D02*
X145482561Y-93953696D01*
X145482561Y-93953696D02*
X145530180Y-93810839D01*
X145530180Y-93810839D02*
X145530180Y-93715601D01*
X145530180Y-93715601D02*
X145482561Y-93572744D01*
X145482561Y-93572744D02*
X145434942Y-93525125D01*
X144530180Y-92620363D02*
X144530180Y-93096553D01*
X144530180Y-93096553D02*
X145530180Y-93096553D01*
X144530180Y-92287029D02*
X145530180Y-92287029D01*
X144530180Y-91715601D02*
X145101609Y-92144172D01*
X145530180Y-91715601D02*
X144958752Y-92287029D01*
X165729819Y-47547619D02*
X165729819Y-48214285D01*
X165729819Y-48214285D02*
X166729819Y-47785714D01*
X166063152Y-49023809D02*
X166729819Y-49023809D01*
X165682200Y-48785714D02*
X166396485Y-48547619D01*
X166396485Y-48547619D02*
X166396485Y-49166666D01*
X166444104Y-49500000D02*
X166444104Y-49976190D01*
X166729819Y-49404762D02*
X165729819Y-49738095D01*
X165729819Y-49738095D02*
X166729819Y-50071428D01*
X166729819Y-50404762D02*
X165729819Y-50404762D01*
X166206009Y-50404762D02*
X166206009Y-50976190D01*
X166729819Y-50976190D02*
X165729819Y-50976190D01*
X166634580Y-52023809D02*
X166682200Y-51976190D01*
X166682200Y-51976190D02*
X166729819Y-51833333D01*
X166729819Y-51833333D02*
X166729819Y-51738095D01*
X166729819Y-51738095D02*
X166682200Y-51595238D01*
X166682200Y-51595238D02*
X166586961Y-51500000D01*
X166586961Y-51500000D02*
X166491723Y-51452381D01*
X166491723Y-51452381D02*
X166301247Y-51404762D01*
X166301247Y-51404762D02*
X166158390Y-51404762D01*
X166158390Y-51404762D02*
X165967914Y-51452381D01*
X165967914Y-51452381D02*
X165872676Y-51500000D01*
X165872676Y-51500000D02*
X165777438Y-51595238D01*
X165777438Y-51595238D02*
X165729819Y-51738095D01*
X165729819Y-51738095D02*
X165729819Y-51833333D01*
X165729819Y-51833333D02*
X165777438Y-51976190D01*
X165777438Y-51976190D02*
X165825057Y-52023809D01*
X165729819Y-52309524D02*
X165729819Y-52880952D01*
X166729819Y-52595238D02*
X165729819Y-52595238D01*
X166729819Y-53738095D02*
X166729819Y-53166667D01*
X166729819Y-53452381D02*
X165729819Y-53452381D01*
X165729819Y-53452381D02*
X165872676Y-53357143D01*
X165872676Y-53357143D02*
X165967914Y-53261905D01*
X165967914Y-53261905D02*
X166015533Y-53166667D01*
X165825057Y-54119048D02*
X165777438Y-54166667D01*
X165777438Y-54166667D02*
X165729819Y-54261905D01*
X165729819Y-54261905D02*
X165729819Y-54500000D01*
X165729819Y-54500000D02*
X165777438Y-54595238D01*
X165777438Y-54595238D02*
X165825057Y-54642857D01*
X165825057Y-54642857D02*
X165920295Y-54690476D01*
X165920295Y-54690476D02*
X166015533Y-54690476D01*
X166015533Y-54690476D02*
X166158390Y-54642857D01*
X166158390Y-54642857D02*
X166729819Y-54071429D01*
X166729819Y-54071429D02*
X166729819Y-54690476D01*
X165729819Y-55595238D02*
X165729819Y-55119048D01*
X165729819Y-55119048D02*
X166206009Y-55071429D01*
X166206009Y-55071429D02*
X166158390Y-55119048D01*
X166158390Y-55119048D02*
X166110771Y-55214286D01*
X166110771Y-55214286D02*
X166110771Y-55452381D01*
X166110771Y-55452381D02*
X166158390Y-55547619D01*
X166158390Y-55547619D02*
X166206009Y-55595238D01*
X166206009Y-55595238D02*
X166301247Y-55642857D01*
X166301247Y-55642857D02*
X166539342Y-55642857D01*
X166539342Y-55642857D02*
X166634580Y-55595238D01*
X166634580Y-55595238D02*
X166682200Y-55547619D01*
X166682200Y-55547619D02*
X166729819Y-55452381D01*
X166729819Y-55452381D02*
X166729819Y-55214286D01*
X166729819Y-55214286D02*
X166682200Y-55119048D01*
X166682200Y-55119048D02*
X166634580Y-55071429D01*
D11*
X148079961Y-60172306D02*
X148127580Y-60267544D01*
X148127580Y-60267544D02*
X148127580Y-60410401D01*
X148127580Y-60410401D02*
X148079961Y-60553258D01*
X148079961Y-60553258D02*
X147984723Y-60648496D01*
X147984723Y-60648496D02*
X147889485Y-60696115D01*
X147889485Y-60696115D02*
X147699009Y-60743734D01*
X147699009Y-60743734D02*
X147556152Y-60743734D01*
X147556152Y-60743734D02*
X147365676Y-60696115D01*
X147365676Y-60696115D02*
X147270438Y-60648496D01*
X147270438Y-60648496D02*
X147175200Y-60553258D01*
X147175200Y-60553258D02*
X147127580Y-60410401D01*
X147127580Y-60410401D02*
X147127580Y-60315163D01*
X147127580Y-60315163D02*
X147175200Y-60172306D01*
X147175200Y-60172306D02*
X147222819Y-60124687D01*
X147222819Y-60124687D02*
X147556152Y-60124687D01*
X147556152Y-60124687D02*
X147556152Y-60315163D01*
X147127580Y-59696115D02*
X148127580Y-59696115D01*
X148127580Y-59696115D02*
X147127580Y-59124687D01*
X147127580Y-59124687D02*
X148127580Y-59124687D01*
X147127580Y-58648496D02*
X148127580Y-58648496D01*
X148127580Y-58648496D02*
X148127580Y-58410401D01*
X148127580Y-58410401D02*
X148079961Y-58267544D01*
X148079961Y-58267544D02*
X147984723Y-58172306D01*
X147984723Y-58172306D02*
X147889485Y-58124687D01*
X147889485Y-58124687D02*
X147699009Y-58077068D01*
X147699009Y-58077068D02*
X147556152Y-58077068D01*
X147556152Y-58077068D02*
X147365676Y-58124687D01*
X147365676Y-58124687D02*
X147270438Y-58172306D01*
X147270438Y-58172306D02*
X147175200Y-58267544D01*
X147175200Y-58267544D02*
X147127580Y-58410401D01*
X147127580Y-58410401D02*
X147127580Y-58648496D01*
X163627580Y-46838972D02*
X162627580Y-46505639D01*
X162627580Y-46505639D02*
X163627580Y-46172306D01*
X162722819Y-45267544D02*
X162675200Y-45315163D01*
X162675200Y-45315163D02*
X162627580Y-45458020D01*
X162627580Y-45458020D02*
X162627580Y-45553258D01*
X162627580Y-45553258D02*
X162675200Y-45696115D01*
X162675200Y-45696115D02*
X162770438Y-45791353D01*
X162770438Y-45791353D02*
X162865676Y-45838972D01*
X162865676Y-45838972D02*
X163056152Y-45886591D01*
X163056152Y-45886591D02*
X163199009Y-45886591D01*
X163199009Y-45886591D02*
X163389485Y-45838972D01*
X163389485Y-45838972D02*
X163484723Y-45791353D01*
X163484723Y-45791353D02*
X163579961Y-45696115D01*
X163579961Y-45696115D02*
X163627580Y-45553258D01*
X163627580Y-45553258D02*
X163627580Y-45458020D01*
X163627580Y-45458020D02*
X163579961Y-45315163D01*
X163579961Y-45315163D02*
X163532342Y-45267544D01*
X162722819Y-44267544D02*
X162675200Y-44315163D01*
X162675200Y-44315163D02*
X162627580Y-44458020D01*
X162627580Y-44458020D02*
X162627580Y-44553258D01*
X162627580Y-44553258D02*
X162675200Y-44696115D01*
X162675200Y-44696115D02*
X162770438Y-44791353D01*
X162770438Y-44791353D02*
X162865676Y-44838972D01*
X162865676Y-44838972D02*
X163056152Y-44886591D01*
X163056152Y-44886591D02*
X163199009Y-44886591D01*
X163199009Y-44886591D02*
X163389485Y-44838972D01*
X163389485Y-44838972D02*
X163484723Y-44791353D01*
X163484723Y-44791353D02*
X163579961Y-44696115D01*
X163579961Y-44696115D02*
X163627580Y-44553258D01*
X163627580Y-44553258D02*
X163627580Y-44458020D01*
X163627580Y-44458020D02*
X163579961Y-44315163D01*
X163579961Y-44315163D02*
X163532342Y-44267544D01*
G36*
X160669391Y-45356255D02*
G01*
X160705535Y-45392400D01*
X160744247Y-45469823D01*
X160744247Y-45589073D01*
X160705535Y-45666496D01*
X160669391Y-45702641D01*
X160591968Y-45741353D01*
X160329861Y-45741353D01*
X160252437Y-45702641D01*
X160216292Y-45666497D01*
X160177580Y-45589073D01*
X160177580Y-45469823D01*
X160216292Y-45392399D01*
X160252437Y-45356255D01*
X160329861Y-45317544D01*
X160591968Y-45317544D01*
X160669391Y-45356255D01*
G37*
G36*
X161336185Y-46904719D02*
G01*
X159966469Y-46904719D01*
X159966469Y-46248410D01*
X160081386Y-46248410D01*
X160081386Y-46286678D01*
X160108446Y-46313738D01*
X160127580Y-46317544D01*
X160410914Y-46317544D01*
X160410914Y-46743734D01*
X160414720Y-46762868D01*
X160420538Y-46768686D01*
X160423141Y-46776494D01*
X160433550Y-46781698D01*
X160441780Y-46789928D01*
X160450010Y-46789928D01*
X160457370Y-46793608D01*
X160476725Y-46791168D01*
X161191011Y-46553073D01*
X161207959Y-46543412D01*
X161225074Y-46509183D01*
X161212972Y-46472879D01*
X161178744Y-46455765D01*
X161159388Y-46458205D01*
X160510914Y-46674363D01*
X160510914Y-46317544D01*
X160794247Y-46317544D01*
X160813381Y-46313738D01*
X160840441Y-46286678D01*
X160840441Y-46248410D01*
X160813381Y-46221350D01*
X160794247Y-46217544D01*
X160510914Y-46217544D01*
X160510914Y-46124687D01*
X160507108Y-46105553D01*
X160480048Y-46078493D01*
X160441780Y-46078493D01*
X160414720Y-46105553D01*
X160410914Y-46124687D01*
X160410914Y-46217544D01*
X160127580Y-46217544D01*
X160108446Y-46221350D01*
X160081386Y-46248410D01*
X159966469Y-46248410D01*
X159966469Y-45458020D01*
X160077580Y-45458020D01*
X160077580Y-45600877D01*
X160078068Y-45603333D01*
X160077706Y-45604422D01*
X160079822Y-45612149D01*
X160081386Y-45620011D01*
X160082197Y-45620822D01*
X160082859Y-45623238D01*
X160130479Y-45718476D01*
X160135394Y-45724810D01*
X160139845Y-45731470D01*
X160187463Y-45779089D01*
X160194129Y-45783543D01*
X160200458Y-45788455D01*
X160295696Y-45836074D01*
X160298111Y-45836735D01*
X160298923Y-45837547D01*
X160306784Y-45839110D01*
X160314512Y-45841227D01*
X160315600Y-45840864D01*
X160318057Y-45841353D01*
X160603771Y-45841353D01*
X160606227Y-45840864D01*
X160607316Y-45841227D01*
X160615043Y-45839110D01*
X160622905Y-45837547D01*
X160623716Y-45836735D01*
X160626132Y-45836074D01*
X160721369Y-45788456D01*
X160727702Y-45783540D01*
X160734364Y-45779089D01*
X160781983Y-45731471D01*
X160786437Y-45724804D01*
X160791349Y-45718476D01*
X160838968Y-45623238D01*
X160839629Y-45620822D01*
X160840441Y-45620011D01*
X160842004Y-45612149D01*
X160844121Y-45604422D01*
X160843758Y-45603333D01*
X160844247Y-45600877D01*
X160844247Y-45458020D01*
X160843758Y-45455563D01*
X160844121Y-45454475D01*
X160842004Y-45446747D01*
X160840441Y-45438886D01*
X160839629Y-45438074D01*
X160838968Y-45435659D01*
X160791349Y-45340421D01*
X160786437Y-45334092D01*
X160781983Y-45327426D01*
X160734364Y-45279808D01*
X160727702Y-45275356D01*
X160721369Y-45270441D01*
X160626132Y-45222823D01*
X160623716Y-45222161D01*
X160622905Y-45221350D01*
X160615043Y-45219786D01*
X160607316Y-45217670D01*
X160606227Y-45218032D01*
X160603771Y-45217544D01*
X160318057Y-45217544D01*
X160315600Y-45218032D01*
X160314512Y-45217670D01*
X160306784Y-45219786D01*
X160298923Y-45221350D01*
X160298111Y-45222161D01*
X160295696Y-45222823D01*
X160200458Y-45270442D01*
X160194129Y-45275353D01*
X160187463Y-45279808D01*
X160139845Y-45327427D01*
X160135394Y-45334086D01*
X160130479Y-45340421D01*
X160082859Y-45435659D01*
X160082197Y-45438074D01*
X160081386Y-45438886D01*
X160079822Y-45446747D01*
X160077706Y-45454475D01*
X160078068Y-45455563D01*
X160077580Y-45458020D01*
X159966469Y-45458020D01*
X159966469Y-44362782D01*
X160077580Y-44362782D01*
X160077580Y-44838972D01*
X160081386Y-44858106D01*
X160108446Y-44885166D01*
X160127580Y-44888972D01*
X161127580Y-44888972D01*
X161146714Y-44885166D01*
X161173774Y-44858106D01*
X161177580Y-44838972D01*
X161177580Y-44362782D01*
X161173774Y-44343648D01*
X161146714Y-44316588D01*
X161108446Y-44316588D01*
X161081386Y-44343648D01*
X161077580Y-44362782D01*
X161077580Y-44788972D01*
X160701390Y-44788972D01*
X160701390Y-44505639D01*
X160697584Y-44486505D01*
X160670524Y-44459445D01*
X160632256Y-44459445D01*
X160605196Y-44486505D01*
X160601390Y-44505639D01*
X160601390Y-44788972D01*
X160177580Y-44788972D01*
X160177580Y-44362782D01*
X160173774Y-44343648D01*
X160146714Y-44316588D01*
X160108446Y-44316588D01*
X160081386Y-44343648D01*
X160077580Y-44362782D01*
X159966469Y-44362782D01*
X159966469Y-44205477D01*
X161336185Y-44205477D01*
X161336185Y-46904719D01*
G37*
X158294247Y-46267544D02*
X157627580Y-46267544D01*
X158675200Y-46505639D02*
X157960914Y-46743734D01*
X157960914Y-46743734D02*
X157960914Y-46124687D01*
X157913295Y-45791353D02*
X157913295Y-45315163D01*
X157627580Y-45886591D02*
X158627580Y-45553258D01*
X158627580Y-45553258D02*
X157627580Y-45219925D01*
X155794247Y-46267544D02*
X155127580Y-46267544D01*
X156175200Y-46505639D02*
X155460914Y-46743734D01*
X155460914Y-46743734D02*
X155460914Y-46124687D01*
X155603771Y-45553258D02*
X155127580Y-45553258D01*
X156127580Y-45886591D02*
X155603771Y-45553258D01*
X155603771Y-45553258D02*
X156127580Y-45219925D01*
G36*
X152669391Y-45356255D02*
G01*
X152705535Y-45392400D01*
X152744247Y-45469823D01*
X152744247Y-45589073D01*
X152705535Y-45666496D01*
X152669391Y-45702641D01*
X152591968Y-45741353D01*
X152329861Y-45741353D01*
X152252437Y-45702641D01*
X152216292Y-45666497D01*
X152177580Y-45589073D01*
X152177580Y-45469823D01*
X152216292Y-45392399D01*
X152252437Y-45356255D01*
X152329861Y-45317544D01*
X152591968Y-45317544D01*
X152669391Y-45356255D01*
G37*
G36*
X153288691Y-46948658D02*
G01*
X151966469Y-46948658D01*
X151966469Y-46362782D01*
X152077580Y-46362782D01*
X152077580Y-46648496D01*
X152078068Y-46650952D01*
X152077706Y-46652041D01*
X152079822Y-46659768D01*
X152081386Y-46667630D01*
X152082197Y-46668441D01*
X152082859Y-46670857D01*
X152130479Y-46766095D01*
X152135394Y-46772429D01*
X152139845Y-46779089D01*
X152187463Y-46826708D01*
X152203684Y-46837547D01*
X152241953Y-46837547D01*
X152269013Y-46810487D01*
X152269013Y-46772218D01*
X152258174Y-46755997D01*
X152216292Y-46714116D01*
X152177580Y-46636692D01*
X152177580Y-46374585D01*
X152216292Y-46297161D01*
X152252437Y-46261017D01*
X152329861Y-46222306D01*
X152544349Y-46222306D01*
X152621772Y-46261017D01*
X152657916Y-46297162D01*
X152696628Y-46374585D01*
X152696628Y-46505639D01*
X152699402Y-46519585D01*
X152699264Y-46521658D01*
X152699976Y-46522472D01*
X152700434Y-46524773D01*
X152712874Y-46537213D01*
X152724463Y-46550458D01*
X152726237Y-46550576D01*
X152727494Y-46551833D01*
X152745093Y-46551833D01*
X152762647Y-46553003D01*
X152764679Y-46551833D01*
X152765762Y-46551833D01*
X152767232Y-46550362D01*
X152779553Y-46543268D01*
X153077580Y-46282494D01*
X153077580Y-46791353D01*
X153081386Y-46810487D01*
X153108446Y-46837547D01*
X153146714Y-46837547D01*
X153173774Y-46810487D01*
X153177580Y-46791353D01*
X153177580Y-46172306D01*
X153174805Y-46158359D01*
X153174944Y-46156287D01*
X153174231Y-46155472D01*
X153173774Y-46153172D01*
X153161333Y-46140731D01*
X153149745Y-46127487D01*
X153147970Y-46127368D01*
X153146714Y-46126112D01*
X153129115Y-46126112D01*
X153111561Y-46124942D01*
X153109529Y-46126112D01*
X153108446Y-46126112D01*
X153106975Y-46127582D01*
X153094655Y-46134677D01*
X152796628Y-46395450D01*
X152796628Y-46362782D01*
X152796139Y-46360325D01*
X152796502Y-46359237D01*
X152794385Y-46351509D01*
X152792822Y-46343648D01*
X152792010Y-46342836D01*
X152791349Y-46340421D01*
X152743730Y-46245183D01*
X152738818Y-46238854D01*
X152734364Y-46232188D01*
X152686745Y-46184570D01*
X152680083Y-46180118D01*
X152673750Y-46175203D01*
X152578513Y-46127585D01*
X152576097Y-46126923D01*
X152575286Y-46126112D01*
X152567424Y-46124548D01*
X152559697Y-46122432D01*
X152558608Y-46122794D01*
X152556152Y-46122306D01*
X152318057Y-46122306D01*
X152315600Y-46122794D01*
X152314512Y-46122432D01*
X152306784Y-46124548D01*
X152298923Y-46126112D01*
X152298111Y-46126923D01*
X152295696Y-46127585D01*
X152200458Y-46175204D01*
X152194129Y-46180115D01*
X152187463Y-46184570D01*
X152139845Y-46232189D01*
X152135394Y-46238848D01*
X152130479Y-46245183D01*
X152082859Y-46340421D01*
X152082197Y-46342836D01*
X152081386Y-46343648D01*
X152079822Y-46351509D01*
X152077706Y-46359237D01*
X152078068Y-46360325D01*
X152077580Y-46362782D01*
X151966469Y-46362782D01*
X151966469Y-45458020D01*
X152077580Y-45458020D01*
X152077580Y-45600877D01*
X152078068Y-45603333D01*
X152077706Y-45604422D01*
X152079822Y-45612149D01*
X152081386Y-45620011D01*
X152082197Y-45620822D01*
X152082859Y-45623238D01*
X152130479Y-45718476D01*
X152135394Y-45724810D01*
X152139845Y-45731470D01*
X152187463Y-45779089D01*
X152194129Y-45783543D01*
X152200458Y-45788455D01*
X152295696Y-45836074D01*
X152298111Y-45836735D01*
X152298923Y-45837547D01*
X152306784Y-45839110D01*
X152314512Y-45841227D01*
X152315600Y-45840864D01*
X152318057Y-45841353D01*
X152603771Y-45841353D01*
X152606227Y-45840864D01*
X152607316Y-45841227D01*
X152615043Y-45839110D01*
X152622905Y-45837547D01*
X152623716Y-45836735D01*
X152626132Y-45836074D01*
X152721369Y-45788456D01*
X152727702Y-45783540D01*
X152734364Y-45779089D01*
X152781983Y-45731471D01*
X152786437Y-45724804D01*
X152791349Y-45718476D01*
X152838968Y-45623238D01*
X152839629Y-45620822D01*
X152840441Y-45620011D01*
X152842004Y-45612149D01*
X152844121Y-45604422D01*
X152843758Y-45603333D01*
X152844247Y-45600877D01*
X152844247Y-45458020D01*
X152843758Y-45455563D01*
X152844121Y-45454475D01*
X152842004Y-45446747D01*
X152840441Y-45438886D01*
X152839629Y-45438074D01*
X152838968Y-45435659D01*
X152791349Y-45340421D01*
X152786437Y-45334092D01*
X152781983Y-45327426D01*
X152734364Y-45279808D01*
X152727702Y-45275356D01*
X152721369Y-45270441D01*
X152626132Y-45222823D01*
X152623716Y-45222161D01*
X152622905Y-45221350D01*
X152615043Y-45219786D01*
X152607316Y-45217670D01*
X152606227Y-45218032D01*
X152603771Y-45217544D01*
X152318057Y-45217544D01*
X152315600Y-45218032D01*
X152314512Y-45217670D01*
X152306784Y-45219786D01*
X152298923Y-45221350D01*
X152298111Y-45222161D01*
X152295696Y-45222823D01*
X152200458Y-45270442D01*
X152194129Y-45275353D01*
X152187463Y-45279808D01*
X152139845Y-45327427D01*
X152135394Y-45334086D01*
X152130479Y-45340421D01*
X152082859Y-45435659D01*
X152082197Y-45438074D01*
X152081386Y-45438886D01*
X152079822Y-45446747D01*
X152077706Y-45454475D01*
X152078068Y-45455563D01*
X152077580Y-45458020D01*
X151966469Y-45458020D01*
X151966469Y-44362782D01*
X152077580Y-44362782D01*
X152077580Y-44838972D01*
X152081386Y-44858106D01*
X152108446Y-44885166D01*
X152127580Y-44888972D01*
X153127580Y-44888972D01*
X153146714Y-44885166D01*
X153173774Y-44858106D01*
X153177580Y-44838972D01*
X153177580Y-44362782D01*
X153173774Y-44343648D01*
X153146714Y-44316588D01*
X153108446Y-44316588D01*
X153081386Y-44343648D01*
X153077580Y-44362782D01*
X153077580Y-44788972D01*
X152701390Y-44788972D01*
X152701390Y-44505639D01*
X152697584Y-44486505D01*
X152670524Y-44459445D01*
X152632256Y-44459445D01*
X152605196Y-44486505D01*
X152601390Y-44505639D01*
X152601390Y-44788972D01*
X152177580Y-44788972D01*
X152177580Y-44362782D01*
X152173774Y-44343648D01*
X152146714Y-44316588D01*
X152108446Y-44316588D01*
X152081386Y-44343648D01*
X152077580Y-44362782D01*
X151966469Y-44362782D01*
X151966469Y-44205477D01*
X153288691Y-44205477D01*
X153288691Y-46948658D01*
G37*
X148127580Y-46791353D02*
X148127580Y-46172306D01*
X148127580Y-46172306D02*
X147746628Y-46505639D01*
X147746628Y-46505639D02*
X147746628Y-46362782D01*
X147746628Y-46362782D02*
X147699009Y-46267544D01*
X147699009Y-46267544D02*
X147651390Y-46219925D01*
X147651390Y-46219925D02*
X147556152Y-46172306D01*
X147556152Y-46172306D02*
X147318057Y-46172306D01*
X147318057Y-46172306D02*
X147222819Y-46219925D01*
X147222819Y-46219925D02*
X147175200Y-46267544D01*
X147175200Y-46267544D02*
X147127580Y-46362782D01*
X147127580Y-46362782D02*
X147127580Y-46648496D01*
X147127580Y-46648496D02*
X147175200Y-46743734D01*
X147175200Y-46743734D02*
X147222819Y-46791353D01*
X147603771Y-45553258D02*
X147127580Y-45553258D01*
X148127580Y-45886591D02*
X147603771Y-45553258D01*
X147603771Y-45553258D02*
X148127580Y-45219925D01*
X150627580Y-46791353D02*
X150627580Y-46172306D01*
X150627580Y-46172306D02*
X150246628Y-46505639D01*
X150246628Y-46505639D02*
X150246628Y-46362782D01*
X150246628Y-46362782D02*
X150199009Y-46267544D01*
X150199009Y-46267544D02*
X150151390Y-46219925D01*
X150151390Y-46219925D02*
X150056152Y-46172306D01*
X150056152Y-46172306D02*
X149818057Y-46172306D01*
X149818057Y-46172306D02*
X149722819Y-46219925D01*
X149722819Y-46219925D02*
X149675200Y-46267544D01*
X149675200Y-46267544D02*
X149627580Y-46362782D01*
X149627580Y-46362782D02*
X149627580Y-46648496D01*
X149627580Y-46648496D02*
X149675200Y-46743734D01*
X149675200Y-46743734D02*
X149722819Y-46791353D01*
X149913295Y-45791353D02*
X149913295Y-45315163D01*
X149627580Y-45886591D02*
X150627580Y-45553258D01*
X150627580Y-45553258D02*
X149627580Y-45219925D01*
G36*
X155169391Y-59356255D02*
G01*
X155205535Y-59392400D01*
X155244247Y-59469823D01*
X155244247Y-59589073D01*
X155205535Y-59666496D01*
X155169391Y-59702641D01*
X155091968Y-59741353D01*
X154829861Y-59741353D01*
X154752437Y-59702641D01*
X154716292Y-59666497D01*
X154677580Y-59589073D01*
X154677580Y-59469823D01*
X154716292Y-59392399D01*
X154752437Y-59356255D01*
X154829861Y-59317544D01*
X155091968Y-59317544D01*
X155169391Y-59356255D01*
G37*
G36*
X155788691Y-60948658D02*
G01*
X154466469Y-60948658D01*
X154466469Y-60172306D01*
X154577580Y-60172306D01*
X154577580Y-60791353D01*
X154581386Y-60810487D01*
X154608446Y-60837547D01*
X154646714Y-60837547D01*
X154662935Y-60826708D01*
X155226017Y-60263626D01*
X155349979Y-60222306D01*
X155425301Y-60222306D01*
X155502724Y-60261017D01*
X155538868Y-60297162D01*
X155577580Y-60374585D01*
X155577580Y-60589073D01*
X155538868Y-60666496D01*
X155496987Y-60708379D01*
X155486148Y-60724600D01*
X155486148Y-60762868D01*
X155513208Y-60789928D01*
X155551476Y-60789928D01*
X155567697Y-60779089D01*
X155615316Y-60731471D01*
X155619770Y-60724804D01*
X155624682Y-60718476D01*
X155672301Y-60623238D01*
X155672962Y-60620822D01*
X155673774Y-60620011D01*
X155675337Y-60612149D01*
X155677454Y-60604422D01*
X155677091Y-60603333D01*
X155677580Y-60600877D01*
X155677580Y-60362782D01*
X155677091Y-60360325D01*
X155677454Y-60359237D01*
X155675337Y-60351509D01*
X155673774Y-60343648D01*
X155672962Y-60342836D01*
X155672301Y-60340421D01*
X155624682Y-60245183D01*
X155619770Y-60238854D01*
X155615316Y-60232188D01*
X155567697Y-60184570D01*
X155561035Y-60180118D01*
X155554702Y-60175203D01*
X155459465Y-60127585D01*
X155457049Y-60126923D01*
X155456238Y-60126112D01*
X155448376Y-60124548D01*
X155440649Y-60122432D01*
X155439560Y-60122794D01*
X155437104Y-60122306D01*
X155341866Y-60122306D01*
X155334004Y-60123869D01*
X155326054Y-60124872D01*
X155183198Y-60172491D01*
X155181023Y-60173731D01*
X155179875Y-60173731D01*
X155173214Y-60178181D01*
X155166249Y-60182152D01*
X155165735Y-60183179D01*
X155163654Y-60184570D01*
X154677580Y-60670643D01*
X154677580Y-60172306D01*
X154673774Y-60153172D01*
X154646714Y-60126112D01*
X154608446Y-60126112D01*
X154581386Y-60153172D01*
X154577580Y-60172306D01*
X154466469Y-60172306D01*
X154466469Y-59458020D01*
X154577580Y-59458020D01*
X154577580Y-59600877D01*
X154578068Y-59603333D01*
X154577706Y-59604422D01*
X154579822Y-59612149D01*
X154581386Y-59620011D01*
X154582197Y-59620822D01*
X154582859Y-59623238D01*
X154630479Y-59718476D01*
X154635394Y-59724810D01*
X154639845Y-59731470D01*
X154687463Y-59779089D01*
X154694129Y-59783543D01*
X154700458Y-59788455D01*
X154795696Y-59836074D01*
X154798111Y-59836735D01*
X154798923Y-59837547D01*
X154806784Y-59839110D01*
X154814512Y-59841227D01*
X154815600Y-59840864D01*
X154818057Y-59841353D01*
X155103771Y-59841353D01*
X155106227Y-59840864D01*
X155107316Y-59841227D01*
X155115043Y-59839110D01*
X155122905Y-59837547D01*
X155123716Y-59836735D01*
X155126132Y-59836074D01*
X155221369Y-59788456D01*
X155227702Y-59783540D01*
X155234364Y-59779089D01*
X155281983Y-59731471D01*
X155286437Y-59724804D01*
X155291349Y-59718476D01*
X155338968Y-59623238D01*
X155339629Y-59620822D01*
X155340441Y-59620011D01*
X155342004Y-59612149D01*
X155344121Y-59604422D01*
X155343758Y-59603333D01*
X155344247Y-59600877D01*
X155344247Y-59458020D01*
X155343758Y-59455563D01*
X155344121Y-59454475D01*
X155342004Y-59446747D01*
X155340441Y-59438886D01*
X155339629Y-59438074D01*
X155338968Y-59435659D01*
X155291349Y-59340421D01*
X155286437Y-59334092D01*
X155281983Y-59327426D01*
X155234364Y-59279808D01*
X155227702Y-59275356D01*
X155221369Y-59270441D01*
X155126132Y-59222823D01*
X155123716Y-59222161D01*
X155122905Y-59221350D01*
X155115043Y-59219786D01*
X155107316Y-59217670D01*
X155106227Y-59218032D01*
X155103771Y-59217544D01*
X154818057Y-59217544D01*
X154815600Y-59218032D01*
X154814512Y-59217670D01*
X154806784Y-59219786D01*
X154798923Y-59221350D01*
X154798111Y-59222161D01*
X154795696Y-59222823D01*
X154700458Y-59270442D01*
X154694129Y-59275353D01*
X154687463Y-59279808D01*
X154639845Y-59327427D01*
X154635394Y-59334086D01*
X154630479Y-59340421D01*
X154582859Y-59435659D01*
X154582197Y-59438074D01*
X154581386Y-59438886D01*
X154579822Y-59446747D01*
X154577706Y-59454475D01*
X154578068Y-59455563D01*
X154577580Y-59458020D01*
X154466469Y-59458020D01*
X154466469Y-58362782D01*
X154577580Y-58362782D01*
X154577580Y-58838972D01*
X154581386Y-58858106D01*
X154608446Y-58885166D01*
X154627580Y-58888972D01*
X155627580Y-58888972D01*
X155646714Y-58885166D01*
X155673774Y-58858106D01*
X155677580Y-58838972D01*
X155677580Y-58362782D01*
X155673774Y-58343648D01*
X155646714Y-58316588D01*
X155608446Y-58316588D01*
X155581386Y-58343648D01*
X155577580Y-58362782D01*
X155577580Y-58788972D01*
X155201390Y-58788972D01*
X155201390Y-58505639D01*
X155197584Y-58486505D01*
X155170524Y-58459445D01*
X155132256Y-58459445D01*
X155105196Y-58486505D01*
X155101390Y-58505639D01*
X155101390Y-58788972D01*
X154677580Y-58788972D01*
X154677580Y-58362782D01*
X154673774Y-58343648D01*
X154646714Y-58316588D01*
X154608446Y-58316588D01*
X154581386Y-58343648D01*
X154577580Y-58362782D01*
X154466469Y-58362782D01*
X154466469Y-58205477D01*
X155788691Y-58205477D01*
X155788691Y-60948658D01*
G37*
X153032342Y-59743734D02*
X153079961Y-59696115D01*
X153079961Y-59696115D02*
X153127580Y-59600877D01*
X153127580Y-59600877D02*
X153127580Y-59362782D01*
X153127580Y-59362782D02*
X153079961Y-59267544D01*
X153079961Y-59267544D02*
X153032342Y-59219925D01*
X153032342Y-59219925D02*
X152937104Y-59172306D01*
X152937104Y-59172306D02*
X152841866Y-59172306D01*
X152841866Y-59172306D02*
X152699009Y-59219925D01*
X152699009Y-59219925D02*
X152127580Y-59791353D01*
X152127580Y-59791353D02*
X152127580Y-59172306D01*
X152413295Y-58791353D02*
X152413295Y-58315163D01*
X152127580Y-58886591D02*
X153127580Y-58553258D01*
X153127580Y-58553258D02*
X152127580Y-58219925D01*
G36*
X163169391Y-59356255D02*
G01*
X163205535Y-59392400D01*
X163244247Y-59469823D01*
X163244247Y-59589073D01*
X163205535Y-59666496D01*
X163169391Y-59702641D01*
X163091968Y-59741353D01*
X162829861Y-59741353D01*
X162752437Y-59702641D01*
X162716292Y-59666497D01*
X162677580Y-59589073D01*
X162677580Y-59469823D01*
X162716292Y-59392399D01*
X162752437Y-59356255D01*
X162829861Y-59317544D01*
X163091968Y-59317544D01*
X163169391Y-59356255D01*
G37*
G36*
X163788691Y-60904719D02*
G01*
X162466469Y-60904719D01*
X162466469Y-60172306D01*
X162577580Y-60172306D01*
X162577580Y-60743734D01*
X162581386Y-60762868D01*
X162608446Y-60789928D01*
X162646714Y-60789928D01*
X162673774Y-60762868D01*
X162677580Y-60743734D01*
X162677580Y-60508020D01*
X163462440Y-60508020D01*
X163456988Y-60511655D01*
X163453481Y-60515154D01*
X163449368Y-60517903D01*
X163354130Y-60613141D01*
X163349678Y-60619802D01*
X163344763Y-60626136D01*
X163297145Y-60721373D01*
X163291992Y-60740189D01*
X163304093Y-60776494D01*
X163338321Y-60793608D01*
X163374626Y-60781507D01*
X163386587Y-60766095D01*
X163430578Y-60678113D01*
X163516574Y-60592116D01*
X163655315Y-60499622D01*
X163669124Y-60485842D01*
X163670133Y-60480794D01*
X163673774Y-60477154D01*
X163673774Y-60462594D01*
X163676630Y-60448316D01*
X163673774Y-60444032D01*
X163673774Y-60438886D01*
X163663479Y-60428591D01*
X163655402Y-60416476D01*
X163650354Y-60415466D01*
X163646714Y-60411826D01*
X163627580Y-60408020D01*
X162677580Y-60408020D01*
X162677580Y-60172306D01*
X162673774Y-60153172D01*
X162646714Y-60126112D01*
X162608446Y-60126112D01*
X162581386Y-60153172D01*
X162577580Y-60172306D01*
X162466469Y-60172306D01*
X162466469Y-59458020D01*
X162577580Y-59458020D01*
X162577580Y-59600877D01*
X162578068Y-59603333D01*
X162577706Y-59604422D01*
X162579822Y-59612149D01*
X162581386Y-59620011D01*
X162582197Y-59620822D01*
X162582859Y-59623238D01*
X162630479Y-59718476D01*
X162635394Y-59724810D01*
X162639845Y-59731470D01*
X162687463Y-59779089D01*
X162694129Y-59783543D01*
X162700458Y-59788455D01*
X162795696Y-59836074D01*
X162798111Y-59836735D01*
X162798923Y-59837547D01*
X162806784Y-59839110D01*
X162814512Y-59841227D01*
X162815600Y-59840864D01*
X162818057Y-59841353D01*
X163103771Y-59841353D01*
X163106227Y-59840864D01*
X163107316Y-59841227D01*
X163115043Y-59839110D01*
X163122905Y-59837547D01*
X163123716Y-59836735D01*
X163126132Y-59836074D01*
X163221369Y-59788456D01*
X163227702Y-59783540D01*
X163234364Y-59779089D01*
X163281983Y-59731471D01*
X163286437Y-59724804D01*
X163291349Y-59718476D01*
X163338968Y-59623238D01*
X163339629Y-59620822D01*
X163340441Y-59620011D01*
X163342004Y-59612149D01*
X163344121Y-59604422D01*
X163343758Y-59603333D01*
X163344247Y-59600877D01*
X163344247Y-59458020D01*
X163343758Y-59455563D01*
X163344121Y-59454475D01*
X163342004Y-59446747D01*
X163340441Y-59438886D01*
X163339629Y-59438074D01*
X163338968Y-59435659D01*
X163291349Y-59340421D01*
X163286437Y-59334092D01*
X163281983Y-59327426D01*
X163234364Y-59279808D01*
X163227702Y-59275356D01*
X163221369Y-59270441D01*
X163126132Y-59222823D01*
X163123716Y-59222161D01*
X163122905Y-59221350D01*
X163115043Y-59219786D01*
X163107316Y-59217670D01*
X163106227Y-59218032D01*
X163103771Y-59217544D01*
X162818057Y-59217544D01*
X162815600Y-59218032D01*
X162814512Y-59217670D01*
X162806784Y-59219786D01*
X162798923Y-59221350D01*
X162798111Y-59222161D01*
X162795696Y-59222823D01*
X162700458Y-59270442D01*
X162694129Y-59275353D01*
X162687463Y-59279808D01*
X162639845Y-59327427D01*
X162635394Y-59334086D01*
X162630479Y-59340421D01*
X162582859Y-59435659D01*
X162582197Y-59438074D01*
X162581386Y-59438886D01*
X162579822Y-59446747D01*
X162577706Y-59454475D01*
X162578068Y-59455563D01*
X162577580Y-59458020D01*
X162466469Y-59458020D01*
X162466469Y-58362782D01*
X162577580Y-58362782D01*
X162577580Y-58838972D01*
X162581386Y-58858106D01*
X162608446Y-58885166D01*
X162627580Y-58888972D01*
X163627580Y-58888972D01*
X163646714Y-58885166D01*
X163673774Y-58858106D01*
X163677580Y-58838972D01*
X163677580Y-58362782D01*
X163673774Y-58343648D01*
X163646714Y-58316588D01*
X163608446Y-58316588D01*
X163581386Y-58343648D01*
X163577580Y-58362782D01*
X163577580Y-58788972D01*
X163201390Y-58788972D01*
X163201390Y-58505639D01*
X163197584Y-58486505D01*
X163170524Y-58459445D01*
X163132256Y-58459445D01*
X163105196Y-58486505D01*
X163101390Y-58505639D01*
X163101390Y-58788972D01*
X162677580Y-58788972D01*
X162677580Y-58362782D01*
X162673774Y-58343648D01*
X162646714Y-58316588D01*
X162608446Y-58316588D01*
X162581386Y-58343648D01*
X162577580Y-58362782D01*
X162466469Y-58362782D01*
X162466469Y-58205477D01*
X163788691Y-58205477D01*
X163788691Y-60904719D01*
G37*
X157627580Y-59172306D02*
X157627580Y-59743734D01*
X157627580Y-59458020D02*
X158627580Y-59458020D01*
X158627580Y-59458020D02*
X158484723Y-59553258D01*
X158484723Y-59553258D02*
X158389485Y-59648496D01*
X158389485Y-59648496D02*
X158341866Y-59743734D01*
X158103771Y-58553258D02*
X157627580Y-58553258D01*
X158627580Y-58886591D02*
X158103771Y-58553258D01*
X158103771Y-58553258D02*
X158627580Y-58219925D01*
X150532342Y-59743734D02*
X150579961Y-59696115D01*
X150579961Y-59696115D02*
X150627580Y-59600877D01*
X150627580Y-59600877D02*
X150627580Y-59362782D01*
X150627580Y-59362782D02*
X150579961Y-59267544D01*
X150579961Y-59267544D02*
X150532342Y-59219925D01*
X150532342Y-59219925D02*
X150437104Y-59172306D01*
X150437104Y-59172306D02*
X150341866Y-59172306D01*
X150341866Y-59172306D02*
X150199009Y-59219925D01*
X150199009Y-59219925D02*
X149627580Y-59791353D01*
X149627580Y-59791353D02*
X149627580Y-59172306D01*
X150103771Y-58553258D02*
X149627580Y-58553258D01*
X150627580Y-58886591D02*
X150103771Y-58553258D01*
X150103771Y-58553258D02*
X150627580Y-58219925D01*
X160127580Y-59172306D02*
X160127580Y-59743734D01*
X160127580Y-59458020D02*
X161127580Y-59458020D01*
X161127580Y-59458020D02*
X160984723Y-59553258D01*
X160984723Y-59553258D02*
X160889485Y-59648496D01*
X160889485Y-59648496D02*
X160841866Y-59743734D01*
X160413295Y-58791353D02*
X160413295Y-58315163D01*
X160127580Y-58886591D02*
X161127580Y-58553258D01*
X161127580Y-58553258D02*
X160127580Y-58219925D01*
D10*
X177554819Y-39657142D02*
X177554819Y-39085714D01*
X177554819Y-39371428D02*
X176554819Y-39371428D01*
X176554819Y-39371428D02*
X176697676Y-39276190D01*
X176697676Y-39276190D02*
X176792914Y-39180952D01*
X176792914Y-39180952D02*
X176840533Y-39085714D01*
X176554819Y-40276190D02*
X176554819Y-40371428D01*
X176554819Y-40371428D02*
X176602438Y-40466666D01*
X176602438Y-40466666D02*
X176650057Y-40514285D01*
X176650057Y-40514285D02*
X176745295Y-40561904D01*
X176745295Y-40561904D02*
X176935771Y-40609523D01*
X176935771Y-40609523D02*
X177173866Y-40609523D01*
X177173866Y-40609523D02*
X177364342Y-40561904D01*
X177364342Y-40561904D02*
X177459580Y-40514285D01*
X177459580Y-40514285D02*
X177507200Y-40466666D01*
X177507200Y-40466666D02*
X177554819Y-40371428D01*
X177554819Y-40371428D02*
X177554819Y-40276190D01*
X177554819Y-40276190D02*
X177507200Y-40180952D01*
X177507200Y-40180952D02*
X177459580Y-40133333D01*
X177459580Y-40133333D02*
X177364342Y-40085714D01*
X177364342Y-40085714D02*
X177173866Y-40038095D01*
X177173866Y-40038095D02*
X176935771Y-40038095D01*
X176935771Y-40038095D02*
X176745295Y-40085714D01*
X176745295Y-40085714D02*
X176650057Y-40133333D01*
X176650057Y-40133333D02*
X176602438Y-40180952D01*
X176602438Y-40180952D02*
X176554819Y-40276190D01*
X177554819Y-41038095D02*
X176554819Y-41038095D01*
X177554819Y-41609523D02*
X176983390Y-41180952D01*
X176554819Y-41609523D02*
X177126247Y-41038095D01*
X177554819Y-43276190D02*
X177554819Y-42800000D01*
X177554819Y-42800000D02*
X176554819Y-42800000D01*
X177031009Y-43609524D02*
X177031009Y-43942857D01*
X177554819Y-44085714D02*
X177554819Y-43609524D01*
X177554819Y-43609524D02*
X176554819Y-43609524D01*
X176554819Y-43609524D02*
X176554819Y-44085714D01*
X177554819Y-44514286D02*
X176554819Y-44514286D01*
X176554819Y-44514286D02*
X176554819Y-44752381D01*
X176554819Y-44752381D02*
X176602438Y-44895238D01*
X176602438Y-44895238D02*
X176697676Y-44990476D01*
X176697676Y-44990476D02*
X176792914Y-45038095D01*
X176792914Y-45038095D02*
X176983390Y-45085714D01*
X176983390Y-45085714D02*
X177126247Y-45085714D01*
X177126247Y-45085714D02*
X177316723Y-45038095D01*
X177316723Y-45038095D02*
X177411961Y-44990476D01*
X177411961Y-44990476D02*
X177507200Y-44895238D01*
X177507200Y-44895238D02*
X177554819Y-44752381D01*
X177554819Y-44752381D02*
X177554819Y-44514286D01*
X177650057Y-45276191D02*
X177650057Y-46038095D01*
X177554819Y-46276191D02*
X176554819Y-46276191D01*
X176554819Y-46276191D02*
X177269104Y-46609524D01*
X177269104Y-46609524D02*
X176554819Y-46942857D01*
X176554819Y-46942857D02*
X177554819Y-46942857D01*
X176554819Y-47609524D02*
X176554819Y-47800000D01*
X176554819Y-47800000D02*
X176602438Y-47895238D01*
X176602438Y-47895238D02*
X176697676Y-47990476D01*
X176697676Y-47990476D02*
X176888152Y-48038095D01*
X176888152Y-48038095D02*
X177221485Y-48038095D01*
X177221485Y-48038095D02*
X177411961Y-47990476D01*
X177411961Y-47990476D02*
X177507200Y-47895238D01*
X177507200Y-47895238D02*
X177554819Y-47800000D01*
X177554819Y-47800000D02*
X177554819Y-47609524D01*
X177554819Y-47609524D02*
X177507200Y-47514286D01*
X177507200Y-47514286D02*
X177411961Y-47419048D01*
X177411961Y-47419048D02*
X177221485Y-47371429D01*
X177221485Y-47371429D02*
X176888152Y-47371429D01*
X176888152Y-47371429D02*
X176697676Y-47419048D01*
X176697676Y-47419048D02*
X176602438Y-47514286D01*
X176602438Y-47514286D02*
X176554819Y-47609524D01*
X177507200Y-48419048D02*
X177554819Y-48561905D01*
X177554819Y-48561905D02*
X177554819Y-48800000D01*
X177554819Y-48800000D02*
X177507200Y-48895238D01*
X177507200Y-48895238D02*
X177459580Y-48942857D01*
X177459580Y-48942857D02*
X177364342Y-48990476D01*
X177364342Y-48990476D02*
X177269104Y-48990476D01*
X177269104Y-48990476D02*
X177173866Y-48942857D01*
X177173866Y-48942857D02*
X177126247Y-48895238D01*
X177126247Y-48895238D02*
X177078628Y-48800000D01*
X177078628Y-48800000D02*
X177031009Y-48609524D01*
X177031009Y-48609524D02*
X176983390Y-48514286D01*
X176983390Y-48514286D02*
X176935771Y-48466667D01*
X176935771Y-48466667D02*
X176840533Y-48419048D01*
X176840533Y-48419048D02*
X176745295Y-48419048D01*
X176745295Y-48419048D02*
X176650057Y-48466667D01*
X176650057Y-48466667D02*
X176602438Y-48514286D01*
X176602438Y-48514286D02*
X176554819Y-48609524D01*
X176554819Y-48609524D02*
X176554819Y-48847619D01*
X176554819Y-48847619D02*
X176602438Y-48990476D01*
X177031009Y-49752381D02*
X177031009Y-49419048D01*
X177554819Y-49419048D02*
X176554819Y-49419048D01*
X176554819Y-49419048D02*
X176554819Y-49895238D01*
X177031009Y-50276191D02*
X177031009Y-50609524D01*
X177554819Y-50752381D02*
X177554819Y-50276191D01*
X177554819Y-50276191D02*
X176554819Y-50276191D01*
X176554819Y-50276191D02*
X176554819Y-50752381D01*
X176554819Y-51038096D02*
X176554819Y-51609524D01*
X177554819Y-51323810D02*
X176554819Y-51323810D01*
X163000000Y-20454819D02*
X163333333Y-19978628D01*
X163571428Y-20454819D02*
X163571428Y-19454819D01*
X163571428Y-19454819D02*
X163190476Y-19454819D01*
X163190476Y-19454819D02*
X163095238Y-19502438D01*
X163095238Y-19502438D02*
X163047619Y-19550057D01*
X163047619Y-19550057D02*
X163000000Y-19645295D01*
X163000000Y-19645295D02*
X163000000Y-19788152D01*
X163000000Y-19788152D02*
X163047619Y-19883390D01*
X163047619Y-19883390D02*
X163095238Y-19931009D01*
X163095238Y-19931009D02*
X163190476Y-19978628D01*
X163190476Y-19978628D02*
X163571428Y-19978628D01*
X162619047Y-19550057D02*
X162571428Y-19502438D01*
X162571428Y-19502438D02*
X162476190Y-19454819D01*
X162476190Y-19454819D02*
X162238095Y-19454819D01*
X162238095Y-19454819D02*
X162142857Y-19502438D01*
X162142857Y-19502438D02*
X162095238Y-19550057D01*
X162095238Y-19550057D02*
X162047619Y-19645295D01*
X162047619Y-19645295D02*
X162047619Y-19740533D01*
X162047619Y-19740533D02*
X162095238Y-19883390D01*
X162095238Y-19883390D02*
X162666666Y-20454819D01*
X162666666Y-20454819D02*
X162047619Y-20454819D01*
X160904761Y-19550057D02*
X160857142Y-19502438D01*
X160857142Y-19502438D02*
X160761904Y-19454819D01*
X160761904Y-19454819D02*
X160523809Y-19454819D01*
X160523809Y-19454819D02*
X160428571Y-19502438D01*
X160428571Y-19502438D02*
X160380952Y-19550057D01*
X160380952Y-19550057D02*
X160333333Y-19645295D01*
X160333333Y-19645295D02*
X160333333Y-19740533D01*
X160333333Y-19740533D02*
X160380952Y-19883390D01*
X160380952Y-19883390D02*
X160952380Y-20454819D01*
X160952380Y-20454819D02*
X160333333Y-20454819D01*
X159714285Y-19454819D02*
X159619047Y-19454819D01*
X159619047Y-19454819D02*
X159523809Y-19502438D01*
X159523809Y-19502438D02*
X159476190Y-19550057D01*
X159476190Y-19550057D02*
X159428571Y-19645295D01*
X159428571Y-19645295D02*
X159380952Y-19835771D01*
X159380952Y-19835771D02*
X159380952Y-20073866D01*
X159380952Y-20073866D02*
X159428571Y-20264342D01*
X159428571Y-20264342D02*
X159476190Y-20359580D01*
X159476190Y-20359580D02*
X159523809Y-20407200D01*
X159523809Y-20407200D02*
X159619047Y-20454819D01*
X159619047Y-20454819D02*
X159714285Y-20454819D01*
X159714285Y-20454819D02*
X159809523Y-20407200D01*
X159809523Y-20407200D02*
X159857142Y-20359580D01*
X159857142Y-20359580D02*
X159904761Y-20264342D01*
X159904761Y-20264342D02*
X159952380Y-20073866D01*
X159952380Y-20073866D02*
X159952380Y-19835771D01*
X159952380Y-19835771D02*
X159904761Y-19645295D01*
X159904761Y-19645295D02*
X159857142Y-19550057D01*
X159857142Y-19550057D02*
X159809523Y-19502438D01*
X159809523Y-19502438D02*
X159714285Y-19454819D01*
X158952380Y-20454819D02*
X158952380Y-19454819D01*
X158380952Y-20454819D02*
X158809523Y-19883390D01*
X158380952Y-19454819D02*
X158952380Y-20026247D01*
X186023809Y-54754819D02*
X185404762Y-54754819D01*
X185404762Y-54754819D02*
X185738095Y-55135771D01*
X185738095Y-55135771D02*
X185595238Y-55135771D01*
X185595238Y-55135771D02*
X185500000Y-55183390D01*
X185500000Y-55183390D02*
X185452381Y-55231009D01*
X185452381Y-55231009D02*
X185404762Y-55326247D01*
X185404762Y-55326247D02*
X185404762Y-55564342D01*
X185404762Y-55564342D02*
X185452381Y-55659580D01*
X185452381Y-55659580D02*
X185500000Y-55707200D01*
X185500000Y-55707200D02*
X185595238Y-55754819D01*
X185595238Y-55754819D02*
X185880952Y-55754819D01*
X185880952Y-55754819D02*
X185976190Y-55707200D01*
X185976190Y-55707200D02*
X186023809Y-55659580D01*
X185071428Y-54754819D02*
X184452381Y-54754819D01*
X184452381Y-54754819D02*
X184785714Y-55135771D01*
X184785714Y-55135771D02*
X184642857Y-55135771D01*
X184642857Y-55135771D02*
X184547619Y-55183390D01*
X184547619Y-55183390D02*
X184500000Y-55231009D01*
X184500000Y-55231009D02*
X184452381Y-55326247D01*
X184452381Y-55326247D02*
X184452381Y-55564342D01*
X184452381Y-55564342D02*
X184500000Y-55659580D01*
X184500000Y-55659580D02*
X184547619Y-55707200D01*
X184547619Y-55707200D02*
X184642857Y-55754819D01*
X184642857Y-55754819D02*
X184928571Y-55754819D01*
X184928571Y-55754819D02*
X185023809Y-55707200D01*
X185023809Y-55707200D02*
X185071428Y-55659580D01*
X183833333Y-54754819D02*
X183738095Y-54754819D01*
X183738095Y-54754819D02*
X183642857Y-54802438D01*
X183642857Y-54802438D02*
X183595238Y-54850057D01*
X183595238Y-54850057D02*
X183547619Y-54945295D01*
X183547619Y-54945295D02*
X183500000Y-55135771D01*
X183500000Y-55135771D02*
X183500000Y-55373866D01*
X183500000Y-55373866D02*
X183547619Y-55564342D01*
X183547619Y-55564342D02*
X183595238Y-55659580D01*
X183595238Y-55659580D02*
X183642857Y-55707200D01*
X183642857Y-55707200D02*
X183738095Y-55754819D01*
X183738095Y-55754819D02*
X183833333Y-55754819D01*
X183833333Y-55754819D02*
X183928571Y-55707200D01*
X183928571Y-55707200D02*
X183976190Y-55659580D01*
X183976190Y-55659580D02*
X184023809Y-55564342D01*
X184023809Y-55564342D02*
X184071428Y-55373866D01*
X184071428Y-55373866D02*
X184071428Y-55135771D01*
X184071428Y-55135771D02*
X184023809Y-54945295D01*
X184023809Y-54945295D02*
X183976190Y-54850057D01*
X183976190Y-54850057D02*
X183928571Y-54802438D01*
X183928571Y-54802438D02*
X183833333Y-54754819D01*
X181833333Y-55754819D02*
X182309523Y-55754819D01*
X182309523Y-55754819D02*
X182309523Y-54754819D01*
X181499999Y-55231009D02*
X181166666Y-55231009D01*
X181023809Y-55754819D02*
X181499999Y-55754819D01*
X181499999Y-55754819D02*
X181499999Y-54754819D01*
X181499999Y-54754819D02*
X181023809Y-54754819D01*
X180595237Y-55754819D02*
X180595237Y-54754819D01*
X180595237Y-54754819D02*
X180357142Y-54754819D01*
X180357142Y-54754819D02*
X180214285Y-54802438D01*
X180214285Y-54802438D02*
X180119047Y-54897676D01*
X180119047Y-54897676D02*
X180071428Y-54992914D01*
X180071428Y-54992914D02*
X180023809Y-55183390D01*
X180023809Y-55183390D02*
X180023809Y-55326247D01*
X180023809Y-55326247D02*
X180071428Y-55516723D01*
X180071428Y-55516723D02*
X180119047Y-55611961D01*
X180119047Y-55611961D02*
X180214285Y-55707200D01*
X180214285Y-55707200D02*
X180357142Y-55754819D01*
X180357142Y-55754819D02*
X180595237Y-55754819D01*
X179833333Y-55850057D02*
X179071428Y-55850057D01*
X178833332Y-55754819D02*
X178833332Y-54754819D01*
X178833332Y-54754819D02*
X178595237Y-54754819D01*
X178595237Y-54754819D02*
X178452380Y-54802438D01*
X178452380Y-54802438D02*
X178357142Y-54897676D01*
X178357142Y-54897676D02*
X178309523Y-54992914D01*
X178309523Y-54992914D02*
X178261904Y-55183390D01*
X178261904Y-55183390D02*
X178261904Y-55326247D01*
X178261904Y-55326247D02*
X178309523Y-55516723D01*
X178309523Y-55516723D02*
X178357142Y-55611961D01*
X178357142Y-55611961D02*
X178452380Y-55707200D01*
X178452380Y-55707200D02*
X178595237Y-55754819D01*
X178595237Y-55754819D02*
X178833332Y-55754819D01*
X177880951Y-55469104D02*
X177404761Y-55469104D01*
X177976189Y-55754819D02*
X177642856Y-54754819D01*
X177642856Y-54754819D02*
X177309523Y-55754819D01*
X177119046Y-54754819D02*
X176547618Y-54754819D01*
X176833332Y-55754819D02*
X176833332Y-54754819D01*
X176261903Y-55469104D02*
X175785713Y-55469104D01*
X176357141Y-55754819D02*
X176023808Y-54754819D01*
X176023808Y-54754819D02*
X175690475Y-55754819D01*
X175595237Y-55850057D02*
X174833332Y-55850057D01*
X174023808Y-55754819D02*
X174357141Y-55278628D01*
X174595236Y-55754819D02*
X174595236Y-54754819D01*
X174595236Y-54754819D02*
X174214284Y-54754819D01*
X174214284Y-54754819D02*
X174119046Y-54802438D01*
X174119046Y-54802438D02*
X174071427Y-54850057D01*
X174071427Y-54850057D02*
X174023808Y-54945295D01*
X174023808Y-54945295D02*
X174023808Y-55088152D01*
X174023808Y-55088152D02*
X174071427Y-55183390D01*
X174071427Y-55183390D02*
X174119046Y-55231009D01*
X174119046Y-55231009D02*
X174214284Y-55278628D01*
X174214284Y-55278628D02*
X174595236Y-55278628D01*
X175386190Y-20454819D02*
X175719523Y-19978628D01*
X175957618Y-20454819D02*
X175957618Y-19454819D01*
X175957618Y-19454819D02*
X175576666Y-19454819D01*
X175576666Y-19454819D02*
X175481428Y-19502438D01*
X175481428Y-19502438D02*
X175433809Y-19550057D01*
X175433809Y-19550057D02*
X175386190Y-19645295D01*
X175386190Y-19645295D02*
X175386190Y-19788152D01*
X175386190Y-19788152D02*
X175433809Y-19883390D01*
X175433809Y-19883390D02*
X175481428Y-19931009D01*
X175481428Y-19931009D02*
X175576666Y-19978628D01*
X175576666Y-19978628D02*
X175957618Y-19978628D01*
X174433809Y-20454819D02*
X175005237Y-20454819D01*
X174719523Y-20454819D02*
X174719523Y-19454819D01*
X174719523Y-19454819D02*
X174814761Y-19597676D01*
X174814761Y-19597676D02*
X174909999Y-19692914D01*
X174909999Y-19692914D02*
X175005237Y-19740533D01*
X173290951Y-19550057D02*
X173243332Y-19502438D01*
X173243332Y-19502438D02*
X173148094Y-19454819D01*
X173148094Y-19454819D02*
X172909999Y-19454819D01*
X172909999Y-19454819D02*
X172814761Y-19502438D01*
X172814761Y-19502438D02*
X172767142Y-19550057D01*
X172767142Y-19550057D02*
X172719523Y-19645295D01*
X172719523Y-19645295D02*
X172719523Y-19740533D01*
X172719523Y-19740533D02*
X172767142Y-19883390D01*
X172767142Y-19883390D02*
X173338570Y-20454819D01*
X173338570Y-20454819D02*
X172719523Y-20454819D01*
X172338570Y-19550057D02*
X172290951Y-19502438D01*
X172290951Y-19502438D02*
X172195713Y-19454819D01*
X172195713Y-19454819D02*
X171957618Y-19454819D01*
X171957618Y-19454819D02*
X171862380Y-19502438D01*
X171862380Y-19502438D02*
X171814761Y-19550057D01*
X171814761Y-19550057D02*
X171767142Y-19645295D01*
X171767142Y-19645295D02*
X171767142Y-19740533D01*
X171767142Y-19740533D02*
X171814761Y-19883390D01*
X171814761Y-19883390D02*
X172386189Y-20454819D01*
X172386189Y-20454819D02*
X171767142Y-20454819D01*
X171148094Y-19454819D02*
X171052856Y-19454819D01*
X171052856Y-19454819D02*
X170957618Y-19502438D01*
X170957618Y-19502438D02*
X170909999Y-19550057D01*
X170909999Y-19550057D02*
X170862380Y-19645295D01*
X170862380Y-19645295D02*
X170814761Y-19835771D01*
X170814761Y-19835771D02*
X170814761Y-20073866D01*
X170814761Y-20073866D02*
X170862380Y-20264342D01*
X170862380Y-20264342D02*
X170909999Y-20359580D01*
X170909999Y-20359580D02*
X170957618Y-20407200D01*
X170957618Y-20407200D02*
X171052856Y-20454819D01*
X171052856Y-20454819D02*
X171148094Y-20454819D01*
X171148094Y-20454819D02*
X171243332Y-20407200D01*
X171243332Y-20407200D02*
X171290951Y-20359580D01*
X171290951Y-20359580D02*
X171338570Y-20264342D01*
X171338570Y-20264342D02*
X171386189Y-20073866D01*
X171386189Y-20073866D02*
X171386189Y-19835771D01*
X171386189Y-19835771D02*
X171338570Y-19645295D01*
X171338570Y-19645295D02*
X171290951Y-19550057D01*
X171290951Y-19550057D02*
X171243332Y-19502438D01*
X171243332Y-19502438D02*
X171148094Y-19454819D01*
X170386189Y-20454819D02*
X170386189Y-19454819D01*
X169814761Y-20454819D02*
X170243332Y-19883390D01*
X169814761Y-19454819D02*
X170386189Y-20026247D01*
D12*
G04 #@! TO.C,74AHCT125 *
X145847500Y-49325000D02*
X147000000Y-49325000D01*
X145847500Y-55675000D02*
X145847500Y-49325000D01*
X147000000Y-55675000D02*
X145847500Y-55675000D01*
X165152500Y-49325000D02*
X164000000Y-49325000D01*
X165152500Y-55675000D02*
X165152500Y-49325000D01*
X164000000Y-55675000D02*
X165152500Y-55675000D01*
D11*
X165152500Y-53992307D02*
G75*
G02*
X165152500Y-51000001I-3657J1496153D01*
G01*
D13*
G04 #@! TO.C,10K LED_MOSFET*
X173980000Y-43380000D02*
X175820000Y-43380000D01*
X173980000Y-47220000D02*
X173980000Y-43380000D01*
X174900000Y-42430000D02*
X174900000Y-43380000D01*
X174900000Y-48170000D02*
X174900000Y-47220000D01*
X175820000Y-43380000D02*
X175820000Y-47220000D01*
X175820000Y-47220000D02*
X173980000Y-47220000D01*
G04 #@! TO.C,R2 20K*
X158430000Y-18100000D02*
X159380000Y-18100000D01*
X159380000Y-17180000D02*
X163220000Y-17180000D01*
X159380000Y-19020000D02*
X159380000Y-17180000D01*
X163220000Y-17180000D02*
X163220000Y-19020000D01*
X163220000Y-19020000D02*
X159380000Y-19020000D01*
X164170000Y-18100000D02*
X163220000Y-18100000D01*
G04 #@! TO.C,330 LED_DATA_R*
X176630000Y-57500000D02*
X177580000Y-57500000D01*
X177580000Y-56580000D02*
X181420000Y-56580000D01*
X177580000Y-58420000D02*
X177580000Y-56580000D01*
X181420000Y-56580000D02*
X181420000Y-58420000D01*
X181420000Y-58420000D02*
X177580000Y-58420000D01*
X182370000Y-57500000D02*
X181420000Y-57500000D01*
G04 #@! TO.C,R1 220K*
X170040000Y-18100000D02*
X170990000Y-18100000D01*
X170990000Y-17180000D02*
X174830000Y-17180000D01*
X170990000Y-19020000D02*
X170990000Y-17180000D01*
X174830000Y-17180000D02*
X174830000Y-19020000D01*
X174830000Y-19020000D02*
X170990000Y-19020000D01*
X175780000Y-18100000D02*
X174830000Y-18100000D01*
G04 #@! TD*
%LPC*%
D14*
G04 #@! TO.C,74AHCT125 *
X163120000Y-48530000D03*
X160580000Y-48530000D03*
X158040000Y-48530000D03*
X155500000Y-48530000D03*
X152960000Y-48530000D03*
X150420000Y-48530000D03*
X147880000Y-48530000D03*
X147880000Y-56470000D03*
X150420000Y-56470000D03*
X152960000Y-56470000D03*
X163120000Y-56470000D03*
X160580000Y-56470000D03*
X158040000Y-56470000D03*
X155500000Y-56470000D03*
G04 #@! TD*
D15*
G04 #@! TO.C,BackBtn*
X132300000Y-84200000D03*
X124340000Y-79700000D03*
X132300000Y-79700000D03*
X124340000Y-84200000D03*
G04 #@! TD*
D16*
G04 #@! TO.C,OLED*
X167940000Y-69100000D03*
X165400000Y-69100000D03*
X170480000Y-69100000D03*
X173020000Y-69100000D03*
G04 #@! TD*
D17*
G04 #@! TO.C,LED_EN_MOSFET*
X180322500Y-41475000D03*
D18*
X180322500Y-44015000D03*
X180322500Y-46555000D03*
G04 #@! TD*
D19*
G04 #@! TO.C,LEDConnector*
X188800000Y-55060000D03*
D20*
X188800000Y-57600000D03*
X188800000Y-60140000D03*
G04 #@! TD*
D16*
G04 #@! TO.C,4005-DCDC*
X144200000Y-35300000D03*
X144200000Y-18100000D03*
X184400000Y-35300000D03*
X184400000Y-18100000D03*
G04 #@! TD*
D19*
G04 #@! TO.C,EInkConnector*
X152540000Y-89800000D03*
D20*
X150000000Y-89800000D03*
X147460000Y-89800000D03*
X144920000Y-89800000D03*
X142380000Y-89800000D03*
X139840000Y-89800000D03*
X137300000Y-89800000D03*
X134760000Y-89800000D03*
G04 #@! TD*
D19*
G04 #@! TO.C,BATT-*
X195200000Y-23300000D03*
D20*
X195200000Y-20760000D03*
G04 #@! TD*
D21*
G04 #@! TO.C,SwitchOnOff*
X190500000Y-32700000D03*
D16*
X190500000Y-35240000D03*
X190500000Y-30160000D03*
G04 #@! TD*
D22*
G04 #@! TO.C,ESP32*
X170020000Y-39800000D03*
D23*
X167480000Y-39800000D03*
X164940000Y-39800000D03*
X162400000Y-39800000D03*
X159860000Y-39800000D03*
X157320000Y-39800000D03*
X154780000Y-39800000D03*
X152240000Y-39800000D03*
X149700000Y-39800000D03*
X147160000Y-39800000D03*
X144620000Y-39800000D03*
X142080000Y-39800000D03*
X139540000Y-39800000D03*
X137000000Y-39800000D03*
X134460000Y-39800000D03*
X131920000Y-39800000D03*
X129380000Y-39800000D03*
X126840000Y-39800000D03*
X124300000Y-39800000D03*
X124302720Y-65196320D03*
X126842720Y-65196320D03*
X129380000Y-65200000D03*
X131920000Y-65200000D03*
X134460000Y-65200000D03*
X137000000Y-65200000D03*
X139540000Y-65200000D03*
X142080000Y-65200000D03*
X144620000Y-65200000D03*
X147160000Y-65200000D03*
X149700000Y-65200000D03*
X152240000Y-65200000D03*
X154780000Y-65200000D03*
X157320000Y-65200000D03*
X159860000Y-65200000D03*
X162400000Y-65200000D03*
X164940000Y-65200000D03*
X167480000Y-65200000D03*
X170020000Y-65200000D03*
G04 #@! TD*
D15*
G04 #@! TO.C,DownBtn*
X143300000Y-84200000D03*
X135340000Y-79700000D03*
X143300000Y-79700000D03*
X135340000Y-84200000D03*
G04 #@! TD*
G04 #@! TO.C,UpBtn*
X135340000Y-70700000D03*
X143300000Y-70700000D03*
X135340000Y-75200000D03*
X143300000Y-75200000D03*
G04 #@! TD*
G04 #@! TO.C,EnterBtn*
X154300000Y-84200000D03*
X146340000Y-79700000D03*
X154300000Y-79700000D03*
X146340000Y-84200000D03*
G04 #@! TD*
D16*
G04 #@! TO.C,SDCardReader*
X125480000Y-34920000D03*
X128020000Y-34920000D03*
X130560000Y-34920000D03*
X133100000Y-34920000D03*
X135640000Y-34920000D03*
X138180000Y-34920000D03*
G04 #@! TD*
D14*
G04 #@! TO.C,10K LED_MOSFET*
X174900000Y-49110000D03*
D24*
X174900000Y-41490000D03*
G04 #@! TD*
D14*
G04 #@! TO.C,R2 20K*
X165110000Y-18100000D03*
D24*
X157490000Y-18100000D03*
G04 #@! TD*
D14*
G04 #@! TO.C,330 LED_DATA_R*
X183310000Y-57500000D03*
D24*
X175690000Y-57500000D03*
G04 #@! TD*
D14*
G04 #@! TO.C,R1 220K*
X176720000Y-18100000D03*
D24*
X169100000Y-18100000D03*
G04 #@! TD*
%LPD*%
M02*
